%TF.GenerationSoftware,KiCad,Pcbnew,7.0.7*%
%TF.CreationDate,2023-12-03T17:34:17+00:00*%
%TF.ProjectId,tundraIOExpansion,74756e64-7261-4494-9f45-7870616e7369,rev?*%
%TF.SameCoordinates,Original*%
%TF.FileFunction,Copper,L1,Top*%
%TF.FilePolarity,Positive*%
%FSLAX46Y46*%
G04 Gerber Fmt 4.6, Leading zero omitted, Abs format (unit mm)*
G04 Created by KiCad (PCBNEW 7.0.7) date 2023-12-03 17:34:17*
%MOMM*%
%LPD*%
G01*
G04 APERTURE LIST*
G04 Aperture macros list*
%AMRoundRect*
0 Rectangle with rounded corners*
0 $1 Rounding radius*
0 $2 $3 $4 $5 $6 $7 $8 $9 X,Y pos of 4 corners*
0 Add a 4 corners polygon primitive as box body*
4,1,4,$2,$3,$4,$5,$6,$7,$8,$9,$2,$3,0*
0 Add four circle primitives for the rounded corners*
1,1,$1+$1,$2,$3*
1,1,$1+$1,$4,$5*
1,1,$1+$1,$6,$7*
1,1,$1+$1,$8,$9*
0 Add four rect primitives between the rounded corners*
20,1,$1+$1,$2,$3,$4,$5,0*
20,1,$1+$1,$4,$5,$6,$7,0*
20,1,$1+$1,$6,$7,$8,$9,0*
20,1,$1+$1,$8,$9,$2,$3,0*%
%AMRotRect*
0 Rectangle, with rotation*
0 The origin of the aperture is its center*
0 $1 length*
0 $2 width*
0 $3 Rotation angle, in degrees counterclockwise*
0 Add horizontal line*
21,1,$1,$2,0,0,$3*%
G04 Aperture macros list end*
%TA.AperFunction,SMDPad,CuDef*%
%ADD10RoundRect,0.135000X0.226274X0.035355X0.035355X0.226274X-0.226274X-0.035355X-0.035355X-0.226274X0*%
%TD*%
%TA.AperFunction,SMDPad,CuDef*%
%ADD11RoundRect,0.135000X0.035355X-0.226274X0.226274X-0.035355X-0.035355X0.226274X-0.226274X0.035355X0*%
%TD*%
%TA.AperFunction,SMDPad,CuDef*%
%ADD12RoundRect,0.135000X-0.035355X0.226274X-0.226274X0.035355X0.035355X-0.226274X0.226274X-0.035355X0*%
%TD*%
%TA.AperFunction,SMDPad,CuDef*%
%ADD13RoundRect,0.150000X-0.650000X-0.150000X0.650000X-0.150000X0.650000X0.150000X-0.650000X0.150000X0*%
%TD*%
%TA.AperFunction,SMDPad,CuDef*%
%ADD14RoundRect,0.135000X-0.135000X-0.185000X0.135000X-0.185000X0.135000X0.185000X-0.135000X0.185000X0*%
%TD*%
%TA.AperFunction,SMDPad,CuDef*%
%ADD15RoundRect,0.150000X-0.150000X-0.625000X0.150000X-0.625000X0.150000X0.625000X-0.150000X0.625000X0*%
%TD*%
%TA.AperFunction,SMDPad,CuDef*%
%ADD16RoundRect,0.250000X-0.350000X-0.650000X0.350000X-0.650000X0.350000X0.650000X-0.350000X0.650000X0*%
%TD*%
%TA.AperFunction,SMDPad,CuDef*%
%ADD17RoundRect,0.140000X-0.219203X-0.021213X-0.021213X-0.219203X0.219203X0.021213X0.021213X0.219203X0*%
%TD*%
%TA.AperFunction,ConnectorPad*%
%ADD18C,0.787400*%
%TD*%
%TA.AperFunction,SMDPad,CuDef*%
%ADD19RoundRect,0.140000X0.021213X-0.219203X0.219203X-0.021213X-0.021213X0.219203X-0.219203X0.021213X0*%
%TD*%
%TA.AperFunction,SMDPad,CuDef*%
%ADD20RoundRect,0.135000X0.185000X-0.135000X0.185000X0.135000X-0.185000X0.135000X-0.185000X-0.135000X0*%
%TD*%
%TA.AperFunction,SMDPad,CuDef*%
%ADD21RoundRect,0.050000X-0.309359X0.238649X0.238649X-0.309359X0.309359X-0.238649X-0.238649X0.309359X0*%
%TD*%
%TA.AperFunction,SMDPad,CuDef*%
%ADD22RoundRect,0.050000X-0.309359X-0.238649X-0.238649X-0.309359X0.309359X0.238649X0.238649X0.309359X0*%
%TD*%
%TA.AperFunction,SMDPad,CuDef*%
%ADD23RotRect,3.200000X3.200000X315.000000*%
%TD*%
%TA.AperFunction,SMDPad,CuDef*%
%ADD24RoundRect,0.150000X-0.625000X0.150000X-0.625000X-0.150000X0.625000X-0.150000X0.625000X0.150000X0*%
%TD*%
%TA.AperFunction,SMDPad,CuDef*%
%ADD25RoundRect,0.250000X-0.650000X0.350000X-0.650000X-0.350000X0.650000X-0.350000X0.650000X0.350000X0*%
%TD*%
%TA.AperFunction,SMDPad,CuDef*%
%ADD26RoundRect,0.150000X0.150000X0.625000X-0.150000X0.625000X-0.150000X-0.625000X0.150000X-0.625000X0*%
%TD*%
%TA.AperFunction,SMDPad,CuDef*%
%ADD27RoundRect,0.250000X0.350000X0.650000X-0.350000X0.650000X-0.350000X-0.650000X0.350000X-0.650000X0*%
%TD*%
%TA.AperFunction,SMDPad,CuDef*%
%ADD28RoundRect,0.140000X-0.021213X0.219203X-0.219203X0.021213X0.021213X-0.219203X0.219203X-0.021213X0*%
%TD*%
%TA.AperFunction,SMDPad,CuDef*%
%ADD29RoundRect,0.140000X0.140000X0.170000X-0.140000X0.170000X-0.140000X-0.170000X0.140000X-0.170000X0*%
%TD*%
%TA.AperFunction,SMDPad,CuDef*%
%ADD30RoundRect,0.135000X0.135000X0.185000X-0.135000X0.185000X-0.135000X-0.185000X0.135000X-0.185000X0*%
%TD*%
%TA.AperFunction,SMDPad,CuDef*%
%ADD31RotRect,1.400000X1.200000X225.000000*%
%TD*%
%TA.AperFunction,SMDPad,CuDef*%
%ADD32RoundRect,0.140000X-0.170000X0.140000X-0.170000X-0.140000X0.170000X-0.140000X0.170000X0.140000X0*%
%TD*%
%TA.AperFunction,SMDPad,CuDef*%
%ADD33R,0.300000X0.800000*%
%TD*%
%TA.AperFunction,SMDPad,CuDef*%
%ADD34R,0.300000X0.650000*%
%TD*%
%TA.AperFunction,SMDPad,CuDef*%
%ADD35RoundRect,0.150000X0.625000X-0.150000X0.625000X0.150000X-0.625000X0.150000X-0.625000X-0.150000X0*%
%TD*%
%TA.AperFunction,SMDPad,CuDef*%
%ADD36RoundRect,0.250000X0.650000X-0.350000X0.650000X0.350000X-0.650000X0.350000X-0.650000X-0.350000X0*%
%TD*%
%TA.AperFunction,SMDPad,CuDef*%
%ADD37R,0.675000X0.254000*%
%TD*%
%TA.AperFunction,SMDPad,CuDef*%
%ADD38R,0.254000X0.675000*%
%TD*%
%TA.AperFunction,SMDPad,CuDef*%
%ADD39R,1.100000X0.600000*%
%TD*%
%TA.AperFunction,ViaPad*%
%ADD40C,0.500000*%
%TD*%
%TA.AperFunction,Conductor*%
%ADD41C,0.127000*%
%TD*%
G04 APERTURE END LIST*
D10*
%TO.P,R10,1*%
%TO.N,Net-(U4-~{CS})*%
X132980624Y-72320624D03*
%TO.P,R10,2*%
%TO.N,Net-(USB2-Pin_4)*%
X132259376Y-71599376D03*
%TD*%
D11*
%TO.P,R9,1*%
%TO.N,Net-(U1-QSPI_SS)*%
X150149376Y-72610624D03*
%TO.P,R9,2*%
%TO.N,Net-(USB1-Pin_4)*%
X150870624Y-71889376D03*
%TD*%
D12*
%TO.P,R1,1*%
%TO.N,+3V3*%
X155937668Y-76955050D03*
%TO.P,R1,2*%
%TO.N,Net-(U1-ADC_AVDD)*%
X155216420Y-77676298D03*
%TD*%
D13*
%TO.P,U2,1,~{CS}*%
%TO.N,Net-(U1-QSPI_SS)*%
X146970000Y-65845000D03*
%TO.P,U2,2,SO/SIO1*%
%TO.N,Net-(U1-QSPI_SD1)*%
X146970000Y-67115000D03*
%TO.P,U2,3,~{WP}/SIO2*%
%TO.N,Net-(U1-QSPI_SD2)*%
X146970000Y-68385000D03*
%TO.P,U2,4,GND*%
%TO.N,GND*%
X146970000Y-69655000D03*
%TO.P,U2,5,SI/SIO0*%
%TO.N,Net-(U1-QSPI_SD0)*%
X154170000Y-69655000D03*
%TO.P,U2,6,SCLK*%
%TO.N,Net-(U1-QSPI_SCLK)*%
X154170000Y-68385000D03*
%TO.P,U2,7,~{HOLD}/SIO3*%
%TO.N,Net-(U1-QSPI_SD3)*%
X154170000Y-67115000D03*
%TO.P,U2,8,VCC*%
%TO.N,+3V3*%
X154170000Y-65845000D03*
%TD*%
D14*
%TO.P,R6,1*%
%TO.N,+3V3*%
X126170000Y-72577500D03*
%TO.P,R6,2*%
%TO.N,Net-(FINGER5L1-Pin_3)*%
X127190000Y-72577500D03*
%TD*%
D15*
%TO.P,USB2,1,Pin_1*%
%TO.N,GND*%
X128730000Y-87710000D03*
%TO.P,USB2,2,Pin_2*%
%TO.N,Net-(U5-USB_DM)*%
X129730000Y-87710000D03*
%TO.P,USB2,3,Pin_3*%
%TO.N,Net-(U5-USB_DP)*%
X130730000Y-87710000D03*
%TO.P,USB2,4,Pin_4*%
%TO.N,Net-(USB2-Pin_4)*%
X131730000Y-87710000D03*
D16*
%TO.P,USB2,MP*%
%TO.N,N/C*%
X127430000Y-91585000D03*
X133030000Y-91585000D03*
%TD*%
D15*
%TO.P,USB1,1,Pin_1*%
%TO.N,GND*%
X146130000Y-87720000D03*
%TO.P,USB1,2,Pin_2*%
%TO.N,Net-(U1-USB_DM)*%
X147130000Y-87720000D03*
%TO.P,USB1,3,Pin_3*%
%TO.N,Net-(U1-USB_DP)*%
X148130000Y-87720000D03*
%TO.P,USB1,4,Pin_4*%
%TO.N,Net-(USB1-Pin_4)*%
X149130000Y-87720000D03*
D16*
%TO.P,USB1,MP*%
%TO.N,N/C*%
X144830000Y-91595000D03*
X150430000Y-91595000D03*
%TD*%
D17*
%TO.P,C11,1*%
%TO.N,Net-(U1-XIN)*%
X143860589Y-80010589D03*
%TO.P,C11,2*%
%TO.N,GND*%
X144539411Y-80689411D03*
%TD*%
D18*
%TO.P,J3,1,VCC*%
%TO.N,+3V3*%
X121560000Y-91645000D03*
%TO.P,J3,2,SWDIO*%
%TO.N,Net-(J3-SWDIO)*%
X121560000Y-90375000D03*
%TO.P,J3,3,~{RESET}*%
%TO.N,Net-(J3-~{RESET})*%
X122830000Y-91645000D03*
%TO.P,J3,4,SWCLK*%
%TO.N,Net-(J3-SWCLK)*%
X122830000Y-90375000D03*
%TO.P,J3,5,GND*%
%TO.N,GND*%
X124100000Y-91645000D03*
%TO.P,J3,6,SWO*%
%TO.N,unconnected-(J3-SWO-Pad6)*%
X124100000Y-90375000D03*
%TD*%
D19*
%TO.P,C28,1*%
%TO.N,Net-(U5-ADC_AVDD)*%
X139184060Y-77007299D03*
%TO.P,C28,2*%
%TO.N,GND*%
X139862882Y-76328477D03*
%TD*%
D20*
%TO.P,R4,1*%
%TO.N,+3V3*%
X123720000Y-69670000D03*
%TO.P,R4,2*%
%TO.N,Net-(U3-NRST)*%
X123720000Y-68650000D03*
%TD*%
D21*
%TO.P,U1,1,IOVDD*%
%TO.N,+3V3*%
X148494213Y-73705787D03*
%TO.P,U1,2,GPIO0*%
%TO.N,Net-(FINGER1-Pin_3)*%
X148211370Y-73988630D03*
%TO.P,U1,3,GPIO1*%
%TO.N,Net-(FINGER1-Pin_2)*%
X147928528Y-74271472D03*
%TO.P,U1,4,GPIO2*%
%TO.N,Net-(FINGER3-Pin_3)*%
X147645685Y-74554315D03*
%TO.P,U1,5,GPIO3*%
%TO.N,Net-(FINGER3-Pin_2)*%
X147362842Y-74837158D03*
%TO.P,U1,6,GPIO4*%
%TO.N,INTER_RP2040_UART_TX1*%
X147080000Y-75120000D03*
%TO.P,U1,7,GPIO5*%
%TO.N,INTER_RP2040_UART_RX1*%
X146797157Y-75402843D03*
%TO.P,U1,8,GPIO6*%
%TO.N,unconnected-(U1-GPIO6-Pad8)*%
X146514314Y-75685686D03*
%TO.P,U1,9,GPIO7*%
%TO.N,unconnected-(U1-GPIO7-Pad9)*%
X146231471Y-75968529D03*
%TO.P,U1,10,IOVDD*%
%TO.N,+3V3*%
X145948629Y-76251371D03*
%TO.P,U1,11,GPIO8*%
%TO.N,unconnected-(U1-GPIO8-Pad11)*%
X145665786Y-76534214D03*
%TO.P,U1,12,GPIO9*%
%TO.N,unconnected-(U1-GPIO9-Pad12)*%
X145382943Y-76817057D03*
%TO.P,U1,13,GPIO10*%
%TO.N,unconnected-(U1-GPIO10-Pad13)*%
X145100101Y-77099899D03*
%TO.P,U1,14,GPIO11*%
%TO.N,unconnected-(U1-GPIO11-Pad14)*%
X144817258Y-77382742D03*
D22*
%TO.P,U1,15,GPIO12*%
%TO.N,D12-MI_MISO*%
X144817258Y-78567146D03*
%TO.P,U1,16,GPIO13*%
%TO.N,D10-MI_CS*%
X145100101Y-78849989D03*
%TO.P,U1,17,GPIO14*%
%TO.N,D13-MI_SCLK*%
X145382943Y-79132831D03*
%TO.P,U1,18,GPIO15*%
%TO.N,D11-MI_MOSI*%
X145665786Y-79415674D03*
%TO.P,U1,19,TESTEN*%
%TO.N,GND*%
X145948629Y-79698517D03*
%TO.P,U1,20,XIN*%
%TO.N,Net-(U1-XIN)*%
X146231471Y-79981359D03*
%TO.P,U1,21,XOUT*%
%TO.N,Net-(U1-XOUT)*%
X146514314Y-80264202D03*
%TO.P,U1,22,IOVDD*%
%TO.N,+3V3*%
X146797157Y-80547045D03*
%TO.P,U1,23,DVDD*%
%TO.N,Net-(U1-VREG_VOUT)*%
X147080000Y-80829888D03*
%TO.P,U1,24,SWCLK*%
%TO.N,Net-(J2-SWCLK)*%
X147362842Y-81112730D03*
%TO.P,U1,25,SWD*%
%TO.N,Net-(J2-SWDIO)*%
X147645685Y-81395573D03*
%TO.P,U1,26,RUN*%
%TO.N,Net-(J2-~{RESET})*%
X147928528Y-81678416D03*
%TO.P,U1,27,GPIO16*%
%TO.N,unconnected-(U1-GPIO16-Pad27)*%
X148211370Y-81961258D03*
%TO.P,U1,28,GPIO17*%
%TO.N,unconnected-(U1-GPIO17-Pad28)*%
X148494213Y-82244101D03*
D21*
%TO.P,U1,29,GPIO18*%
%TO.N,unconnected-(U1-GPIO18-Pad29)*%
X149678617Y-82244101D03*
%TO.P,U1,30,GPIO19*%
%TO.N,unconnected-(U1-GPIO19-Pad30)*%
X149961460Y-81961258D03*
%TO.P,U1,31,GPIO20*%
%TO.N,unconnected-(U1-GPIO20-Pad31)*%
X150244302Y-81678416D03*
%TO.P,U1,32,GPIO21*%
%TO.N,unconnected-(U1-GPIO21-Pad32)*%
X150527145Y-81395573D03*
%TO.P,U1,33,IOVDD*%
%TO.N,+3V3*%
X150809988Y-81112730D03*
%TO.P,U1,34,GPIO22*%
%TO.N,unconnected-(U1-GPIO22-Pad34)*%
X151092830Y-80829888D03*
%TO.P,U1,35,GPIO23*%
%TO.N,unconnected-(U1-GPIO23-Pad35)*%
X151375673Y-80547045D03*
%TO.P,U1,36,GPIO24*%
%TO.N,unconnected-(U1-GPIO24-Pad36)*%
X151658516Y-80264202D03*
%TO.P,U1,37,GPIO25*%
%TO.N,unconnected-(U1-GPIO25-Pad37)*%
X151941359Y-79981359D03*
%TO.P,U1,38,GPIO26_ADC0*%
%TO.N,unconnected-(U1-GPIO26_ADC0-Pad38)*%
X152224201Y-79698517D03*
%TO.P,U1,39,GPIO27_ADC1*%
%TO.N,unconnected-(U1-GPIO27_ADC1-Pad39)*%
X152507044Y-79415674D03*
%TO.P,U1,40,GPIO28_ADC2*%
%TO.N,unconnected-(U1-GPIO28_ADC2-Pad40)*%
X152789887Y-79132831D03*
%TO.P,U1,41,GPIO29_ADC3*%
%TO.N,unconnected-(U1-GPIO29_ADC3-Pad41)*%
X153072729Y-78849989D03*
%TO.P,U1,42,IOVDD*%
%TO.N,+3V3*%
X153355572Y-78567146D03*
D22*
%TO.P,U1,43,ADC_AVDD*%
%TO.N,Net-(U1-ADC_AVDD)*%
X153355572Y-77382742D03*
%TO.P,U1,44,VREG_IN*%
%TO.N,+3V3*%
X153072729Y-77099899D03*
%TO.P,U1,45,VREG_VOUT*%
%TO.N,Net-(U1-VREG_VOUT)*%
X152789887Y-76817057D03*
%TO.P,U1,46,USB_DM*%
%TO.N,Net-(U1-USB_DM)*%
X152507044Y-76534214D03*
%TO.P,U1,47,USB_DP*%
%TO.N,Net-(U1-USB_DP)*%
X152224201Y-76251371D03*
%TO.P,U1,48,USB_VDD*%
%TO.N,+3V3*%
X151941359Y-75968529D03*
%TO.P,U1,49,IOVDD*%
X151658516Y-75685686D03*
%TO.P,U1,50,DVDD*%
%TO.N,Net-(U1-VREG_VOUT)*%
X151375673Y-75402843D03*
%TO.P,U1,51,QSPI_SD3*%
%TO.N,Net-(U1-QSPI_SD3)*%
X151092830Y-75120000D03*
%TO.P,U1,52,QSPI_SCLK*%
%TO.N,Net-(U1-QSPI_SCLK)*%
X150809988Y-74837158D03*
%TO.P,U1,53,QSPI_SD0*%
%TO.N,Net-(U1-QSPI_SD0)*%
X150527145Y-74554315D03*
%TO.P,U1,54,QSPI_SD2*%
%TO.N,Net-(U1-QSPI_SD2)*%
X150244302Y-74271472D03*
%TO.P,U1,55,QSPI_SD1*%
%TO.N,Net-(U1-QSPI_SD1)*%
X149961460Y-73988630D03*
%TO.P,U1,56,QSPI_SS*%
%TO.N,Net-(U1-QSPI_SS)*%
X149678617Y-73705787D03*
D23*
%TO.P,U1,57,GND*%
%TO.N,GND*%
X149086415Y-77974944D03*
%TD*%
D19*
%TO.P,C10,1*%
%TO.N,Net-(U1-ADC_AVDD)*%
X154567633Y-77005085D03*
%TO.P,C10,2*%
%TO.N,GND*%
X155246455Y-76326263D03*
%TD*%
%TO.P,C6,1*%
%TO.N,+3V3*%
X153290589Y-74329411D03*
%TO.P,C6,2*%
%TO.N,GND*%
X153969411Y-73650589D03*
%TD*%
D18*
%TO.P,J2,1,VCC*%
%TO.N,+3V3*%
X156300000Y-90375000D03*
%TO.P,J2,2,SWDIO*%
%TO.N,Net-(J2-SWDIO)*%
X156300000Y-91645000D03*
%TO.P,J2,3,~{RESET}*%
%TO.N,Net-(J2-~{RESET})*%
X155030000Y-90375000D03*
%TO.P,J2,4,SWCLK*%
%TO.N,Net-(J2-SWCLK)*%
X155030000Y-91645000D03*
%TO.P,J2,5,GND*%
%TO.N,GND*%
X153760000Y-90375000D03*
%TO.P,J2,6,SWO*%
%TO.N,unconnected-(J2-SWO-Pad6)*%
X153760000Y-91645000D03*
%TD*%
D24*
%TO.P,FINGER5R1,1,Pin_1*%
%TO.N,GND*%
X121140000Y-83390000D03*
%TO.P,FINGER5R1,2,Pin_2*%
%TO.N,Net-(FINGER5L1-Pin_2)*%
X121140000Y-84390000D03*
%TO.P,FINGER5R1,3,Pin_3*%
%TO.N,Net-(FINGER5L1-Pin_3)*%
X121140000Y-85390000D03*
%TO.P,FINGER5R1,4,Pin_4*%
%TO.N,+3V3*%
X121140000Y-86390000D03*
D25*
%TO.P,FINGER5R1,MP*%
%TO.N,N/C*%
X117265000Y-82090000D03*
X117265000Y-87690000D03*
%TD*%
D11*
%TO.P,R2,1*%
%TO.N,Net-(C12-Pad1)*%
X144239376Y-82270624D03*
%TO.P,R2,2*%
%TO.N,Net-(U1-XOUT)*%
X144960624Y-81549376D03*
%TD*%
D26*
%TO.P,FingerAux1,1,Pin_1*%
%TO.N,Net-(FingerAux1-Pin_1)*%
X126860000Y-61955000D03*
%TO.P,FingerAux1,2,Pin_2*%
%TO.N,Net-(FingerAux1-Pin_2)*%
X125860000Y-61955000D03*
%TO.P,FingerAux1,3,Pin_3*%
%TO.N,Net-(FingerAux1-Pin_3)*%
X124860000Y-61955000D03*
%TO.P,FingerAux1,4,Pin_4*%
%TO.N,Net-(FingerAux1-Pin_4)*%
X123860000Y-61955000D03*
%TO.P,FingerAux1,5,Pin_5*%
%TO.N,Net-(FingerAux1-Pin_5)*%
X122860000Y-61955000D03*
%TO.P,FingerAux1,6,Pin_6*%
%TO.N,Net-(FingerAux1-Pin_6)*%
X121860000Y-61955000D03*
%TO.P,FingerAux1,7,Pin_7*%
%TO.N,Net-(FingerAux1-Pin_7)*%
X120860000Y-61955000D03*
%TO.P,FingerAux1,8,Pin_8*%
%TO.N,Net-(FingerAux1-Pin_8)*%
X119860000Y-61955000D03*
D27*
%TO.P,FingerAux1,MP*%
%TO.N,N/C*%
X128160000Y-58080000D03*
X118560000Y-58080000D03*
%TD*%
D26*
%TO.P,FINGER4,1,Pin_1*%
%TO.N,GND*%
X158060000Y-61955000D03*
%TO.P,FINGER4,2,Pin_2*%
%TO.N,Net-(FINGER3-Pin_2)*%
X157060000Y-61955000D03*
%TO.P,FINGER4,3,Pin_3*%
%TO.N,Net-(FINGER3-Pin_3)*%
X156060000Y-61955000D03*
%TO.P,FINGER4,4,Pin_4*%
%TO.N,+3V3*%
X155060000Y-61955000D03*
D27*
%TO.P,FINGER4,MP*%
%TO.N,N/C*%
X159360000Y-58080000D03*
X153760000Y-58080000D03*
%TD*%
D28*
%TO.P,C25,1*%
%TO.N,Net-(U5-VREG_VOUT)*%
X130809411Y-82990589D03*
%TO.P,C25,2*%
%TO.N,GND*%
X130130589Y-83669411D03*
%TD*%
D19*
%TO.P,C3,1*%
%TO.N,+3V3*%
X151617633Y-81925085D03*
%TO.P,C3,2*%
%TO.N,GND*%
X152296455Y-81246263D03*
%TD*%
%TO.P,C18,1*%
%TO.N,+3V3*%
X139780589Y-79059411D03*
%TO.P,C18,2*%
%TO.N,GND*%
X140459411Y-78380589D03*
%TD*%
D29*
%TO.P,C16,1*%
%TO.N,Net-(U3-XIN32)*%
X130080000Y-66597500D03*
%TO.P,C16,2*%
%TO.N,GND*%
X129120000Y-66597500D03*
%TD*%
D19*
%TO.P,C27,1*%
%TO.N,Net-(U5-VREG_VOUT)*%
X137400589Y-73539411D03*
%TO.P,C27,2*%
%TO.N,GND*%
X138079411Y-72860589D03*
%TD*%
D28*
%TO.P,C8,1*%
%TO.N,Net-(U1-VREG_VOUT)*%
X146229411Y-82910589D03*
%TO.P,C8,2*%
%TO.N,GND*%
X145550589Y-83589411D03*
%TD*%
D29*
%TO.P,C13,1*%
%TO.N,GND*%
X129120000Y-65677500D03*
%TO.P,C13,2*%
%TO.N,+3V3*%
X128160000Y-65677500D03*
%TD*%
D30*
%TO.P,R5,1*%
%TO.N,+3V3*%
X130130000Y-71050000D03*
%TO.P,R5,2*%
%TO.N,Net-(FINGER5L1-Pin_2)*%
X129110000Y-71050000D03*
%TD*%
D28*
%TO.P,C22,1*%
%TO.N,+3V3*%
X130159411Y-82330589D03*
%TO.P,C22,2*%
%TO.N,GND*%
X129480589Y-83009411D03*
%TD*%
D19*
%TO.P,C26,1*%
%TO.N,+3V3*%
X138060589Y-74189411D03*
%TO.P,C26,2*%
%TO.N,GND*%
X138739411Y-73510589D03*
%TD*%
D28*
%TO.P,C20,1*%
%TO.N,+3V3*%
X136259411Y-81960589D03*
%TO.P,C20,2*%
%TO.N,GND*%
X135580589Y-82639411D03*
%TD*%
D31*
%TO.P,Y1,1,1*%
%TO.N,Net-(U1-XIN)*%
X141856777Y-80381142D03*
%TO.P,Y1,2,2*%
%TO.N,GND*%
X140301142Y-81936777D03*
%TO.P,Y1,3,3*%
%TO.N,Net-(C12-Pad1)*%
X141503223Y-83138858D03*
%TO.P,Y1,4,4*%
%TO.N,GND*%
X143058858Y-81583223D03*
%TD*%
D26*
%TO.P,FINGER1,1,Pin_1*%
%TO.N,GND*%
X134660000Y-61955000D03*
%TO.P,FINGER1,2,Pin_2*%
%TO.N,Net-(FINGER1-Pin_2)*%
X133660000Y-61955000D03*
%TO.P,FINGER1,3,Pin_3*%
%TO.N,Net-(FINGER1-Pin_3)*%
X132660000Y-61955000D03*
%TO.P,FINGER1,4,Pin_4*%
%TO.N,+3V3*%
X131660000Y-61955000D03*
D27*
%TO.P,FINGER1,MP*%
%TO.N,N/C*%
X135960000Y-58080000D03*
X130360000Y-58080000D03*
%TD*%
D32*
%TO.P,C14,1*%
%TO.N,GND*%
X123730000Y-66547500D03*
%TO.P,C14,2*%
%TO.N,Net-(U3-CAP)*%
X123730000Y-67507500D03*
%TD*%
D19*
%TO.P,C9,1*%
%TO.N,Net-(U1-VREG_VOUT)*%
X152640589Y-73669411D03*
%TO.P,C9,2*%
%TO.N,GND*%
X153319411Y-72990589D03*
%TD*%
D17*
%TO.P,C19,1*%
%TO.N,Net-(U5-XIN)*%
X128430589Y-80090589D03*
%TO.P,C19,2*%
%TO.N,GND*%
X129109411Y-80769411D03*
%TD*%
D26*
%TO.P,FINGER3,1,Pin_1*%
%TO.N,GND*%
X150260000Y-61955000D03*
%TO.P,FINGER3,2,Pin_2*%
%TO.N,Net-(FINGER3-Pin_2)*%
X149260000Y-61955000D03*
%TO.P,FINGER3,3,Pin_3*%
%TO.N,Net-(FINGER3-Pin_3)*%
X148260000Y-61955000D03*
%TO.P,FINGER3,4,Pin_4*%
%TO.N,+3V3*%
X147260000Y-61955000D03*
D27*
%TO.P,FINGER3,MP*%
%TO.N,N/C*%
X151560000Y-58080000D03*
X145960000Y-58080000D03*
%TD*%
D28*
%TO.P,C5,1*%
%TO.N,+3V3*%
X145136455Y-75446263D03*
%TO.P,C5,2*%
%TO.N,GND*%
X144457633Y-76125085D03*
%TD*%
%TO.P,C12,1*%
%TO.N,Net-(C12-Pad1)*%
X143629411Y-82870589D03*
%TO.P,C12,2*%
%TO.N,GND*%
X142950589Y-83549411D03*
%TD*%
D12*
%TO.P,R8,1*%
%TO.N,+3V3*%
X140564095Y-76957264D03*
%TO.P,R8,2*%
%TO.N,Net-(U5-ADC_AVDD)*%
X139842847Y-77678512D03*
%TD*%
D19*
%TO.P,C23,1*%
%TO.N,Net-(U5-VREG_VOUT)*%
X137864060Y-75687299D03*
%TO.P,C23,2*%
%TO.N,GND*%
X138542882Y-75008477D03*
%TD*%
D33*
%TO.P,J1,1,Pin_1*%
%TO.N,GND*%
X135180000Y-92637500D03*
D34*
%TO.P,J1,2,Pin_2*%
X135480000Y-89762500D03*
D33*
%TO.P,J1,3,Pin_3*%
%TO.N,D10-MI_CS*%
X135780000Y-92637500D03*
D34*
%TO.P,J1,4,Pin_4*%
%TO.N,D12-MI_MISO*%
X136080000Y-89762500D03*
D33*
%TO.P,J1,5,Pin_5*%
%TO.N,D11-MI_MOSI*%
X136380000Y-92637500D03*
D34*
%TO.P,J1,6,Pin_6*%
%TO.N,D13-MI_SCLK*%
X136680000Y-89762500D03*
D33*
%TO.P,J1,7,Pin_7*%
%TO.N,FPGA_GPIO_7*%
X136980000Y-92637500D03*
D34*
%TO.P,J1,8,Pin_8*%
%TO.N,UART_RX*%
X137280000Y-89762500D03*
D33*
%TO.P,J1,9,Pin_9*%
%TO.N,UART_TX*%
X137580000Y-92637500D03*
D34*
%TO.P,J1,10,Pin_10*%
%TO.N,HAPTICS_DRV*%
X137880000Y-89762500D03*
D33*
%TO.P,J1,11,Pin_11*%
%TO.N,NRF_SWCLK*%
X138180000Y-92637500D03*
D34*
%TO.P,J1,12,Pin_12*%
%TO.N,FPGA_GPIO_4*%
X138480000Y-89762500D03*
D33*
%TO.P,J1,13,Pin_13*%
%TO.N,FPGA_GPIO_5*%
X138780000Y-92637500D03*
D34*
%TO.P,J1,14,Pin_14*%
%TO.N,FPGA_GPIO_6*%
X139080000Y-89762500D03*
D33*
%TO.P,J1,15,Pin_15*%
%TO.N,MCU_SWDIO*%
X139380000Y-92637500D03*
D34*
%TO.P,J1,16,Pin_16*%
%TO.N,MCU_NRST*%
X139680000Y-89762500D03*
D33*
%TO.P,J1,17,Pin_17*%
%TO.N,NRF_NRST*%
X139980000Y-92637500D03*
D34*
%TO.P,J1,18,Pin_18*%
%TO.N,NRF_SWDIO*%
X140280000Y-89762500D03*
D33*
%TO.P,J1,19,Pin_19*%
%TO.N,MCU_SWCLK*%
X140580000Y-92637500D03*
D34*
%TO.P,J1,20,Pin_20*%
%TO.N,FPGA_GPIO_12*%
X140880000Y-89762500D03*
D33*
%TO.P,J1,21,Pin_21*%
%TO.N,FPGA_GPIO_13*%
X141180000Y-92637500D03*
D34*
%TO.P,J1,22,Pin_22*%
%TO.N,VCORE*%
X141480000Y-89762500D03*
D33*
%TO.P,J1,23,Pin_23*%
%TO.N,+3V3*%
X141780000Y-92637500D03*
D34*
%TO.P,J1,24,Pin_24*%
%TO.N,VSYS*%
X142080000Y-89762500D03*
D33*
%TO.P,J1,25,Pin_25*%
%TO.N,VUSB*%
X142380000Y-92637500D03*
%TD*%
D35*
%TO.P,FINGER5L1,1,Pin_1*%
%TO.N,GND*%
X156420000Y-86610000D03*
%TO.P,FINGER5L1,2,Pin_2*%
%TO.N,Net-(FINGER5L1-Pin_2)*%
X156420000Y-85610000D03*
%TO.P,FINGER5L1,3,Pin_3*%
%TO.N,Net-(FINGER5L1-Pin_3)*%
X156420000Y-84610000D03*
%TO.P,FINGER5L1,4,Pin_4*%
%TO.N,+3V3*%
X156420000Y-83610000D03*
D36*
%TO.P,FINGER5L1,MP*%
%TO.N,N/C*%
X160295000Y-87910000D03*
X160295000Y-82310000D03*
%TD*%
D19*
%TO.P,C7,1*%
%TO.N,Net-(U1-VREG_VOUT)*%
X153247633Y-75695085D03*
%TO.P,C7,2*%
%TO.N,GND*%
X153926455Y-75016263D03*
%TD*%
D13*
%TO.P,U4,1,~{CS}*%
%TO.N,Net-(U4-~{CS})*%
X136420000Y-65855000D03*
%TO.P,U4,2,SO/SIO1*%
%TO.N,Net-(U4-SO{slash}SIO1)*%
X136420000Y-67125000D03*
%TO.P,U4,3,~{WP}/SIO2*%
%TO.N,Net-(U4-~{WP}{slash}SIO2)*%
X136420000Y-68395000D03*
%TO.P,U4,4,GND*%
%TO.N,GND*%
X136420000Y-69665000D03*
%TO.P,U4,5,SI/SIO0*%
%TO.N,Net-(U4-SI{slash}SIO0)*%
X143620000Y-69665000D03*
%TO.P,U4,6,SCLK*%
%TO.N,Net-(U4-SCLK)*%
X143620000Y-68395000D03*
%TO.P,U4,7,~{HOLD}/SIO3*%
%TO.N,Net-(U4-~{HOLD}{slash}SIO3)*%
X143620000Y-67125000D03*
%TO.P,U4,8,VCC*%
%TO.N,+3V3*%
X143620000Y-65855000D03*
%TD*%
D37*
%TO.P,U3,1,PIN1/DNC*%
%TO.N,unconnected-(U3-PIN1{slash}DNC-Pad1)*%
X128102500Y-66870000D03*
D38*
%TO.P,U3,2,GND*%
%TO.N,GND*%
X127190000Y-66732500D03*
%TO.P,U3,3,VDD*%
%TO.N,+3V3*%
X126690000Y-66732500D03*
%TO.P,U3,4,BOOTN*%
%TO.N,Net-(U3-BOOTN)*%
X126190000Y-66732500D03*
%TO.P,U3,5,PS1*%
%TO.N,GND*%
X125690000Y-66732500D03*
D37*
%TO.P,U3,6,PS0/WAKE*%
X124777500Y-66870000D03*
%TO.P,U3,7,PIN7/DNC*%
%TO.N,unconnected-(U3-PIN7{slash}DNC-Pad7)*%
X124777500Y-67370000D03*
%TO.P,U3,8,PIN8/DNC*%
%TO.N,unconnected-(U3-PIN8{slash}DNC-Pad8)*%
X124777500Y-67870000D03*
%TO.P,U3,9,CAP*%
%TO.N,Net-(U3-CAP)*%
X124777500Y-68370000D03*
%TO.P,U3,10,CLKSEL0*%
%TO.N,GND*%
X124777500Y-68870000D03*
%TO.P,U3,11,NRST*%
%TO.N,Net-(U3-NRST)*%
X124777500Y-69370000D03*
%TO.P,U3,12,PIN12/DNC*%
%TO.N,unconnected-(U3-PIN12{slash}DNC-Pad12)*%
X124777500Y-69870000D03*
%TO.P,U3,13,PIN13/DNC*%
%TO.N,unconnected-(U3-PIN13{slash}DNC-Pad13)*%
X124777500Y-70370000D03*
%TO.P,U3,14,H_INTN*%
%TO.N,INT*%
X124777500Y-70870000D03*
%TO.P,U3,15,ENV_SCL*%
%TO.N,unconnected-(U3-ENV_SCL-Pad15)*%
X124777500Y-71370000D03*
D38*
%TO.P,U3,16,ENV_SDA*%
%TO.N,unconnected-(U3-ENV_SDA-Pad16)*%
X125690000Y-71507500D03*
%TO.P,U3,17,H_SA0/MOSI*%
%TO.N,+3V3*%
X126190000Y-71507500D03*
%TO.P,U3,18,H_CSN*%
%TO.N,GND*%
X126690000Y-71507500D03*
%TO.P,U3,19,H_SCL/SCLK/RX*%
%TO.N,Net-(FINGER5L1-Pin_3)*%
X127190000Y-71507500D03*
D37*
%TO.P,U3,20,H_SDA/MISO/TX*%
%TO.N,Net-(FINGER5L1-Pin_2)*%
X128102500Y-71370000D03*
%TO.P,U3,21,PIN21/DNC*%
%TO.N,unconnected-(U3-PIN21{slash}DNC-Pad21)*%
X128102500Y-70870000D03*
%TO.P,U3,22,PIN22/DNC*%
%TO.N,unconnected-(U3-PIN22{slash}DNC-Pad22)*%
X128102500Y-70370000D03*
%TO.P,U3,23,PIN23/DNC*%
%TO.N,unconnected-(U3-PIN23{slash}DNC-Pad23)*%
X128102500Y-69870000D03*
%TO.P,U3,24,PIN24/DNC*%
%TO.N,unconnected-(U3-PIN24{slash}DNC-Pad24)*%
X128102500Y-69370000D03*
%TO.P,U3,25,GND*%
%TO.N,GND*%
X128102500Y-68870000D03*
%TO.P,U3,26,CLKSEL1/XOUT32*%
%TO.N,Net-(U3-CLKSEL1{slash}XOUT32)*%
X128102500Y-68370000D03*
%TO.P,U3,27,XIN32*%
%TO.N,Net-(U3-XIN32)*%
X128102500Y-67870000D03*
%TO.P,U3,28,VDDIO*%
%TO.N,+3V3*%
X128102500Y-67370000D03*
%TD*%
D28*
%TO.P,C4,1*%
%TO.N,+3V3*%
X145579411Y-82250589D03*
%TO.P,C4,2*%
%TO.N,GND*%
X144900589Y-82929411D03*
%TD*%
D21*
%TO.P,U5,1,IOVDD*%
%TO.N,+3V3*%
X133141370Y-73727259D03*
%TO.P,U5,2,GPIO0*%
%TO.N,Net-(FINGER5L1-Pin_2)*%
X132858527Y-74010102D03*
%TO.P,U5,3,GPIO1*%
%TO.N,Net-(FINGER5L1-Pin_3)*%
X132575685Y-74292944D03*
%TO.P,U5,4,GPIO2*%
%TO.N,unconnected-(U5-GPIO2-Pad4)*%
X132292842Y-74575787D03*
%TO.P,U5,5,GPIO3*%
%TO.N,unconnected-(U5-GPIO3-Pad5)*%
X132009999Y-74858630D03*
%TO.P,U5,6,GPIO4*%
%TO.N,INTER_RP2040_UART_RX1*%
X131727157Y-75141472D03*
%TO.P,U5,7,GPIO5*%
%TO.N,INTER_RP2040_UART_TX1*%
X131444314Y-75424315D03*
%TO.P,U5,8,GPIO6*%
%TO.N,unconnected-(U5-GPIO6-Pad8)*%
X131161471Y-75707158D03*
%TO.P,U5,9,GPIO7*%
%TO.N,unconnected-(U5-GPIO7-Pad9)*%
X130878628Y-75990001D03*
%TO.P,U5,10,IOVDD*%
%TO.N,+3V3*%
X130595786Y-76272843D03*
%TO.P,U5,11,GPIO8*%
%TO.N,unconnected-(U5-GPIO8-Pad11)*%
X130312943Y-76555686D03*
%TO.P,U5,12,GPIO9*%
%TO.N,unconnected-(U5-GPIO9-Pad12)*%
X130030100Y-76838529D03*
%TO.P,U5,13,GPIO10*%
%TO.N,unconnected-(U5-GPIO10-Pad13)*%
X129747258Y-77121371D03*
%TO.P,U5,14,GPIO11*%
%TO.N,unconnected-(U5-GPIO11-Pad14)*%
X129464415Y-77404214D03*
D22*
%TO.P,U5,15,GPIO12*%
%TO.N,unconnected-(U5-GPIO12-Pad15)*%
X129464415Y-78588618D03*
%TO.P,U5,16,GPIO13*%
%TO.N,unconnected-(U5-GPIO13-Pad16)*%
X129747258Y-78871461D03*
%TO.P,U5,17,GPIO14*%
%TO.N,unconnected-(U5-GPIO14-Pad17)*%
X130030100Y-79154303D03*
%TO.P,U5,18,GPIO15*%
%TO.N,unconnected-(U5-GPIO15-Pad18)*%
X130312943Y-79437146D03*
%TO.P,U5,19,TESTEN*%
%TO.N,GND*%
X130595786Y-79719989D03*
%TO.P,U5,20,XIN*%
%TO.N,Net-(U5-XIN)*%
X130878628Y-80002831D03*
%TO.P,U5,21,XOUT*%
%TO.N,Net-(U5-XOUT)*%
X131161471Y-80285674D03*
%TO.P,U5,22,IOVDD*%
%TO.N,+3V3*%
X131444314Y-80568517D03*
%TO.P,U5,23,DVDD*%
%TO.N,Net-(U5-VREG_VOUT)*%
X131727157Y-80851360D03*
%TO.P,U5,24,SWCLK*%
%TO.N,Net-(J3-SWCLK)*%
X132009999Y-81134202D03*
%TO.P,U5,25,SWD*%
%TO.N,Net-(J3-SWDIO)*%
X132292842Y-81417045D03*
%TO.P,U5,26,RUN*%
%TO.N,Net-(J3-~{RESET})*%
X132575685Y-81699888D03*
%TO.P,U5,27,GPIO16*%
%TO.N,unconnected-(U5-GPIO16-Pad27)*%
X132858527Y-81982730D03*
%TO.P,U5,28,GPIO17*%
%TO.N,unconnected-(U5-GPIO17-Pad28)*%
X133141370Y-82265573D03*
D21*
%TO.P,U5,29,GPIO18*%
%TO.N,unconnected-(U5-GPIO18-Pad29)*%
X134325774Y-82265573D03*
%TO.P,U5,30,GPIO19*%
%TO.N,unconnected-(U5-GPIO19-Pad30)*%
X134608617Y-81982730D03*
%TO.P,U5,31,GPIO20*%
%TO.N,unconnected-(U5-GPIO20-Pad31)*%
X134891459Y-81699888D03*
%TO.P,U5,32,GPIO21*%
%TO.N,unconnected-(U5-GPIO21-Pad32)*%
X135174302Y-81417045D03*
%TO.P,U5,33,IOVDD*%
%TO.N,+3V3*%
X135457145Y-81134202D03*
%TO.P,U5,34,GPIO22*%
%TO.N,Net-(FingerAux1-Pin_1)*%
X135739987Y-80851360D03*
%TO.P,U5,35,GPIO23*%
%TO.N,Net-(FingerAux1-Pin_2)*%
X136022830Y-80568517D03*
%TO.P,U5,36,GPIO24*%
%TO.N,Net-(FingerAux1-Pin_3)*%
X136305673Y-80285674D03*
%TO.P,U5,37,GPIO25*%
%TO.N,Net-(FingerAux1-Pin_4)*%
X136588516Y-80002831D03*
%TO.P,U5,38,GPIO26_ADC0*%
%TO.N,Net-(FingerAux1-Pin_5)*%
X136871358Y-79719989D03*
%TO.P,U5,39,GPIO27_ADC1*%
%TO.N,Net-(FingerAux1-Pin_6)*%
X137154201Y-79437146D03*
%TO.P,U5,40,GPIO28_ADC2*%
%TO.N,Net-(FingerAux1-Pin_7)*%
X137437044Y-79154303D03*
%TO.P,U5,41,GPIO29_ADC3*%
%TO.N,Net-(FingerAux1-Pin_8)*%
X137719886Y-78871461D03*
%TO.P,U5,42,IOVDD*%
%TO.N,+3V3*%
X138002729Y-78588618D03*
D22*
%TO.P,U5,43,ADC_AVDD*%
%TO.N,Net-(U5-ADC_AVDD)*%
X138002729Y-77404214D03*
%TO.P,U5,44,VREG_IN*%
%TO.N,+3V3*%
X137719886Y-77121371D03*
%TO.P,U5,45,VREG_VOUT*%
%TO.N,Net-(U5-VREG_VOUT)*%
X137437044Y-76838529D03*
%TO.P,U5,46,USB_DM*%
%TO.N,Net-(U5-USB_DM)*%
X137154201Y-76555686D03*
%TO.P,U5,47,USB_DP*%
%TO.N,Net-(U5-USB_DP)*%
X136871358Y-76272843D03*
%TO.P,U5,48,USB_VDD*%
%TO.N,+3V3*%
X136588516Y-75990001D03*
%TO.P,U5,49,IOVDD*%
X136305673Y-75707158D03*
%TO.P,U5,50,DVDD*%
%TO.N,Net-(U5-VREG_VOUT)*%
X136022830Y-75424315D03*
%TO.P,U5,51,QSPI_SD3*%
%TO.N,Net-(U4-~{HOLD}{slash}SIO3)*%
X135739987Y-75141472D03*
%TO.P,U5,52,QSPI_SCLK*%
%TO.N,Net-(U4-SCLK)*%
X135457145Y-74858630D03*
%TO.P,U5,53,QSPI_SD0*%
%TO.N,Net-(U4-SI{slash}SIO0)*%
X135174302Y-74575787D03*
%TO.P,U5,54,QSPI_SD2*%
%TO.N,Net-(U4-~{WP}{slash}SIO2)*%
X134891459Y-74292944D03*
%TO.P,U5,55,QSPI_SD1*%
%TO.N,Net-(U4-SO{slash}SIO1)*%
X134608617Y-74010102D03*
%TO.P,U5,56,QSPI_SS*%
%TO.N,Net-(U4-~{CS})*%
X134325774Y-73727259D03*
D23*
%TO.P,U5,57,GND*%
%TO.N,GND*%
X133733572Y-77996416D03*
%TD*%
D19*
%TO.P,C1,1*%
%TO.N,+3V3*%
X153907633Y-76345085D03*
%TO.P,C1,2*%
%TO.N,GND*%
X154586455Y-75666263D03*
%TD*%
D39*
%TO.P,Y3,1,1*%
%TO.N,Net-(U3-CLKSEL1{slash}XOUT32)*%
X129590000Y-69057500D03*
%TO.P,Y3,2,2*%
%TO.N,Net-(U3-XIN32)*%
X129590000Y-67657500D03*
%TD*%
D29*
%TO.P,C15,1*%
%TO.N,Net-(U3-CLKSEL1{slash}XOUT32)*%
X130080000Y-70117500D03*
%TO.P,C15,2*%
%TO.N,GND*%
X129120000Y-70117500D03*
%TD*%
D28*
%TO.P,C21,1*%
%TO.N,Net-(C21-Pad1)*%
X128209411Y-82950589D03*
%TO.P,C21,2*%
%TO.N,GND*%
X127530589Y-83629411D03*
%TD*%
%TO.P,C2,1*%
%TO.N,+3V3*%
X154166455Y-79376263D03*
%TO.P,C2,2*%
%TO.N,GND*%
X153487633Y-80055085D03*
%TD*%
D11*
%TO.P,R7,1*%
%TO.N,Net-(C21-Pad1)*%
X128819376Y-82350624D03*
%TO.P,R7,2*%
%TO.N,Net-(U5-XOUT)*%
X129540624Y-81629376D03*
%TD*%
D31*
%TO.P,Y2,1,1*%
%TO.N,Net-(U5-XIN)*%
X126436777Y-80461142D03*
%TO.P,Y2,2,2*%
%TO.N,GND*%
X124881142Y-82016777D03*
%TO.P,Y2,3,3*%
%TO.N,Net-(C21-Pad1)*%
X126083223Y-83218858D03*
%TO.P,Y2,4,4*%
%TO.N,GND*%
X127638858Y-81663223D03*
%TD*%
D14*
%TO.P,R3,1*%
%TO.N,Net-(U3-BOOTN)*%
X126290000Y-65667500D03*
%TO.P,R3,2*%
%TO.N,+3V3*%
X127310000Y-65667500D03*
%TD*%
D19*
%TO.P,C17,1*%
%TO.N,+3V3*%
X138524060Y-76347299D03*
%TO.P,C17,2*%
%TO.N,GND*%
X139202882Y-75668477D03*
%TD*%
D28*
%TO.P,C24,1*%
%TO.N,+3V3*%
X129775826Y-75474162D03*
%TO.P,C24,2*%
%TO.N,GND*%
X129097004Y-76152984D03*
%TD*%
D26*
%TO.P,FINGER2,1,Pin_1*%
%TO.N,GND*%
X142460000Y-61955000D03*
%TO.P,FINGER2,2,Pin_2*%
%TO.N,Net-(FINGER1-Pin_2)*%
X141460000Y-61955000D03*
%TO.P,FINGER2,3,Pin_3*%
%TO.N,Net-(FINGER1-Pin_3)*%
X140460000Y-61955000D03*
%TO.P,FINGER2,4,Pin_4*%
%TO.N,+3V3*%
X139460000Y-61955000D03*
D27*
%TO.P,FINGER2,MP*%
%TO.N,N/C*%
X143760000Y-58080000D03*
X138160000Y-58080000D03*
%TD*%
D40*
%TO.N,Net-(J2-SWCLK)*%
X154390000Y-92350000D03*
X153430000Y-89580000D03*
%TO.N,GND*%
X151580000Y-91030000D03*
%TO.N,Net-(USB2-Pin_4)*%
X131547312Y-71972688D03*
X131740000Y-88970000D03*
%TO.N,Net-(USB1-Pin_4)*%
X150320000Y-71350000D03*
X149902746Y-87162746D03*
%TO.N,+3V3*%
X147260000Y-60910000D03*
X136790000Y-82470000D03*
X130130000Y-71737500D03*
X142550000Y-65850000D03*
X151080000Y-82460000D03*
X119890000Y-86400000D03*
X130640862Y-81531776D03*
X139460000Y-60910000D03*
X157860000Y-83600000D03*
X127196222Y-68294995D03*
X129290000Y-74980000D03*
X137572700Y-74697300D03*
X138088344Y-78093512D03*
X131660000Y-60900000D03*
X123700000Y-70370000D03*
X152557004Y-74947004D03*
X126160000Y-73310000D03*
X149000000Y-73123624D03*
X153100000Y-65840000D03*
X155050000Y-60880000D03*
X156300000Y-89530000D03*
X141120000Y-76420000D03*
X144620000Y-74910000D03*
X133680000Y-74410000D03*
X145970000Y-81520000D03*
X143230000Y-91910000D03*
X120710000Y-92100000D03*
X156480000Y-76390000D03*
X152560000Y-78080000D03*
%TO.N,GND*%
X131250000Y-79070000D03*
X135040000Y-83180000D03*
X124870000Y-81990000D03*
X119880000Y-83400000D03*
X125683500Y-67910000D03*
X133733572Y-77996416D03*
X150260000Y-60910000D03*
X152870000Y-80650000D03*
X127638858Y-81663223D03*
X126729207Y-67774225D03*
X128710000Y-88930000D03*
X154440000Y-74510000D03*
X134670000Y-60880000D03*
X157850000Y-86610000D03*
X128580000Y-75670000D03*
X139070000Y-74470000D03*
X148240000Y-69660000D03*
X140970000Y-77870000D03*
X149090000Y-77970000D03*
X123670000Y-92490000D03*
X158050000Y-60880000D03*
X144370000Y-83470000D03*
X142450000Y-60900000D03*
X143058858Y-81583223D03*
X143940000Y-75610000D03*
X134680000Y-89760000D03*
X146880000Y-79260000D03*
X129970000Y-65670000D03*
X137680000Y-69670000D03*
X146140000Y-89200000D03*
X140301142Y-81936777D03*
X128677000Y-83660000D03*
X134400000Y-92270000D03*
%TO.N,Net-(U1-VREG_VOUT)*%
X150300000Y-76150000D03*
X148170000Y-80260000D03*
%TO.N,D12-MI_MISO*%
X136072746Y-85702746D03*
X135030000Y-84670000D03*
%TO.N,D11-MI_MOSI*%
X145270000Y-86230000D03*
X146621520Y-78408481D03*
%TO.N,Net-(J3-~{RESET})*%
X124410000Y-89190000D03*
X122620000Y-92400000D03*
%TO.N,Net-(J3-SWCLK)*%
X122810000Y-88140000D03*
X122810000Y-89610000D03*
%TO.N,Net-(J2-SWDIO)*%
X154190000Y-89560000D03*
X155630000Y-92350000D03*
%TO.N,Net-(U1-USB_DM)*%
X151700000Y-77170000D03*
X147130000Y-89210000D03*
%TO.N,Net-(U1-USB_DP)*%
X148120000Y-86220000D03*
X151090000Y-76500000D03*
%TO.N,Net-(U5-USB_DM)*%
X136323976Y-77208064D03*
X129730000Y-86323000D03*
%TO.N,Net-(U5-USB_DP)*%
X135680979Y-76565068D03*
X130725434Y-86319997D03*
%TO.N,Net-(FINGER1-Pin_2)*%
X141450000Y-63080000D03*
X145027827Y-71367120D03*
%TO.N,Net-(FINGER1-Pin_3)*%
X140460000Y-60380000D03*
X145809392Y-71426843D03*
%TO.N,Net-(FINGER3-Pin_2)*%
X145500000Y-73790000D03*
X149260000Y-63030000D03*
%TO.N,Net-(FINGER3-Pin_3)*%
X146400000Y-73800000D03*
X149760000Y-66460000D03*
%TO.N,Net-(FINGER5L1-Pin_2)*%
X125665779Y-73805025D03*
X155160000Y-85590000D03*
X119870000Y-84400000D03*
X129050000Y-71950000D03*
%TO.N,Net-(FINGER5L1-Pin_3)*%
X155140000Y-84610000D03*
X122440000Y-85380000D03*
%TO.N,INTER_RP2040_UART_TX1*%
X147800000Y-76300000D03*
X129520000Y-73500000D03*
%TO.N,INTER_RP2040_UART_RX1*%
X145612254Y-77912254D03*
X130872745Y-74127253D03*
%TO.N,Net-(FingerAux1-Pin_1)*%
X126860000Y-63220000D03*
X133734409Y-81602529D03*
%TO.N,Net-(FingerAux1-Pin_2)*%
X125860000Y-63220000D03*
X133164598Y-80788322D03*
%TO.N,Net-(FingerAux1-Pin_3)*%
X124860000Y-63240000D03*
X132790000Y-80180000D03*
%TO.N,Net-(FingerAux1-Pin_4)*%
X135339786Y-79313989D03*
X123860000Y-63240000D03*
%TO.N,Net-(FingerAux1-Pin_5)*%
X135850000Y-78835465D03*
X122860000Y-63220000D03*
%TO.N,Net-(FingerAux1-Pin_6)*%
X121850000Y-63230000D03*
X137728853Y-80361853D03*
%TO.N,Net-(FingerAux1-Pin_7)*%
X136588221Y-78682524D03*
X120840000Y-63260000D03*
%TO.N,Net-(FingerAux1-Pin_8)*%
X119850000Y-63260000D03*
X136960000Y-78090000D03*
%TO.N,Net-(U5-VREG_VOUT)*%
X134819689Y-76184101D03*
X132064362Y-79225638D03*
%TD*%
D41*
%TO.N,Net-(J3-~{RESET})*%
X127790000Y-85810000D02*
X124410000Y-89190000D01*
X129924896Y-85810000D02*
X127790000Y-85810000D01*
X132235668Y-82039905D02*
X132235668Y-83499228D01*
X132235668Y-83499228D02*
X129924896Y-85810000D01*
X132575685Y-81699888D02*
X132235668Y-82039905D01*
%TO.N,Net-(J3-SWDIO)*%
X131908668Y-81801219D02*
X132292842Y-81417045D01*
X131908668Y-83363780D02*
X131908668Y-81801219D01*
X126210801Y-85483000D02*
X129789448Y-85483000D01*
X129789448Y-85483000D02*
X131908668Y-83363780D01*
X121560000Y-90133801D02*
X126210801Y-85483000D01*
X121560000Y-90375000D02*
X121560000Y-90133801D01*
%TO.N,Net-(J3-SWCLK)*%
X125794000Y-85156000D02*
X122810000Y-88140000D01*
X129654000Y-85156000D02*
X125794000Y-85156000D01*
X131581668Y-83228332D02*
X129654000Y-85156000D01*
X131581668Y-81562533D02*
X131581668Y-83228332D01*
X132009999Y-81134202D02*
X131581668Y-81562533D01*
%TO.N,D10-MI_CS*%
X135780000Y-91830000D02*
X135780000Y-92637500D01*
X134010000Y-90060000D02*
X135780000Y-91830000D01*
X143986500Y-78863000D02*
X141691297Y-78863000D01*
X134010000Y-86544297D02*
X134010000Y-90060000D01*
X144313505Y-79190005D02*
X143986500Y-78863000D01*
X141691297Y-78863000D02*
X134010000Y-86544297D01*
X145100101Y-78849989D02*
X144760085Y-79190005D01*
X144760085Y-79190005D02*
X144313505Y-79190005D01*
%TO.N,D12-MI_MISO*%
X144746547Y-78496435D02*
X144817258Y-78567146D01*
X135030000Y-84670000D02*
X135421849Y-84670000D01*
X135421849Y-84670000D02*
X141595414Y-78496435D01*
X141595414Y-78496435D02*
X144746547Y-78496435D01*
%TO.N,D11-MI_MOSI*%
X136380000Y-92314854D02*
X136380000Y-92637500D01*
X137234854Y-91460000D02*
X136380000Y-92314854D01*
X141250000Y-91460000D02*
X137234854Y-91460000D01*
X145270000Y-87440000D02*
X141250000Y-91460000D01*
X145270000Y-86230000D02*
X145270000Y-87440000D01*
%TO.N,Net-(U1-QSPI_SCLK)*%
X151673000Y-73363500D02*
X151673000Y-73974146D01*
X151673000Y-73974146D02*
X150809988Y-74837158D01*
X153489778Y-71720000D02*
X153316500Y-71720000D01*
X155233500Y-69976278D02*
X153489778Y-71720000D01*
X155233500Y-68943500D02*
X155233500Y-69976278D01*
X154675000Y-68385000D02*
X155233500Y-68943500D01*
X153316500Y-71720000D02*
X151673000Y-73363500D01*
X154170000Y-68385000D02*
X154675000Y-68385000D01*
%TO.N,Net-(U1-QSPI_SD3)*%
X152000000Y-74212830D02*
X151092830Y-75120000D01*
X155560500Y-70129500D02*
X153640000Y-72050000D01*
X155560500Y-68000500D02*
X155560500Y-70129500D01*
X152000000Y-73498948D02*
X152000000Y-74212830D01*
X154675000Y-67115000D02*
X155560500Y-68000500D01*
X153640000Y-72050000D02*
X153448948Y-72050000D01*
X153448948Y-72050000D02*
X152000000Y-73498948D01*
X154170000Y-67115000D02*
X154675000Y-67115000D01*
%TO.N,Net-(U4-SCLK)*%
X137755614Y-71910886D02*
X136283000Y-73383500D01*
X136283000Y-73383500D02*
X136283000Y-74032775D01*
X136283000Y-74032775D02*
X135457145Y-74858630D01*
X143226666Y-71910886D02*
X137755614Y-71910886D01*
X144849000Y-70288552D02*
X143226666Y-71910886D01*
X143620000Y-68395000D02*
X144165000Y-68395000D01*
X144165000Y-68395000D02*
X144849000Y-69079000D01*
X144849000Y-69079000D02*
X144849000Y-70288552D01*
%TO.N,Net-(U4-~{HOLD}{slash}SIO3)*%
X144420000Y-67125000D02*
X143620000Y-67125000D01*
X145176000Y-67881000D02*
X144420000Y-67125000D01*
X143362114Y-72237886D02*
X145176000Y-70424000D01*
X145176000Y-70424000D02*
X145176000Y-67881000D01*
X136610000Y-73518948D02*
X137891062Y-72237886D01*
X136610000Y-74271459D02*
X136610000Y-73518948D01*
X135739987Y-75141472D02*
X136610000Y-74271459D01*
X137891062Y-72237886D02*
X143362114Y-72237886D01*
%TO.N,Net-(U1-QSPI_SS)*%
X146855222Y-65845000D02*
X146970000Y-65845000D01*
X145503000Y-67197222D02*
X146855222Y-65845000D01*
X145503000Y-70403000D02*
X145503000Y-67197222D01*
X146022091Y-70913343D02*
X146013343Y-70913343D01*
X146322892Y-71214144D02*
X146022091Y-70913343D01*
X147710624Y-72610624D02*
X146322892Y-71222892D01*
X150149376Y-72610624D02*
X147710624Y-72610624D01*
X146322892Y-71222892D02*
X146322892Y-71214144D01*
X146013343Y-70913343D02*
X145503000Y-70403000D01*
%TO.N,Net-(U1-QSPI_SD1)*%
X146485000Y-67115000D02*
X146970000Y-67115000D01*
X145830000Y-67770000D02*
X146485000Y-67115000D01*
X145830000Y-70267552D02*
X145830000Y-67770000D01*
X146148791Y-70586343D02*
X145830000Y-70267552D01*
X151495398Y-71745398D02*
X150550000Y-70800000D01*
X146371196Y-70800000D02*
X146157539Y-70586343D01*
X151495398Y-72153758D02*
X151495398Y-71745398D01*
X150692000Y-72957156D02*
X151495398Y-72153758D01*
X146157539Y-70586343D02*
X146148791Y-70586343D01*
X150692000Y-73258090D02*
X150692000Y-72957156D01*
X150550000Y-70800000D02*
X146371196Y-70800000D01*
X149961460Y-73988630D02*
X150692000Y-73258090D01*
%TO.N,Net-(FINGER3-Pin_3)*%
X146891370Y-73800000D02*
X147645685Y-74554315D01*
X146400000Y-73800000D02*
X146891370Y-73800000D01*
%TO.N,Net-(FINGER3-Pin_2)*%
X146227141Y-74497141D02*
X147022825Y-74497141D01*
X147022825Y-74497141D02*
X147362842Y-74837158D01*
X145500000Y-73790000D02*
X145520000Y-73790000D01*
X145520000Y-73790000D02*
X146227141Y-74497141D01*
%TO.N,Net-(FINGER1-Pin_2)*%
X134010000Y-63080000D02*
X141450000Y-63080000D01*
X133660000Y-62730000D02*
X134010000Y-63080000D01*
X133660000Y-61955000D02*
X133660000Y-62730000D01*
%TO.N,Net-(FINGER3-Pin_2)*%
X156344778Y-63030000D02*
X157060000Y-62314778D01*
X157060000Y-62314778D02*
X157060000Y-61955000D01*
X149260000Y-63030000D02*
X156344778Y-63030000D01*
X149260000Y-63030000D02*
X149260000Y-61955000D01*
%TO.N,Net-(FINGER1-Pin_3)*%
X145809392Y-71586652D02*
X148211370Y-73988630D01*
X145809392Y-71426843D02*
X145809392Y-71586652D01*
%TO.N,Net-(FINGER1-Pin_2)*%
X145027827Y-71367120D02*
X145027827Y-71370771D01*
X145027827Y-71370771D02*
X147928528Y-74271472D01*
%TO.N,+3V3*%
X148494213Y-73629411D02*
X148494213Y-73705787D01*
X149000000Y-73123624D02*
X148494213Y-73629411D01*
%TO.N,Net-(FINGER3-Pin_3)*%
X148239500Y-64939500D02*
X148239500Y-62750500D01*
X149760000Y-66460000D02*
X148239500Y-64939500D01*
X148239500Y-62750500D02*
X148260000Y-62730000D01*
X148260000Y-62730000D02*
X148260000Y-61955000D01*
%TO.N,Net-(U1-QSPI_SD2)*%
X148597448Y-68385000D02*
X146970000Y-68385000D01*
X151822398Y-71609950D02*
X148597448Y-68385000D01*
X151019000Y-73092604D02*
X151822398Y-72289206D01*
X151822398Y-72289206D02*
X151822398Y-71609950D01*
X151019000Y-73496774D02*
X151019000Y-73092604D01*
X150244302Y-74271472D02*
X151019000Y-73496774D01*
%TO.N,Net-(J2-SWDIO)*%
X147261511Y-81779747D02*
X147645685Y-81395573D01*
X154136199Y-89560000D02*
X147261511Y-82685312D01*
X147261511Y-82685312D02*
X147261511Y-81779747D01*
X154190000Y-89560000D02*
X154136199Y-89560000D01*
%TO.N,Net-(J2-~{RESET})*%
X153847498Y-88588750D02*
X147588511Y-82329763D01*
X154188750Y-88588750D02*
X153847498Y-88588750D01*
X155030000Y-89430000D02*
X154188750Y-88588750D01*
X147588511Y-82329763D02*
X147588511Y-82018433D01*
X155030000Y-90375000D02*
X155030000Y-89430000D01*
X147588511Y-82018433D02*
X147928528Y-81678416D01*
%TO.N,Net-(J2-SWCLK)*%
X146934511Y-81541061D02*
X147362842Y-81112730D01*
X153430000Y-89580000D02*
X146934511Y-83084511D01*
X146934511Y-83084511D02*
X146934511Y-81541061D01*
%TO.N,Net-(USB1-Pin_4)*%
X149345492Y-87720000D02*
X149130000Y-87720000D01*
X149902746Y-87162746D02*
X149345492Y-87720000D01*
%TO.N,Net-(J2-SWCLK)*%
X155030000Y-91710000D02*
X154390000Y-92350000D01*
%TO.N,GND*%
X153105000Y-91030000D02*
X151580000Y-91030000D01*
X153760000Y-90375000D02*
X153105000Y-91030000D01*
%TO.N,D12-MI_MISO*%
X136080000Y-85710000D02*
X136080000Y-89762500D01*
X136072746Y-85702746D02*
X136080000Y-85710000D01*
%TO.N,INTER_RP2040_UART_TX1*%
X129520000Y-73500000D02*
X131444314Y-75424315D01*
%TO.N,INTER_RP2040_UART_RX1*%
X130872745Y-74287060D02*
X131727157Y-75141472D01*
X130872745Y-74127253D02*
X130872745Y-74287060D01*
%TO.N,Net-(FINGER5L1-Pin_3)*%
X131269741Y-72987000D02*
X132575685Y-74292944D01*
X127599500Y-72987000D02*
X131269741Y-72987000D01*
X127190000Y-72577500D02*
X127599500Y-72987000D01*
%TO.N,Net-(FINGER5L1-Pin_2)*%
X129760000Y-72660000D02*
X129050000Y-71950000D01*
X131508425Y-72660000D02*
X129760000Y-72660000D01*
X132858527Y-74010102D02*
X131508425Y-72660000D01*
%TO.N,+3V3*%
X133680000Y-74410000D02*
X133680000Y-74265889D01*
X133680000Y-74265889D02*
X133141370Y-73727259D01*
%TO.N,Net-(USB2-Pin_4)*%
X131886064Y-71972688D02*
X132259376Y-71599376D01*
X131547312Y-71972688D02*
X131886064Y-71972688D01*
%TO.N,Net-(U4-~{CS})*%
X132980624Y-72320624D02*
X134325774Y-73665774D01*
X134325774Y-73665774D02*
X134325774Y-73727259D01*
%TO.N,Net-(U4-SO{slash}SIO1)*%
X136420000Y-67125000D02*
X135620000Y-67125000D01*
X135620000Y-67125000D02*
X134948633Y-67796367D01*
X134948633Y-67796367D02*
X134948633Y-73670086D01*
X134948633Y-73670086D02*
X134608617Y-74010102D01*
%TO.N,Net-(U4-~{CS})*%
X136305222Y-65855000D02*
X136420000Y-65855000D01*
X134570000Y-67590222D02*
X136305222Y-65855000D01*
X134325774Y-73727259D02*
X134570000Y-73483033D01*
X134570000Y-73483033D02*
X134570000Y-67590222D01*
%TO.N,+3V3*%
X130130000Y-71050000D02*
X130130000Y-71737500D01*
%TO.N,Net-(USB2-Pin_4)*%
X131730000Y-88960000D02*
X131740000Y-88970000D01*
X131730000Y-87710000D02*
X131730000Y-88960000D01*
%TO.N,Net-(USB1-Pin_4)*%
X150859376Y-71889376D02*
X150320000Y-71350000D01*
X150870624Y-71889376D02*
X150859376Y-71889376D01*
%TO.N,Net-(U1-QSPI_SS)*%
X150149376Y-73235028D02*
X150149376Y-72610624D01*
X149678617Y-73705787D02*
X150149376Y-73235028D01*
%TO.N,Net-(U1-QSPI_SD0)*%
X151346000Y-73735460D02*
X150527145Y-74554315D01*
X151346000Y-73228052D02*
X151346000Y-73735460D01*
X154170000Y-70404052D02*
X151346000Y-73228052D01*
X154170000Y-69655000D02*
X154170000Y-70404052D01*
%TO.N,+3V3*%
X151658516Y-75685686D02*
X151941359Y-75968529D01*
X129290000Y-74980000D02*
X129290000Y-74988336D01*
X129775826Y-75474162D02*
X129797105Y-75474162D01*
X136259411Y-81960589D02*
X136259411Y-81936468D01*
X142107500Y-91910000D02*
X143230000Y-91910000D01*
X138002729Y-78588618D02*
X138002729Y-78591551D01*
X127320000Y-65677500D02*
X127310000Y-65667500D01*
X127310000Y-65667500D02*
X126690000Y-66287500D01*
X138088344Y-78093512D02*
X138161751Y-78166919D01*
X127501500Y-67989717D02*
X127501500Y-67633500D01*
X137572700Y-74697300D02*
X137572700Y-74677300D01*
X152560000Y-78080000D02*
X152560000Y-77612628D01*
X137572700Y-74697300D02*
X137315531Y-74697300D01*
X126516508Y-68287725D02*
X126196500Y-67967717D01*
X126170000Y-72577500D02*
X126170000Y-73300000D01*
X136267004Y-81942984D02*
X136267004Y-81947004D01*
X137919411Y-74330577D02*
X137892983Y-74357005D01*
X138088344Y-78093512D02*
X138002729Y-78179127D01*
X138088344Y-78093512D02*
X138021905Y-78027073D01*
X127196222Y-68294995D02*
X127501500Y-67989717D01*
X126516508Y-68287725D02*
X127188952Y-68287725D01*
X121560000Y-91645000D02*
X121165000Y-91645000D01*
X151614915Y-81925085D02*
X151080000Y-82460000D01*
X136267004Y-81942984D02*
X136265927Y-81942984D01*
X131660000Y-61955000D02*
X131660000Y-60900000D01*
X154170000Y-65845000D02*
X153105000Y-65845000D01*
X139460000Y-61955000D02*
X139460000Y-60910000D01*
X129290000Y-74988336D02*
X129775826Y-75474162D01*
X137892983Y-74357005D02*
X137892983Y-74358578D01*
X123720000Y-69670000D02*
X123720000Y-70350000D01*
X126196500Y-67580733D02*
X126690000Y-67087233D01*
X141780000Y-92637500D02*
X141780000Y-92237500D01*
X136259411Y-81960589D02*
X136280589Y-81960589D01*
X143620000Y-65855000D02*
X142555000Y-65855000D01*
X145970000Y-81520000D02*
X145970000Y-81374202D01*
X147260000Y-61955000D02*
X147260000Y-60910000D01*
X119900000Y-86390000D02*
X121140000Y-86390000D01*
X138021905Y-78027073D02*
X137634224Y-78027073D01*
X126196500Y-67967717D02*
X126196500Y-67580733D01*
X153174597Y-74329411D02*
X152557004Y-74947004D01*
X155060000Y-61955000D02*
X155060000Y-60890000D01*
X152557004Y-74947004D02*
X152397198Y-74947004D01*
X154164689Y-79376263D02*
X153355572Y-78567146D01*
X153827543Y-76345085D02*
X153072729Y-77099899D01*
X127765000Y-67370000D02*
X128102500Y-67370000D01*
X141780000Y-92237500D02*
X142107500Y-91910000D01*
X156300000Y-90375000D02*
X156300000Y-89530000D01*
X139780589Y-79059411D02*
X138473522Y-79059411D01*
X127188952Y-68287725D02*
X127196222Y-68294995D01*
X145136455Y-75446263D02*
X145136455Y-75426455D01*
X129797105Y-75474162D02*
X130595786Y-76272843D01*
X138473522Y-79059411D02*
X138002729Y-78588618D01*
X137634224Y-78027073D02*
X137379870Y-77772719D01*
X121165000Y-91645000D02*
X120710000Y-92100000D01*
X126170000Y-72577500D02*
X126170000Y-71527500D01*
X155937668Y-76955050D02*
X155937668Y-76932332D01*
X152397198Y-74947004D02*
X151658516Y-75685686D01*
X152868426Y-78080000D02*
X153355572Y-78567146D01*
X156900000Y-83610000D02*
X156420000Y-83610000D01*
X137379870Y-77461387D02*
X137719886Y-77121371D01*
X138524060Y-76347299D02*
X138493958Y-76347299D01*
X140564095Y-76957264D02*
X140582736Y-76957264D01*
X123720000Y-70350000D02*
X123700000Y-70370000D01*
X138002729Y-78179127D02*
X138002729Y-78588618D01*
X140582736Y-76957264D02*
X141120000Y-76420000D01*
X152560000Y-78080000D02*
X152868426Y-78080000D01*
X153907633Y-76345085D02*
X153827543Y-76345085D01*
X156420000Y-83610000D02*
X157850000Y-83610000D01*
X126690000Y-66287500D02*
X126690000Y-66732500D01*
X145136455Y-75446263D02*
X145143521Y-75446263D01*
X153445000Y-65855000D02*
X153440000Y-65850000D01*
X153290589Y-74329411D02*
X153174597Y-74329411D01*
X137572700Y-74677300D02*
X138060589Y-74189411D01*
X145136455Y-75426455D02*
X144620000Y-74910000D01*
X130640862Y-81531776D02*
X130640862Y-81371969D01*
X127501500Y-67633500D02*
X127765000Y-67370000D01*
X130640862Y-81371969D02*
X131444314Y-80568517D01*
X155060000Y-60890000D02*
X155050000Y-60880000D01*
X136588516Y-75990001D02*
X136305673Y-75707158D01*
X154166455Y-79376263D02*
X154164689Y-79376263D01*
X145970000Y-81374202D02*
X146797157Y-80547045D01*
X151617633Y-81925085D02*
X151617633Y-81920375D01*
X126170000Y-71527500D02*
X126190000Y-71507500D01*
X145579411Y-81910589D02*
X145579411Y-82250589D01*
X137379870Y-77772719D02*
X137379870Y-77461387D01*
X145970000Y-81520000D02*
X145579411Y-81910589D01*
X138161751Y-78166919D02*
X138161751Y-78208249D01*
X119890000Y-86400000D02*
X119900000Y-86390000D01*
X137315531Y-74697300D02*
X136305673Y-75707158D01*
X155937668Y-76932332D02*
X156480000Y-76390000D01*
X152560000Y-77612628D02*
X153072729Y-77099899D01*
X130159411Y-82330589D02*
X130159411Y-82013227D01*
X151617633Y-81925085D02*
X151614915Y-81925085D01*
X145143521Y-75446263D02*
X145948629Y-76251371D01*
X130159411Y-82013227D02*
X130640862Y-81531776D01*
X128160000Y-65677500D02*
X127320000Y-65677500D01*
X136280589Y-81960589D02*
X136790000Y-82470000D01*
X138493958Y-76347299D02*
X137719886Y-77121371D01*
X142555000Y-65855000D02*
X142550000Y-65850000D01*
X157850000Y-83610000D02*
X157860000Y-83600000D01*
X126690000Y-67087233D02*
X126690000Y-66732500D01*
X151617633Y-81920375D02*
X150809988Y-81112730D01*
X126170000Y-73300000D02*
X126160000Y-73310000D01*
X136259411Y-81936468D02*
X135457145Y-81134202D01*
%TO.N,GND*%
X154440000Y-74510000D02*
X154440000Y-74121178D01*
X144455085Y-76125085D02*
X143940000Y-75610000D01*
X130595786Y-79719989D02*
X130600011Y-79719989D01*
X125615000Y-67978500D02*
X125683500Y-67910000D01*
X127190000Y-67313432D02*
X127190000Y-66732500D01*
X126690000Y-71507500D02*
X126690000Y-69945000D01*
X127765000Y-68870000D02*
X128102500Y-68870000D01*
X139070000Y-73841178D02*
X138739411Y-73510589D01*
X146970000Y-69655000D02*
X148235000Y-69655000D01*
X146387146Y-79260000D02*
X145948629Y-79698517D01*
X125552500Y-66870000D02*
X125690000Y-66732500D01*
X139070000Y-74470000D02*
X139070000Y-73841178D01*
X145550589Y-83589411D02*
X145550589Y-83579411D01*
X146130000Y-87720000D02*
X146130000Y-89190000D01*
X136420000Y-69665000D02*
X137675000Y-69665000D01*
X129962500Y-65677500D02*
X129970000Y-65670000D01*
X152870000Y-80650000D02*
X152892718Y-80650000D01*
X128730000Y-87710000D02*
X128730000Y-88910000D01*
X135180000Y-92637500D02*
X134767500Y-92637500D01*
X140970000Y-77870000D02*
X140459411Y-78380589D01*
X128703500Y-69133500D02*
X128440000Y-68870000D01*
X129120000Y-65677500D02*
X129962500Y-65677500D01*
X144370000Y-83470000D02*
X144290589Y-83549411D01*
X150260000Y-61955000D02*
X150260000Y-60910000D01*
X145550589Y-83579411D02*
X144900589Y-82929411D01*
X124100000Y-91645000D02*
X124100000Y-92060000D01*
X128703500Y-69701000D02*
X128703500Y-69133500D01*
X149086415Y-77973585D02*
X149090000Y-77970000D01*
X129120000Y-66597500D02*
X129120000Y-65677500D01*
X125690000Y-66732500D02*
X125690000Y-67903500D01*
X124777500Y-66870000D02*
X124052500Y-66870000D01*
X119890000Y-83390000D02*
X119880000Y-83400000D01*
X139862882Y-76328477D02*
X139202882Y-75668477D01*
X124881142Y-82016777D02*
X124881142Y-82001142D01*
X128532670Y-80769411D02*
X127638858Y-81663223D01*
X130130589Y-83659411D02*
X129480589Y-83009411D01*
X135480000Y-89762500D02*
X134682500Y-89762500D01*
X146880000Y-79260000D02*
X146387146Y-79260000D01*
X134767500Y-92637500D02*
X134400000Y-92270000D01*
X153933737Y-75016263D02*
X154440000Y-74510000D01*
X124881142Y-82001142D02*
X124870000Y-81990000D01*
X138542882Y-74997118D02*
X139070000Y-74470000D01*
X124100000Y-92060000D02*
X123670000Y-92490000D01*
X146130000Y-89190000D02*
X146140000Y-89200000D01*
X135580589Y-82639411D02*
X135040000Y-83180000D01*
X149086415Y-77974944D02*
X149086415Y-77973585D01*
X142460000Y-61955000D02*
X142460000Y-60910000D01*
X154586455Y-75666263D02*
X155246455Y-76326263D01*
X154440000Y-74121178D02*
X153969411Y-73650589D01*
X124777500Y-68870000D02*
X125615000Y-68870000D01*
X127561178Y-83660000D02*
X127530589Y-83629411D01*
X130130589Y-83669411D02*
X130130589Y-83659411D01*
X134660000Y-61955000D02*
X134660000Y-60890000D01*
X126729207Y-67774225D02*
X127190000Y-67313432D01*
X158060000Y-60890000D02*
X158050000Y-60880000D01*
X143160589Y-81684954D02*
X143058858Y-81583223D01*
X152870000Y-80650000D02*
X152870000Y-80672718D01*
X130600011Y-79719989D02*
X131250000Y-79070000D01*
X134682500Y-89762500D02*
X134680000Y-89760000D01*
X124777500Y-66870000D02*
X125552500Y-66870000D01*
X124052500Y-66870000D02*
X123730000Y-66547500D01*
X134660000Y-60890000D02*
X134670000Y-60880000D01*
X126690000Y-69945000D02*
X127765000Y-68870000D01*
X153319411Y-73000589D02*
X153969411Y-73650589D01*
X125615000Y-68870000D02*
X126690000Y-69945000D01*
X128830000Y-83660000D02*
X129480589Y-83009411D01*
X142460000Y-60910000D02*
X142450000Y-60900000D01*
X156420000Y-86610000D02*
X155645000Y-86610000D01*
X143952670Y-80689411D02*
X144539411Y-80689411D01*
X127770589Y-81794954D02*
X127638858Y-81663223D01*
X138079411Y-72860589D02*
X138089411Y-72860589D01*
X144290589Y-83549411D02*
X142950589Y-83549411D01*
X128580000Y-75670000D02*
X128614020Y-75670000D01*
X153936455Y-75016263D02*
X154586455Y-75666263D01*
X152892718Y-80650000D02*
X153487633Y-80055085D01*
X153926455Y-75016263D02*
X153936455Y-75016263D01*
X143058858Y-81583223D02*
X143952670Y-80689411D01*
X153926455Y-75016263D02*
X153933737Y-75016263D01*
X128614020Y-75670000D02*
X129097004Y-76152984D01*
X128730000Y-88910000D02*
X128710000Y-88930000D01*
X129120000Y-70117500D02*
X128703500Y-69701000D01*
X144370000Y-83470000D02*
X144900589Y-82939411D01*
X138542882Y-75008477D02*
X138542882Y-74997118D01*
X158060000Y-61955000D02*
X158060000Y-60890000D01*
X128677000Y-83660000D02*
X127561178Y-83660000D01*
X125690000Y-67903500D02*
X125683500Y-67910000D01*
X156420000Y-86610000D02*
X157850000Y-86610000D01*
X137675000Y-69665000D02*
X137680000Y-69670000D01*
X153268455Y-73041545D02*
X153319411Y-72990589D01*
X153319411Y-72990589D02*
X153319411Y-73000589D01*
X121140000Y-83390000D02*
X119890000Y-83390000D01*
X138089411Y-72860589D02*
X138739411Y-73510589D01*
X132319359Y-77996416D02*
X133733572Y-77996416D01*
X144457633Y-76125085D02*
X144455085Y-76125085D01*
X152870000Y-80672718D02*
X152296455Y-81246263D01*
X125615000Y-68870000D02*
X125615000Y-67978500D01*
X128440000Y-68870000D02*
X128102500Y-68870000D01*
X129109411Y-80769411D02*
X128532670Y-80769411D01*
X128677000Y-83660000D02*
X128830000Y-83660000D01*
X138542882Y-75008477D02*
X139202882Y-75668477D01*
%TO.N,Net-(U1-VREG_VOUT)*%
X153247633Y-76359311D02*
X152789887Y-76817057D01*
X146607511Y-81302377D02*
X147080000Y-80829888D01*
X151520000Y-77750000D02*
X150300000Y-76530000D01*
X153247633Y-75695085D02*
X153247633Y-76359311D01*
X152640589Y-74137927D02*
X151375673Y-75402843D01*
X146229411Y-82910589D02*
X146607511Y-82532489D01*
X150300000Y-76530000D02*
X150300000Y-76150000D01*
X152789887Y-76817057D02*
X151856944Y-77750000D01*
X151856944Y-77750000D02*
X151520000Y-77750000D01*
X148170000Y-80260000D02*
X147649888Y-80260000D01*
X146607511Y-82532489D02*
X146607511Y-81302377D01*
X147649888Y-80260000D02*
X147080000Y-80829888D01*
X151375673Y-75402843D02*
X150628516Y-76150000D01*
X152640589Y-73669411D02*
X152640589Y-74137927D01*
X152606455Y-73696263D02*
X152617725Y-73696263D01*
X150628516Y-76150000D02*
X150300000Y-76150000D01*
%TO.N,Net-(U1-ADC_AVDD)*%
X154567633Y-77005085D02*
X153733229Y-77005085D01*
X154567633Y-77027511D02*
X155216420Y-77676298D01*
X154567633Y-77005085D02*
X154567633Y-77027511D01*
X153733229Y-77005085D02*
X153355572Y-77382742D01*
%TO.N,Net-(U1-XIN)*%
X142227330Y-80010589D02*
X141856777Y-80381142D01*
X143888533Y-80038533D02*
X143860589Y-80010589D01*
X143860589Y-80010589D02*
X142227330Y-80010589D01*
X145269337Y-80010589D02*
X145580124Y-80321376D01*
X145580124Y-80321376D02*
X145891454Y-80321376D01*
X145891454Y-80321376D02*
X146231471Y-79981359D01*
X143860589Y-80010589D02*
X145269337Y-80010589D01*
%TO.N,Net-(C12-Pad1)*%
X143639411Y-82870589D02*
X144239376Y-82270624D01*
X141503223Y-83138858D02*
X141771492Y-82870589D01*
X141771492Y-82870589D02*
X143629411Y-82870589D01*
X143629411Y-82870589D02*
X143639411Y-82870589D01*
%TO.N,D11-MI_MOSI*%
X146621520Y-78408481D02*
X146621520Y-78459940D01*
X146621520Y-78459940D02*
X145665786Y-79415674D01*
%TO.N,D13-MI_SCLK*%
X144990524Y-79525250D02*
X144186302Y-79525250D01*
X136680000Y-84336745D02*
X141826745Y-79190000D01*
X141826745Y-79190000D02*
X143851052Y-79190000D01*
X136680000Y-89762500D02*
X136680000Y-84336745D01*
X144186302Y-79525250D02*
X143851052Y-79190000D01*
X145382943Y-79132831D02*
X144990524Y-79525250D01*
%TO.N,Net-(U3-CAP)*%
X123730000Y-67507500D02*
X123730000Y-67659646D01*
X124440354Y-68370000D02*
X124777500Y-68370000D01*
X123730000Y-67659646D02*
X124440354Y-68370000D01*
%TO.N,Net-(U3-CLKSEL1{slash}XOUT32)*%
X129590000Y-69627500D02*
X130080000Y-70117500D01*
X129590000Y-69057500D02*
X128902500Y-68370000D01*
X128902500Y-68370000D02*
X128102500Y-68370000D01*
X129590000Y-69057500D02*
X129590000Y-69627500D01*
%TO.N,Net-(U3-XIN32)*%
X129590000Y-67087500D02*
X130080000Y-66597500D01*
X129590000Y-67657500D02*
X129377500Y-67870000D01*
X129590000Y-67657500D02*
X129590000Y-67087500D01*
X129377500Y-67870000D02*
X128102500Y-67870000D01*
%TO.N,Net-(U5-XIN)*%
X130878628Y-80002831D02*
X130538611Y-80342848D01*
X128430589Y-80090589D02*
X126807330Y-80090589D01*
X126807330Y-80090589D02*
X126436777Y-80461142D01*
X129493900Y-80342848D02*
X129241641Y-80090589D01*
X130538611Y-80342848D02*
X129493900Y-80342848D01*
X129241641Y-80090589D02*
X128430589Y-80090589D01*
%TO.N,Net-(C21-Pad1)*%
X128209411Y-82950589D02*
X128219411Y-82950589D01*
X126083223Y-83218858D02*
X126351492Y-82950589D01*
X126351492Y-82950589D02*
X128209411Y-82950589D01*
X128219411Y-82950589D02*
X128819376Y-82350624D01*
%TO.N,Net-(U5-ADC_AVDD)*%
X139184060Y-77007299D02*
X138399644Y-77007299D01*
X138399644Y-77007299D02*
X138002729Y-77404214D01*
X139184060Y-77007299D02*
X139184060Y-77019725D01*
X139184060Y-77019725D02*
X139842847Y-77678512D01*
%TO.N,Net-(J3-~{RESET})*%
X122830000Y-92190000D02*
X122620000Y-92400000D01*
X122830000Y-91645000D02*
X122830000Y-92190000D01*
%TO.N,Net-(J3-SWCLK)*%
X122830000Y-90375000D02*
X122830000Y-89630000D01*
X122830000Y-89630000D02*
X122810000Y-89610000D01*
%TO.N,Net-(U3-BOOTN)*%
X126190000Y-66732500D02*
X126190000Y-65767500D01*
X126190000Y-65767500D02*
X126290000Y-65667500D01*
%TO.N,Net-(U3-NRST)*%
X123720000Y-68786436D02*
X124303564Y-69370000D01*
X123720000Y-68650000D02*
X123720000Y-68786436D01*
X124303564Y-69370000D02*
X124777500Y-69370000D01*
%TO.N,Net-(U5-XOUT)*%
X131161471Y-80285674D02*
X129817769Y-81629376D01*
X129817769Y-81629376D02*
X129540624Y-81629376D01*
%TO.N,Net-(J2-SWDIO)*%
X156300000Y-91645000D02*
X156300000Y-91680000D01*
X156300000Y-91680000D02*
X155630000Y-92350000D01*
%TO.N,Net-(J2-SWCLK)*%
X155030000Y-91645000D02*
X155030000Y-91710000D01*
%TO.N,Net-(U1-XOUT)*%
X145861624Y-80648376D02*
X144960624Y-81549376D01*
X146130140Y-80648376D02*
X145861624Y-80648376D01*
X146514314Y-80264202D02*
X146130140Y-80648376D01*
%TO.N,Net-(U1-USB_DM)*%
X151700000Y-77170000D02*
X151871258Y-77170000D01*
X151871258Y-77170000D02*
X152507044Y-76534214D01*
X147130000Y-89210000D02*
X147130000Y-87720000D01*
%TO.N,Net-(U1-USB_DP)*%
X148130000Y-86230000D02*
X148130000Y-87720000D01*
X151090000Y-76500000D02*
X151181388Y-76591388D01*
X151884184Y-76591388D02*
X152224201Y-76251371D01*
X151181388Y-76591388D02*
X151884184Y-76591388D01*
X148120000Y-86220000D02*
X148130000Y-86230000D01*
%TO.N,Net-(U4-~{WP}{slash}SIO2)*%
X135275633Y-73908770D02*
X135275633Y-68739367D01*
X135620000Y-68395000D02*
X136420000Y-68395000D01*
X135275633Y-68739367D02*
X135620000Y-68395000D01*
X134891459Y-74292944D02*
X135275633Y-73908770D01*
%TO.N,Net-(U4-SI{slash}SIO0)*%
X143620000Y-69665000D02*
X139539052Y-69665000D01*
X135956000Y-73794089D02*
X135174302Y-74575787D01*
X135956000Y-73248052D02*
X135956000Y-73794089D01*
X139539052Y-69665000D02*
X135956000Y-73248052D01*
%TO.N,Net-(U5-USB_DM)*%
X136323976Y-77208064D02*
X136501823Y-77208064D01*
X136501823Y-77208064D02*
X137154201Y-76555686D01*
X129730000Y-86323000D02*
X129730000Y-87710000D01*
%TO.N,Net-(U5-USB_DP)*%
X135680979Y-76565068D02*
X135785911Y-76670000D01*
X130730000Y-86324563D02*
X130730000Y-87710000D01*
X136474201Y-76670000D02*
X136871358Y-76272843D01*
X135785911Y-76670000D02*
X136474201Y-76670000D01*
X130725434Y-86319997D02*
X130730000Y-86324563D01*
%TO.N,Net-(FINGER1-Pin_2)*%
X141450000Y-61965000D02*
X141460000Y-61955000D01*
X141450000Y-63080000D02*
X141450000Y-61965000D01*
X141460000Y-62314778D02*
X141460000Y-61955000D01*
%TO.N,Net-(FINGER1-Pin_3)*%
X140440000Y-60360000D02*
X133895222Y-60360000D01*
X140460000Y-60380000D02*
X140440000Y-60360000D01*
X140460000Y-61955000D02*
X140460000Y-60380000D01*
X133895222Y-60360000D02*
X132660000Y-61595222D01*
X132660000Y-61595222D02*
X132660000Y-61955000D01*
%TO.N,Net-(FINGER3-Pin_3)*%
X156060000Y-61163801D02*
X155262699Y-60366500D01*
X156060000Y-61955000D02*
X156060000Y-61163801D01*
X149073500Y-60366500D02*
X148260000Y-61180000D01*
X155262699Y-60366500D02*
X149073500Y-60366500D01*
X148260000Y-61180000D02*
X148260000Y-61955000D01*
%TO.N,Net-(FINGER5L1-Pin_2)*%
X119870000Y-84400000D02*
X119366500Y-83896500D01*
X128790000Y-71370000D02*
X128102500Y-71370000D01*
X129110000Y-71050000D02*
X128790000Y-71370000D01*
X155180000Y-85610000D02*
X155160000Y-85590000D01*
X119366500Y-83896500D02*
X119366500Y-80104304D01*
X119366500Y-80104304D02*
X125665779Y-73805025D01*
X129110000Y-71050000D02*
X129110000Y-71890000D01*
X129110000Y-71890000D02*
X129050000Y-71950000D01*
X119880000Y-84390000D02*
X121140000Y-84390000D01*
X156420000Y-85610000D02*
X155180000Y-85610000D01*
X119870000Y-84400000D02*
X119880000Y-84390000D01*
%TO.N,Net-(FINGER5L1-Pin_3)*%
X156420000Y-84610000D02*
X155140000Y-84610000D01*
X122440000Y-78890000D02*
X127190000Y-74140000D01*
X122440000Y-85380000D02*
X122440000Y-78890000D01*
X122430000Y-85390000D02*
X122440000Y-85380000D01*
X121140000Y-85390000D02*
X122430000Y-85390000D01*
X127190000Y-74140000D02*
X127190000Y-72577500D01*
X127190000Y-72577500D02*
X127190000Y-71507500D01*
%TO.N,INTER_RP2040_UART_TX1*%
X147800000Y-76300000D02*
X147800000Y-75840000D01*
X147800000Y-75840000D02*
X147080000Y-75120000D01*
%TO.N,INTER_RP2040_UART_RX1*%
X147137173Y-76332827D02*
X147137173Y-75742859D01*
X145612254Y-77912254D02*
X145612254Y-77857746D01*
X147137173Y-75742859D02*
X146797157Y-75402843D01*
X145612254Y-77857746D02*
X147137173Y-76332827D01*
%TO.N,Net-(FingerAux1-Pin_1)*%
X133734409Y-81602529D02*
X134825595Y-80511343D01*
X134825595Y-80511343D02*
X135399970Y-80511343D01*
X126860000Y-61955000D02*
X126860000Y-63220000D01*
X135399970Y-80511343D02*
X135739987Y-80851360D01*
%TO.N,Net-(FingerAux1-Pin_2)*%
X135631196Y-80176883D02*
X136022830Y-80568517D01*
X133164598Y-80788322D02*
X133256631Y-80880355D01*
X125860000Y-61955000D02*
X125860000Y-63220000D01*
X133164598Y-80788322D02*
X133225934Y-80849658D01*
X134024832Y-80849658D02*
X134697607Y-80176883D01*
X134697607Y-80176883D02*
X135631196Y-80176883D01*
X133225934Y-80849658D02*
X134024832Y-80849658D01*
%TO.N,Net-(FingerAux1-Pin_3)*%
X132790000Y-80180000D02*
X133281768Y-80180000D01*
X133281768Y-80180000D02*
X133624426Y-80522658D01*
X124860000Y-61955000D02*
X124860000Y-63240000D01*
X134522688Y-79842688D02*
X135862687Y-79842688D01*
X133842718Y-80522658D02*
X134522688Y-79842688D01*
X133624426Y-80522658D02*
X133842718Y-80522658D01*
X135862687Y-79842688D02*
X136305673Y-80285674D01*
%TO.N,Net-(FingerAux1-Pin_4)*%
X135339786Y-79313989D02*
X135541485Y-79515688D01*
X135541485Y-79515688D02*
X136101373Y-79515688D01*
X123860000Y-61955000D02*
X123860000Y-63240000D01*
X136101373Y-79515688D02*
X136588516Y-80002831D01*
%TO.N,Net-(FingerAux1-Pin_5)*%
X135986834Y-78835465D02*
X136871358Y-79719989D01*
X122860000Y-61955000D02*
X122860000Y-63220000D01*
X135850000Y-78835465D02*
X135986834Y-78835465D01*
%TO.N,Net-(FingerAux1-Pin_6)*%
X137728853Y-80361853D02*
X137728853Y-80011798D01*
X121860000Y-61955000D02*
X121860000Y-63220000D01*
X121860000Y-63220000D02*
X121850000Y-63230000D01*
X137728853Y-80011798D02*
X137154201Y-79437146D01*
%TO.N,Net-(FingerAux1-Pin_7)*%
X120840000Y-63260000D02*
X120860000Y-63240000D01*
X120860000Y-63240000D02*
X120860000Y-61955000D01*
X136588221Y-78682524D02*
X136965265Y-78682524D01*
X136965265Y-78682524D02*
X137437044Y-79154303D01*
%TO.N,Net-(FingerAux1-Pin_8)*%
X136960000Y-78090000D02*
X137719886Y-78849886D01*
X137719886Y-78849886D02*
X137719886Y-78871461D01*
X119860000Y-63250000D02*
X119850000Y-63260000D01*
X119860000Y-61955000D02*
X119860000Y-63250000D01*
%TO.N,Net-(U5-VREG_VOUT)*%
X131727157Y-80851360D02*
X132067173Y-80511344D01*
X137400589Y-74038347D02*
X137400589Y-73539411D01*
X136535573Y-77740000D02*
X137437044Y-76838529D01*
X132067173Y-80511344D02*
X132067173Y-79228449D01*
X131254668Y-82545332D02*
X131254668Y-81323849D01*
X132067173Y-79228449D02*
X132064362Y-79225638D01*
X131254668Y-81323849D02*
X131727157Y-80851360D01*
X136022830Y-75424315D02*
X136022830Y-75416106D01*
X134819689Y-76184101D02*
X134819689Y-76429270D01*
X137864060Y-76411513D02*
X137437044Y-76838529D01*
X137864060Y-75687299D02*
X137864060Y-76411513D01*
X136022830Y-75416106D02*
X137400589Y-74038347D01*
X130809411Y-82990589D02*
X131254668Y-82545332D01*
X136130419Y-77740000D02*
X136535573Y-77740000D01*
X134819689Y-76184101D02*
X135263044Y-76184101D01*
X134819689Y-76429270D02*
X136130419Y-77740000D01*
X135263044Y-76184101D02*
X136022830Y-75424315D01*
%TD*%
M02*
