%TF.GenerationSoftware,KiCad,Pcbnew,7.0.8*%
%TF.CreationDate,2023-12-04T13:14:00+00:00*%
%TF.ProjectId,tundraIOExpansion,74756e64-7261-4494-9f45-7870616e7369,rev?*%
%TF.SameCoordinates,Original*%
%TF.FileFunction,Copper,L2,Inr*%
%TF.FilePolarity,Positive*%
%FSLAX46Y46*%
G04 Gerber Fmt 4.6, Leading zero omitted, Abs format (unit mm)*
G04 Created by KiCad (PCBNEW 7.0.8) date 2023-12-04 13:14:00*
%MOMM*%
%LPD*%
G01*
G04 APERTURE LIST*
%TA.AperFunction,ViaPad*%
%ADD10C,0.500000*%
%TD*%
G04 APERTURE END LIST*
D10*
%TO.N,+3V3*%
X147260000Y-60910000D03*
X136790000Y-82470000D03*
X130130000Y-71737500D03*
X142550000Y-65850000D03*
X151080000Y-82460000D03*
X119890000Y-86400000D03*
X130640862Y-81531776D03*
X139460000Y-60910000D03*
X157860000Y-83600000D03*
X127196222Y-68294995D03*
X129290000Y-74980000D03*
X137572700Y-74697300D03*
X138088344Y-78093512D03*
X131660000Y-60900000D03*
X123700000Y-70370000D03*
X152557004Y-74947004D03*
X126160000Y-73310000D03*
X149000000Y-73123624D03*
X153100000Y-65840000D03*
X155050000Y-60880000D03*
X156300000Y-89530000D03*
X141120000Y-76420000D03*
X144620000Y-74910000D03*
X133680000Y-74410000D03*
X145970000Y-81520000D03*
X143230000Y-91910000D03*
X120710000Y-92100000D03*
X156480000Y-76390000D03*
X152560000Y-78080000D03*
%TO.N,GND*%
X131250000Y-79070000D03*
X135040000Y-83180000D03*
X124870000Y-81990000D03*
X119880000Y-83400000D03*
X125683500Y-67910000D03*
X133733572Y-77996416D03*
X150260000Y-60910000D03*
X152870000Y-80650000D03*
X127638858Y-81663223D03*
X126729207Y-67774225D03*
X128710000Y-88930000D03*
X154440000Y-74510000D03*
X134670000Y-60880000D03*
X157850000Y-86610000D03*
X128580000Y-75670000D03*
X139070000Y-74470000D03*
X148240000Y-69660000D03*
X140970000Y-77870000D03*
X149090000Y-77970000D03*
X123670000Y-92490000D03*
X158050000Y-60880000D03*
X144370000Y-83470000D03*
X142450000Y-60900000D03*
X143058858Y-81583223D03*
X143940000Y-75610000D03*
X134680000Y-89760000D03*
X146880000Y-79260000D03*
X129970000Y-65670000D03*
X137680000Y-69670000D03*
X146140000Y-89200000D03*
X140301142Y-81936777D03*
X128677000Y-83660000D03*
X151580000Y-91030000D03*
X134400000Y-92270000D03*
%TO.N,Net-(U1-VREG_VOUT)*%
X150300000Y-76150000D03*
X148170000Y-80260000D03*
%TO.N,D12-MI_MISO*%
X136072746Y-85702746D03*
X135030000Y-84670000D03*
%TO.N,D11-MI_MOSI*%
X145270000Y-86230000D03*
X146621520Y-78408481D03*
%TO.N,Net-(J3-~{RESET})*%
X124410000Y-89190000D03*
X122620000Y-92400000D03*
%TO.N,Net-(J3-SWCLK)*%
X122810000Y-88140000D03*
X122810000Y-89610000D03*
%TO.N,Net-(J2-SWDIO)*%
X154190000Y-89560000D03*
X155630000Y-92350000D03*
%TO.N,Net-(J2-SWCLK)*%
X154390000Y-92350000D03*
X153430000Y-89580000D03*
%TO.N,Net-(U1-USB_DM)*%
X151700000Y-77170000D03*
X147130000Y-89210000D03*
%TO.N,Net-(U1-USB_DP)*%
X148120000Y-86220000D03*
X151090000Y-76500000D03*
%TO.N,Net-(USB1-Pin_4)*%
X149902746Y-87162746D03*
X150320000Y-71350000D03*
%TO.N,Net-(U5-USB_DM)*%
X136323976Y-77208064D03*
X129730000Y-86323000D03*
%TO.N,Net-(U5-USB_DP)*%
X135680979Y-76565068D03*
X130725434Y-86319997D03*
%TO.N,Net-(FINGER1-Pin_2)*%
X141450000Y-63080000D03*
X145027827Y-71367120D03*
%TO.N,Net-(FINGER1-Pin_3)*%
X140460000Y-60380000D03*
X145809392Y-71426843D03*
%TO.N,Net-(FINGER3-Pin_2)*%
X145500000Y-73790000D03*
X149260000Y-63030000D03*
%TO.N,Net-(FINGER3-Pin_3)*%
X146400000Y-73800000D03*
X149760000Y-66460000D03*
%TO.N,Net-(FINGER5L1-Pin_2)*%
X125665779Y-73805025D03*
X155160000Y-85590000D03*
X119870000Y-84400000D03*
X129050000Y-71950000D03*
%TO.N,Net-(FINGER5L1-Pin_3)*%
X155140000Y-84610000D03*
X122440000Y-85380000D03*
%TO.N,INTER_RP2040_UART_TX1*%
X147800000Y-76300000D03*
X129520000Y-73500000D03*
%TO.N,INTER_RP2040_UART_RX1*%
X145612254Y-77912254D03*
X130872745Y-74127253D03*
%TO.N,Net-(FingerAux1-Pin_1)*%
X126860000Y-63220000D03*
X133734409Y-81602529D03*
%TO.N,Net-(FingerAux1-Pin_2)*%
X125860000Y-63220000D03*
X133164598Y-80788322D03*
%TO.N,Net-(FingerAux1-Pin_3)*%
X124860000Y-63240000D03*
X132790000Y-80180000D03*
%TO.N,Net-(FingerAux1-Pin_4)*%
X135339786Y-79313989D03*
X123860000Y-63240000D03*
%TO.N,Net-(FingerAux1-Pin_5)*%
X135850000Y-78835465D03*
X122860000Y-63220000D03*
%TO.N,Net-(FingerAux1-Pin_6)*%
X121850000Y-63230000D03*
X137728853Y-80361853D03*
%TO.N,Net-(FingerAux1-Pin_7)*%
X136588221Y-78682524D03*
X120840000Y-63260000D03*
%TO.N,Net-(FingerAux1-Pin_8)*%
X119850000Y-63260000D03*
X136960000Y-78090000D03*
%TO.N,Net-(U5-VREG_VOUT)*%
X134819689Y-76184101D03*
X132064362Y-79225638D03*
%TO.N,Net-(USB2-Pin_4)*%
X131547312Y-71972688D03*
X131740000Y-88970000D03*
%TD*%
%TA.AperFunction,Conductor*%
%TO.N,+3V3*%
G36*
X160782695Y-56590735D02*
G01*
X160825519Y-56594482D01*
X160951771Y-56606918D01*
X160971685Y-56610541D01*
X161038349Y-56628403D01*
X161131570Y-56656682D01*
X161147971Y-56662958D01*
X161215411Y-56694406D01*
X161218375Y-56695888D01*
X161255969Y-56715982D01*
X161302327Y-56740762D01*
X161308667Y-56744657D01*
X161374828Y-56790983D01*
X161378600Y-56793844D01*
X161450808Y-56853103D01*
X161455309Y-56857182D01*
X161512815Y-56914688D01*
X161516895Y-56919190D01*
X161576154Y-56991398D01*
X161579015Y-56995170D01*
X161625341Y-57061331D01*
X161629236Y-57067671D01*
X161674101Y-57151605D01*
X161675614Y-57154631D01*
X161707040Y-57222027D01*
X161713319Y-57238435D01*
X161741601Y-57331669D01*
X161759454Y-57398299D01*
X161763082Y-57418238D01*
X161775523Y-57544554D01*
X161779264Y-57587302D01*
X161779500Y-57592710D01*
X161779500Y-68087289D01*
X161779264Y-68092697D01*
X161775523Y-68135445D01*
X161763082Y-68261760D01*
X161759454Y-68281699D01*
X161741601Y-68348330D01*
X161713318Y-68441563D01*
X161707040Y-68457971D01*
X161675614Y-68525367D01*
X161674101Y-68528393D01*
X161629236Y-68612327D01*
X161625341Y-68618667D01*
X161579015Y-68684828D01*
X161576154Y-68688600D01*
X161516895Y-68760808D01*
X161512806Y-68765320D01*
X161455320Y-68822806D01*
X161450808Y-68826895D01*
X161378600Y-68886154D01*
X161374828Y-68889015D01*
X161308667Y-68935341D01*
X161302327Y-68939236D01*
X161218393Y-68984101D01*
X161215367Y-68985614D01*
X161147971Y-69017040D01*
X161131563Y-69023318D01*
X161038330Y-69051601D01*
X160971699Y-69069454D01*
X160951760Y-69073082D01*
X160825445Y-69085523D01*
X160784789Y-69089080D01*
X160782696Y-69089264D01*
X160777290Y-69089500D01*
X158611491Y-69089500D01*
X158276618Y-69127231D01*
X158276602Y-69127233D01*
X157948046Y-69202223D01*
X157948034Y-69202227D01*
X157629945Y-69313532D01*
X157326316Y-69459752D01*
X157040962Y-69639053D01*
X156777477Y-69849174D01*
X156539174Y-70087477D01*
X156329053Y-70350962D01*
X156149752Y-70636316D01*
X156003532Y-70939945D01*
X155892227Y-71258034D01*
X155892223Y-71258046D01*
X155817233Y-71586602D01*
X155817231Y-71586618D01*
X155779500Y-71921491D01*
X155779500Y-72258508D01*
X155817231Y-72593381D01*
X155817233Y-72593397D01*
X155892223Y-72921953D01*
X155892227Y-72921965D01*
X156003532Y-73240054D01*
X156149752Y-73543683D01*
X156149754Y-73543686D01*
X156329054Y-73829039D01*
X156443926Y-73973084D01*
X156537546Y-74090481D01*
X156539175Y-74092523D01*
X156777477Y-74330825D01*
X157040961Y-74540946D01*
X157326314Y-74720246D01*
X157629949Y-74866469D01*
X157822047Y-74933687D01*
X157948034Y-74977772D01*
X157948046Y-74977776D01*
X158276606Y-75052767D01*
X158611492Y-75090499D01*
X158611493Y-75090500D01*
X158611496Y-75090500D01*
X158779901Y-75090500D01*
X160777293Y-75090500D01*
X160782695Y-75090735D01*
X160825519Y-75094482D01*
X160951771Y-75106918D01*
X160971685Y-75110541D01*
X161038349Y-75128403D01*
X161131570Y-75156682D01*
X161147971Y-75162958D01*
X161215411Y-75194406D01*
X161218375Y-75195888D01*
X161237881Y-75206314D01*
X161302327Y-75240762D01*
X161308667Y-75244657D01*
X161374828Y-75290983D01*
X161378600Y-75293844D01*
X161450808Y-75353103D01*
X161455309Y-75357182D01*
X161512815Y-75414688D01*
X161516895Y-75419190D01*
X161576154Y-75491398D01*
X161579015Y-75495170D01*
X161625341Y-75561331D01*
X161629236Y-75567671D01*
X161674101Y-75651605D01*
X161675614Y-75654631D01*
X161707040Y-75722027D01*
X161713319Y-75738435D01*
X161741601Y-75831669D01*
X161759454Y-75898299D01*
X161763082Y-75918238D01*
X161775523Y-76044554D01*
X161779264Y-76087302D01*
X161779500Y-76092710D01*
X161779500Y-87969000D01*
X161770512Y-88186297D01*
X161761391Y-88395192D01*
X161760974Y-88400159D01*
X161733653Y-88619348D01*
X161706349Y-88826739D01*
X161705560Y-88831371D01*
X161660205Y-89047680D01*
X161614895Y-89252052D01*
X161613787Y-89256324D01*
X161550700Y-89468233D01*
X161487706Y-89668020D01*
X161486334Y-89671914D01*
X161405911Y-89878022D01*
X161325704Y-90071656D01*
X161324124Y-90075160D01*
X161226895Y-90274048D01*
X161130048Y-90460087D01*
X161128315Y-90463195D01*
X161014930Y-90653483D01*
X160902160Y-90830494D01*
X160900329Y-90833208D01*
X160771536Y-91013594D01*
X160643692Y-91180202D01*
X160641816Y-91182529D01*
X160498472Y-91351775D01*
X160355596Y-91507698D01*
X160197698Y-91665596D01*
X160041775Y-91808472D01*
X159872529Y-91951816D01*
X159870202Y-91953692D01*
X159703594Y-92081536D01*
X159523208Y-92210329D01*
X159520494Y-92212160D01*
X159343483Y-92324930D01*
X159153195Y-92438315D01*
X159150087Y-92440048D01*
X158964048Y-92536895D01*
X158765160Y-92634124D01*
X158761656Y-92635704D01*
X158568022Y-92715911D01*
X158361914Y-92796334D01*
X158358020Y-92797706D01*
X158158233Y-92860700D01*
X157946324Y-92923787D01*
X157942052Y-92924895D01*
X157737680Y-92970205D01*
X157521371Y-93015560D01*
X157516739Y-93016349D01*
X157309348Y-93043653D01*
X157090159Y-93070974D01*
X157085192Y-93071391D01*
X156876297Y-93080512D01*
X156659000Y-93089500D01*
X156251229Y-93089500D01*
X156184190Y-93069815D01*
X156138435Y-93017011D01*
X156128491Y-92947853D01*
X156157516Y-92884297D01*
X156163548Y-92877819D01*
X156180892Y-92860475D01*
X156220477Y-92820890D01*
X156235907Y-92796334D01*
X156310452Y-92677697D01*
X156310454Y-92677694D01*
X156310454Y-92677692D01*
X156310456Y-92677690D01*
X156366313Y-92518059D01*
X156366313Y-92518058D01*
X156366314Y-92518056D01*
X156385249Y-92350002D01*
X156385249Y-92349997D01*
X156366314Y-92181943D01*
X156310454Y-92022305D01*
X156310452Y-92022302D01*
X156220481Y-91879115D01*
X156220476Y-91879109D01*
X156100890Y-91759523D01*
X156100884Y-91759518D01*
X155957697Y-91669547D01*
X155957694Y-91669545D01*
X155798056Y-91613685D01*
X155630003Y-91594751D01*
X155629997Y-91594751D01*
X155461943Y-91613685D01*
X155302305Y-91669545D01*
X155302302Y-91669547D01*
X155159115Y-91759518D01*
X155159109Y-91759523D01*
X155097681Y-91820952D01*
X155036358Y-91854437D01*
X154966666Y-91849453D01*
X154922319Y-91820952D01*
X154860890Y-91759523D01*
X154860884Y-91759518D01*
X154717697Y-91669547D01*
X154717694Y-91669545D01*
X154558056Y-91613685D01*
X154390003Y-91594751D01*
X154389997Y-91594751D01*
X154221943Y-91613685D01*
X154062305Y-91669545D01*
X154062302Y-91669547D01*
X153919115Y-91759518D01*
X153919109Y-91759523D01*
X153799523Y-91879109D01*
X153799518Y-91879115D01*
X153709547Y-92022302D01*
X153709545Y-92022305D01*
X153653685Y-92181943D01*
X153634751Y-92349997D01*
X153634751Y-92350002D01*
X153653685Y-92518056D01*
X153709545Y-92677694D01*
X153709547Y-92677697D01*
X153799518Y-92820884D01*
X153799523Y-92820890D01*
X153856452Y-92877819D01*
X153889937Y-92939142D01*
X153884953Y-93008834D01*
X153843081Y-93064767D01*
X153777617Y-93089184D01*
X153768771Y-93089500D01*
X134936815Y-93089500D01*
X134869776Y-93069815D01*
X134824021Y-93017011D01*
X134814077Y-92947853D01*
X134843102Y-92884297D01*
X134865593Y-92865008D01*
X134865444Y-92864820D01*
X134870714Y-92860616D01*
X134870843Y-92860506D01*
X134870890Y-92860477D01*
X134990477Y-92740890D01*
X134996318Y-92731594D01*
X135080452Y-92597697D01*
X135080454Y-92597694D01*
X135080454Y-92597692D01*
X135080456Y-92597690D01*
X135136313Y-92438059D01*
X135136313Y-92438058D01*
X135136314Y-92438056D01*
X135155249Y-92269999D01*
X135155249Y-92269997D01*
X135136314Y-92101943D01*
X135080454Y-91942305D01*
X135080452Y-91942302D01*
X134990481Y-91799115D01*
X134990476Y-91799109D01*
X134870890Y-91679523D01*
X134870884Y-91679518D01*
X134727697Y-91589547D01*
X134727694Y-91589545D01*
X134568056Y-91533685D01*
X134400003Y-91514751D01*
X134399997Y-91514751D01*
X134231943Y-91533685D01*
X134072305Y-91589545D01*
X134072302Y-91589547D01*
X133929115Y-91679518D01*
X133929109Y-91679523D01*
X133809523Y-91799109D01*
X133809518Y-91799115D01*
X133719547Y-91942302D01*
X133719545Y-91942305D01*
X133663685Y-92101943D01*
X133644751Y-92269997D01*
X133644751Y-92269999D01*
X133663685Y-92438056D01*
X133719545Y-92597694D01*
X133719547Y-92597697D01*
X133809518Y-92740884D01*
X133809523Y-92740890D01*
X133929110Y-92860477D01*
X133929155Y-92860505D01*
X133929177Y-92860530D01*
X133934556Y-92864820D01*
X133933804Y-92865761D01*
X133975447Y-92912838D01*
X133986097Y-92981891D01*
X133957724Y-93045740D01*
X133899335Y-93084114D01*
X133863185Y-93089500D01*
X124404027Y-93089500D01*
X124336988Y-93069815D01*
X124291233Y-93017011D01*
X124281289Y-92947853D01*
X124299034Y-92899527D01*
X124350454Y-92817693D01*
X124350453Y-92817693D01*
X124350456Y-92817690D01*
X124406313Y-92658059D01*
X124406313Y-92658058D01*
X124406314Y-92658056D01*
X124425249Y-92490002D01*
X124425249Y-92489997D01*
X124406314Y-92321943D01*
X124375860Y-92234913D01*
X124350456Y-92162310D01*
X124350455Y-92162309D01*
X124350454Y-92162305D01*
X124350452Y-92162302D01*
X124292241Y-92069660D01*
X124620393Y-92069660D01*
X124632918Y-92140690D01*
X124649008Y-92231943D01*
X124650668Y-92241354D01*
X124719721Y-92401438D01*
X124719722Y-92401440D01*
X124719724Y-92401443D01*
X124806540Y-92518056D01*
X124823832Y-92541283D01*
X124957386Y-92653349D01*
X125113185Y-92731594D01*
X125282829Y-92771800D01*
X125282831Y-92771800D01*
X125413429Y-92771800D01*
X125413436Y-92771800D01*
X125543164Y-92756637D01*
X125706993Y-92697008D01*
X125852654Y-92601205D01*
X125972296Y-92474393D01*
X126059467Y-92323407D01*
X126109469Y-92156388D01*
X126119607Y-91982340D01*
X126089332Y-91810646D01*
X126020279Y-91650562D01*
X126010442Y-91637349D01*
X125952993Y-91560181D01*
X125916168Y-91510717D01*
X125912584Y-91507710D01*
X125782614Y-91398651D01*
X125782612Y-91398650D01*
X125626818Y-91320407D01*
X125626816Y-91320406D01*
X125626815Y-91320406D01*
X125457171Y-91280200D01*
X125326564Y-91280200D01*
X125213052Y-91293467D01*
X125196835Y-91295363D01*
X125196832Y-91295364D01*
X125033008Y-91354991D01*
X125033004Y-91354993D01*
X124887348Y-91450792D01*
X124887347Y-91450793D01*
X124767706Y-91577603D01*
X124767703Y-91577609D01*
X124680534Y-91728590D01*
X124680533Y-91728592D01*
X124680533Y-91728593D01*
X124676928Y-91740635D01*
X124630531Y-91895610D01*
X124630530Y-91895616D01*
X124623151Y-92022305D01*
X124620393Y-92069660D01*
X124292241Y-92069660D01*
X124260481Y-92019115D01*
X124260476Y-92019109D01*
X124140890Y-91899523D01*
X124140884Y-91899518D01*
X123997697Y-91809547D01*
X123997694Y-91809545D01*
X123838056Y-91753685D01*
X123670003Y-91734751D01*
X123669997Y-91734751D01*
X123501943Y-91753685D01*
X123342305Y-91809545D01*
X123342304Y-91809546D01*
X123271648Y-91853942D01*
X123204411Y-91872942D01*
X123137576Y-91852574D01*
X123117996Y-91836629D01*
X123090890Y-91809523D01*
X123090884Y-91809518D01*
X122947697Y-91719547D01*
X122947694Y-91719545D01*
X122788056Y-91663685D01*
X122620003Y-91644751D01*
X122619997Y-91644751D01*
X122451943Y-91663685D01*
X122292305Y-91719545D01*
X122292302Y-91719547D01*
X122149115Y-91809518D01*
X122149109Y-91809523D01*
X122029523Y-91929109D01*
X122029518Y-91929115D01*
X121939547Y-92072302D01*
X121939545Y-92072305D01*
X121883685Y-92231943D01*
X121864751Y-92399997D01*
X121864751Y-92400002D01*
X121883685Y-92568056D01*
X121939545Y-92727694D01*
X121939547Y-92727697D01*
X122029518Y-92870884D01*
X122029523Y-92870890D01*
X122036452Y-92877819D01*
X122069937Y-92939142D01*
X122064953Y-93008834D01*
X122023081Y-93064767D01*
X121957617Y-93089184D01*
X121948771Y-93089500D01*
X120901000Y-93089500D01*
X120683702Y-93080512D01*
X120474806Y-93071391D01*
X120469839Y-93070974D01*
X120250651Y-93043653D01*
X120043259Y-93016349D01*
X120038627Y-93015560D01*
X119822319Y-92970205D01*
X119617946Y-92924895D01*
X119613674Y-92923787D01*
X119401766Y-92860700D01*
X119201978Y-92797706D01*
X119198084Y-92796334D01*
X118991977Y-92715911D01*
X118798342Y-92635704D01*
X118794838Y-92634124D01*
X118595951Y-92536895D01*
X118409911Y-92440049D01*
X118406803Y-92438315D01*
X118283008Y-92364550D01*
X118216510Y-92324926D01*
X118085325Y-92241352D01*
X118039505Y-92212161D01*
X118036800Y-92210336D01*
X117856405Y-92081536D01*
X117840925Y-92069658D01*
X117689778Y-91953679D01*
X117687481Y-91951826D01*
X117532959Y-91820952D01*
X117518224Y-91808472D01*
X117488958Y-91781655D01*
X117362300Y-91665594D01*
X117204404Y-91507698D01*
X117061526Y-91351774D01*
X116918165Y-91182508D01*
X116916328Y-91180230D01*
X116819206Y-91053659D01*
X119540393Y-91053659D01*
X119565854Y-91198056D01*
X119570668Y-91225354D01*
X119639721Y-91385438D01*
X119639722Y-91385440D01*
X119639724Y-91385443D01*
X119725672Y-91500890D01*
X119743832Y-91525283D01*
X119877386Y-91637349D01*
X120033185Y-91715594D01*
X120202829Y-91755800D01*
X120202831Y-91755800D01*
X120333429Y-91755800D01*
X120333436Y-91755800D01*
X120463164Y-91740637D01*
X120626993Y-91681008D01*
X120772654Y-91585205D01*
X120892296Y-91458393D01*
X120979467Y-91307407D01*
X121029469Y-91140388D01*
X121035899Y-91030002D01*
X150824751Y-91030002D01*
X150843685Y-91198056D01*
X150899545Y-91357694D01*
X150899547Y-91357697D01*
X150989518Y-91500884D01*
X150989523Y-91500890D01*
X151109109Y-91620476D01*
X151109115Y-91620481D01*
X151252302Y-91710452D01*
X151252305Y-91710454D01*
X151252309Y-91710455D01*
X151252310Y-91710456D01*
X151324913Y-91735860D01*
X151411943Y-91766314D01*
X151579997Y-91785249D01*
X151580000Y-91785249D01*
X151580001Y-91785249D01*
X151594978Y-91783561D01*
X151611896Y-91781655D01*
X151680718Y-91793709D01*
X151732098Y-91841057D01*
X151749723Y-91908668D01*
X151749571Y-91912085D01*
X151743151Y-92022305D01*
X151740393Y-92069660D01*
X151752918Y-92140690D01*
X151769008Y-92231943D01*
X151770668Y-92241354D01*
X151839721Y-92401438D01*
X151839722Y-92401440D01*
X151839724Y-92401443D01*
X151926540Y-92518056D01*
X151943832Y-92541283D01*
X152077386Y-92653349D01*
X152233185Y-92731594D01*
X152402829Y-92771800D01*
X152402831Y-92771800D01*
X152533429Y-92771800D01*
X152533436Y-92771800D01*
X152663164Y-92756637D01*
X152826993Y-92697008D01*
X152972654Y-92601205D01*
X153092296Y-92474393D01*
X153179467Y-92323407D01*
X153229469Y-92156388D01*
X153239607Y-91982340D01*
X153209332Y-91810646D01*
X153140279Y-91650562D01*
X153130442Y-91637349D01*
X153072993Y-91560181D01*
X153036168Y-91510717D01*
X153032584Y-91507710D01*
X152902614Y-91398651D01*
X152902612Y-91398650D01*
X152746818Y-91320407D01*
X152746816Y-91320406D01*
X152746815Y-91320406D01*
X152577171Y-91280200D01*
X152446564Y-91280200D01*
X152445814Y-91280200D01*
X152378775Y-91260515D01*
X152333020Y-91207711D01*
X152322594Y-91142316D01*
X152332583Y-91053659D01*
X156820393Y-91053659D01*
X156845854Y-91198056D01*
X156850668Y-91225354D01*
X156919721Y-91385438D01*
X156919722Y-91385440D01*
X156919724Y-91385443D01*
X157005672Y-91500890D01*
X157023832Y-91525283D01*
X157157386Y-91637349D01*
X157313185Y-91715594D01*
X157482829Y-91755800D01*
X157482831Y-91755800D01*
X157613429Y-91755800D01*
X157613436Y-91755800D01*
X157743164Y-91740637D01*
X157906993Y-91681008D01*
X158052654Y-91585205D01*
X158172296Y-91458393D01*
X158259467Y-91307407D01*
X158309469Y-91140388D01*
X158319607Y-90966340D01*
X158289332Y-90794646D01*
X158220279Y-90634562D01*
X158210442Y-90621349D01*
X158152993Y-90544181D01*
X158116168Y-90494717D01*
X157982614Y-90382651D01*
X157947964Y-90365249D01*
X157826818Y-90304407D01*
X157826816Y-90304406D01*
X157826815Y-90304406D01*
X157657171Y-90264200D01*
X157526564Y-90264200D01*
X157413052Y-90277467D01*
X157396835Y-90279363D01*
X157396832Y-90279364D01*
X157233008Y-90338991D01*
X157233004Y-90338993D01*
X157087348Y-90434792D01*
X157087347Y-90434793D01*
X156967706Y-90561603D01*
X156967703Y-90561609D01*
X156880534Y-90712590D01*
X156830531Y-90879610D01*
X156830530Y-90879616D01*
X156820393Y-91053659D01*
X152332583Y-91053659D01*
X152335249Y-91030002D01*
X152335249Y-91029997D01*
X152318087Y-90877684D01*
X152330141Y-90808862D01*
X152377490Y-90757482D01*
X152441307Y-90739800D01*
X152533429Y-90739800D01*
X152533436Y-90739800D01*
X152663164Y-90724637D01*
X152826993Y-90665008D01*
X152972654Y-90569205D01*
X153092296Y-90442393D01*
X153130607Y-90376034D01*
X153181172Y-90327821D01*
X153249779Y-90314597D01*
X153256910Y-90315746D01*
X153261940Y-90316312D01*
X153261941Y-90316313D01*
X153305916Y-90321267D01*
X153429997Y-90335249D01*
X153430000Y-90335249D01*
X153430003Y-90335249D01*
X153530835Y-90323887D01*
X153598059Y-90316313D01*
X153757690Y-90260456D01*
X153764992Y-90255867D01*
X153832226Y-90236866D01*
X153871920Y-90243819D01*
X154021939Y-90296313D01*
X154189997Y-90315249D01*
X154190000Y-90315249D01*
X154190003Y-90315249D01*
X154358056Y-90296314D01*
X154372074Y-90291409D01*
X154517690Y-90240456D01*
X154517692Y-90240454D01*
X154517694Y-90240454D01*
X154517697Y-90240452D01*
X154660884Y-90150481D01*
X154660885Y-90150480D01*
X154660890Y-90150477D01*
X154780477Y-90030890D01*
X154780481Y-90030884D01*
X154870452Y-89887697D01*
X154870454Y-89887694D01*
X154870454Y-89887692D01*
X154870456Y-89887690D01*
X154926313Y-89728059D01*
X154926313Y-89728058D01*
X154926314Y-89728056D01*
X154945249Y-89560002D01*
X154945249Y-89559997D01*
X154926314Y-89391943D01*
X154878859Y-89256324D01*
X154870456Y-89232310D01*
X154870455Y-89232309D01*
X154870454Y-89232305D01*
X154870452Y-89232302D01*
X154780481Y-89089115D01*
X154780476Y-89089109D01*
X154660890Y-88969523D01*
X154660884Y-88969518D01*
X154517697Y-88879547D01*
X154517694Y-88879545D01*
X154358056Y-88823685D01*
X154190003Y-88804751D01*
X154189997Y-88804751D01*
X154021943Y-88823685D01*
X153862306Y-88879545D01*
X153855002Y-88884135D01*
X153787764Y-88903132D01*
X153748080Y-88896181D01*
X153598057Y-88843686D01*
X153430003Y-88824751D01*
X153429997Y-88824751D01*
X153261943Y-88843685D01*
X153102305Y-88899545D01*
X153102302Y-88899547D01*
X152959115Y-88989518D01*
X152959109Y-88989523D01*
X152839523Y-89109109D01*
X152818656Y-89142319D01*
X152782412Y-89200002D01*
X152776673Y-89209135D01*
X152724338Y-89255426D01*
X152655284Y-89266074D01*
X152643084Y-89263821D01*
X152577171Y-89248200D01*
X152446564Y-89248200D01*
X152333052Y-89261467D01*
X152316835Y-89263363D01*
X152316832Y-89263364D01*
X152153008Y-89322991D01*
X152153004Y-89322993D01*
X152007348Y-89418792D01*
X152007347Y-89418793D01*
X151887706Y-89545603D01*
X151887704Y-89545607D01*
X151879119Y-89560477D01*
X151800534Y-89696590D01*
X151750531Y-89863610D01*
X151750530Y-89863616D01*
X151740393Y-90037659D01*
X151740393Y-90037660D01*
X151757499Y-90134674D01*
X151749755Y-90204113D01*
X151705698Y-90258342D01*
X151639317Y-90280144D01*
X151621501Y-90279426D01*
X151580005Y-90274751D01*
X151579997Y-90274751D01*
X151411943Y-90293685D01*
X151252305Y-90349545D01*
X151252302Y-90349547D01*
X151109115Y-90439518D01*
X151109109Y-90439523D01*
X150989523Y-90559109D01*
X150989518Y-90559115D01*
X150899547Y-90702302D01*
X150899545Y-90702305D01*
X150843685Y-90861943D01*
X150824751Y-91029997D01*
X150824751Y-91030002D01*
X121035899Y-91030002D01*
X121039607Y-90966340D01*
X121009332Y-90794646D01*
X120940279Y-90634562D01*
X120930442Y-90621349D01*
X120872993Y-90544181D01*
X120836168Y-90494717D01*
X120702614Y-90382651D01*
X120667964Y-90365249D01*
X120546818Y-90304407D01*
X120546816Y-90304406D01*
X120546815Y-90304406D01*
X120377171Y-90264200D01*
X120246564Y-90264200D01*
X120133052Y-90277467D01*
X120116835Y-90279363D01*
X120116832Y-90279364D01*
X119953008Y-90338991D01*
X119953004Y-90338993D01*
X119807348Y-90434792D01*
X119807347Y-90434793D01*
X119687706Y-90561603D01*
X119687703Y-90561609D01*
X119600534Y-90712590D01*
X119550531Y-90879610D01*
X119550530Y-90879616D01*
X119540393Y-91053659D01*
X116819206Y-91053659D01*
X116788460Y-91013590D01*
X116754724Y-90966340D01*
X116659651Y-90833182D01*
X116657837Y-90830493D01*
X116644057Y-90808862D01*
X116545073Y-90653489D01*
X116431683Y-90463195D01*
X116429949Y-90460086D01*
X116420740Y-90442396D01*
X116333104Y-90274048D01*
X116235874Y-90075160D01*
X116234294Y-90071656D01*
X116154088Y-89878022D01*
X116136246Y-89832298D01*
X116073658Y-89671898D01*
X116072292Y-89668020D01*
X116053999Y-89610002D01*
X122054751Y-89610002D01*
X122073685Y-89778056D01*
X122129545Y-89937694D01*
X122129547Y-89937697D01*
X122219518Y-90080884D01*
X122219523Y-90080890D01*
X122339109Y-90200476D01*
X122339115Y-90200481D01*
X122482302Y-90290452D01*
X122482305Y-90290454D01*
X122482309Y-90290455D01*
X122482310Y-90290456D01*
X122522177Y-90304406D01*
X122641943Y-90346314D01*
X122809997Y-90365249D01*
X122810000Y-90365249D01*
X122810003Y-90365249D01*
X122978056Y-90346314D01*
X123030906Y-90327821D01*
X123137690Y-90290456D01*
X123137692Y-90290454D01*
X123137694Y-90290454D01*
X123137697Y-90290452D01*
X123280884Y-90200481D01*
X123280885Y-90200480D01*
X123280890Y-90200477D01*
X123400477Y-90080890D01*
X123400481Y-90080884D01*
X123490452Y-89937697D01*
X123490454Y-89937694D01*
X123490454Y-89937692D01*
X123490456Y-89937690D01*
X123546313Y-89778059D01*
X123546313Y-89778057D01*
X123546314Y-89778055D01*
X123559373Y-89662153D01*
X123586439Y-89597739D01*
X123644034Y-89558183D01*
X123713871Y-89556046D01*
X123773777Y-89592004D01*
X123787585Y-89610062D01*
X123801134Y-89631624D01*
X123819523Y-89660890D01*
X123939109Y-89780476D01*
X123939115Y-89780481D01*
X124082302Y-89870452D01*
X124082305Y-89870454D01*
X124082309Y-89870455D01*
X124082310Y-89870456D01*
X124110883Y-89880454D01*
X124241943Y-89926314D01*
X124409997Y-89945249D01*
X124410000Y-89945249D01*
X124410001Y-89945249D01*
X124422663Y-89943822D01*
X124484547Y-89936849D01*
X124553368Y-89948903D01*
X124604748Y-89996251D01*
X124620547Y-90038536D01*
X124640286Y-90150476D01*
X124650668Y-90209354D01*
X124719721Y-90369438D01*
X124719722Y-90369440D01*
X124719724Y-90369443D01*
X124812987Y-90494716D01*
X124823832Y-90509283D01*
X124957386Y-90621349D01*
X125113185Y-90699594D01*
X125282829Y-90739800D01*
X125282831Y-90739800D01*
X125413429Y-90739800D01*
X125413436Y-90739800D01*
X125543164Y-90724637D01*
X125706993Y-90665008D01*
X125852654Y-90569205D01*
X125972296Y-90442393D01*
X126059467Y-90291407D01*
X126109469Y-90124388D01*
X126119607Y-89950340D01*
X126089332Y-89778646D01*
X126081290Y-89760002D01*
X133924751Y-89760002D01*
X133943685Y-89928056D01*
X133999545Y-90087694D01*
X133999547Y-90087697D01*
X134089518Y-90230884D01*
X134089523Y-90230890D01*
X134209109Y-90350476D01*
X134209115Y-90350481D01*
X134352302Y-90440452D01*
X134352305Y-90440454D01*
X134352309Y-90440455D01*
X134352310Y-90440456D01*
X134417295Y-90463195D01*
X134511943Y-90496314D01*
X134679997Y-90515249D01*
X134680000Y-90515249D01*
X134680003Y-90515249D01*
X134848056Y-90496314D01*
X134852623Y-90494716D01*
X135007690Y-90440456D01*
X135007692Y-90440454D01*
X135007694Y-90440454D01*
X135007697Y-90440452D01*
X135150884Y-90350481D01*
X135150885Y-90350480D01*
X135150890Y-90350477D01*
X135270477Y-90230890D01*
X135284009Y-90209354D01*
X135360452Y-90087697D01*
X135360454Y-90087694D01*
X135360454Y-90087692D01*
X135360456Y-90087690D01*
X135416313Y-89928059D01*
X135416313Y-89928058D01*
X135416314Y-89928056D01*
X135435249Y-89760002D01*
X135435249Y-89759997D01*
X135416314Y-89591943D01*
X135373017Y-89468208D01*
X135360456Y-89432310D01*
X135360455Y-89432309D01*
X135360454Y-89432305D01*
X135360452Y-89432302D01*
X135270481Y-89289115D01*
X135270476Y-89289109D01*
X135181369Y-89200002D01*
X145384751Y-89200002D01*
X145403685Y-89368056D01*
X145459545Y-89527694D01*
X145459547Y-89527697D01*
X145549518Y-89670884D01*
X145549523Y-89670890D01*
X145669109Y-89790476D01*
X145669115Y-89790481D01*
X145812302Y-89880452D01*
X145812305Y-89880454D01*
X145812309Y-89880455D01*
X145812310Y-89880456D01*
X145840883Y-89890454D01*
X145971943Y-89936314D01*
X146139997Y-89955249D01*
X146140000Y-89955249D01*
X146140003Y-89955249D01*
X146308056Y-89936314D01*
X146308059Y-89936313D01*
X146467690Y-89880456D01*
X146561071Y-89821780D01*
X146628305Y-89802780D01*
X146693014Y-89821780D01*
X146797914Y-89887694D01*
X146802307Y-89890454D01*
X146802305Y-89890454D01*
X146802309Y-89890455D01*
X146802310Y-89890456D01*
X146854946Y-89908874D01*
X146961943Y-89946314D01*
X147129997Y-89965249D01*
X147130000Y-89965249D01*
X147130003Y-89965249D01*
X147298056Y-89946314D01*
X147322682Y-89937697D01*
X147457690Y-89890456D01*
X147457692Y-89890454D01*
X147457694Y-89890454D01*
X147457697Y-89890452D01*
X147600884Y-89800481D01*
X147600885Y-89800480D01*
X147600890Y-89800477D01*
X147720477Y-89680890D01*
X147720481Y-89680884D01*
X147810452Y-89537697D01*
X147810454Y-89537694D01*
X147810454Y-89537692D01*
X147810456Y-89537690D01*
X147866313Y-89378059D01*
X147866313Y-89378058D01*
X147866314Y-89378056D01*
X147885249Y-89210002D01*
X147885249Y-89209997D01*
X147866314Y-89041943D01*
X147816486Y-88899544D01*
X147810456Y-88882310D01*
X147810455Y-88882309D01*
X147810454Y-88882305D01*
X147810452Y-88882302D01*
X147720481Y-88739115D01*
X147720476Y-88739109D01*
X147600890Y-88619523D01*
X147600884Y-88619518D01*
X147457697Y-88529547D01*
X147457694Y-88529545D01*
X147298056Y-88473685D01*
X147130003Y-88454751D01*
X147129997Y-88454751D01*
X146961943Y-88473685D01*
X146802307Y-88529545D01*
X146708929Y-88588219D01*
X146641692Y-88607219D01*
X146576985Y-88588219D01*
X146467692Y-88519545D01*
X146467691Y-88519544D01*
X146467690Y-88519544D01*
X146409290Y-88499109D01*
X146308056Y-88463685D01*
X146140003Y-88444751D01*
X146139997Y-88444751D01*
X145971943Y-88463685D01*
X145812305Y-88519545D01*
X145812302Y-88519547D01*
X145669115Y-88609518D01*
X145669109Y-88609523D01*
X145549523Y-88729109D01*
X145549518Y-88729115D01*
X145459547Y-88872302D01*
X145459545Y-88872305D01*
X145403685Y-89031943D01*
X145384751Y-89199997D01*
X145384751Y-89200002D01*
X135181369Y-89200002D01*
X135150890Y-89169523D01*
X135150884Y-89169518D01*
X135007697Y-89079547D01*
X135007694Y-89079545D01*
X134848056Y-89023685D01*
X134680003Y-89004751D01*
X134679997Y-89004751D01*
X134511943Y-89023685D01*
X134352305Y-89079545D01*
X134352302Y-89079547D01*
X134209115Y-89169518D01*
X134209109Y-89169523D01*
X134089523Y-89289109D01*
X134089518Y-89289115D01*
X133999547Y-89432302D01*
X133999545Y-89432305D01*
X133943685Y-89591943D01*
X133924751Y-89759997D01*
X133924751Y-89760002D01*
X126081290Y-89760002D01*
X126020279Y-89618562D01*
X126014244Y-89610456D01*
X125916167Y-89478716D01*
X125782614Y-89366651D01*
X125782612Y-89366650D01*
X125626818Y-89288407D01*
X125626816Y-89288406D01*
X125626815Y-89288406D01*
X125457171Y-89248200D01*
X125326564Y-89248200D01*
X125326563Y-89248200D01*
X125297489Y-89251598D01*
X125228618Y-89239828D01*
X125177044Y-89192691D01*
X125159877Y-89142319D01*
X125146314Y-89021944D01*
X125140298Y-89004751D01*
X125114142Y-88930002D01*
X127954751Y-88930002D01*
X127973685Y-89098056D01*
X128029545Y-89257694D01*
X128029547Y-89257697D01*
X128119518Y-89400884D01*
X128119523Y-89400890D01*
X128239109Y-89520476D01*
X128239115Y-89520481D01*
X128382302Y-89610452D01*
X128382305Y-89610454D01*
X128382309Y-89610455D01*
X128382310Y-89610456D01*
X128405459Y-89618556D01*
X128541943Y-89666314D01*
X128709997Y-89685249D01*
X128710000Y-89685249D01*
X128710003Y-89685249D01*
X128878056Y-89666314D01*
X128878059Y-89666313D01*
X129037690Y-89610456D01*
X129037692Y-89610454D01*
X129037694Y-89610454D01*
X129037697Y-89610452D01*
X129180884Y-89520481D01*
X129180885Y-89520480D01*
X129180890Y-89520477D01*
X129300477Y-89400890D01*
X129327390Y-89358059D01*
X129390452Y-89257697D01*
X129390454Y-89257694D01*
X129390454Y-89257692D01*
X129390456Y-89257690D01*
X129446313Y-89098059D01*
X129446313Y-89098058D01*
X129446314Y-89098056D01*
X129460742Y-88970002D01*
X130984751Y-88970002D01*
X131003685Y-89138056D01*
X131059545Y-89297694D01*
X131059547Y-89297697D01*
X131149518Y-89440884D01*
X131149523Y-89440890D01*
X131269109Y-89560476D01*
X131269115Y-89560481D01*
X131412302Y-89650452D01*
X131412305Y-89650454D01*
X131412309Y-89650455D01*
X131412310Y-89650456D01*
X131470690Y-89670884D01*
X131571943Y-89706314D01*
X131739997Y-89725249D01*
X131740000Y-89725249D01*
X131740003Y-89725249D01*
X131908056Y-89706314D01*
X131935837Y-89696593D01*
X132067690Y-89650456D01*
X132067692Y-89650454D01*
X132067694Y-89650454D01*
X132067697Y-89650452D01*
X132210884Y-89560481D01*
X132210885Y-89560480D01*
X132210890Y-89560477D01*
X132330477Y-89440890D01*
X132335868Y-89432310D01*
X132420452Y-89297697D01*
X132420454Y-89297694D01*
X132420454Y-89297692D01*
X132420456Y-89297690D01*
X132476313Y-89138059D01*
X132476313Y-89138058D01*
X132476314Y-89138056D01*
X132495249Y-88970002D01*
X132495249Y-88969997D01*
X132476314Y-88801943D01*
X132420454Y-88642305D01*
X132420452Y-88642302D01*
X132330481Y-88499115D01*
X132330476Y-88499109D01*
X132210890Y-88379523D01*
X132210884Y-88379518D01*
X132067697Y-88289547D01*
X132067694Y-88289545D01*
X131908056Y-88233685D01*
X131740003Y-88214751D01*
X131739997Y-88214751D01*
X131571943Y-88233685D01*
X131412305Y-88289545D01*
X131412302Y-88289547D01*
X131269115Y-88379518D01*
X131269109Y-88379523D01*
X131149523Y-88499109D01*
X131149518Y-88499115D01*
X131059547Y-88642302D01*
X131059545Y-88642305D01*
X131003685Y-88801943D01*
X130984751Y-88969997D01*
X130984751Y-88970002D01*
X129460742Y-88970002D01*
X129465249Y-88930002D01*
X129465249Y-88929997D01*
X129446314Y-88761943D01*
X129415860Y-88674913D01*
X129390456Y-88602310D01*
X129390455Y-88602309D01*
X129390454Y-88602305D01*
X129390452Y-88602302D01*
X129300481Y-88459115D01*
X129300476Y-88459109D01*
X129180890Y-88339523D01*
X129180884Y-88339518D01*
X129037697Y-88249547D01*
X129037694Y-88249545D01*
X128878056Y-88193685D01*
X128710003Y-88174751D01*
X128709997Y-88174751D01*
X128541943Y-88193685D01*
X128382305Y-88249545D01*
X128382302Y-88249547D01*
X128239115Y-88339518D01*
X128239109Y-88339523D01*
X128119523Y-88459109D01*
X128119518Y-88459115D01*
X128029547Y-88602302D01*
X128029545Y-88602305D01*
X127973685Y-88761943D01*
X127954751Y-88929997D01*
X127954751Y-88930002D01*
X125114142Y-88930002D01*
X125090456Y-88862310D01*
X125090455Y-88862309D01*
X125090454Y-88862305D01*
X125090452Y-88862302D01*
X125000481Y-88719115D01*
X125000476Y-88719109D01*
X124880890Y-88599523D01*
X124880884Y-88599518D01*
X124737697Y-88509547D01*
X124737694Y-88509545D01*
X124578056Y-88453685D01*
X124410003Y-88434751D01*
X124409997Y-88434751D01*
X124241943Y-88453685D01*
X124082305Y-88509545D01*
X124082302Y-88509547D01*
X123939115Y-88599518D01*
X123939109Y-88599523D01*
X123819523Y-88719109D01*
X123819518Y-88719115D01*
X123729547Y-88862302D01*
X123729545Y-88862305D01*
X123673685Y-89021944D01*
X123660626Y-89137847D01*
X123633559Y-89202261D01*
X123575964Y-89241816D01*
X123506127Y-89243953D01*
X123446221Y-89207994D01*
X123432415Y-89189939D01*
X123400477Y-89139110D01*
X123280890Y-89019523D01*
X123217979Y-88979993D01*
X123171689Y-88927659D01*
X123161041Y-88858605D01*
X123189416Y-88794757D01*
X123217980Y-88770006D01*
X123230812Y-88761943D01*
X123280890Y-88730477D01*
X123400477Y-88610890D01*
X123405868Y-88602310D01*
X123490452Y-88467697D01*
X123490454Y-88467694D01*
X123490454Y-88467692D01*
X123490456Y-88467690D01*
X123546313Y-88308059D01*
X123546313Y-88308058D01*
X123546314Y-88308056D01*
X123565249Y-88140002D01*
X123565249Y-88139997D01*
X123546314Y-87971943D01*
X123515860Y-87884913D01*
X123490456Y-87812310D01*
X123490455Y-87812309D01*
X123490454Y-87812305D01*
X123490452Y-87812302D01*
X123400481Y-87669115D01*
X123400476Y-87669109D01*
X123280890Y-87549523D01*
X123280884Y-87549518D01*
X123137697Y-87459547D01*
X123137694Y-87459545D01*
X122978056Y-87403685D01*
X122810003Y-87384751D01*
X122809997Y-87384751D01*
X122641943Y-87403685D01*
X122482305Y-87459545D01*
X122482302Y-87459547D01*
X122339115Y-87549518D01*
X122339109Y-87549523D01*
X122219523Y-87669109D01*
X122219518Y-87669115D01*
X122129547Y-87812302D01*
X122129545Y-87812305D01*
X122073685Y-87971943D01*
X122054751Y-88139997D01*
X122054751Y-88140002D01*
X122073685Y-88308056D01*
X122129545Y-88467694D01*
X122129547Y-88467697D01*
X122219518Y-88610884D01*
X122219523Y-88610890D01*
X122339109Y-88730476D01*
X122339112Y-88730478D01*
X122402020Y-88770007D01*
X122448311Y-88822342D01*
X122458958Y-88891395D01*
X122430583Y-88955244D01*
X122402020Y-88979993D01*
X122339112Y-89019521D01*
X122339109Y-89019523D01*
X122219523Y-89139109D01*
X122219518Y-89139115D01*
X122129547Y-89282302D01*
X122129545Y-89282305D01*
X122073685Y-89441943D01*
X122054751Y-89609997D01*
X122054751Y-89610002D01*
X116053999Y-89610002D01*
X116025773Y-89520481D01*
X116009299Y-89468233D01*
X115946207Y-89256312D01*
X115945103Y-89252052D01*
X115935781Y-89210002D01*
X115899794Y-89047680D01*
X115854432Y-88831341D01*
X115853657Y-88826792D01*
X115826358Y-88619442D01*
X115799022Y-88400135D01*
X115798609Y-88395216D01*
X115789487Y-88186297D01*
X115780500Y-87969000D01*
X115780500Y-87968500D01*
X115780500Y-87162748D01*
X149147497Y-87162748D01*
X149166431Y-87330802D01*
X149222291Y-87490440D01*
X149222293Y-87490443D01*
X149312264Y-87633630D01*
X149312269Y-87633636D01*
X149431855Y-87753222D01*
X149431861Y-87753227D01*
X149575048Y-87843198D01*
X149575051Y-87843200D01*
X149575055Y-87843201D01*
X149575056Y-87843202D01*
X149647659Y-87868606D01*
X149734689Y-87899060D01*
X149902743Y-87917995D01*
X149902746Y-87917995D01*
X149902749Y-87917995D01*
X150070802Y-87899060D01*
X150070805Y-87899059D01*
X150230436Y-87843202D01*
X150230438Y-87843200D01*
X150230440Y-87843200D01*
X150230443Y-87843198D01*
X150373630Y-87753227D01*
X150373631Y-87753226D01*
X150373636Y-87753223D01*
X150493223Y-87633636D01*
X150583198Y-87490443D01*
X150583200Y-87490440D01*
X150583200Y-87490438D01*
X150583202Y-87490436D01*
X150639059Y-87330805D01*
X150639059Y-87330804D01*
X150639060Y-87330802D01*
X150657995Y-87162748D01*
X150657995Y-87162743D01*
X150639060Y-86994689D01*
X150583200Y-86835051D01*
X150583198Y-86835048D01*
X150493227Y-86691861D01*
X150493222Y-86691855D01*
X150411369Y-86610002D01*
X157094751Y-86610002D01*
X157113685Y-86778056D01*
X157169545Y-86937694D01*
X157169547Y-86937697D01*
X157259518Y-87080884D01*
X157259523Y-87080890D01*
X157379109Y-87200476D01*
X157379115Y-87200481D01*
X157522302Y-87290452D01*
X157522305Y-87290454D01*
X157522309Y-87290455D01*
X157522310Y-87290456D01*
X157594913Y-87315860D01*
X157681943Y-87346314D01*
X157849997Y-87365249D01*
X157850000Y-87365249D01*
X157850003Y-87365249D01*
X158018056Y-87346314D01*
X158018059Y-87346313D01*
X158177690Y-87290456D01*
X158177692Y-87290454D01*
X158177694Y-87290454D01*
X158177697Y-87290452D01*
X158320884Y-87200481D01*
X158320885Y-87200480D01*
X158320890Y-87200477D01*
X158440477Y-87080890D01*
X158440481Y-87080884D01*
X158530452Y-86937697D01*
X158530454Y-86937694D01*
X158530454Y-86937692D01*
X158530456Y-86937690D01*
X158586313Y-86778059D01*
X158586313Y-86778058D01*
X158586314Y-86778056D01*
X158605249Y-86610002D01*
X158605249Y-86609997D01*
X158586314Y-86441943D01*
X158552479Y-86345249D01*
X158530456Y-86282310D01*
X158530455Y-86282309D01*
X158530454Y-86282305D01*
X158530452Y-86282302D01*
X158440481Y-86139115D01*
X158440476Y-86139109D01*
X158320890Y-86019523D01*
X158320884Y-86019518D01*
X158177697Y-85929547D01*
X158177694Y-85929545D01*
X158018056Y-85873685D01*
X157850003Y-85854751D01*
X157849997Y-85854751D01*
X157681943Y-85873685D01*
X157522305Y-85929545D01*
X157522302Y-85929547D01*
X157379115Y-86019518D01*
X157379109Y-86019523D01*
X157259523Y-86139109D01*
X157259518Y-86139115D01*
X157169547Y-86282302D01*
X157169545Y-86282305D01*
X157113685Y-86441943D01*
X157094751Y-86609997D01*
X157094751Y-86610002D01*
X150411369Y-86610002D01*
X150373636Y-86572269D01*
X150373630Y-86572264D01*
X150230443Y-86482293D01*
X150230440Y-86482291D01*
X150070802Y-86426431D01*
X149902749Y-86407497D01*
X149902743Y-86407497D01*
X149734689Y-86426431D01*
X149575051Y-86482291D01*
X149575048Y-86482293D01*
X149431861Y-86572264D01*
X149431855Y-86572269D01*
X149312269Y-86691855D01*
X149312264Y-86691861D01*
X149222293Y-86835048D01*
X149222291Y-86835051D01*
X149166431Y-86994689D01*
X149147497Y-87162743D01*
X149147497Y-87162748D01*
X115780500Y-87162748D01*
X115780500Y-86323002D01*
X128974751Y-86323002D01*
X128993685Y-86491056D01*
X129049545Y-86650694D01*
X129049547Y-86650697D01*
X129139518Y-86793884D01*
X129139523Y-86793890D01*
X129259109Y-86913476D01*
X129259115Y-86913481D01*
X129402302Y-87003452D01*
X129402305Y-87003454D01*
X129402309Y-87003455D01*
X129402310Y-87003456D01*
X129474913Y-87028860D01*
X129561943Y-87059314D01*
X129729997Y-87078249D01*
X129730000Y-87078249D01*
X129730003Y-87078249D01*
X129898056Y-87059314D01*
X129906641Y-87056310D01*
X130057690Y-87003456D01*
X130164136Y-86936571D01*
X130231369Y-86917571D01*
X130296078Y-86936571D01*
X130373547Y-86985249D01*
X130397741Y-87000451D01*
X130397739Y-87000451D01*
X130397743Y-87000452D01*
X130397744Y-87000453D01*
X130470347Y-87025857D01*
X130557377Y-87056311D01*
X130725431Y-87075246D01*
X130725434Y-87075246D01*
X130725437Y-87075246D01*
X130893490Y-87056311D01*
X130893493Y-87056310D01*
X131053124Y-87000453D01*
X131053126Y-87000451D01*
X131053128Y-87000451D01*
X131053131Y-87000449D01*
X131196318Y-86910478D01*
X131196319Y-86910477D01*
X131196324Y-86910474D01*
X131315911Y-86790887D01*
X131315915Y-86790881D01*
X131405886Y-86647694D01*
X131405888Y-86647691D01*
X131405888Y-86647689D01*
X131405890Y-86647687D01*
X131461747Y-86488056D01*
X131461747Y-86488055D01*
X131461748Y-86488053D01*
X131480683Y-86319999D01*
X131480683Y-86319994D01*
X131461748Y-86151940D01*
X131405888Y-85992302D01*
X131405886Y-85992299D01*
X131315915Y-85849112D01*
X131315910Y-85849106D01*
X131196324Y-85729520D01*
X131196318Y-85729515D01*
X131053131Y-85639544D01*
X131053128Y-85639542D01*
X130893490Y-85583682D01*
X130725437Y-85564748D01*
X130725431Y-85564748D01*
X130557377Y-85583682D01*
X130397741Y-85639542D01*
X130291299Y-85706425D01*
X130224063Y-85725425D01*
X130159354Y-85706424D01*
X130057692Y-85642545D01*
X130057694Y-85642545D01*
X129898056Y-85586685D01*
X129730003Y-85567751D01*
X129729997Y-85567751D01*
X129561943Y-85586685D01*
X129402305Y-85642545D01*
X129402302Y-85642547D01*
X129259115Y-85732518D01*
X129259109Y-85732523D01*
X129139523Y-85852109D01*
X129139518Y-85852115D01*
X129049547Y-85995302D01*
X129049545Y-85995305D01*
X128993685Y-86154943D01*
X128974751Y-86322997D01*
X128974751Y-86323002D01*
X115780500Y-86323002D01*
X115780500Y-85380002D01*
X121684751Y-85380002D01*
X121703685Y-85548056D01*
X121759545Y-85707694D01*
X121759547Y-85707697D01*
X121849518Y-85850884D01*
X121849523Y-85850890D01*
X121969109Y-85970476D01*
X121969115Y-85970481D01*
X122112302Y-86060452D01*
X122112305Y-86060454D01*
X122112309Y-86060455D01*
X122112310Y-86060456D01*
X122116560Y-86061943D01*
X122271943Y-86116314D01*
X122439997Y-86135249D01*
X122440000Y-86135249D01*
X122440003Y-86135249D01*
X122608056Y-86116314D01*
X122608059Y-86116313D01*
X122767690Y-86060456D01*
X122767692Y-86060454D01*
X122767694Y-86060454D01*
X122767697Y-86060452D01*
X122910884Y-85970481D01*
X122910885Y-85970480D01*
X122910890Y-85970477D01*
X123030477Y-85850890D01*
X123031594Y-85849112D01*
X123120452Y-85707697D01*
X123120454Y-85707694D01*
X123120454Y-85707692D01*
X123120456Y-85707690D01*
X123176313Y-85548059D01*
X123176313Y-85548058D01*
X123176314Y-85548056D01*
X123195249Y-85380002D01*
X123195249Y-85379997D01*
X123176314Y-85211943D01*
X123131132Y-85082821D01*
X123120456Y-85052310D01*
X123120455Y-85052309D01*
X123120454Y-85052305D01*
X123120452Y-85052302D01*
X123030481Y-84909115D01*
X123030476Y-84909109D01*
X122910890Y-84789523D01*
X122910884Y-84789518D01*
X122767697Y-84699547D01*
X122767694Y-84699545D01*
X122683265Y-84670002D01*
X134274751Y-84670002D01*
X134293685Y-84838056D01*
X134349545Y-84997694D01*
X134349547Y-84997697D01*
X134439518Y-85140884D01*
X134439523Y-85140890D01*
X134559109Y-85260476D01*
X134559115Y-85260481D01*
X134702302Y-85350452D01*
X134702305Y-85350454D01*
X134702309Y-85350455D01*
X134702310Y-85350456D01*
X134772590Y-85375048D01*
X134861943Y-85406314D01*
X135029997Y-85425249D01*
X135030000Y-85425249D01*
X135030003Y-85425249D01*
X135198348Y-85406281D01*
X135267170Y-85418335D01*
X135318550Y-85465684D01*
X135336174Y-85533295D01*
X135335452Y-85543384D01*
X135317497Y-85702742D01*
X135317497Y-85702748D01*
X135336431Y-85870802D01*
X135392291Y-86030440D01*
X135392293Y-86030443D01*
X135482264Y-86173630D01*
X135482269Y-86173636D01*
X135601855Y-86293222D01*
X135601861Y-86293227D01*
X135745048Y-86383198D01*
X135745051Y-86383200D01*
X135745055Y-86383201D01*
X135745056Y-86383202D01*
X135817659Y-86408606D01*
X135904689Y-86439060D01*
X136072743Y-86457995D01*
X136072746Y-86457995D01*
X136072749Y-86457995D01*
X136240802Y-86439060D01*
X136276888Y-86426433D01*
X136400436Y-86383202D01*
X136400438Y-86383200D01*
X136400440Y-86383200D01*
X136400443Y-86383198D01*
X136543630Y-86293227D01*
X136543631Y-86293226D01*
X136543636Y-86293223D01*
X136606857Y-86230002D01*
X144514751Y-86230002D01*
X144533685Y-86398056D01*
X144589545Y-86557694D01*
X144589547Y-86557697D01*
X144679518Y-86700884D01*
X144679523Y-86700890D01*
X144799109Y-86820476D01*
X144799115Y-86820481D01*
X144942302Y-86910452D01*
X144942305Y-86910454D01*
X144942309Y-86910455D01*
X144942310Y-86910456D01*
X144962644Y-86917571D01*
X145101943Y-86966314D01*
X145269997Y-86985249D01*
X145270000Y-86985249D01*
X145270003Y-86985249D01*
X145438056Y-86966314D01*
X145438059Y-86966313D01*
X145597690Y-86910456D01*
X145597692Y-86910454D01*
X145597694Y-86910454D01*
X145597697Y-86910452D01*
X145740884Y-86820481D01*
X145740885Y-86820480D01*
X145740890Y-86820477D01*
X145860477Y-86700890D01*
X145860481Y-86700884D01*
X145950452Y-86557697D01*
X145950454Y-86557694D01*
X145950454Y-86557692D01*
X145950456Y-86557690D01*
X146006313Y-86398059D01*
X146006313Y-86398058D01*
X146006314Y-86398056D01*
X146025249Y-86230002D01*
X146025249Y-86229997D01*
X146024123Y-86220002D01*
X147364751Y-86220002D01*
X147383685Y-86388056D01*
X147439545Y-86547694D01*
X147439547Y-86547697D01*
X147529518Y-86690884D01*
X147529523Y-86690890D01*
X147649109Y-86810476D01*
X147649115Y-86810481D01*
X147792302Y-86900452D01*
X147792305Y-86900454D01*
X147792309Y-86900455D01*
X147792310Y-86900456D01*
X147829522Y-86913477D01*
X147951943Y-86956314D01*
X148119997Y-86975249D01*
X148120000Y-86975249D01*
X148120003Y-86975249D01*
X148288056Y-86956314D01*
X148288059Y-86956313D01*
X148447690Y-86900456D01*
X148447692Y-86900454D01*
X148447694Y-86900454D01*
X148447697Y-86900452D01*
X148590884Y-86810481D01*
X148590885Y-86810480D01*
X148590890Y-86810477D01*
X148710477Y-86690890D01*
X148735734Y-86650694D01*
X148800452Y-86547697D01*
X148800454Y-86547694D01*
X148800454Y-86547692D01*
X148800456Y-86547690D01*
X148856313Y-86388059D01*
X148856313Y-86388058D01*
X148856314Y-86388056D01*
X148875249Y-86220002D01*
X148875249Y-86219997D01*
X148856314Y-86051943D01*
X148800454Y-85892305D01*
X148800452Y-85892302D01*
X148710481Y-85749115D01*
X148710476Y-85749109D01*
X148590890Y-85629523D01*
X148590884Y-85629518D01*
X148447697Y-85539547D01*
X148447694Y-85539545D01*
X148288056Y-85483685D01*
X148120003Y-85464751D01*
X148119997Y-85464751D01*
X147951943Y-85483685D01*
X147792305Y-85539545D01*
X147792302Y-85539547D01*
X147649115Y-85629518D01*
X147649109Y-85629523D01*
X147529523Y-85749109D01*
X147529518Y-85749115D01*
X147439547Y-85892302D01*
X147439545Y-85892305D01*
X147383685Y-86051943D01*
X147364751Y-86219997D01*
X147364751Y-86220002D01*
X146024123Y-86220002D01*
X146006314Y-86061943D01*
X145974308Y-85970476D01*
X145950456Y-85902310D01*
X145950455Y-85902309D01*
X145950454Y-85902305D01*
X145950452Y-85902302D01*
X145860481Y-85759115D01*
X145860476Y-85759109D01*
X145740890Y-85639523D01*
X145740884Y-85639518D01*
X145597697Y-85549547D01*
X145597694Y-85549545D01*
X145438056Y-85493685D01*
X145270003Y-85474751D01*
X145269997Y-85474751D01*
X145101943Y-85493685D01*
X144942305Y-85549545D01*
X144942302Y-85549547D01*
X144799115Y-85639518D01*
X144799109Y-85639523D01*
X144679523Y-85759109D01*
X144679518Y-85759115D01*
X144589547Y-85902302D01*
X144589545Y-85902305D01*
X144533685Y-86061943D01*
X144514751Y-86229997D01*
X144514751Y-86230002D01*
X136606857Y-86230002D01*
X136663223Y-86173636D01*
X136684914Y-86139115D01*
X136753198Y-86030443D01*
X136753200Y-86030440D01*
X136753200Y-86030438D01*
X136753202Y-86030436D01*
X136809059Y-85870805D01*
X136809059Y-85870804D01*
X136809060Y-85870802D01*
X136827995Y-85702748D01*
X136827995Y-85702743D01*
X136809060Y-85534689D01*
X136768346Y-85418335D01*
X136753202Y-85375056D01*
X136753201Y-85375055D01*
X136753200Y-85375051D01*
X136753198Y-85375048D01*
X136663227Y-85231861D01*
X136663222Y-85231855D01*
X136543636Y-85112269D01*
X136543630Y-85112264D01*
X136400443Y-85022293D01*
X136400440Y-85022291D01*
X136240802Y-84966431D01*
X136072749Y-84947497D01*
X136072742Y-84947497D01*
X135904396Y-84966464D01*
X135835574Y-84954409D01*
X135784195Y-84907060D01*
X135766571Y-84839449D01*
X135767293Y-84829360D01*
X135785249Y-84670002D01*
X135785249Y-84669997D01*
X135778489Y-84610002D01*
X154384751Y-84610002D01*
X154403685Y-84778056D01*
X154436170Y-84870890D01*
X154449543Y-84909110D01*
X154459545Y-84937692D01*
X154530077Y-85049942D01*
X154549077Y-85117178D01*
X154530077Y-85181886D01*
X154479545Y-85262307D01*
X154423685Y-85421943D01*
X154404751Y-85589997D01*
X154404751Y-85590002D01*
X154423685Y-85758056D01*
X154479545Y-85917694D01*
X154479547Y-85917697D01*
X154569518Y-86060884D01*
X154569523Y-86060890D01*
X154689109Y-86180476D01*
X154689115Y-86180481D01*
X154832302Y-86270452D01*
X154832305Y-86270454D01*
X154832309Y-86270455D01*
X154832310Y-86270456D01*
X154866164Y-86282302D01*
X154991943Y-86326314D01*
X155159997Y-86345249D01*
X155160000Y-86345249D01*
X155160003Y-86345249D01*
X155328056Y-86326314D01*
X155337527Y-86323000D01*
X155487690Y-86270456D01*
X155487692Y-86270454D01*
X155487694Y-86270454D01*
X155487697Y-86270452D01*
X155630884Y-86180481D01*
X155630885Y-86180480D01*
X155630890Y-86180477D01*
X155750477Y-86060890D01*
X155807288Y-85970477D01*
X155840452Y-85917697D01*
X155840454Y-85917694D01*
X155840454Y-85917692D01*
X155840456Y-85917690D01*
X155896313Y-85758059D01*
X155896313Y-85758058D01*
X155896314Y-85758056D01*
X155915249Y-85590002D01*
X155915249Y-85589997D01*
X155896314Y-85421943D01*
X155853113Y-85298482D01*
X155840456Y-85262310D01*
X155840454Y-85262307D01*
X155840454Y-85262306D01*
X155769923Y-85150058D01*
X155750922Y-85082821D01*
X155769923Y-85018112D01*
X155787288Y-84990477D01*
X155820456Y-84937690D01*
X155876313Y-84778059D01*
X155876313Y-84778058D01*
X155876314Y-84778056D01*
X155895249Y-84610002D01*
X155895249Y-84609997D01*
X155876314Y-84441943D01*
X155820454Y-84282305D01*
X155820452Y-84282302D01*
X155730481Y-84139115D01*
X155730476Y-84139109D01*
X155610890Y-84019523D01*
X155610884Y-84019518D01*
X155467697Y-83929547D01*
X155467694Y-83929545D01*
X155308056Y-83873685D01*
X155140003Y-83854751D01*
X155139997Y-83854751D01*
X154971943Y-83873685D01*
X154812305Y-83929545D01*
X154812302Y-83929547D01*
X154669115Y-84019518D01*
X154669109Y-84019523D01*
X154549523Y-84139109D01*
X154549518Y-84139115D01*
X154459547Y-84282302D01*
X154459545Y-84282305D01*
X154403685Y-84441943D01*
X154384751Y-84609997D01*
X154384751Y-84610002D01*
X135778489Y-84610002D01*
X135766314Y-84501943D01*
X135710454Y-84342305D01*
X135710452Y-84342302D01*
X135620481Y-84199115D01*
X135620476Y-84199109D01*
X135500890Y-84079523D01*
X135500887Y-84079521D01*
X135427064Y-84033134D01*
X135380773Y-83980799D01*
X135370126Y-83911746D01*
X135398501Y-83847898D01*
X135427060Y-83823150D01*
X135510890Y-83770477D01*
X135630477Y-83650890D01*
X135630481Y-83650884D01*
X135720452Y-83507697D01*
X135720454Y-83507694D01*
X135720454Y-83507692D01*
X135720456Y-83507690D01*
X135733644Y-83470002D01*
X143614751Y-83470002D01*
X143633685Y-83638056D01*
X143689545Y-83797694D01*
X143689547Y-83797697D01*
X143779518Y-83940884D01*
X143779523Y-83940890D01*
X143899109Y-84060476D01*
X143899115Y-84060481D01*
X144042302Y-84150452D01*
X144042305Y-84150454D01*
X144042309Y-84150455D01*
X144042310Y-84150456D01*
X144114913Y-84175860D01*
X144201943Y-84206314D01*
X144369997Y-84225249D01*
X144370000Y-84225249D01*
X144370003Y-84225249D01*
X144538056Y-84206314D01*
X144538059Y-84206313D01*
X144697690Y-84150456D01*
X144697692Y-84150454D01*
X144697694Y-84150454D01*
X144697697Y-84150452D01*
X144840884Y-84060481D01*
X144840885Y-84060480D01*
X144840890Y-84060477D01*
X144960477Y-83940890D01*
X144965003Y-83933687D01*
X145050452Y-83797697D01*
X145050454Y-83797694D01*
X145050454Y-83797692D01*
X145050456Y-83797690D01*
X145106313Y-83638059D01*
X145106313Y-83638058D01*
X145106314Y-83638056D01*
X145125249Y-83470002D01*
X145125249Y-83469997D01*
X145106314Y-83301943D01*
X145050454Y-83142305D01*
X145050452Y-83142302D01*
X144960481Y-82999115D01*
X144960476Y-82999109D01*
X144840890Y-82879523D01*
X144840884Y-82879518D01*
X144697697Y-82789547D01*
X144697694Y-82789545D01*
X144538056Y-82733685D01*
X144370003Y-82714751D01*
X144369997Y-82714751D01*
X144201943Y-82733685D01*
X144042305Y-82789545D01*
X144042302Y-82789547D01*
X143899115Y-82879518D01*
X143899109Y-82879523D01*
X143779523Y-82999109D01*
X143779518Y-82999115D01*
X143689547Y-83142302D01*
X143689545Y-83142305D01*
X143633685Y-83301943D01*
X143614751Y-83469997D01*
X143614751Y-83470002D01*
X135733644Y-83470002D01*
X135776313Y-83348059D01*
X135776313Y-83348058D01*
X135776314Y-83348056D01*
X135795249Y-83180002D01*
X135795249Y-83179997D01*
X135776314Y-83011943D01*
X135720454Y-82852305D01*
X135720452Y-82852302D01*
X135630481Y-82709115D01*
X135630476Y-82709109D01*
X135510890Y-82589523D01*
X135510884Y-82589518D01*
X135367697Y-82499547D01*
X135367694Y-82499545D01*
X135208056Y-82443685D01*
X135040003Y-82424751D01*
X135039997Y-82424751D01*
X134871943Y-82443685D01*
X134712305Y-82499545D01*
X134712302Y-82499547D01*
X134569115Y-82589518D01*
X134569109Y-82589523D01*
X134449523Y-82709109D01*
X134449518Y-82709115D01*
X134359547Y-82852302D01*
X134359545Y-82852305D01*
X134303685Y-83011943D01*
X134284751Y-83179997D01*
X134284751Y-83180002D01*
X134303685Y-83348056D01*
X134359545Y-83507694D01*
X134359547Y-83507697D01*
X134449518Y-83650884D01*
X134449523Y-83650890D01*
X134569111Y-83770478D01*
X134642935Y-83816865D01*
X134689225Y-83869199D01*
X134699873Y-83938253D01*
X134671498Y-84002101D01*
X134642935Y-84026851D01*
X134559112Y-84079521D01*
X134559109Y-84079523D01*
X134439523Y-84199109D01*
X134439518Y-84199115D01*
X134349547Y-84342302D01*
X134349545Y-84342305D01*
X134293685Y-84501943D01*
X134274751Y-84669997D01*
X134274751Y-84670002D01*
X122683265Y-84670002D01*
X122608056Y-84643685D01*
X122440003Y-84624751D01*
X122439997Y-84624751D01*
X122271943Y-84643685D01*
X122112305Y-84699545D01*
X122112302Y-84699547D01*
X121969115Y-84789518D01*
X121969109Y-84789523D01*
X121849523Y-84909109D01*
X121849518Y-84909115D01*
X121759547Y-85052302D01*
X121759545Y-85052305D01*
X121703685Y-85211943D01*
X121684751Y-85379997D01*
X121684751Y-85380002D01*
X115780500Y-85380002D01*
X115780500Y-84400002D01*
X119114751Y-84400002D01*
X119133685Y-84568056D01*
X119189545Y-84727694D01*
X119189547Y-84727697D01*
X119279518Y-84870884D01*
X119279523Y-84870890D01*
X119399109Y-84990476D01*
X119399115Y-84990481D01*
X119542302Y-85080452D01*
X119542305Y-85080454D01*
X119542309Y-85080455D01*
X119542310Y-85080456D01*
X119614913Y-85105860D01*
X119701943Y-85136314D01*
X119869997Y-85155249D01*
X119870000Y-85155249D01*
X119870003Y-85155249D01*
X120038056Y-85136314D01*
X120038059Y-85136313D01*
X120197690Y-85080456D01*
X120197692Y-85080454D01*
X120197694Y-85080454D01*
X120197697Y-85080452D01*
X120340884Y-84990481D01*
X120340885Y-84990480D01*
X120340890Y-84990477D01*
X120460477Y-84870890D01*
X120550452Y-84727697D01*
X120550454Y-84727694D01*
X120550454Y-84727692D01*
X120550456Y-84727690D01*
X120606313Y-84568059D01*
X120606313Y-84568058D01*
X120606314Y-84568056D01*
X120625249Y-84400002D01*
X120625249Y-84399997D01*
X120606314Y-84231943D01*
X120577800Y-84150456D01*
X120550456Y-84072310D01*
X120550454Y-84072307D01*
X120550454Y-84072306D01*
X120516514Y-84018292D01*
X120488638Y-83973928D01*
X120469638Y-83906693D01*
X120488638Y-83841986D01*
X120560456Y-83727690D01*
X120584141Y-83660002D01*
X127921751Y-83660002D01*
X127940685Y-83828056D01*
X127996545Y-83987694D01*
X127996547Y-83987697D01*
X128086518Y-84130884D01*
X128086523Y-84130890D01*
X128206109Y-84250476D01*
X128206115Y-84250481D01*
X128349302Y-84340452D01*
X128349305Y-84340454D01*
X128349309Y-84340455D01*
X128349310Y-84340456D01*
X128421913Y-84365860D01*
X128508943Y-84396314D01*
X128676997Y-84415249D01*
X128677000Y-84415249D01*
X128677003Y-84415249D01*
X128845056Y-84396314D01*
X128845059Y-84396313D01*
X129004690Y-84340456D01*
X129004692Y-84340454D01*
X129004694Y-84340454D01*
X129004697Y-84340452D01*
X129147884Y-84250481D01*
X129147885Y-84250480D01*
X129147890Y-84250477D01*
X129267477Y-84130890D01*
X129299753Y-84079523D01*
X129357452Y-83987697D01*
X129357454Y-83987694D01*
X129357454Y-83987692D01*
X129357456Y-83987690D01*
X129413313Y-83828059D01*
X129413313Y-83828058D01*
X129413314Y-83828056D01*
X129432249Y-83660002D01*
X129432249Y-83659997D01*
X129413314Y-83491943D01*
X129357454Y-83332305D01*
X129357452Y-83332302D01*
X129267481Y-83189115D01*
X129267476Y-83189109D01*
X129147890Y-83069523D01*
X129147884Y-83069518D01*
X129004697Y-82979547D01*
X129004694Y-82979545D01*
X128845056Y-82923685D01*
X128677003Y-82904751D01*
X128676997Y-82904751D01*
X128508943Y-82923685D01*
X128349305Y-82979545D01*
X128349302Y-82979547D01*
X128206115Y-83069518D01*
X128206109Y-83069523D01*
X128086523Y-83189109D01*
X128086518Y-83189115D01*
X127996547Y-83332302D01*
X127996545Y-83332305D01*
X127940685Y-83491943D01*
X127921751Y-83659997D01*
X127921751Y-83660002D01*
X120584141Y-83660002D01*
X120616313Y-83568059D01*
X120616313Y-83568058D01*
X120616314Y-83568056D01*
X120635249Y-83400002D01*
X120635249Y-83399997D01*
X120616314Y-83231943D01*
X120560454Y-83072305D01*
X120560452Y-83072302D01*
X120470481Y-82929115D01*
X120470476Y-82929109D01*
X120350890Y-82809523D01*
X120350884Y-82809518D01*
X120207697Y-82719547D01*
X120207694Y-82719545D01*
X120048056Y-82663685D01*
X119880003Y-82644751D01*
X119879997Y-82644751D01*
X119711943Y-82663685D01*
X119552305Y-82719545D01*
X119552302Y-82719547D01*
X119409115Y-82809518D01*
X119409109Y-82809523D01*
X119289523Y-82929109D01*
X119289518Y-82929115D01*
X119199547Y-83072302D01*
X119199545Y-83072305D01*
X119143685Y-83231943D01*
X119124751Y-83399997D01*
X119124751Y-83400002D01*
X119143685Y-83568056D01*
X119199545Y-83727693D01*
X119261360Y-83826069D01*
X119280361Y-83893306D01*
X119261361Y-83958014D01*
X119189545Y-84072307D01*
X119133685Y-84231943D01*
X119114751Y-84399997D01*
X119114751Y-84400002D01*
X115780500Y-84400002D01*
X115780500Y-81990002D01*
X124114751Y-81990002D01*
X124133685Y-82158056D01*
X124189545Y-82317694D01*
X124189547Y-82317697D01*
X124279518Y-82460884D01*
X124279523Y-82460890D01*
X124399109Y-82580476D01*
X124399115Y-82580481D01*
X124542302Y-82670452D01*
X124542305Y-82670454D01*
X124542309Y-82670455D01*
X124542310Y-82670456D01*
X124603954Y-82692026D01*
X124701943Y-82726314D01*
X124869997Y-82745249D01*
X124870000Y-82745249D01*
X124870003Y-82745249D01*
X125038056Y-82726314D01*
X125057401Y-82719545D01*
X125197690Y-82670456D01*
X125197692Y-82670454D01*
X125197694Y-82670454D01*
X125197697Y-82670452D01*
X125340884Y-82580481D01*
X125340885Y-82580480D01*
X125340890Y-82580477D01*
X125460477Y-82460890D01*
X125460481Y-82460884D01*
X125550452Y-82317697D01*
X125550454Y-82317694D01*
X125550454Y-82317692D01*
X125550456Y-82317690D01*
X125606313Y-82158059D01*
X125606313Y-82158058D01*
X125606314Y-82158056D01*
X125625249Y-81990002D01*
X125625249Y-81989997D01*
X125606314Y-81821943D01*
X125550776Y-81663225D01*
X126883609Y-81663225D01*
X126902543Y-81831279D01*
X126958403Y-81990917D01*
X126958405Y-81990920D01*
X127048376Y-82134107D01*
X127048381Y-82134113D01*
X127167967Y-82253699D01*
X127167973Y-82253704D01*
X127311160Y-82343675D01*
X127311163Y-82343677D01*
X127311167Y-82343678D01*
X127311168Y-82343679D01*
X127351461Y-82357778D01*
X127470801Y-82399537D01*
X127638855Y-82418472D01*
X127638858Y-82418472D01*
X127638861Y-82418472D01*
X127806914Y-82399537D01*
X127806917Y-82399536D01*
X127966548Y-82343679D01*
X127966550Y-82343677D01*
X127966552Y-82343677D01*
X127966555Y-82343675D01*
X128109742Y-82253704D01*
X128109743Y-82253703D01*
X128109748Y-82253700D01*
X128229335Y-82134113D01*
X128279603Y-82054113D01*
X128319310Y-81990920D01*
X128319312Y-81990917D01*
X128319312Y-81990915D01*
X128319314Y-81990913D01*
X128375171Y-81831282D01*
X128375171Y-81831281D01*
X128375172Y-81831279D01*
X128394107Y-81663225D01*
X128394107Y-81663220D01*
X128375172Y-81495166D01*
X128334453Y-81378798D01*
X128319314Y-81335533D01*
X128319313Y-81335532D01*
X128319312Y-81335528D01*
X128319310Y-81335525D01*
X128229339Y-81192338D01*
X128229334Y-81192332D01*
X128109748Y-81072746D01*
X128109742Y-81072741D01*
X127966555Y-80982770D01*
X127966552Y-80982768D01*
X127806914Y-80926908D01*
X127638861Y-80907974D01*
X127638855Y-80907974D01*
X127470801Y-80926908D01*
X127311163Y-80982768D01*
X127311160Y-80982770D01*
X127167973Y-81072741D01*
X127167967Y-81072746D01*
X127048381Y-81192332D01*
X127048376Y-81192338D01*
X126958405Y-81335525D01*
X126958403Y-81335528D01*
X126902543Y-81495166D01*
X126883609Y-81663220D01*
X126883609Y-81663225D01*
X125550776Y-81663225D01*
X125550454Y-81662305D01*
X125550452Y-81662302D01*
X125460481Y-81519115D01*
X125460476Y-81519109D01*
X125340890Y-81399523D01*
X125340884Y-81399518D01*
X125197697Y-81309547D01*
X125197694Y-81309545D01*
X125038056Y-81253685D01*
X124870003Y-81234751D01*
X124869997Y-81234751D01*
X124701943Y-81253685D01*
X124542305Y-81309545D01*
X124542302Y-81309547D01*
X124399115Y-81399518D01*
X124399109Y-81399523D01*
X124279523Y-81519109D01*
X124279518Y-81519115D01*
X124189547Y-81662302D01*
X124189545Y-81662305D01*
X124133685Y-81821943D01*
X124114751Y-81989997D01*
X124114751Y-81990002D01*
X115780500Y-81990002D01*
X115780500Y-79070002D01*
X130494751Y-79070002D01*
X130513685Y-79238056D01*
X130569545Y-79397694D01*
X130569547Y-79397697D01*
X130659518Y-79540884D01*
X130659523Y-79540890D01*
X130779109Y-79660476D01*
X130779115Y-79660481D01*
X130922302Y-79750452D01*
X130922305Y-79750454D01*
X130922309Y-79750455D01*
X130922310Y-79750456D01*
X130982082Y-79771371D01*
X131081943Y-79806314D01*
X131249997Y-79825249D01*
X131250000Y-79825249D01*
X131250003Y-79825249D01*
X131418052Y-79806314D01*
X131418052Y-79806313D01*
X131418059Y-79806313D01*
X131467202Y-79789116D01*
X131536974Y-79785554D01*
X131586739Y-79813390D01*
X131588029Y-79811774D01*
X131593477Y-79816119D01*
X131736664Y-79906090D01*
X131736667Y-79906092D01*
X131736671Y-79906093D01*
X131736672Y-79906094D01*
X131896303Y-79961951D01*
X131896306Y-79961952D01*
X131934054Y-79966205D01*
X131998468Y-79993271D01*
X132038023Y-80050866D01*
X132043391Y-80103308D01*
X132034751Y-80179995D01*
X132034751Y-80180002D01*
X132053685Y-80348056D01*
X132109545Y-80507694D01*
X132109547Y-80507697D01*
X132199518Y-80650884D01*
X132199523Y-80650890D01*
X132319110Y-80770477D01*
X132363497Y-80798367D01*
X132409789Y-80850701D01*
X132420746Y-80889477D01*
X132428283Y-80956375D01*
X132484142Y-81116014D01*
X132484145Y-81116019D01*
X132574116Y-81259206D01*
X132574121Y-81259212D01*
X132693707Y-81378798D01*
X132693713Y-81378803D01*
X132836904Y-81468777D01*
X132896114Y-81489495D01*
X132952890Y-81530217D01*
X132978638Y-81595169D01*
X132978849Y-81599776D01*
X132998094Y-81770585D01*
X133053954Y-81930223D01*
X133053956Y-81930226D01*
X133143927Y-82073413D01*
X133143932Y-82073419D01*
X133263518Y-82193005D01*
X133263524Y-82193010D01*
X133406711Y-82282981D01*
X133406714Y-82282983D01*
X133406718Y-82282984D01*
X133406719Y-82282985D01*
X133479322Y-82308389D01*
X133566352Y-82338843D01*
X133734406Y-82357778D01*
X133734409Y-82357778D01*
X133734412Y-82357778D01*
X133902465Y-82338843D01*
X133903525Y-82338472D01*
X134062099Y-82282985D01*
X134062101Y-82282983D01*
X134062103Y-82282983D01*
X134062106Y-82282981D01*
X134205293Y-82193010D01*
X134205294Y-82193009D01*
X134205299Y-82193006D01*
X134324886Y-82073419D01*
X134376726Y-81990917D01*
X134410743Y-81936779D01*
X139545893Y-81936779D01*
X139564827Y-82104833D01*
X139620687Y-82264471D01*
X139620689Y-82264474D01*
X139710660Y-82407661D01*
X139710665Y-82407667D01*
X139830251Y-82527253D01*
X139830257Y-82527258D01*
X139973444Y-82617229D01*
X139973447Y-82617231D01*
X139973451Y-82617232D01*
X139973452Y-82617233D01*
X140046055Y-82642637D01*
X140133085Y-82673091D01*
X140301139Y-82692026D01*
X140301142Y-82692026D01*
X140301145Y-82692026D01*
X140469198Y-82673091D01*
X140469201Y-82673090D01*
X140628832Y-82617233D01*
X140628834Y-82617231D01*
X140628836Y-82617231D01*
X140628839Y-82617229D01*
X140772026Y-82527258D01*
X140772027Y-82527257D01*
X140772032Y-82527254D01*
X140891619Y-82407667D01*
X140891623Y-82407661D01*
X140981594Y-82264474D01*
X140981596Y-82264471D01*
X140981596Y-82264469D01*
X140981598Y-82264467D01*
X141037455Y-82104836D01*
X141037455Y-82104835D01*
X141037456Y-82104833D01*
X141056391Y-81936779D01*
X141056391Y-81936774D01*
X141037456Y-81768720D01*
X140981596Y-81609082D01*
X140981594Y-81609079D01*
X140965349Y-81583225D01*
X142303609Y-81583225D01*
X142322543Y-81751279D01*
X142378403Y-81910917D01*
X142378405Y-81910920D01*
X142468376Y-82054107D01*
X142468381Y-82054113D01*
X142587967Y-82173699D01*
X142587973Y-82173704D01*
X142731160Y-82263675D01*
X142731163Y-82263677D01*
X142731167Y-82263678D01*
X142731168Y-82263679D01*
X142786330Y-82282981D01*
X142890801Y-82319537D01*
X143058855Y-82338472D01*
X143058858Y-82338472D01*
X143058861Y-82338472D01*
X143226914Y-82319537D01*
X143226917Y-82319536D01*
X143386548Y-82263679D01*
X143386550Y-82263677D01*
X143386552Y-82263677D01*
X143386555Y-82263675D01*
X143529742Y-82173704D01*
X143529743Y-82173703D01*
X143529748Y-82173700D01*
X143649335Y-82054113D01*
X143689044Y-81990917D01*
X143739310Y-81910920D01*
X143739312Y-81910917D01*
X143739312Y-81910915D01*
X143739314Y-81910913D01*
X143795171Y-81751282D01*
X143795171Y-81751281D01*
X143795172Y-81751279D01*
X143814107Y-81583225D01*
X143814107Y-81583220D01*
X143795172Y-81415166D01*
X143758214Y-81309547D01*
X143739314Y-81255533D01*
X143739313Y-81255532D01*
X143739312Y-81255528D01*
X143739310Y-81255525D01*
X143649339Y-81112338D01*
X143649334Y-81112332D01*
X143529748Y-80992746D01*
X143529742Y-80992741D01*
X143386555Y-80902770D01*
X143386552Y-80902768D01*
X143226914Y-80846908D01*
X143058861Y-80827974D01*
X143058855Y-80827974D01*
X142890801Y-80846908D01*
X142731163Y-80902768D01*
X142731160Y-80902770D01*
X142587973Y-80992741D01*
X142587967Y-80992746D01*
X142468381Y-81112332D01*
X142468376Y-81112338D01*
X142378405Y-81255525D01*
X142378403Y-81255528D01*
X142322543Y-81415166D01*
X142303609Y-81583220D01*
X142303609Y-81583225D01*
X140965349Y-81583225D01*
X140891623Y-81465892D01*
X140891618Y-81465886D01*
X140772032Y-81346300D01*
X140772026Y-81346295D01*
X140628839Y-81256324D01*
X140628836Y-81256322D01*
X140469198Y-81200462D01*
X140301145Y-81181528D01*
X140301139Y-81181528D01*
X140133085Y-81200462D01*
X139973447Y-81256322D01*
X139973444Y-81256324D01*
X139830257Y-81346295D01*
X139830251Y-81346300D01*
X139710665Y-81465886D01*
X139710660Y-81465892D01*
X139620689Y-81609079D01*
X139620687Y-81609082D01*
X139564827Y-81768720D01*
X139545893Y-81936774D01*
X139545893Y-81936779D01*
X134410743Y-81936779D01*
X134414861Y-81930226D01*
X134414863Y-81930223D01*
X134414863Y-81930221D01*
X134414865Y-81930219D01*
X134470722Y-81770588D01*
X134470722Y-81770587D01*
X134470723Y-81770585D01*
X134489658Y-81602531D01*
X134489658Y-81602526D01*
X134470723Y-81434472D01*
X134414863Y-81274834D01*
X134414861Y-81274831D01*
X134324890Y-81131644D01*
X134324885Y-81131638D01*
X134205299Y-81012052D01*
X134205293Y-81012047D01*
X134062108Y-80922077D01*
X134062100Y-80922073D01*
X134002891Y-80901355D01*
X133946116Y-80860633D01*
X133920369Y-80795680D01*
X133920157Y-80791075D01*
X133900912Y-80620265D01*
X133845052Y-80460627D01*
X133845050Y-80460624D01*
X133782989Y-80361855D01*
X136973604Y-80361855D01*
X136992538Y-80529909D01*
X137048398Y-80689547D01*
X137048400Y-80689550D01*
X137138371Y-80832737D01*
X137138376Y-80832743D01*
X137257962Y-80952329D01*
X137257968Y-80952334D01*
X137401155Y-81042305D01*
X137401158Y-81042307D01*
X137401162Y-81042308D01*
X137401163Y-81042309D01*
X137473766Y-81067713D01*
X137560796Y-81098167D01*
X137728850Y-81117102D01*
X137728853Y-81117102D01*
X137728856Y-81117102D01*
X137896909Y-81098167D01*
X137896912Y-81098166D01*
X138056543Y-81042309D01*
X138056545Y-81042307D01*
X138056547Y-81042307D01*
X138056550Y-81042305D01*
X138199737Y-80952334D01*
X138199738Y-80952333D01*
X138199743Y-80952330D01*
X138319330Y-80832743D01*
X138340930Y-80798367D01*
X138409305Y-80689550D01*
X138409307Y-80689547D01*
X138409307Y-80689545D01*
X138409309Y-80689543D01*
X138465166Y-80529912D01*
X138465166Y-80529911D01*
X138465167Y-80529909D01*
X138484102Y-80361855D01*
X138484102Y-80361850D01*
X138465167Y-80193796D01*
X138418181Y-80059518D01*
X138409309Y-80034163D01*
X138409308Y-80034162D01*
X138409307Y-80034158D01*
X138409305Y-80034155D01*
X138319334Y-79890968D01*
X138319329Y-79890962D01*
X138199743Y-79771376D01*
X138199737Y-79771371D01*
X138056550Y-79681400D01*
X138056547Y-79681398D01*
X137896909Y-79625538D01*
X137728856Y-79606604D01*
X137728850Y-79606604D01*
X137560796Y-79625538D01*
X137401158Y-79681398D01*
X137401155Y-79681400D01*
X137257968Y-79771371D01*
X137257962Y-79771376D01*
X137138376Y-79890962D01*
X137138371Y-79890968D01*
X137048400Y-80034155D01*
X137048398Y-80034158D01*
X136992538Y-80193796D01*
X136973604Y-80361850D01*
X136973604Y-80361855D01*
X133782989Y-80361855D01*
X133755079Y-80317437D01*
X133755074Y-80317431D01*
X133635488Y-80197845D01*
X133635485Y-80197843D01*
X133591098Y-80169952D01*
X133544807Y-80117617D01*
X133533851Y-80078842D01*
X133526314Y-80011945D01*
X133526313Y-80011941D01*
X133520190Y-79994443D01*
X133470456Y-79852310D01*
X133470455Y-79852309D01*
X133470454Y-79852305D01*
X133470452Y-79852302D01*
X133380481Y-79709115D01*
X133380476Y-79709109D01*
X133260890Y-79589523D01*
X133260884Y-79589518D01*
X133117697Y-79499547D01*
X133117694Y-79499545D01*
X132958056Y-79443686D01*
X132920304Y-79439432D01*
X132855890Y-79412365D01*
X132816336Y-79354769D01*
X132810969Y-79302331D01*
X132819611Y-79225638D01*
X132819611Y-79225635D01*
X132800676Y-79057581D01*
X132744816Y-78897943D01*
X132744814Y-78897940D01*
X132654843Y-78754753D01*
X132654838Y-78754747D01*
X132535252Y-78635161D01*
X132535246Y-78635156D01*
X132392059Y-78545185D01*
X132392056Y-78545183D01*
X132232418Y-78489323D01*
X132064365Y-78470389D01*
X132064359Y-78470389D01*
X131896307Y-78489323D01*
X131896303Y-78489324D01*
X131847161Y-78506520D01*
X131777382Y-78510081D01*
X131727622Y-78482247D01*
X131726333Y-78483864D01*
X131720884Y-78479518D01*
X131577697Y-78389547D01*
X131577694Y-78389545D01*
X131418056Y-78333685D01*
X131250003Y-78314751D01*
X131249997Y-78314751D01*
X131081943Y-78333685D01*
X130922305Y-78389545D01*
X130922302Y-78389547D01*
X130779115Y-78479518D01*
X130779109Y-78479523D01*
X130659523Y-78599109D01*
X130659518Y-78599115D01*
X130569547Y-78742302D01*
X130569545Y-78742305D01*
X130513685Y-78901943D01*
X130494751Y-79069997D01*
X130494751Y-79070002D01*
X115780500Y-79070002D01*
X115780500Y-77996418D01*
X132978323Y-77996418D01*
X132997257Y-78164472D01*
X133053117Y-78324110D01*
X133053119Y-78324113D01*
X133143090Y-78467300D01*
X133143095Y-78467306D01*
X133262681Y-78586892D01*
X133262687Y-78586897D01*
X133405874Y-78676868D01*
X133405877Y-78676870D01*
X133405881Y-78676871D01*
X133405882Y-78676872D01*
X133478485Y-78702276D01*
X133565515Y-78732730D01*
X133733569Y-78751665D01*
X133733572Y-78751665D01*
X133733575Y-78751665D01*
X133901628Y-78732730D01*
X133901631Y-78732729D01*
X134061262Y-78676872D01*
X134061264Y-78676870D01*
X134061266Y-78676870D01*
X134061269Y-78676868D01*
X134204456Y-78586897D01*
X134204457Y-78586896D01*
X134204462Y-78586893D01*
X134324049Y-78467306D01*
X134324053Y-78467300D01*
X134414024Y-78324113D01*
X134414026Y-78324110D01*
X134414026Y-78324108D01*
X134414028Y-78324106D01*
X134469885Y-78164475D01*
X134469885Y-78164474D01*
X134469886Y-78164472D01*
X134488821Y-77996418D01*
X134488821Y-77996413D01*
X134469886Y-77828359D01*
X134434778Y-77728026D01*
X134414028Y-77668726D01*
X134414027Y-77668725D01*
X134414026Y-77668721D01*
X134414024Y-77668718D01*
X134324053Y-77525531D01*
X134324048Y-77525525D01*
X134204462Y-77405939D01*
X134204456Y-77405934D01*
X134061269Y-77315963D01*
X134061266Y-77315961D01*
X133901628Y-77260101D01*
X133733575Y-77241167D01*
X133733569Y-77241167D01*
X133565515Y-77260101D01*
X133405877Y-77315961D01*
X133405874Y-77315963D01*
X133262687Y-77405934D01*
X133262681Y-77405939D01*
X133143095Y-77525525D01*
X133143090Y-77525531D01*
X133053119Y-77668718D01*
X133053117Y-77668721D01*
X132997257Y-77828359D01*
X132978323Y-77996413D01*
X132978323Y-77996418D01*
X115780500Y-77996418D01*
X115780500Y-76092705D01*
X115780736Y-76087299D01*
X115781298Y-76080884D01*
X115784476Y-76044544D01*
X115796918Y-75918223D01*
X115800542Y-75898309D01*
X115818402Y-75831653D01*
X115846683Y-75738424D01*
X115852953Y-75722037D01*
X115877218Y-75670002D01*
X127824751Y-75670002D01*
X127843685Y-75838056D01*
X127899545Y-75997694D01*
X127899547Y-75997697D01*
X127989518Y-76140884D01*
X127989523Y-76140890D01*
X128109109Y-76260476D01*
X128109115Y-76260481D01*
X128252302Y-76350452D01*
X128252305Y-76350454D01*
X128252309Y-76350455D01*
X128252310Y-76350456D01*
X128257180Y-76352160D01*
X128411943Y-76406314D01*
X128579997Y-76425249D01*
X128580000Y-76425249D01*
X128580003Y-76425249D01*
X128748056Y-76406314D01*
X128774648Y-76397009D01*
X128907690Y-76350456D01*
X128907692Y-76350454D01*
X128907694Y-76350454D01*
X128907697Y-76350452D01*
X129050884Y-76260481D01*
X129050885Y-76260480D01*
X129050890Y-76260477D01*
X129127264Y-76184103D01*
X134064440Y-76184103D01*
X134083374Y-76352157D01*
X134139234Y-76511795D01*
X134139236Y-76511798D01*
X134229207Y-76654985D01*
X134229212Y-76654991D01*
X134348798Y-76774577D01*
X134348804Y-76774582D01*
X134491991Y-76864553D01*
X134491994Y-76864555D01*
X134491998Y-76864556D01*
X134491999Y-76864557D01*
X134554177Y-76886314D01*
X134651632Y-76920415D01*
X134819686Y-76939350D01*
X134819689Y-76939350D01*
X134819691Y-76939350D01*
X134891932Y-76931210D01*
X134938481Y-76925965D01*
X135007303Y-76938019D01*
X135057358Y-76983212D01*
X135090499Y-77035954D01*
X135090500Y-77035956D01*
X135210088Y-77155544D01*
X135210094Y-77155549D01*
X135353281Y-77245520D01*
X135353287Y-77245523D01*
X135353289Y-77245524D01*
X135511925Y-77301032D01*
X135568700Y-77341754D01*
X135588011Y-77377119D01*
X135595708Y-77399115D01*
X135643520Y-77535755D01*
X135643523Y-77535761D01*
X135733494Y-77678948D01*
X135733499Y-77678954D01*
X135853086Y-77798541D01*
X135935705Y-77850454D01*
X135939983Y-77853142D01*
X135986274Y-77905477D01*
X135996922Y-77974530D01*
X135968547Y-78038379D01*
X135910157Y-78076751D01*
X135860133Y-78081357D01*
X135850002Y-78080216D01*
X135849997Y-78080216D01*
X135681943Y-78099150D01*
X135522305Y-78155010D01*
X135522302Y-78155012D01*
X135379115Y-78244983D01*
X135379109Y-78244988D01*
X135259523Y-78364574D01*
X135259518Y-78364580D01*
X135169548Y-78507765D01*
X135169544Y-78507775D01*
X135161088Y-78531938D01*
X135120364Y-78588713D01*
X135085004Y-78608020D01*
X135012094Y-78633532D01*
X134868901Y-78723507D01*
X134868895Y-78723512D01*
X134749309Y-78843098D01*
X134749304Y-78843104D01*
X134659333Y-78986291D01*
X134659331Y-78986294D01*
X134603471Y-79145932D01*
X134584537Y-79313986D01*
X134584537Y-79313991D01*
X134603471Y-79482045D01*
X134659331Y-79641683D01*
X134659333Y-79641686D01*
X134749304Y-79784873D01*
X134749309Y-79784879D01*
X134868895Y-79904465D01*
X134868901Y-79904470D01*
X135012088Y-79994441D01*
X135012091Y-79994443D01*
X135012095Y-79994444D01*
X135012096Y-79994445D01*
X135071551Y-80015249D01*
X135171729Y-80050303D01*
X135339783Y-80069238D01*
X135339786Y-80069238D01*
X135339789Y-80069238D01*
X135507842Y-80050303D01*
X135508071Y-80050223D01*
X135667476Y-79994445D01*
X135667478Y-79994443D01*
X135667480Y-79994443D01*
X135667483Y-79994441D01*
X135810670Y-79904470D01*
X135810671Y-79904469D01*
X135810676Y-79904466D01*
X135930263Y-79784879D01*
X135938751Y-79771371D01*
X136020238Y-79641686D01*
X136020239Y-79641683D01*
X136020242Y-79641679D01*
X136028695Y-79617520D01*
X136069414Y-79560744D01*
X136104782Y-79541431D01*
X136177690Y-79515921D01*
X136313099Y-79430837D01*
X136380334Y-79411837D01*
X136413298Y-79417611D01*
X136413372Y-79417288D01*
X136419711Y-79418734D01*
X136420026Y-79418790D01*
X136420111Y-79418819D01*
X136420162Y-79418837D01*
X136420161Y-79418837D01*
X136588218Y-79437773D01*
X136588221Y-79437773D01*
X136588224Y-79437773D01*
X136756277Y-79418838D01*
X136776285Y-79411837D01*
X136915911Y-79362980D01*
X136915913Y-79362978D01*
X136915915Y-79362978D01*
X136915918Y-79362976D01*
X137059105Y-79273005D01*
X137059106Y-79273004D01*
X137059111Y-79273001D01*
X137178698Y-79153414D01*
X137178702Y-79153408D01*
X137268673Y-79010221D01*
X137268676Y-79010215D01*
X137268677Y-79010214D01*
X137324534Y-78850583D01*
X137330371Y-78798773D01*
X137357436Y-78734363D01*
X137387620Y-78707665D01*
X137430890Y-78680477D01*
X137550477Y-78560890D01*
X137557033Y-78550456D01*
X137640452Y-78417697D01*
X137640454Y-78417694D01*
X137640454Y-78417692D01*
X137640456Y-78417690D01*
X137696313Y-78258059D01*
X137696313Y-78258058D01*
X137696314Y-78258056D01*
X137715249Y-78090002D01*
X137715249Y-78089997D01*
X137696314Y-77921943D01*
X137678139Y-77870002D01*
X140214751Y-77870002D01*
X140233685Y-78038056D01*
X140289545Y-78197694D01*
X140289547Y-78197697D01*
X140379518Y-78340884D01*
X140379523Y-78340890D01*
X140499109Y-78460476D01*
X140499115Y-78460481D01*
X140642302Y-78550452D01*
X140642305Y-78550454D01*
X140642309Y-78550455D01*
X140642310Y-78550456D01*
X140670946Y-78560476D01*
X140801943Y-78606314D01*
X140969997Y-78625249D01*
X140970000Y-78625249D01*
X140970003Y-78625249D01*
X141138056Y-78606314D01*
X141138059Y-78606313D01*
X141297690Y-78550456D01*
X141297692Y-78550454D01*
X141297694Y-78550454D01*
X141297697Y-78550452D01*
X141440884Y-78460481D01*
X141440885Y-78460480D01*
X141440890Y-78460477D01*
X141560477Y-78340890D01*
X141571023Y-78324106D01*
X141650452Y-78197697D01*
X141650454Y-78197694D01*
X141650454Y-78197692D01*
X141650456Y-78197690D01*
X141706313Y-78038059D01*
X141706313Y-78038058D01*
X141706314Y-78038056D01*
X141720488Y-77912256D01*
X144857005Y-77912256D01*
X144875939Y-78080310D01*
X144931799Y-78239948D01*
X144931801Y-78239951D01*
X145021772Y-78383138D01*
X145021777Y-78383144D01*
X145141363Y-78502730D01*
X145141369Y-78502735D01*
X145284556Y-78592706D01*
X145284559Y-78592708D01*
X145284563Y-78592709D01*
X145284564Y-78592710D01*
X145328289Y-78608010D01*
X145444197Y-78648568D01*
X145612251Y-78667503D01*
X145612254Y-78667503D01*
X145612257Y-78667503D01*
X145696283Y-78658035D01*
X145780313Y-78648567D01*
X145780318Y-78648565D01*
X145787095Y-78647019D01*
X145787443Y-78648545D01*
X145848938Y-78645398D01*
X145909570Y-78680118D01*
X145937171Y-78725047D01*
X145941063Y-78736168D01*
X145941068Y-78736180D01*
X146031038Y-78879365D01*
X146031040Y-78879367D01*
X146031043Y-78879371D01*
X146083974Y-78932302D01*
X146114495Y-78962823D01*
X146147979Y-79024147D01*
X146144258Y-79084928D01*
X146145236Y-79085152D01*
X146143882Y-79091084D01*
X146143860Y-79091444D01*
X146143687Y-79091938D01*
X146143686Y-79091941D01*
X146124751Y-79259997D01*
X146124751Y-79260002D01*
X146143685Y-79428056D01*
X146199545Y-79587694D01*
X146199547Y-79587697D01*
X146289518Y-79730884D01*
X146289523Y-79730890D01*
X146409109Y-79850476D01*
X146409115Y-79850481D01*
X146552302Y-79940452D01*
X146552305Y-79940454D01*
X146552309Y-79940455D01*
X146552310Y-79940456D01*
X146605046Y-79958909D01*
X146711943Y-79996314D01*
X146879997Y-80015249D01*
X146880000Y-80015249D01*
X146880003Y-80015249D01*
X147048056Y-79996314D01*
X147053409Y-79994441D01*
X147207690Y-79940456D01*
X147265271Y-79904275D01*
X147332505Y-79885275D01*
X147399340Y-79905642D01*
X147444555Y-79958909D01*
X147453794Y-80028165D01*
X147448284Y-80050223D01*
X147433686Y-80091942D01*
X147414751Y-80259997D01*
X147414751Y-80260002D01*
X147433685Y-80428056D01*
X147489545Y-80587694D01*
X147489547Y-80587697D01*
X147579518Y-80730884D01*
X147579523Y-80730890D01*
X147699109Y-80850476D01*
X147699115Y-80850481D01*
X147842302Y-80940452D01*
X147842305Y-80940454D01*
X147842309Y-80940455D01*
X147842310Y-80940456D01*
X147914913Y-80965860D01*
X148001943Y-80996314D01*
X148169997Y-81015249D01*
X148170000Y-81015249D01*
X148170003Y-81015249D01*
X148338056Y-80996314D01*
X148348267Y-80992741D01*
X148497690Y-80940456D01*
X148497692Y-80940454D01*
X148497694Y-80940454D01*
X148497697Y-80940452D01*
X148640884Y-80850481D01*
X148640885Y-80850480D01*
X148640890Y-80850477D01*
X148760477Y-80730890D01*
X148810745Y-80650890D01*
X148811303Y-80650002D01*
X152114751Y-80650002D01*
X152133685Y-80818056D01*
X152189545Y-80977694D01*
X152189547Y-80977697D01*
X152279518Y-81120884D01*
X152279523Y-81120890D01*
X152399109Y-81240476D01*
X152399115Y-81240481D01*
X152542302Y-81330452D01*
X152542305Y-81330454D01*
X152542309Y-81330455D01*
X152542310Y-81330456D01*
X152587576Y-81346295D01*
X152701943Y-81386314D01*
X152869997Y-81405249D01*
X152870000Y-81405249D01*
X152870003Y-81405249D01*
X153038056Y-81386314D01*
X153059533Y-81378799D01*
X153197690Y-81330456D01*
X153197692Y-81330454D01*
X153197694Y-81330454D01*
X153197697Y-81330452D01*
X153340884Y-81240481D01*
X153340885Y-81240480D01*
X153340890Y-81240477D01*
X153460477Y-81120890D01*
X153465854Y-81112333D01*
X153550452Y-80977697D01*
X153550454Y-80977694D01*
X153550454Y-80977692D01*
X153550456Y-80977690D01*
X153606313Y-80818059D01*
X153606313Y-80818058D01*
X153606314Y-80818056D01*
X153625249Y-80650002D01*
X153625249Y-80649997D01*
X153606314Y-80481943D01*
X153564293Y-80361853D01*
X153550456Y-80322310D01*
X153550455Y-80322309D01*
X153550454Y-80322305D01*
X153550452Y-80322302D01*
X153460481Y-80179115D01*
X153460476Y-80179109D01*
X153340890Y-80059523D01*
X153340884Y-80059518D01*
X153197697Y-79969547D01*
X153197694Y-79969545D01*
X153038056Y-79913685D01*
X152870003Y-79894751D01*
X152869997Y-79894751D01*
X152701943Y-79913685D01*
X152542305Y-79969545D01*
X152542302Y-79969547D01*
X152399115Y-80059518D01*
X152399109Y-80059523D01*
X152279523Y-80179109D01*
X152279518Y-80179115D01*
X152189547Y-80322302D01*
X152189545Y-80322305D01*
X152133685Y-80481943D01*
X152114751Y-80649997D01*
X152114751Y-80650002D01*
X148811303Y-80650002D01*
X148850452Y-80587697D01*
X148850454Y-80587694D01*
X148850454Y-80587692D01*
X148850456Y-80587690D01*
X148906313Y-80428059D01*
X148906313Y-80428058D01*
X148906314Y-80428056D01*
X148925249Y-80260002D01*
X148925249Y-80259997D01*
X148906314Y-80091943D01*
X148853306Y-79940455D01*
X148850456Y-79932310D01*
X148850455Y-79932309D01*
X148850454Y-79932305D01*
X148850452Y-79932302D01*
X148760481Y-79789115D01*
X148760476Y-79789109D01*
X148640890Y-79669523D01*
X148640884Y-79669518D01*
X148497697Y-79579547D01*
X148497694Y-79579545D01*
X148338056Y-79523685D01*
X148170003Y-79504751D01*
X148169997Y-79504751D01*
X148001943Y-79523685D01*
X147842307Y-79579545D01*
X147784729Y-79615724D01*
X147717492Y-79634724D01*
X147650657Y-79614356D01*
X147605443Y-79561088D01*
X147596206Y-79491832D01*
X147601714Y-79469780D01*
X147616313Y-79428059D01*
X147635249Y-79260000D01*
X147632777Y-79238059D01*
X147616314Y-79091943D01*
X147560454Y-78932305D01*
X147560452Y-78932302D01*
X147470481Y-78789115D01*
X147470476Y-78789109D01*
X147387024Y-78705657D01*
X147353539Y-78644334D01*
X147357267Y-78583549D01*
X147356284Y-78583325D01*
X147357647Y-78577350D01*
X147357668Y-78577009D01*
X147357833Y-78576540D01*
X147357834Y-78576533D01*
X147376769Y-78408483D01*
X147376769Y-78408478D01*
X147357834Y-78240424D01*
X147308400Y-78099150D01*
X147301976Y-78080791D01*
X147301975Y-78080790D01*
X147301974Y-78080786D01*
X147301972Y-78080783D01*
X147232363Y-77970002D01*
X148334751Y-77970002D01*
X148353685Y-78138056D01*
X148409545Y-78297694D01*
X148409547Y-78297697D01*
X148499518Y-78440884D01*
X148499523Y-78440890D01*
X148619109Y-78560476D01*
X148619115Y-78560481D01*
X148762302Y-78650452D01*
X148762305Y-78650454D01*
X148762309Y-78650455D01*
X148762310Y-78650456D01*
X148779126Y-78656340D01*
X148921943Y-78706314D01*
X149089997Y-78725249D01*
X149090000Y-78725249D01*
X149090003Y-78725249D01*
X149258056Y-78706314D01*
X149259934Y-78705657D01*
X149417690Y-78650456D01*
X149417692Y-78650454D01*
X149417694Y-78650454D01*
X149417697Y-78650452D01*
X149560884Y-78560481D01*
X149560885Y-78560480D01*
X149560890Y-78560477D01*
X149680477Y-78440890D01*
X149712738Y-78389547D01*
X149770452Y-78297697D01*
X149770454Y-78297694D01*
X149770454Y-78297692D01*
X149770456Y-78297690D01*
X149826313Y-78138059D01*
X149826313Y-78138058D01*
X149826314Y-78138056D01*
X149845249Y-77970002D01*
X149845249Y-77969997D01*
X149826314Y-77801943D01*
X149779699Y-77668726D01*
X149770456Y-77642310D01*
X149770455Y-77642309D01*
X149770454Y-77642305D01*
X149770452Y-77642302D01*
X149680481Y-77499115D01*
X149680476Y-77499109D01*
X149560890Y-77379523D01*
X149560884Y-77379518D01*
X149417697Y-77289547D01*
X149417694Y-77289545D01*
X149258056Y-77233685D01*
X149090003Y-77214751D01*
X149089997Y-77214751D01*
X148921943Y-77233685D01*
X148762305Y-77289545D01*
X148762302Y-77289547D01*
X148619115Y-77379518D01*
X148619109Y-77379523D01*
X148499523Y-77499109D01*
X148499518Y-77499115D01*
X148409547Y-77642302D01*
X148409545Y-77642305D01*
X148353685Y-77801943D01*
X148334751Y-77969997D01*
X148334751Y-77970002D01*
X147232363Y-77970002D01*
X147212001Y-77937596D01*
X147211996Y-77937590D01*
X147092410Y-77818004D01*
X147092404Y-77817999D01*
X146949217Y-77728028D01*
X146949214Y-77728026D01*
X146789576Y-77672166D01*
X146621523Y-77653232D01*
X146621517Y-77653232D01*
X146453461Y-77672167D01*
X146446672Y-77673717D01*
X146446324Y-77672195D01*
X146384801Y-77675327D01*
X146324179Y-77640590D01*
X146296599Y-77595678D01*
X146292709Y-77584561D01*
X146202735Y-77441369D01*
X146202730Y-77441363D01*
X146083144Y-77321777D01*
X146083138Y-77321772D01*
X145939951Y-77231801D01*
X145939948Y-77231799D01*
X145780310Y-77175939D01*
X145612257Y-77157005D01*
X145612251Y-77157005D01*
X145444197Y-77175939D01*
X145284559Y-77231799D01*
X145284556Y-77231801D01*
X145141369Y-77321772D01*
X145141363Y-77321777D01*
X145021777Y-77441363D01*
X145021772Y-77441369D01*
X144931801Y-77584556D01*
X144931799Y-77584559D01*
X144875939Y-77744197D01*
X144857005Y-77912251D01*
X144857005Y-77912256D01*
X141720488Y-77912256D01*
X141725249Y-77870002D01*
X141725249Y-77869997D01*
X141706314Y-77701943D01*
X141650454Y-77542305D01*
X141650452Y-77542302D01*
X141560481Y-77399115D01*
X141560476Y-77399109D01*
X141440890Y-77279523D01*
X141440884Y-77279518D01*
X141297697Y-77189547D01*
X141297694Y-77189545D01*
X141138056Y-77133685D01*
X140970003Y-77114751D01*
X140969997Y-77114751D01*
X140801943Y-77133685D01*
X140642305Y-77189545D01*
X140642302Y-77189547D01*
X140499115Y-77279518D01*
X140499109Y-77279523D01*
X140379523Y-77399109D01*
X140379518Y-77399115D01*
X140289547Y-77542302D01*
X140289545Y-77542305D01*
X140233685Y-77701943D01*
X140214751Y-77869997D01*
X140214751Y-77870002D01*
X137678139Y-77870002D01*
X137640454Y-77762305D01*
X137640452Y-77762302D01*
X137550481Y-77619115D01*
X137550476Y-77619109D01*
X137430890Y-77499523D01*
X137430884Y-77499518D01*
X137287697Y-77409547D01*
X137287686Y-77409542D01*
X137158628Y-77364382D01*
X137101852Y-77323660D01*
X137076105Y-77258708D01*
X137076362Y-77233464D01*
X137079225Y-77208064D01*
X137068711Y-77114751D01*
X137060290Y-77040007D01*
X137018443Y-76920415D01*
X137004432Y-76880374D01*
X137004431Y-76880373D01*
X137004430Y-76880369D01*
X137004428Y-76880366D01*
X136914457Y-76737179D01*
X136914452Y-76737173D01*
X136794866Y-76617587D01*
X136794860Y-76617582D01*
X136651673Y-76527611D01*
X136651670Y-76527609D01*
X136542885Y-76489544D01*
X136493028Y-76472098D01*
X136436253Y-76431377D01*
X136416944Y-76396015D01*
X136361435Y-76237378D01*
X136361434Y-76237375D01*
X136361431Y-76237370D01*
X136271460Y-76094183D01*
X136271455Y-76094177D01*
X136151869Y-75974591D01*
X136151863Y-75974586D01*
X136008676Y-75884615D01*
X136008673Y-75884613D01*
X135849035Y-75828753D01*
X135680982Y-75809819D01*
X135680975Y-75809819D01*
X135562184Y-75823203D01*
X135493362Y-75811148D01*
X135443307Y-75765955D01*
X135434966Y-75752681D01*
X135410166Y-75713211D01*
X135306957Y-75610002D01*
X143184751Y-75610002D01*
X143203685Y-75778056D01*
X143259545Y-75937694D01*
X143259547Y-75937697D01*
X143349518Y-76080884D01*
X143349523Y-76080890D01*
X143469109Y-76200476D01*
X143469115Y-76200481D01*
X143612302Y-76290452D01*
X143612305Y-76290454D01*
X143612309Y-76290455D01*
X143612310Y-76290456D01*
X143639591Y-76300002D01*
X143771943Y-76346314D01*
X143939997Y-76365249D01*
X143940000Y-76365249D01*
X143940003Y-76365249D01*
X144108056Y-76346314D01*
X144111168Y-76345225D01*
X144240409Y-76300002D01*
X147044751Y-76300002D01*
X147063685Y-76468056D01*
X147119545Y-76627694D01*
X147119547Y-76627697D01*
X147209518Y-76770884D01*
X147209523Y-76770890D01*
X147329109Y-76890476D01*
X147329115Y-76890481D01*
X147472302Y-76980452D01*
X147472305Y-76980454D01*
X147472309Y-76980455D01*
X147472310Y-76980456D01*
X147533711Y-77001941D01*
X147631943Y-77036314D01*
X147799997Y-77055249D01*
X147800000Y-77055249D01*
X147800003Y-77055249D01*
X147968056Y-77036314D01*
X147968059Y-77036313D01*
X148127690Y-76980456D01*
X148127692Y-76980454D01*
X148127694Y-76980454D01*
X148127697Y-76980452D01*
X148270884Y-76890481D01*
X148270885Y-76890480D01*
X148270890Y-76890477D01*
X148390477Y-76770890D01*
X148390481Y-76770884D01*
X148480452Y-76627697D01*
X148480454Y-76627694D01*
X148480454Y-76627692D01*
X148480456Y-76627690D01*
X148536313Y-76468059D01*
X148536313Y-76468058D01*
X148536314Y-76468056D01*
X148555249Y-76300002D01*
X148555249Y-76299997D01*
X148538349Y-76150002D01*
X149544751Y-76150002D01*
X149563685Y-76318056D01*
X149619545Y-76477694D01*
X149619547Y-76477697D01*
X149709518Y-76620884D01*
X149709523Y-76620890D01*
X149829109Y-76740476D01*
X149829115Y-76740481D01*
X149972302Y-76830452D01*
X149972305Y-76830454D01*
X149972309Y-76830455D01*
X149972310Y-76830456D01*
X150006164Y-76842302D01*
X150131943Y-76886314D01*
X150299997Y-76905249D01*
X150300000Y-76905249D01*
X150300002Y-76905249D01*
X150370388Y-76897318D01*
X150439210Y-76909372D01*
X150489264Y-76954564D01*
X150499523Y-76970890D01*
X150499525Y-76970892D01*
X150619109Y-77090476D01*
X150619115Y-77090481D01*
X150762302Y-77180452D01*
X150762308Y-77180455D01*
X150762310Y-77180456D01*
X150788291Y-77189547D01*
X150879922Y-77221610D01*
X150936699Y-77262332D01*
X150962188Y-77324764D01*
X150963686Y-77338056D01*
X151019545Y-77497694D01*
X151019547Y-77497697D01*
X151109518Y-77640884D01*
X151109523Y-77640890D01*
X151229109Y-77760476D01*
X151229115Y-77760481D01*
X151372302Y-77850452D01*
X151372305Y-77850454D01*
X151372309Y-77850455D01*
X151372310Y-77850456D01*
X151428155Y-77869997D01*
X151531943Y-77906314D01*
X151699997Y-77925249D01*
X151700000Y-77925249D01*
X151700003Y-77925249D01*
X151868056Y-77906314D01*
X151870448Y-77905477D01*
X152027690Y-77850456D01*
X152027692Y-77850454D01*
X152027694Y-77850454D01*
X152027697Y-77850452D01*
X152170884Y-77760481D01*
X152170885Y-77760480D01*
X152170890Y-77760477D01*
X152290477Y-77640890D01*
X152304159Y-77619115D01*
X152380452Y-77497697D01*
X152380454Y-77497694D01*
X152380454Y-77497692D01*
X152380456Y-77497690D01*
X152436313Y-77338059D01*
X152436313Y-77338058D01*
X152436314Y-77338056D01*
X152455249Y-77170002D01*
X152455249Y-77169997D01*
X152436314Y-77001943D01*
X152396651Y-76888594D01*
X152380456Y-76842310D01*
X152380455Y-76842309D01*
X152380454Y-76842305D01*
X152380452Y-76842302D01*
X152290481Y-76699115D01*
X152290476Y-76699109D01*
X152170890Y-76579523D01*
X152170884Y-76579518D01*
X152027697Y-76489547D01*
X152027694Y-76489545D01*
X151910075Y-76448389D01*
X151853299Y-76407667D01*
X151827809Y-76345227D01*
X151826313Y-76331941D01*
X151770456Y-76172310D01*
X151770455Y-76172308D01*
X151770452Y-76172302D01*
X151680481Y-76029115D01*
X151680476Y-76029109D01*
X151560890Y-75909523D01*
X151560884Y-75909518D01*
X151417697Y-75819547D01*
X151417694Y-75819545D01*
X151258056Y-75763685D01*
X151090003Y-75744751D01*
X151089997Y-75744751D01*
X151019611Y-75752681D01*
X150950789Y-75740626D01*
X150900735Y-75695434D01*
X150890479Y-75679113D01*
X150890478Y-75679111D01*
X150770890Y-75559523D01*
X150770884Y-75559518D01*
X150627697Y-75469547D01*
X150627694Y-75469545D01*
X150468056Y-75413685D01*
X150300003Y-75394751D01*
X150299997Y-75394751D01*
X150131943Y-75413685D01*
X149972305Y-75469545D01*
X149972302Y-75469547D01*
X149829115Y-75559518D01*
X149829109Y-75559523D01*
X149709523Y-75679109D01*
X149709518Y-75679115D01*
X149619547Y-75822302D01*
X149619545Y-75822305D01*
X149563685Y-75981943D01*
X149544751Y-76149997D01*
X149544751Y-76150002D01*
X148538349Y-76150002D01*
X148536314Y-76131943D01*
X148489337Y-75997690D01*
X148480456Y-75972310D01*
X148480455Y-75972309D01*
X148480454Y-75972305D01*
X148480452Y-75972302D01*
X148390481Y-75829115D01*
X148390476Y-75829109D01*
X148270890Y-75709523D01*
X148270884Y-75709518D01*
X148127697Y-75619547D01*
X148127694Y-75619545D01*
X147968056Y-75563685D01*
X147800003Y-75544751D01*
X147799997Y-75544751D01*
X147631943Y-75563685D01*
X147472305Y-75619545D01*
X147472302Y-75619547D01*
X147329115Y-75709518D01*
X147329109Y-75709523D01*
X147209523Y-75829109D01*
X147209518Y-75829115D01*
X147119547Y-75972302D01*
X147119545Y-75972305D01*
X147063685Y-76131943D01*
X147044751Y-76299997D01*
X147044751Y-76300002D01*
X144240409Y-76300002D01*
X144267690Y-76290456D01*
X144267692Y-76290454D01*
X144267694Y-76290454D01*
X144267697Y-76290452D01*
X144410884Y-76200481D01*
X144410885Y-76200480D01*
X144410890Y-76200477D01*
X144530477Y-76080890D01*
X144563013Y-76029110D01*
X144620452Y-75937697D01*
X144620454Y-75937694D01*
X144620454Y-75937692D01*
X144620456Y-75937690D01*
X144676313Y-75778059D01*
X144676313Y-75778058D01*
X144676314Y-75778056D01*
X144695249Y-75610002D01*
X144695249Y-75609997D01*
X144676314Y-75441943D01*
X144641448Y-75342302D01*
X144620456Y-75282310D01*
X144620455Y-75282309D01*
X144620454Y-75282305D01*
X144620452Y-75282302D01*
X144530481Y-75139115D01*
X144530476Y-75139109D01*
X144410890Y-75019523D01*
X144410884Y-75019518D01*
X144267697Y-74929547D01*
X144267694Y-74929545D01*
X144108056Y-74873685D01*
X143940003Y-74854751D01*
X143939997Y-74854751D01*
X143771943Y-74873685D01*
X143612305Y-74929545D01*
X143612302Y-74929547D01*
X143469115Y-75019518D01*
X143469109Y-75019523D01*
X143349523Y-75139109D01*
X143349518Y-75139115D01*
X143259547Y-75282302D01*
X143259545Y-75282305D01*
X143203685Y-75441943D01*
X143184751Y-75609997D01*
X143184751Y-75610002D01*
X135306957Y-75610002D01*
X135290579Y-75593624D01*
X135290573Y-75593619D01*
X135147386Y-75503648D01*
X135147383Y-75503646D01*
X134987745Y-75447786D01*
X134819692Y-75428852D01*
X134819686Y-75428852D01*
X134651632Y-75447786D01*
X134491994Y-75503646D01*
X134491991Y-75503648D01*
X134348804Y-75593619D01*
X134348798Y-75593624D01*
X134229212Y-75713210D01*
X134229207Y-75713216D01*
X134139236Y-75856403D01*
X134139234Y-75856406D01*
X134083374Y-76016044D01*
X134064440Y-76184098D01*
X134064440Y-76184103D01*
X129127264Y-76184103D01*
X129170477Y-76140890D01*
X129199825Y-76094183D01*
X129260452Y-75997697D01*
X129260454Y-75997694D01*
X129260454Y-75997692D01*
X129260456Y-75997690D01*
X129316313Y-75838059D01*
X129316313Y-75838058D01*
X129316314Y-75838056D01*
X129335249Y-75670002D01*
X129335249Y-75669997D01*
X129316314Y-75501943D01*
X129264239Y-75353122D01*
X129260456Y-75342310D01*
X129260455Y-75342309D01*
X129260454Y-75342305D01*
X129260452Y-75342302D01*
X129170481Y-75199115D01*
X129170476Y-75199109D01*
X129050890Y-75079523D01*
X129050884Y-75079518D01*
X128907697Y-74989547D01*
X128907694Y-74989545D01*
X128748056Y-74933685D01*
X128580003Y-74914751D01*
X128579997Y-74914751D01*
X128411943Y-74933685D01*
X128252305Y-74989545D01*
X128252302Y-74989547D01*
X128109115Y-75079518D01*
X128109109Y-75079523D01*
X127989523Y-75199109D01*
X127989518Y-75199115D01*
X127899547Y-75342302D01*
X127899545Y-75342305D01*
X127843685Y-75501943D01*
X127824751Y-75669997D01*
X127824751Y-75670002D01*
X115877218Y-75670002D01*
X115884420Y-75654558D01*
X115885872Y-75651653D01*
X115930764Y-75567666D01*
X115934657Y-75561331D01*
X115935923Y-75559523D01*
X115980994Y-75495155D01*
X115983827Y-75491420D01*
X116043122Y-75419168D01*
X116047162Y-75414710D01*
X116104710Y-75357162D01*
X116109168Y-75353122D01*
X116181420Y-75293827D01*
X116185155Y-75290994D01*
X116251334Y-75244654D01*
X116257666Y-75240764D01*
X116341653Y-75195872D01*
X116344558Y-75194420D01*
X116412037Y-75162953D01*
X116428424Y-75156683D01*
X116521653Y-75128402D01*
X116588309Y-75110542D01*
X116608223Y-75106918D01*
X116734542Y-75094477D01*
X116777305Y-75090735D01*
X116782706Y-75090500D01*
X118948507Y-75090500D01*
X118948507Y-75090499D01*
X119283394Y-75052767D01*
X119611954Y-74977776D01*
X119930051Y-74866469D01*
X120233686Y-74720246D01*
X120519039Y-74540946D01*
X120782523Y-74330825D01*
X121020825Y-74092523D01*
X121230946Y-73829039D01*
X121246034Y-73805027D01*
X124910530Y-73805027D01*
X124929464Y-73973081D01*
X124985324Y-74132719D01*
X124985326Y-74132722D01*
X125075297Y-74275909D01*
X125075302Y-74275915D01*
X125194888Y-74395501D01*
X125194894Y-74395506D01*
X125338081Y-74485477D01*
X125338084Y-74485479D01*
X125338088Y-74485480D01*
X125338089Y-74485481D01*
X125408152Y-74509997D01*
X125497722Y-74541339D01*
X125665776Y-74560274D01*
X125665779Y-74560274D01*
X125665782Y-74560274D01*
X125833835Y-74541339D01*
X125848196Y-74536314D01*
X125993469Y-74485481D01*
X125993471Y-74485479D01*
X125993473Y-74485479D01*
X125993476Y-74485477D01*
X126136663Y-74395506D01*
X126136664Y-74395505D01*
X126136669Y-74395502D01*
X126256256Y-74275915D01*
X126256260Y-74275909D01*
X126346231Y-74132722D01*
X126346233Y-74132719D01*
X126346233Y-74132717D01*
X126346235Y-74132715D01*
X126402092Y-73973084D01*
X126402092Y-73973083D01*
X126402093Y-73973081D01*
X126421028Y-73805027D01*
X126421028Y-73805022D01*
X126402093Y-73636968D01*
X126367032Y-73536771D01*
X126346235Y-73477335D01*
X126346234Y-73477334D01*
X126346233Y-73477330D01*
X126346231Y-73477327D01*
X126256260Y-73334140D01*
X126256255Y-73334134D01*
X126136669Y-73214548D01*
X126136663Y-73214543D01*
X125993476Y-73124572D01*
X125993473Y-73124570D01*
X125833835Y-73068710D01*
X125665782Y-73049776D01*
X125665776Y-73049776D01*
X125497722Y-73068710D01*
X125338084Y-73124570D01*
X125338081Y-73124572D01*
X125194894Y-73214543D01*
X125194888Y-73214548D01*
X125075302Y-73334134D01*
X125075297Y-73334140D01*
X124985326Y-73477327D01*
X124985324Y-73477330D01*
X124929464Y-73636968D01*
X124910530Y-73805022D01*
X124910530Y-73805027D01*
X121246034Y-73805027D01*
X121410246Y-73543686D01*
X121556469Y-73240051D01*
X121667776Y-72921954D01*
X121742767Y-72593394D01*
X121780500Y-72258504D01*
X121780500Y-71950002D01*
X128294751Y-71950002D01*
X128313685Y-72118056D01*
X128369545Y-72277694D01*
X128369547Y-72277697D01*
X128459518Y-72420884D01*
X128459523Y-72420890D01*
X128579109Y-72540476D01*
X128579115Y-72540481D01*
X128722302Y-72630452D01*
X128722305Y-72630454D01*
X128722309Y-72630455D01*
X128722310Y-72630456D01*
X128881941Y-72686313D01*
X128881944Y-72686314D01*
X128976918Y-72697015D01*
X129041332Y-72724081D01*
X129080888Y-72781676D01*
X129083025Y-72851513D01*
X129050717Y-72907916D01*
X128929518Y-73029115D01*
X128839547Y-73172302D01*
X128839545Y-73172305D01*
X128783685Y-73331943D01*
X128764751Y-73499997D01*
X128764751Y-73500002D01*
X128783685Y-73668056D01*
X128839545Y-73827694D01*
X128839547Y-73827697D01*
X128929518Y-73970884D01*
X128929523Y-73970890D01*
X129049109Y-74090476D01*
X129049115Y-74090481D01*
X129192302Y-74180452D01*
X129192305Y-74180454D01*
X129192309Y-74180455D01*
X129192310Y-74180456D01*
X129264913Y-74205860D01*
X129351943Y-74236314D01*
X129519997Y-74255249D01*
X129520000Y-74255249D01*
X129520003Y-74255249D01*
X129688056Y-74236314D01*
X129688059Y-74236313D01*
X129847690Y-74180456D01*
X129938158Y-74123610D01*
X130005393Y-74104610D01*
X130072229Y-74124977D01*
X130117443Y-74178244D01*
X130127350Y-74214719D01*
X130136431Y-74295309D01*
X130192290Y-74454947D01*
X130192292Y-74454950D01*
X130282263Y-74598137D01*
X130282268Y-74598143D01*
X130401854Y-74717729D01*
X130401860Y-74717734D01*
X130545047Y-74807705D01*
X130545050Y-74807707D01*
X130545054Y-74807708D01*
X130545055Y-74807709D01*
X130617658Y-74833113D01*
X130704688Y-74863567D01*
X130872742Y-74882502D01*
X130872745Y-74882502D01*
X130872748Y-74882502D01*
X131040801Y-74863567D01*
X131065996Y-74854751D01*
X131200435Y-74807709D01*
X131200437Y-74807707D01*
X131200439Y-74807707D01*
X131200442Y-74807705D01*
X131343629Y-74717734D01*
X131343630Y-74717733D01*
X131343635Y-74717730D01*
X131463222Y-74598143D01*
X131487017Y-74560274D01*
X131543739Y-74470002D01*
X138314751Y-74470002D01*
X138333685Y-74638056D01*
X138389545Y-74797694D01*
X138389547Y-74797697D01*
X138479518Y-74940884D01*
X138479523Y-74940890D01*
X138599109Y-75060476D01*
X138599115Y-75060481D01*
X138742302Y-75150452D01*
X138742305Y-75150454D01*
X138742309Y-75150455D01*
X138742310Y-75150456D01*
X138760106Y-75156683D01*
X138901943Y-75206314D01*
X139069997Y-75225249D01*
X139070000Y-75225249D01*
X139070003Y-75225249D01*
X139238056Y-75206314D01*
X139238059Y-75206313D01*
X139397690Y-75150456D01*
X139397692Y-75150454D01*
X139397694Y-75150454D01*
X139397697Y-75150452D01*
X139540884Y-75060481D01*
X139540885Y-75060480D01*
X139540890Y-75060477D01*
X139660477Y-74940890D01*
X139665004Y-74933685D01*
X139750452Y-74797697D01*
X139750454Y-74797694D01*
X139750454Y-74797692D01*
X139750456Y-74797690D01*
X139806313Y-74638059D01*
X139806313Y-74638058D01*
X139806314Y-74638056D01*
X139825249Y-74470002D01*
X139825249Y-74469997D01*
X139806314Y-74301943D01*
X139774480Y-74210967D01*
X139750456Y-74142310D01*
X139750455Y-74142309D01*
X139750454Y-74142305D01*
X139750452Y-74142302D01*
X139660481Y-73999115D01*
X139660476Y-73999109D01*
X139540890Y-73879523D01*
X139540884Y-73879518D01*
X139398421Y-73790002D01*
X144744751Y-73790002D01*
X144763685Y-73958056D01*
X144819545Y-74117694D01*
X144819547Y-74117697D01*
X144909518Y-74260884D01*
X144909523Y-74260890D01*
X145029109Y-74380476D01*
X145029115Y-74380481D01*
X145172302Y-74470452D01*
X145172305Y-74470454D01*
X145172309Y-74470455D01*
X145172310Y-74470456D01*
X145244913Y-74495860D01*
X145331943Y-74526314D01*
X145499997Y-74545249D01*
X145500000Y-74545249D01*
X145500003Y-74545249D01*
X145600835Y-74533887D01*
X145668059Y-74526313D01*
X145827690Y-74470456D01*
X145876070Y-74440056D01*
X145943305Y-74421056D01*
X146008013Y-74440056D01*
X146056389Y-74470452D01*
X146072310Y-74480456D01*
X146193621Y-74522904D01*
X146231943Y-74536314D01*
X146399997Y-74555249D01*
X146400000Y-74555249D01*
X146400003Y-74555249D01*
X146568056Y-74536314D01*
X146568059Y-74536313D01*
X146643252Y-74510002D01*
X153684751Y-74510002D01*
X153703685Y-74678056D01*
X153759545Y-74837694D01*
X153759547Y-74837697D01*
X153849518Y-74980884D01*
X153849523Y-74980890D01*
X153969109Y-75100476D01*
X153969115Y-75100481D01*
X154112302Y-75190452D01*
X154112305Y-75190454D01*
X154112309Y-75190455D01*
X154112310Y-75190456D01*
X154157627Y-75206313D01*
X154271943Y-75246314D01*
X154439997Y-75265249D01*
X154440000Y-75265249D01*
X154440003Y-75265249D01*
X154608056Y-75246314D01*
X154608059Y-75246313D01*
X154767690Y-75190456D01*
X154767692Y-75190454D01*
X154767694Y-75190454D01*
X154767697Y-75190452D01*
X154910884Y-75100481D01*
X154910885Y-75100480D01*
X154910890Y-75100477D01*
X155030477Y-74980890D01*
X155062738Y-74929547D01*
X155120452Y-74837697D01*
X155120454Y-74837694D01*
X155120454Y-74837692D01*
X155120456Y-74837690D01*
X155176313Y-74678059D01*
X155176313Y-74678058D01*
X155176314Y-74678056D01*
X155195249Y-74510002D01*
X155195249Y-74509997D01*
X155176314Y-74341943D01*
X155120454Y-74182305D01*
X155120452Y-74182302D01*
X155030481Y-74039115D01*
X155030476Y-74039109D01*
X154910890Y-73919523D01*
X154910884Y-73919518D01*
X154767697Y-73829547D01*
X154767694Y-73829545D01*
X154608056Y-73773685D01*
X154440003Y-73754751D01*
X154439997Y-73754751D01*
X154271943Y-73773685D01*
X154112305Y-73829545D01*
X154112302Y-73829547D01*
X153969115Y-73919518D01*
X153969109Y-73919523D01*
X153849523Y-74039109D01*
X153849518Y-74039115D01*
X153759547Y-74182302D01*
X153759545Y-74182305D01*
X153703685Y-74341943D01*
X153684751Y-74509997D01*
X153684751Y-74510002D01*
X146643252Y-74510002D01*
X146727690Y-74480456D01*
X146727692Y-74480454D01*
X146727694Y-74480454D01*
X146727697Y-74480452D01*
X146870884Y-74390481D01*
X146870885Y-74390480D01*
X146870890Y-74390477D01*
X146990477Y-74270890D01*
X146990481Y-74270884D01*
X147080452Y-74127697D01*
X147080454Y-74127694D01*
X147080454Y-74127692D01*
X147080456Y-74127690D01*
X147136313Y-73968059D01*
X147136313Y-73968058D01*
X147136314Y-73968056D01*
X147155249Y-73800002D01*
X147155249Y-73799997D01*
X147136314Y-73631943D01*
X147105430Y-73543683D01*
X147080456Y-73472310D01*
X147080455Y-73472309D01*
X147080454Y-73472305D01*
X147080452Y-73472302D01*
X146990481Y-73329115D01*
X146990476Y-73329109D01*
X146870890Y-73209523D01*
X146870884Y-73209518D01*
X146727697Y-73119547D01*
X146727694Y-73119545D01*
X146568056Y-73063685D01*
X146400003Y-73044751D01*
X146399997Y-73044751D01*
X146231943Y-73063685D01*
X146072308Y-73119544D01*
X146023927Y-73149944D01*
X145956690Y-73168943D01*
X145891985Y-73149943D01*
X145827692Y-73109545D01*
X145827691Y-73109544D01*
X145827690Y-73109544D01*
X145789370Y-73096135D01*
X145668056Y-73053685D01*
X145500003Y-73034751D01*
X145499997Y-73034751D01*
X145331943Y-73053685D01*
X145172305Y-73109545D01*
X145172302Y-73109547D01*
X145029115Y-73199518D01*
X145029109Y-73199523D01*
X144909523Y-73319109D01*
X144909518Y-73319115D01*
X144819547Y-73462302D01*
X144819545Y-73462305D01*
X144763685Y-73621943D01*
X144744751Y-73789997D01*
X144744751Y-73790002D01*
X139398421Y-73790002D01*
X139397697Y-73789547D01*
X139397694Y-73789545D01*
X139238056Y-73733685D01*
X139070003Y-73714751D01*
X139069997Y-73714751D01*
X138901943Y-73733685D01*
X138742305Y-73789545D01*
X138742302Y-73789547D01*
X138599115Y-73879518D01*
X138599109Y-73879523D01*
X138479523Y-73999109D01*
X138479518Y-73999115D01*
X138389547Y-74142302D01*
X138389545Y-74142305D01*
X138333685Y-74301943D01*
X138314751Y-74469997D01*
X138314751Y-74470002D01*
X131543739Y-74470002D01*
X131553197Y-74454950D01*
X131553199Y-74454947D01*
X131553199Y-74454945D01*
X131553201Y-74454943D01*
X131609058Y-74295312D01*
X131609058Y-74295311D01*
X131609059Y-74295309D01*
X131627994Y-74127255D01*
X131627994Y-74127250D01*
X131609059Y-73959196D01*
X131555111Y-73805022D01*
X131553201Y-73799563D01*
X131553200Y-73799562D01*
X131553199Y-73799558D01*
X131553197Y-73799555D01*
X131463226Y-73656368D01*
X131463221Y-73656362D01*
X131343635Y-73536776D01*
X131343629Y-73536771D01*
X131200442Y-73446800D01*
X131200439Y-73446798D01*
X131040801Y-73390938D01*
X130872748Y-73372004D01*
X130872742Y-73372004D01*
X130704688Y-73390938D01*
X130545052Y-73446798D01*
X130454586Y-73503642D01*
X130387349Y-73522642D01*
X130320514Y-73502274D01*
X130275300Y-73449006D01*
X130265394Y-73412531D01*
X130256314Y-73331944D01*
X130251823Y-73319109D01*
X130200456Y-73172310D01*
X130200455Y-73172309D01*
X130200454Y-73172305D01*
X130200452Y-73172302D01*
X130110481Y-73029115D01*
X130110476Y-73029109D01*
X129990890Y-72909523D01*
X129990884Y-72909518D01*
X129847697Y-72819547D01*
X129847694Y-72819545D01*
X129688055Y-72763685D01*
X129593080Y-72752984D01*
X129528666Y-72725917D01*
X129489111Y-72668322D01*
X129486974Y-72598485D01*
X129519283Y-72542082D01*
X129520884Y-72540480D01*
X129520890Y-72540477D01*
X129640477Y-72420890D01*
X129730452Y-72277697D01*
X129730454Y-72277694D01*
X129730454Y-72277692D01*
X129730456Y-72277690D01*
X129786313Y-72118059D01*
X129786313Y-72118058D01*
X129786314Y-72118056D01*
X129802693Y-71972690D01*
X130792063Y-71972690D01*
X130810997Y-72140744D01*
X130866857Y-72300382D01*
X130866859Y-72300385D01*
X130956830Y-72443572D01*
X130956835Y-72443578D01*
X131076421Y-72563164D01*
X131076427Y-72563169D01*
X131219614Y-72653140D01*
X131219617Y-72653142D01*
X131219621Y-72653143D01*
X131219622Y-72653144D01*
X131292225Y-72678548D01*
X131379255Y-72709002D01*
X131547309Y-72727937D01*
X131547312Y-72727937D01*
X131547315Y-72727937D01*
X131715368Y-72709002D01*
X131715371Y-72709001D01*
X131875002Y-72653144D01*
X131875004Y-72653142D01*
X131875006Y-72653142D01*
X131875009Y-72653140D01*
X132018196Y-72563169D01*
X132018197Y-72563168D01*
X132018202Y-72563165D01*
X132137789Y-72443578D01*
X132137793Y-72443572D01*
X132227764Y-72300385D01*
X132227766Y-72300382D01*
X132227766Y-72300380D01*
X132227768Y-72300378D01*
X132283625Y-72140747D01*
X132283625Y-72140746D01*
X132283626Y-72140744D01*
X132302561Y-71972690D01*
X132302561Y-71972685D01*
X132283626Y-71804631D01*
X132227766Y-71644993D01*
X132227764Y-71644990D01*
X132137793Y-71501803D01*
X132137788Y-71501797D01*
X132018202Y-71382211D01*
X132018196Y-71382206D01*
X131994190Y-71367122D01*
X144272578Y-71367122D01*
X144291512Y-71535176D01*
X144347372Y-71694814D01*
X144347374Y-71694817D01*
X144437345Y-71838004D01*
X144437350Y-71838010D01*
X144556936Y-71957596D01*
X144556942Y-71957601D01*
X144700129Y-72047572D01*
X144700132Y-72047574D01*
X144700136Y-72047575D01*
X144700137Y-72047576D01*
X144770935Y-72072349D01*
X144859770Y-72103434D01*
X145027824Y-72122369D01*
X145027827Y-72122369D01*
X145027830Y-72122369D01*
X145195886Y-72103433D01*
X145195888Y-72103433D01*
X145319152Y-72060301D01*
X145388931Y-72056739D01*
X145426080Y-72072349D01*
X145481701Y-72107299D01*
X145561517Y-72135227D01*
X145641333Y-72163156D01*
X145683347Y-72167890D01*
X145809389Y-72182092D01*
X145809392Y-72182092D01*
X145809395Y-72182092D01*
X145977448Y-72163157D01*
X145977451Y-72163156D01*
X146137082Y-72107299D01*
X146137084Y-72107297D01*
X146137086Y-72107297D01*
X146137089Y-72107295D01*
X146280276Y-72017324D01*
X146280277Y-72017323D01*
X146280282Y-72017320D01*
X146399869Y-71897733D01*
X146437396Y-71838010D01*
X146489844Y-71754540D01*
X146489846Y-71754537D01*
X146489846Y-71754535D01*
X146489848Y-71754533D01*
X146545705Y-71594902D01*
X146545705Y-71594901D01*
X146545706Y-71594899D01*
X146564641Y-71426845D01*
X146564641Y-71426840D01*
X146555983Y-71350002D01*
X149564751Y-71350002D01*
X149583685Y-71518056D01*
X149639545Y-71677694D01*
X149639547Y-71677697D01*
X149729518Y-71820884D01*
X149729523Y-71820890D01*
X149849109Y-71940476D01*
X149849115Y-71940481D01*
X149992302Y-72030452D01*
X149992305Y-72030454D01*
X149992309Y-72030455D01*
X149992310Y-72030456D01*
X150064913Y-72055860D01*
X150151943Y-72086314D01*
X150319997Y-72105249D01*
X150320000Y-72105249D01*
X150320003Y-72105249D01*
X150488056Y-72086314D01*
X150562397Y-72060301D01*
X150647690Y-72030456D01*
X150647692Y-72030454D01*
X150647694Y-72030454D01*
X150647697Y-72030452D01*
X150790884Y-71940481D01*
X150790885Y-71940480D01*
X150790890Y-71940477D01*
X150910477Y-71820890D01*
X150910481Y-71820884D01*
X151000452Y-71677697D01*
X151000454Y-71677694D01*
X151000454Y-71677692D01*
X151000456Y-71677690D01*
X151056313Y-71518059D01*
X151056313Y-71518058D01*
X151056314Y-71518056D01*
X151075249Y-71350002D01*
X151075249Y-71349997D01*
X151056314Y-71181943D01*
X151025860Y-71094913D01*
X151000456Y-71022310D01*
X151000455Y-71022309D01*
X151000454Y-71022305D01*
X151000452Y-71022302D01*
X150910481Y-70879115D01*
X150910476Y-70879109D01*
X150790890Y-70759523D01*
X150790884Y-70759518D01*
X150647697Y-70669547D01*
X150647694Y-70669545D01*
X150488056Y-70613685D01*
X150320003Y-70594751D01*
X150319997Y-70594751D01*
X150151943Y-70613685D01*
X149992305Y-70669545D01*
X149992302Y-70669547D01*
X149849115Y-70759518D01*
X149849109Y-70759523D01*
X149729523Y-70879109D01*
X149729518Y-70879115D01*
X149639547Y-71022302D01*
X149639545Y-71022305D01*
X149583685Y-71181943D01*
X149564751Y-71349997D01*
X149564751Y-71350002D01*
X146555983Y-71350002D01*
X146545706Y-71258786D01*
X146489846Y-71099148D01*
X146489844Y-71099145D01*
X146399873Y-70955958D01*
X146399868Y-70955952D01*
X146280282Y-70836366D01*
X146280276Y-70836361D01*
X146137089Y-70746390D01*
X146137086Y-70746388D01*
X145977448Y-70690528D01*
X145809395Y-70671594D01*
X145809389Y-70671594D01*
X145641334Y-70690529D01*
X145518066Y-70733662D01*
X145448287Y-70737223D01*
X145411140Y-70721614D01*
X145355519Y-70686665D01*
X145355518Y-70686664D01*
X145355517Y-70686664D01*
X145306599Y-70669547D01*
X145195883Y-70630805D01*
X145027830Y-70611871D01*
X145027824Y-70611871D01*
X144859770Y-70630805D01*
X144700132Y-70686665D01*
X144700129Y-70686667D01*
X144556942Y-70776638D01*
X144556936Y-70776643D01*
X144437350Y-70896229D01*
X144437345Y-70896235D01*
X144347374Y-71039422D01*
X144347372Y-71039425D01*
X144291512Y-71199063D01*
X144272578Y-71367117D01*
X144272578Y-71367122D01*
X131994190Y-71367122D01*
X131875009Y-71292235D01*
X131875006Y-71292233D01*
X131715368Y-71236373D01*
X131547315Y-71217439D01*
X131547309Y-71217439D01*
X131379255Y-71236373D01*
X131219617Y-71292233D01*
X131219614Y-71292235D01*
X131076427Y-71382206D01*
X131076421Y-71382211D01*
X130956835Y-71501797D01*
X130956830Y-71501803D01*
X130866859Y-71644990D01*
X130866857Y-71644993D01*
X130810997Y-71804631D01*
X130792063Y-71972685D01*
X130792063Y-71972690D01*
X129802693Y-71972690D01*
X129805249Y-71950002D01*
X129805249Y-71949997D01*
X129786314Y-71781943D01*
X129730454Y-71622305D01*
X129730452Y-71622302D01*
X129640481Y-71479115D01*
X129640476Y-71479109D01*
X129520890Y-71359523D01*
X129520884Y-71359518D01*
X129377697Y-71269547D01*
X129377694Y-71269545D01*
X129218056Y-71213685D01*
X129050003Y-71194751D01*
X129049997Y-71194751D01*
X128881943Y-71213685D01*
X128722305Y-71269545D01*
X128722302Y-71269547D01*
X128579115Y-71359518D01*
X128579109Y-71359523D01*
X128459523Y-71479109D01*
X128459518Y-71479115D01*
X128369547Y-71622302D01*
X128369545Y-71622305D01*
X128313685Y-71781943D01*
X128294751Y-71949997D01*
X128294751Y-71950002D01*
X121780500Y-71950002D01*
X121780500Y-71921496D01*
X121742767Y-71586606D01*
X121667776Y-71258046D01*
X121556469Y-70939949D01*
X121410246Y-70636314D01*
X121230946Y-70350961D01*
X121020825Y-70087477D01*
X120782523Y-69849175D01*
X120557847Y-69670002D01*
X136924751Y-69670002D01*
X136943685Y-69838056D01*
X136999545Y-69997694D01*
X136999547Y-69997697D01*
X137089518Y-70140884D01*
X137089523Y-70140890D01*
X137209109Y-70260476D01*
X137209115Y-70260481D01*
X137352302Y-70350452D01*
X137352305Y-70350454D01*
X137352309Y-70350455D01*
X137352310Y-70350456D01*
X137424913Y-70375860D01*
X137511943Y-70406314D01*
X137679997Y-70425249D01*
X137680000Y-70425249D01*
X137680003Y-70425249D01*
X137848056Y-70406314D01*
X137848059Y-70406313D01*
X138007690Y-70350456D01*
X138007692Y-70350454D01*
X138007694Y-70350454D01*
X138007697Y-70350452D01*
X138150884Y-70260481D01*
X138150885Y-70260480D01*
X138150890Y-70260477D01*
X138270477Y-70140890D01*
X138270481Y-70140884D01*
X138360452Y-69997697D01*
X138360454Y-69997694D01*
X138360454Y-69997692D01*
X138360456Y-69997690D01*
X138416313Y-69838059D01*
X138416313Y-69838058D01*
X138416314Y-69838056D01*
X138435249Y-69670002D01*
X138435249Y-69669997D01*
X138434123Y-69660002D01*
X147484751Y-69660002D01*
X147503685Y-69828056D01*
X147559545Y-69987694D01*
X147559547Y-69987697D01*
X147649518Y-70130884D01*
X147649523Y-70130890D01*
X147769109Y-70250476D01*
X147769115Y-70250481D01*
X147912302Y-70340452D01*
X147912305Y-70340454D01*
X147912309Y-70340455D01*
X147912310Y-70340456D01*
X147940883Y-70350454D01*
X148071943Y-70396314D01*
X148239997Y-70415249D01*
X148240000Y-70415249D01*
X148240003Y-70415249D01*
X148408056Y-70396314D01*
X148408059Y-70396313D01*
X148567690Y-70340456D01*
X148567692Y-70340454D01*
X148567694Y-70340454D01*
X148567697Y-70340452D01*
X148710884Y-70250481D01*
X148710885Y-70250480D01*
X148710890Y-70250477D01*
X148830477Y-70130890D01*
X148830481Y-70130884D01*
X148920452Y-69987697D01*
X148920454Y-69987694D01*
X148920454Y-69987692D01*
X148920456Y-69987690D01*
X148976313Y-69828059D01*
X148976313Y-69828058D01*
X148976314Y-69828056D01*
X148995249Y-69660002D01*
X148995249Y-69659997D01*
X148976314Y-69491943D01*
X148920454Y-69332305D01*
X148920452Y-69332302D01*
X148830481Y-69189115D01*
X148830476Y-69189109D01*
X148710890Y-69069523D01*
X148710884Y-69069518D01*
X148567697Y-68979547D01*
X148567694Y-68979545D01*
X148408056Y-68923685D01*
X148240003Y-68904751D01*
X148239997Y-68904751D01*
X148071943Y-68923685D01*
X147912305Y-68979545D01*
X147912302Y-68979547D01*
X147769115Y-69069518D01*
X147769109Y-69069523D01*
X147649523Y-69189109D01*
X147649518Y-69189115D01*
X147559547Y-69332302D01*
X147559545Y-69332305D01*
X147503685Y-69491943D01*
X147484751Y-69659997D01*
X147484751Y-69660002D01*
X138434123Y-69660002D01*
X138416314Y-69501943D01*
X138360454Y-69342305D01*
X138360452Y-69342302D01*
X138270481Y-69199115D01*
X138270476Y-69199109D01*
X138150890Y-69079523D01*
X138150884Y-69079518D01*
X138007697Y-68989547D01*
X138007694Y-68989545D01*
X137848056Y-68933685D01*
X137680003Y-68914751D01*
X137679997Y-68914751D01*
X137511943Y-68933685D01*
X137352305Y-68989545D01*
X137352302Y-68989547D01*
X137209115Y-69079518D01*
X137209109Y-69079523D01*
X137089523Y-69199109D01*
X137089518Y-69199115D01*
X136999547Y-69342302D01*
X136999545Y-69342305D01*
X136943685Y-69501943D01*
X136924751Y-69669997D01*
X136924751Y-69670002D01*
X120557847Y-69670002D01*
X120519039Y-69639054D01*
X120233686Y-69459754D01*
X120233683Y-69459752D01*
X119930054Y-69313532D01*
X119611965Y-69202227D01*
X119611953Y-69202223D01*
X119283397Y-69127233D01*
X119283381Y-69127231D01*
X118948508Y-69089500D01*
X118948504Y-69089500D01*
X118780099Y-69089500D01*
X116782710Y-69089500D01*
X116777303Y-69089264D01*
X116775015Y-69089063D01*
X116734554Y-69085523D01*
X116608238Y-69073082D01*
X116588299Y-69069454D01*
X116521669Y-69051601D01*
X116428435Y-69023319D01*
X116412027Y-69017040D01*
X116353066Y-68989547D01*
X116344618Y-68985607D01*
X116341605Y-68984101D01*
X116257671Y-68939236D01*
X116251331Y-68935341D01*
X116185170Y-68889015D01*
X116181398Y-68886154D01*
X116109190Y-68826895D01*
X116104688Y-68822815D01*
X116047182Y-68765309D01*
X116043103Y-68760808D01*
X115983844Y-68688600D01*
X115980983Y-68684828D01*
X115934657Y-68618667D01*
X115930762Y-68612327D01*
X115886475Y-68529474D01*
X115885888Y-68528375D01*
X115884406Y-68525411D01*
X115852958Y-68457971D01*
X115846682Y-68441570D01*
X115818398Y-68348330D01*
X115800541Y-68281685D01*
X115796918Y-68261771D01*
X115784482Y-68135519D01*
X115780735Y-68092695D01*
X115780500Y-68087293D01*
X115780500Y-67910002D01*
X124928251Y-67910002D01*
X124947185Y-68078056D01*
X125003045Y-68237694D01*
X125003047Y-68237697D01*
X125093018Y-68380884D01*
X125093023Y-68380890D01*
X125212609Y-68500476D01*
X125212615Y-68500481D01*
X125355802Y-68590452D01*
X125355805Y-68590454D01*
X125355809Y-68590455D01*
X125355810Y-68590456D01*
X125418314Y-68612327D01*
X125515443Y-68646314D01*
X125683497Y-68665249D01*
X125683500Y-68665249D01*
X125683503Y-68665249D01*
X125851556Y-68646314D01*
X125851559Y-68646313D01*
X126011190Y-68590456D01*
X126011192Y-68590454D01*
X126011194Y-68590454D01*
X126011197Y-68590452D01*
X126154384Y-68500481D01*
X126154385Y-68500480D01*
X126154390Y-68500477D01*
X126207952Y-68446914D01*
X126269273Y-68413430D01*
X126338965Y-68418414D01*
X126361604Y-68429603D01*
X126401509Y-68454677D01*
X126401512Y-68454679D01*
X126401516Y-68454680D01*
X126401517Y-68454681D01*
X126474120Y-68480085D01*
X126561150Y-68510539D01*
X126729204Y-68529474D01*
X126729207Y-68529474D01*
X126729210Y-68529474D01*
X126897263Y-68510539D01*
X126926007Y-68500481D01*
X127056897Y-68454681D01*
X127056899Y-68454679D01*
X127056901Y-68454679D01*
X127056904Y-68454677D01*
X127200091Y-68364706D01*
X127200092Y-68364705D01*
X127200097Y-68364702D01*
X127319684Y-68245115D01*
X127324347Y-68237694D01*
X127409659Y-68101922D01*
X127409661Y-68101919D01*
X127409661Y-68101917D01*
X127409663Y-68101915D01*
X127465520Y-67942284D01*
X127465520Y-67942283D01*
X127465521Y-67942281D01*
X127484456Y-67774227D01*
X127484456Y-67774222D01*
X127465521Y-67606168D01*
X127409661Y-67446530D01*
X127409659Y-67446527D01*
X127319688Y-67303340D01*
X127319683Y-67303334D01*
X127200097Y-67183748D01*
X127200091Y-67183743D01*
X127056904Y-67093772D01*
X127056901Y-67093770D01*
X126897263Y-67037910D01*
X126729210Y-67018976D01*
X126729204Y-67018976D01*
X126561150Y-67037910D01*
X126401512Y-67093770D01*
X126401509Y-67093772D01*
X126258322Y-67183743D01*
X126258315Y-67183749D01*
X126204754Y-67237310D01*
X126143431Y-67270794D01*
X126073739Y-67265809D01*
X126051102Y-67254622D01*
X126011192Y-67229545D01*
X126011191Y-67229544D01*
X126011190Y-67229544D01*
X125970337Y-67215249D01*
X125851556Y-67173685D01*
X125683503Y-67154751D01*
X125683497Y-67154751D01*
X125515443Y-67173685D01*
X125355805Y-67229545D01*
X125355802Y-67229547D01*
X125212615Y-67319518D01*
X125212609Y-67319523D01*
X125093023Y-67439109D01*
X125093018Y-67439115D01*
X125003047Y-67582302D01*
X125003045Y-67582305D01*
X124947185Y-67741943D01*
X124928251Y-67909997D01*
X124928251Y-67910002D01*
X115780500Y-67910002D01*
X115780500Y-66460002D01*
X149004751Y-66460002D01*
X149023685Y-66628056D01*
X149079545Y-66787694D01*
X149079547Y-66787697D01*
X149169518Y-66930884D01*
X149169523Y-66930890D01*
X149289109Y-67050476D01*
X149289115Y-67050481D01*
X149432302Y-67140452D01*
X149432305Y-67140454D01*
X149432309Y-67140455D01*
X149432310Y-67140456D01*
X149473163Y-67154751D01*
X149591943Y-67196314D01*
X149759997Y-67215249D01*
X149760000Y-67215249D01*
X149760003Y-67215249D01*
X149928056Y-67196314D01*
X149963965Y-67183749D01*
X150087690Y-67140456D01*
X150087692Y-67140454D01*
X150087694Y-67140454D01*
X150087697Y-67140452D01*
X150230884Y-67050481D01*
X150230885Y-67050480D01*
X150230890Y-67050477D01*
X150350477Y-66930890D01*
X150440452Y-66787697D01*
X150440454Y-66787694D01*
X150440454Y-66787692D01*
X150440456Y-66787690D01*
X150496313Y-66628059D01*
X150496313Y-66628058D01*
X150496314Y-66628056D01*
X150515249Y-66460002D01*
X150515249Y-66459997D01*
X150496314Y-66291943D01*
X150440454Y-66132305D01*
X150440452Y-66132302D01*
X150350481Y-65989115D01*
X150350476Y-65989109D01*
X150230890Y-65869523D01*
X150230884Y-65869518D01*
X150087697Y-65779547D01*
X150087694Y-65779545D01*
X149928056Y-65723685D01*
X149760003Y-65704751D01*
X149759997Y-65704751D01*
X149591943Y-65723685D01*
X149432305Y-65779545D01*
X149432302Y-65779547D01*
X149289115Y-65869518D01*
X149289109Y-65869523D01*
X149169523Y-65989109D01*
X149169518Y-65989115D01*
X149079547Y-66132302D01*
X149079545Y-66132305D01*
X149023685Y-66291943D01*
X149004751Y-66459997D01*
X149004751Y-66460002D01*
X115780500Y-66460002D01*
X115780500Y-65670002D01*
X129214751Y-65670002D01*
X129233685Y-65838056D01*
X129289545Y-65997694D01*
X129289547Y-65997697D01*
X129379518Y-66140884D01*
X129379523Y-66140890D01*
X129499109Y-66260476D01*
X129499115Y-66260481D01*
X129642302Y-66350452D01*
X129642305Y-66350454D01*
X129642309Y-66350455D01*
X129642310Y-66350456D01*
X129714913Y-66375860D01*
X129801943Y-66406314D01*
X129969997Y-66425249D01*
X129970000Y-66425249D01*
X129970003Y-66425249D01*
X130138056Y-66406314D01*
X130138059Y-66406313D01*
X130297690Y-66350456D01*
X130297692Y-66350454D01*
X130297694Y-66350454D01*
X130297697Y-66350452D01*
X130440884Y-66260481D01*
X130440885Y-66260480D01*
X130440890Y-66260477D01*
X130560477Y-66140890D01*
X130565868Y-66132310D01*
X130650452Y-65997697D01*
X130650454Y-65997694D01*
X130650454Y-65997692D01*
X130650456Y-65997690D01*
X130706313Y-65838059D01*
X130706313Y-65838058D01*
X130706314Y-65838056D01*
X130725249Y-65670002D01*
X130725249Y-65669997D01*
X130706314Y-65501943D01*
X130650454Y-65342305D01*
X130650452Y-65342302D01*
X130560481Y-65199115D01*
X130560476Y-65199109D01*
X130440890Y-65079523D01*
X130440884Y-65079518D01*
X130297697Y-64989547D01*
X130297694Y-64989545D01*
X130138056Y-64933685D01*
X129970003Y-64914751D01*
X129969997Y-64914751D01*
X129801943Y-64933685D01*
X129642305Y-64989545D01*
X129642302Y-64989547D01*
X129499115Y-65079518D01*
X129499109Y-65079523D01*
X129379523Y-65199109D01*
X129379518Y-65199115D01*
X129289547Y-65342302D01*
X129289545Y-65342305D01*
X129233685Y-65501943D01*
X129214751Y-65669997D01*
X129214751Y-65670002D01*
X115780500Y-65670002D01*
X115780500Y-63260002D01*
X119094751Y-63260002D01*
X119113685Y-63428056D01*
X119169545Y-63587694D01*
X119169547Y-63587697D01*
X119259518Y-63730884D01*
X119259523Y-63730890D01*
X119379109Y-63850476D01*
X119379115Y-63850481D01*
X119522302Y-63940452D01*
X119522305Y-63940454D01*
X119522309Y-63940455D01*
X119522310Y-63940456D01*
X119567627Y-63956313D01*
X119681943Y-63996314D01*
X119849997Y-64015249D01*
X119850000Y-64015249D01*
X119850003Y-64015249D01*
X120018056Y-63996314D01*
X120049678Y-63985249D01*
X120177690Y-63940456D01*
X120279028Y-63876780D01*
X120346264Y-63857780D01*
X120410971Y-63876780D01*
X120448644Y-63900452D01*
X120512306Y-63940454D01*
X120512307Y-63940454D01*
X120512310Y-63940456D01*
X120611743Y-63975249D01*
X120671943Y-63996314D01*
X120839997Y-64015249D01*
X120840000Y-64015249D01*
X120840003Y-64015249D01*
X121008056Y-63996314D01*
X121039678Y-63985249D01*
X121167690Y-63940456D01*
X121302899Y-63855497D01*
X121370136Y-63836497D01*
X121434845Y-63855498D01*
X121522307Y-63910454D01*
X121522305Y-63910454D01*
X121522309Y-63910455D01*
X121522310Y-63910456D01*
X121550883Y-63920454D01*
X121681943Y-63966314D01*
X121849997Y-63985249D01*
X121850000Y-63985249D01*
X121850003Y-63985249D01*
X122018056Y-63966314D01*
X122018059Y-63966313D01*
X122177690Y-63910456D01*
X122296984Y-63835497D01*
X122364221Y-63816497D01*
X122428929Y-63835498D01*
X122532302Y-63900452D01*
X122532305Y-63900454D01*
X122532309Y-63900455D01*
X122532310Y-63900456D01*
X122560883Y-63910454D01*
X122691943Y-63956314D01*
X122859997Y-63975249D01*
X122860000Y-63975249D01*
X122860003Y-63975249D01*
X123028056Y-63956314D01*
X123028059Y-63956313D01*
X123187690Y-63900456D01*
X123278114Y-63843638D01*
X123345348Y-63824638D01*
X123410056Y-63843638D01*
X123462802Y-63876781D01*
X123532306Y-63920454D01*
X123532307Y-63920454D01*
X123532310Y-63920456D01*
X123634784Y-63956313D01*
X123691943Y-63976314D01*
X123859997Y-63995249D01*
X123860000Y-63995249D01*
X123860003Y-63995249D01*
X124028056Y-63976314D01*
X124031100Y-63975249D01*
X124187690Y-63920456D01*
X124294028Y-63853638D01*
X124361263Y-63834638D01*
X124425970Y-63853638D01*
X124462802Y-63876781D01*
X124532306Y-63920454D01*
X124532307Y-63920454D01*
X124532310Y-63920456D01*
X124634784Y-63956313D01*
X124691943Y-63976314D01*
X124859997Y-63995249D01*
X124860000Y-63995249D01*
X124860003Y-63995249D01*
X125028056Y-63976314D01*
X125031100Y-63975249D01*
X125187690Y-63920456D01*
X125309944Y-63843638D01*
X125377177Y-63824638D01*
X125441886Y-63843638D01*
X125452776Y-63850481D01*
X125532307Y-63900454D01*
X125532305Y-63900454D01*
X125532309Y-63900455D01*
X125532310Y-63900456D01*
X125560883Y-63910454D01*
X125691943Y-63956314D01*
X125859997Y-63975249D01*
X125860000Y-63975249D01*
X125860003Y-63975249D01*
X126028056Y-63956314D01*
X126028059Y-63956313D01*
X126187690Y-63900456D01*
X126294028Y-63833638D01*
X126361263Y-63814638D01*
X126425970Y-63833638D01*
X126464392Y-63857780D01*
X126532306Y-63900454D01*
X126532307Y-63900454D01*
X126532310Y-63900456D01*
X126638730Y-63937694D01*
X126691943Y-63956314D01*
X126859997Y-63975249D01*
X126860000Y-63975249D01*
X126860003Y-63975249D01*
X127028056Y-63956314D01*
X127028059Y-63956313D01*
X127187690Y-63900456D01*
X127187692Y-63900454D01*
X127187694Y-63900454D01*
X127187697Y-63900452D01*
X127330884Y-63810481D01*
X127330885Y-63810480D01*
X127330890Y-63810477D01*
X127450477Y-63690890D01*
X127463301Y-63670481D01*
X127540452Y-63547697D01*
X127540454Y-63547694D01*
X127540454Y-63547692D01*
X127540456Y-63547690D01*
X127596313Y-63388059D01*
X127596313Y-63388058D01*
X127596314Y-63388056D01*
X127615249Y-63220002D01*
X127615249Y-63219997D01*
X127599475Y-63080002D01*
X140694751Y-63080002D01*
X140713685Y-63248056D01*
X140769545Y-63407694D01*
X140769547Y-63407697D01*
X140859518Y-63550884D01*
X140859523Y-63550890D01*
X140979109Y-63670476D01*
X140979115Y-63670481D01*
X141122302Y-63760452D01*
X141122305Y-63760454D01*
X141122309Y-63760455D01*
X141122310Y-63760456D01*
X141182071Y-63781367D01*
X141281943Y-63816314D01*
X141449997Y-63835249D01*
X141450000Y-63835249D01*
X141450003Y-63835249D01*
X141618056Y-63816314D01*
X141660772Y-63801367D01*
X141777690Y-63760456D01*
X141777692Y-63760454D01*
X141777694Y-63760454D01*
X141777697Y-63760452D01*
X141920884Y-63670481D01*
X141920885Y-63670480D01*
X141920890Y-63670477D01*
X142040477Y-63550890D01*
X142040481Y-63550884D01*
X142130452Y-63407697D01*
X142130454Y-63407694D01*
X142130454Y-63407692D01*
X142130456Y-63407690D01*
X142186313Y-63248059D01*
X142186313Y-63248058D01*
X142186314Y-63248056D01*
X142205249Y-63080002D01*
X142205249Y-63079997D01*
X142199616Y-63030002D01*
X148504751Y-63030002D01*
X148523685Y-63198056D01*
X148579545Y-63357694D01*
X148579547Y-63357697D01*
X148669518Y-63500884D01*
X148669523Y-63500890D01*
X148789109Y-63620476D01*
X148789115Y-63620481D01*
X148932302Y-63710452D01*
X148932305Y-63710454D01*
X148932309Y-63710455D01*
X148932310Y-63710456D01*
X148990690Y-63730884D01*
X149091943Y-63766314D01*
X149259997Y-63785249D01*
X149260000Y-63785249D01*
X149260003Y-63785249D01*
X149428056Y-63766314D01*
X149444809Y-63760452D01*
X149587690Y-63710456D01*
X149587692Y-63710454D01*
X149587694Y-63710454D01*
X149587697Y-63710452D01*
X149730884Y-63620481D01*
X149730885Y-63620480D01*
X149730890Y-63620477D01*
X149850477Y-63500890D01*
X149896242Y-63428056D01*
X149940452Y-63357697D01*
X149940454Y-63357694D01*
X149940454Y-63357692D01*
X149940456Y-63357690D01*
X149996313Y-63198059D01*
X149996313Y-63198058D01*
X149996314Y-63198056D01*
X150015249Y-63030002D01*
X150015249Y-63029997D01*
X149996314Y-62861943D01*
X149940454Y-62702305D01*
X149940452Y-62702302D01*
X149850481Y-62559115D01*
X149850476Y-62559109D01*
X149730890Y-62439523D01*
X149730884Y-62439518D01*
X149587697Y-62349547D01*
X149587694Y-62349545D01*
X149428056Y-62293685D01*
X149260003Y-62274751D01*
X149259997Y-62274751D01*
X149091943Y-62293685D01*
X148932305Y-62349545D01*
X148932302Y-62349547D01*
X148789115Y-62439518D01*
X148789109Y-62439523D01*
X148669523Y-62559109D01*
X148669518Y-62559115D01*
X148579547Y-62702302D01*
X148579545Y-62702305D01*
X148523685Y-62861943D01*
X148504751Y-63029997D01*
X148504751Y-63030002D01*
X142199616Y-63030002D01*
X142186314Y-62911943D01*
X142155860Y-62824913D01*
X142130456Y-62752310D01*
X142130455Y-62752309D01*
X142130454Y-62752305D01*
X142130452Y-62752302D01*
X142040481Y-62609115D01*
X142040476Y-62609109D01*
X141920890Y-62489523D01*
X141920884Y-62489518D01*
X141777697Y-62399547D01*
X141777694Y-62399545D01*
X141618056Y-62343685D01*
X141450003Y-62324751D01*
X141449997Y-62324751D01*
X141281943Y-62343685D01*
X141122305Y-62399545D01*
X141122302Y-62399547D01*
X140979115Y-62489518D01*
X140979109Y-62489523D01*
X140859523Y-62609109D01*
X140859518Y-62609115D01*
X140769547Y-62752302D01*
X140769545Y-62752305D01*
X140713685Y-62911943D01*
X140694751Y-63079997D01*
X140694751Y-63080002D01*
X127599475Y-63080002D01*
X127596314Y-63051943D01*
X127565860Y-62964913D01*
X127540456Y-62892310D01*
X127540455Y-62892309D01*
X127540454Y-62892305D01*
X127540452Y-62892302D01*
X127450481Y-62749115D01*
X127450476Y-62749109D01*
X127330890Y-62629523D01*
X127330884Y-62629518D01*
X127187697Y-62539547D01*
X127187694Y-62539545D01*
X127028056Y-62483685D01*
X126860003Y-62464751D01*
X126859997Y-62464751D01*
X126691943Y-62483685D01*
X126532307Y-62539545D01*
X126425972Y-62606361D01*
X126358736Y-62625361D01*
X126294028Y-62606361D01*
X126187692Y-62539545D01*
X126187691Y-62539544D01*
X126187690Y-62539544D01*
X126142367Y-62523685D01*
X126028056Y-62483685D01*
X125860003Y-62464751D01*
X125859997Y-62464751D01*
X125691943Y-62483685D01*
X125532307Y-62539545D01*
X125410057Y-62616361D01*
X125342821Y-62635361D01*
X125278112Y-62616360D01*
X125187692Y-62559545D01*
X125187694Y-62559545D01*
X125028056Y-62503685D01*
X124860003Y-62484751D01*
X124859997Y-62484751D01*
X124691943Y-62503685D01*
X124532307Y-62559545D01*
X124425972Y-62626361D01*
X124358736Y-62645361D01*
X124294028Y-62626361D01*
X124187692Y-62559545D01*
X124187691Y-62559544D01*
X124187690Y-62559544D01*
X124130533Y-62539544D01*
X124028056Y-62503685D01*
X123860003Y-62484751D01*
X123859997Y-62484751D01*
X123691943Y-62503685D01*
X123532307Y-62559545D01*
X123441886Y-62616361D01*
X123374649Y-62635361D01*
X123309941Y-62616360D01*
X123187692Y-62539545D01*
X123187694Y-62539545D01*
X123028056Y-62483685D01*
X122860003Y-62464751D01*
X122859997Y-62464751D01*
X122691943Y-62483685D01*
X122532307Y-62539545D01*
X122413014Y-62614502D01*
X122345777Y-62633502D01*
X122281070Y-62614502D01*
X122177692Y-62549545D01*
X122177691Y-62549544D01*
X122177690Y-62549544D01*
X122103795Y-62523687D01*
X122018056Y-62493685D01*
X121850003Y-62474751D01*
X121849997Y-62474751D01*
X121681943Y-62493685D01*
X121522307Y-62549545D01*
X121387099Y-62634502D01*
X121319862Y-62653502D01*
X121255155Y-62634502D01*
X121167692Y-62579545D01*
X121167691Y-62579544D01*
X121167690Y-62579544D01*
X121109290Y-62559109D01*
X121008056Y-62523685D01*
X120840003Y-62504751D01*
X120839997Y-62504751D01*
X120671943Y-62523685D01*
X120512307Y-62579545D01*
X120410972Y-62643219D01*
X120343736Y-62662219D01*
X120279028Y-62643219D01*
X120177692Y-62579545D01*
X120177691Y-62579544D01*
X120177690Y-62579544D01*
X120119290Y-62559109D01*
X120018056Y-62523685D01*
X119850003Y-62504751D01*
X119849997Y-62504751D01*
X119681943Y-62523685D01*
X119522305Y-62579545D01*
X119522302Y-62579547D01*
X119379115Y-62669518D01*
X119379109Y-62669523D01*
X119259523Y-62789109D01*
X119259518Y-62789115D01*
X119169547Y-62932302D01*
X119169545Y-62932305D01*
X119113685Y-63091943D01*
X119094751Y-63259997D01*
X119094751Y-63260002D01*
X115780500Y-63260002D01*
X115780500Y-60880002D01*
X133914751Y-60880002D01*
X133933685Y-61048056D01*
X133989545Y-61207694D01*
X133989547Y-61207697D01*
X134079518Y-61350884D01*
X134079523Y-61350890D01*
X134199109Y-61470476D01*
X134199115Y-61470481D01*
X134342302Y-61560452D01*
X134342305Y-61560454D01*
X134342309Y-61560455D01*
X134342310Y-61560456D01*
X134399456Y-61580452D01*
X134501943Y-61616314D01*
X134669997Y-61635249D01*
X134670000Y-61635249D01*
X134670003Y-61635249D01*
X134838056Y-61616314D01*
X134911954Y-61590456D01*
X134997690Y-61560456D01*
X134997692Y-61560454D01*
X134997694Y-61560454D01*
X134997697Y-61560452D01*
X135140884Y-61470481D01*
X135140885Y-61470480D01*
X135140890Y-61470477D01*
X135260477Y-61350890D01*
X135260481Y-61350884D01*
X135350452Y-61207697D01*
X135350454Y-61207694D01*
X135350454Y-61207692D01*
X135350456Y-61207690D01*
X135406313Y-61048059D01*
X135406313Y-61048058D01*
X135406314Y-61048056D01*
X135425249Y-60880002D01*
X135425249Y-60879997D01*
X135406314Y-60711943D01*
X135360952Y-60582305D01*
X135350456Y-60552310D01*
X135350455Y-60552309D01*
X135350454Y-60552305D01*
X135350452Y-60552302D01*
X135260481Y-60409115D01*
X135260476Y-60409109D01*
X135231369Y-60380002D01*
X139704751Y-60380002D01*
X139723685Y-60548056D01*
X139779545Y-60707694D01*
X139779547Y-60707697D01*
X139869518Y-60850884D01*
X139869523Y-60850890D01*
X139989109Y-60970476D01*
X139989115Y-60970481D01*
X140132302Y-61060452D01*
X140132305Y-61060454D01*
X140132309Y-61060455D01*
X140132310Y-61060456D01*
X140182608Y-61078056D01*
X140291943Y-61116314D01*
X140459997Y-61135249D01*
X140460000Y-61135249D01*
X140460003Y-61135249D01*
X140628056Y-61116314D01*
X140628059Y-61116313D01*
X140787690Y-61060456D01*
X140787692Y-61060454D01*
X140787694Y-61060454D01*
X140787697Y-61060452D01*
X140930884Y-60970481D01*
X140930885Y-60970480D01*
X140930890Y-60970477D01*
X141001365Y-60900002D01*
X141694751Y-60900002D01*
X141713685Y-61068056D01*
X141769545Y-61227694D01*
X141769547Y-61227697D01*
X141859518Y-61370884D01*
X141859523Y-61370890D01*
X141979109Y-61490476D01*
X141979115Y-61490481D01*
X142122302Y-61580452D01*
X142122305Y-61580454D01*
X142122309Y-61580455D01*
X142122310Y-61580456D01*
X142150883Y-61590454D01*
X142281943Y-61636314D01*
X142449997Y-61655249D01*
X142450000Y-61655249D01*
X142450003Y-61655249D01*
X142618056Y-61636314D01*
X142621100Y-61635249D01*
X142777690Y-61580456D01*
X142777692Y-61580454D01*
X142777694Y-61580454D01*
X142777697Y-61580452D01*
X142920884Y-61490481D01*
X142920885Y-61490480D01*
X142920890Y-61490477D01*
X143040477Y-61370890D01*
X143053048Y-61350884D01*
X143130452Y-61227697D01*
X143130454Y-61227694D01*
X143130454Y-61227692D01*
X143130456Y-61227690D01*
X143186313Y-61068059D01*
X143186313Y-61068058D01*
X143186314Y-61068056D01*
X143204122Y-60910002D01*
X149504751Y-60910002D01*
X149523685Y-61078056D01*
X149579545Y-61237694D01*
X149579547Y-61237697D01*
X149669518Y-61380884D01*
X149669523Y-61380890D01*
X149789109Y-61500476D01*
X149789115Y-61500481D01*
X149932302Y-61590452D01*
X149932305Y-61590454D01*
X149932309Y-61590455D01*
X149932310Y-61590456D01*
X150004913Y-61615860D01*
X150091943Y-61646314D01*
X150259997Y-61665249D01*
X150260000Y-61665249D01*
X150260003Y-61665249D01*
X150428056Y-61646314D01*
X150428059Y-61646313D01*
X150587690Y-61590456D01*
X150587692Y-61590454D01*
X150587694Y-61590454D01*
X150587697Y-61590452D01*
X150730884Y-61500481D01*
X150730885Y-61500480D01*
X150730890Y-61500477D01*
X150850477Y-61380890D01*
X150850481Y-61380884D01*
X150940452Y-61237697D01*
X150940454Y-61237694D01*
X150940454Y-61237692D01*
X150940456Y-61237690D01*
X150996313Y-61078059D01*
X150996313Y-61078058D01*
X150996314Y-61078056D01*
X151015249Y-60910002D01*
X151015249Y-60909997D01*
X151011869Y-60880002D01*
X157294751Y-60880002D01*
X157313685Y-61048056D01*
X157369545Y-61207694D01*
X157369547Y-61207697D01*
X157459518Y-61350884D01*
X157459523Y-61350890D01*
X157579109Y-61470476D01*
X157579115Y-61470481D01*
X157722302Y-61560452D01*
X157722305Y-61560454D01*
X157722309Y-61560455D01*
X157722310Y-61560456D01*
X157779456Y-61580452D01*
X157881943Y-61616314D01*
X158049997Y-61635249D01*
X158050000Y-61635249D01*
X158050003Y-61635249D01*
X158218056Y-61616314D01*
X158291954Y-61590456D01*
X158377690Y-61560456D01*
X158377692Y-61560454D01*
X158377694Y-61560454D01*
X158377697Y-61560452D01*
X158520884Y-61470481D01*
X158520885Y-61470480D01*
X158520890Y-61470477D01*
X158640477Y-61350890D01*
X158640481Y-61350884D01*
X158730452Y-61207697D01*
X158730454Y-61207694D01*
X158730454Y-61207692D01*
X158730456Y-61207690D01*
X158786313Y-61048059D01*
X158786313Y-61048058D01*
X158786314Y-61048056D01*
X158805249Y-60880002D01*
X158805249Y-60879997D01*
X158786314Y-60711943D01*
X158740952Y-60582305D01*
X158730456Y-60552310D01*
X158730455Y-60552309D01*
X158730454Y-60552305D01*
X158730452Y-60552302D01*
X158640481Y-60409115D01*
X158640476Y-60409109D01*
X158520890Y-60289523D01*
X158520884Y-60289518D01*
X158377697Y-60199547D01*
X158377694Y-60199545D01*
X158218056Y-60143685D01*
X158050003Y-60124751D01*
X158049997Y-60124751D01*
X157881943Y-60143685D01*
X157722305Y-60199545D01*
X157722302Y-60199547D01*
X157579115Y-60289518D01*
X157579109Y-60289523D01*
X157459523Y-60409109D01*
X157459518Y-60409115D01*
X157369547Y-60552302D01*
X157369545Y-60552305D01*
X157313685Y-60711943D01*
X157294751Y-60879997D01*
X157294751Y-60880002D01*
X151011869Y-60880002D01*
X150996314Y-60741943D01*
X150940454Y-60582305D01*
X150940452Y-60582302D01*
X150850481Y-60439115D01*
X150850476Y-60439109D01*
X150730890Y-60319523D01*
X150730884Y-60319518D01*
X150587697Y-60229547D01*
X150587694Y-60229545D01*
X150428056Y-60173685D01*
X150260003Y-60154751D01*
X150259997Y-60154751D01*
X150091943Y-60173685D01*
X149932305Y-60229545D01*
X149932302Y-60229547D01*
X149789115Y-60319518D01*
X149789109Y-60319523D01*
X149669523Y-60439109D01*
X149669518Y-60439115D01*
X149579547Y-60582302D01*
X149579545Y-60582305D01*
X149523685Y-60741943D01*
X149504751Y-60909997D01*
X149504751Y-60910002D01*
X143204122Y-60910002D01*
X143205249Y-60900002D01*
X143205249Y-60899997D01*
X143186314Y-60731943D01*
X143130454Y-60572305D01*
X143130452Y-60572302D01*
X143040481Y-60429115D01*
X143040476Y-60429109D01*
X142920890Y-60309523D01*
X142920884Y-60309518D01*
X142777697Y-60219547D01*
X142777694Y-60219545D01*
X142618056Y-60163685D01*
X142450003Y-60144751D01*
X142449997Y-60144751D01*
X142281943Y-60163685D01*
X142122305Y-60219545D01*
X142122302Y-60219547D01*
X141979115Y-60309518D01*
X141979109Y-60309523D01*
X141859523Y-60429109D01*
X141859518Y-60429115D01*
X141769547Y-60572302D01*
X141769545Y-60572305D01*
X141713685Y-60731943D01*
X141694751Y-60899997D01*
X141694751Y-60900002D01*
X141001365Y-60900002D01*
X141050477Y-60850890D01*
X141050481Y-60850884D01*
X141140452Y-60707697D01*
X141140454Y-60707694D01*
X141140454Y-60707692D01*
X141140456Y-60707690D01*
X141196313Y-60548059D01*
X141196313Y-60548058D01*
X141196314Y-60548056D01*
X141215249Y-60380002D01*
X141215249Y-60379997D01*
X141196314Y-60211943D01*
X141140454Y-60052305D01*
X141140452Y-60052302D01*
X141050481Y-59909115D01*
X141050476Y-59909109D01*
X140930890Y-59789523D01*
X140930884Y-59789518D01*
X140787697Y-59699547D01*
X140787694Y-59699545D01*
X140628056Y-59643685D01*
X140460003Y-59624751D01*
X140459997Y-59624751D01*
X140291943Y-59643685D01*
X140132305Y-59699545D01*
X140132302Y-59699547D01*
X139989115Y-59789518D01*
X139989109Y-59789523D01*
X139869523Y-59909109D01*
X139869518Y-59909115D01*
X139779547Y-60052302D01*
X139779545Y-60052305D01*
X139723685Y-60211943D01*
X139704751Y-60379997D01*
X139704751Y-60380002D01*
X135231369Y-60380002D01*
X135140890Y-60289523D01*
X135140884Y-60289518D01*
X134997697Y-60199547D01*
X134997694Y-60199545D01*
X134838056Y-60143685D01*
X134670003Y-60124751D01*
X134669997Y-60124751D01*
X134501943Y-60143685D01*
X134342305Y-60199545D01*
X134342302Y-60199547D01*
X134199115Y-60289518D01*
X134199109Y-60289523D01*
X134079523Y-60409109D01*
X134079518Y-60409115D01*
X133989547Y-60552302D01*
X133989545Y-60552305D01*
X133933685Y-60711943D01*
X133914751Y-60879997D01*
X133914751Y-60880002D01*
X115780500Y-60880002D01*
X115780500Y-57592705D01*
X115780736Y-57587299D01*
X115784476Y-57544554D01*
X115796918Y-57418223D01*
X115800542Y-57398309D01*
X115818402Y-57331653D01*
X115846683Y-57238424D01*
X115852953Y-57222037D01*
X115884420Y-57154558D01*
X115885872Y-57151653D01*
X115930764Y-57067666D01*
X115934657Y-57061331D01*
X115967837Y-57013945D01*
X115980994Y-56995155D01*
X115983827Y-56991420D01*
X116043122Y-56919168D01*
X116047162Y-56914710D01*
X116104710Y-56857162D01*
X116109168Y-56853122D01*
X116181420Y-56793827D01*
X116185155Y-56790994D01*
X116251334Y-56744654D01*
X116257666Y-56740764D01*
X116341653Y-56695872D01*
X116344558Y-56694420D01*
X116412037Y-56662953D01*
X116428424Y-56656683D01*
X116521653Y-56628402D01*
X116588309Y-56610542D01*
X116608223Y-56606918D01*
X116734542Y-56594477D01*
X116777305Y-56590735D01*
X116782706Y-56590500D01*
X160777293Y-56590500D01*
X160782695Y-56590735D01*
G37*
%TD.AperFunction*%
%TD*%
M02*
