%TF.GenerationSoftware,KiCad,Pcbnew,7.0.8*%
%TF.CreationDate,2023-12-04T13:14:00+00:00*%
%TF.ProjectId,tundraIOExpansion,74756e64-7261-4494-9f45-7870616e7369,rev?*%
%TF.SameCoordinates,Original*%
%TF.FileFunction,Legend,Top*%
%TF.FilePolarity,Positive*%
%FSLAX46Y46*%
G04 Gerber Fmt 4.6, Leading zero omitted, Abs format (unit mm)*
G04 Created by KiCad (PCBNEW 7.0.8) date 2023-12-04 13:14:00*
%MOMM*%
%LPD*%
G01*
G04 APERTURE LIST*
%ADD10C,0.150000*%
%ADD11C,0.200000*%
%ADD12C,0.120000*%
G04 APERTURE END LIST*
D10*
X156603754Y-78619456D02*
X156031335Y-78518441D01*
X156199693Y-79023517D02*
X155492587Y-78316410D01*
X155492587Y-78316410D02*
X155761961Y-78047036D01*
X155761961Y-78047036D02*
X155862976Y-78013364D01*
X155862976Y-78013364D02*
X155930319Y-78013364D01*
X155930319Y-78013364D02*
X156031335Y-78047036D01*
X156031335Y-78047036D02*
X156132350Y-78148051D01*
X156132350Y-78148051D02*
X156166022Y-78249067D01*
X156166022Y-78249067D02*
X156166022Y-78316410D01*
X156166022Y-78316410D02*
X156132350Y-78417425D01*
X156132350Y-78417425D02*
X155862976Y-78686799D01*
X157277189Y-77946021D02*
X156873128Y-78350082D01*
X157075159Y-78148051D02*
X156368052Y-77440945D01*
X156368052Y-77440945D02*
X156401724Y-77609303D01*
X156401724Y-77609303D02*
X156401724Y-77743990D01*
X156401724Y-77743990D02*
X156368052Y-77845006D01*
X155468095Y-66124819D02*
X155468095Y-66934342D01*
X155468095Y-66934342D02*
X155515714Y-67029580D01*
X155515714Y-67029580D02*
X155563333Y-67077200D01*
X155563333Y-67077200D02*
X155658571Y-67124819D01*
X155658571Y-67124819D02*
X155849047Y-67124819D01*
X155849047Y-67124819D02*
X155944285Y-67077200D01*
X155944285Y-67077200D02*
X155991904Y-67029580D01*
X155991904Y-67029580D02*
X156039523Y-66934342D01*
X156039523Y-66934342D02*
X156039523Y-66124819D01*
X156468095Y-66220057D02*
X156515714Y-66172438D01*
X156515714Y-66172438D02*
X156610952Y-66124819D01*
X156610952Y-66124819D02*
X156849047Y-66124819D01*
X156849047Y-66124819D02*
X156944285Y-66172438D01*
X156944285Y-66172438D02*
X156991904Y-66220057D01*
X156991904Y-66220057D02*
X157039523Y-66315295D01*
X157039523Y-66315295D02*
X157039523Y-66410533D01*
X157039523Y-66410533D02*
X156991904Y-66553390D01*
X156991904Y-66553390D02*
X156420476Y-67124819D01*
X156420476Y-67124819D02*
X157039523Y-67124819D01*
X124543333Y-73274819D02*
X124210000Y-72798628D01*
X123971905Y-73274819D02*
X123971905Y-72274819D01*
X123971905Y-72274819D02*
X124352857Y-72274819D01*
X124352857Y-72274819D02*
X124448095Y-72322438D01*
X124448095Y-72322438D02*
X124495714Y-72370057D01*
X124495714Y-72370057D02*
X124543333Y-72465295D01*
X124543333Y-72465295D02*
X124543333Y-72608152D01*
X124543333Y-72608152D02*
X124495714Y-72703390D01*
X124495714Y-72703390D02*
X124448095Y-72751009D01*
X124448095Y-72751009D02*
X124352857Y-72798628D01*
X124352857Y-72798628D02*
X123971905Y-72798628D01*
X125400476Y-72274819D02*
X125210000Y-72274819D01*
X125210000Y-72274819D02*
X125114762Y-72322438D01*
X125114762Y-72322438D02*
X125067143Y-72370057D01*
X125067143Y-72370057D02*
X124971905Y-72512914D01*
X124971905Y-72512914D02*
X124924286Y-72703390D01*
X124924286Y-72703390D02*
X124924286Y-73084342D01*
X124924286Y-73084342D02*
X124971905Y-73179580D01*
X124971905Y-73179580D02*
X125019524Y-73227200D01*
X125019524Y-73227200D02*
X125114762Y-73274819D01*
X125114762Y-73274819D02*
X125305238Y-73274819D01*
X125305238Y-73274819D02*
X125400476Y-73227200D01*
X125400476Y-73227200D02*
X125448095Y-73179580D01*
X125448095Y-73179580D02*
X125495714Y-73084342D01*
X125495714Y-73084342D02*
X125495714Y-72846247D01*
X125495714Y-72846247D02*
X125448095Y-72751009D01*
X125448095Y-72751009D02*
X125400476Y-72703390D01*
X125400476Y-72703390D02*
X125305238Y-72655771D01*
X125305238Y-72655771D02*
X125114762Y-72655771D01*
X125114762Y-72655771D02*
X125019524Y-72703390D01*
X125019524Y-72703390D02*
X124971905Y-72751009D01*
X124971905Y-72751009D02*
X124924286Y-72846247D01*
X128401905Y-89284819D02*
X128401905Y-90094342D01*
X128401905Y-90094342D02*
X128449524Y-90189580D01*
X128449524Y-90189580D02*
X128497143Y-90237200D01*
X128497143Y-90237200D02*
X128592381Y-90284819D01*
X128592381Y-90284819D02*
X128782857Y-90284819D01*
X128782857Y-90284819D02*
X128878095Y-90237200D01*
X128878095Y-90237200D02*
X128925714Y-90189580D01*
X128925714Y-90189580D02*
X128973333Y-90094342D01*
X128973333Y-90094342D02*
X128973333Y-89284819D01*
X129401905Y-90237200D02*
X129544762Y-90284819D01*
X129544762Y-90284819D02*
X129782857Y-90284819D01*
X129782857Y-90284819D02*
X129878095Y-90237200D01*
X129878095Y-90237200D02*
X129925714Y-90189580D01*
X129925714Y-90189580D02*
X129973333Y-90094342D01*
X129973333Y-90094342D02*
X129973333Y-89999104D01*
X129973333Y-89999104D02*
X129925714Y-89903866D01*
X129925714Y-89903866D02*
X129878095Y-89856247D01*
X129878095Y-89856247D02*
X129782857Y-89808628D01*
X129782857Y-89808628D02*
X129592381Y-89761009D01*
X129592381Y-89761009D02*
X129497143Y-89713390D01*
X129497143Y-89713390D02*
X129449524Y-89665771D01*
X129449524Y-89665771D02*
X129401905Y-89570533D01*
X129401905Y-89570533D02*
X129401905Y-89475295D01*
X129401905Y-89475295D02*
X129449524Y-89380057D01*
X129449524Y-89380057D02*
X129497143Y-89332438D01*
X129497143Y-89332438D02*
X129592381Y-89284819D01*
X129592381Y-89284819D02*
X129830476Y-89284819D01*
X129830476Y-89284819D02*
X129973333Y-89332438D01*
X130735238Y-89761009D02*
X130878095Y-89808628D01*
X130878095Y-89808628D02*
X130925714Y-89856247D01*
X130925714Y-89856247D02*
X130973333Y-89951485D01*
X130973333Y-89951485D02*
X130973333Y-90094342D01*
X130973333Y-90094342D02*
X130925714Y-90189580D01*
X130925714Y-90189580D02*
X130878095Y-90237200D01*
X130878095Y-90237200D02*
X130782857Y-90284819D01*
X130782857Y-90284819D02*
X130401905Y-90284819D01*
X130401905Y-90284819D02*
X130401905Y-89284819D01*
X130401905Y-89284819D02*
X130735238Y-89284819D01*
X130735238Y-89284819D02*
X130830476Y-89332438D01*
X130830476Y-89332438D02*
X130878095Y-89380057D01*
X130878095Y-89380057D02*
X130925714Y-89475295D01*
X130925714Y-89475295D02*
X130925714Y-89570533D01*
X130925714Y-89570533D02*
X130878095Y-89665771D01*
X130878095Y-89665771D02*
X130830476Y-89713390D01*
X130830476Y-89713390D02*
X130735238Y-89761009D01*
X130735238Y-89761009D02*
X130401905Y-89761009D01*
X131354286Y-89380057D02*
X131401905Y-89332438D01*
X131401905Y-89332438D02*
X131497143Y-89284819D01*
X131497143Y-89284819D02*
X131735238Y-89284819D01*
X131735238Y-89284819D02*
X131830476Y-89332438D01*
X131830476Y-89332438D02*
X131878095Y-89380057D01*
X131878095Y-89380057D02*
X131925714Y-89475295D01*
X131925714Y-89475295D02*
X131925714Y-89570533D01*
X131925714Y-89570533D02*
X131878095Y-89713390D01*
X131878095Y-89713390D02*
X131306667Y-90284819D01*
X131306667Y-90284819D02*
X131925714Y-90284819D01*
X145871905Y-89614819D02*
X145871905Y-90424342D01*
X145871905Y-90424342D02*
X145919524Y-90519580D01*
X145919524Y-90519580D02*
X145967143Y-90567200D01*
X145967143Y-90567200D02*
X146062381Y-90614819D01*
X146062381Y-90614819D02*
X146252857Y-90614819D01*
X146252857Y-90614819D02*
X146348095Y-90567200D01*
X146348095Y-90567200D02*
X146395714Y-90519580D01*
X146395714Y-90519580D02*
X146443333Y-90424342D01*
X146443333Y-90424342D02*
X146443333Y-89614819D01*
X146871905Y-90567200D02*
X147014762Y-90614819D01*
X147014762Y-90614819D02*
X147252857Y-90614819D01*
X147252857Y-90614819D02*
X147348095Y-90567200D01*
X147348095Y-90567200D02*
X147395714Y-90519580D01*
X147395714Y-90519580D02*
X147443333Y-90424342D01*
X147443333Y-90424342D02*
X147443333Y-90329104D01*
X147443333Y-90329104D02*
X147395714Y-90233866D01*
X147395714Y-90233866D02*
X147348095Y-90186247D01*
X147348095Y-90186247D02*
X147252857Y-90138628D01*
X147252857Y-90138628D02*
X147062381Y-90091009D01*
X147062381Y-90091009D02*
X146967143Y-90043390D01*
X146967143Y-90043390D02*
X146919524Y-89995771D01*
X146919524Y-89995771D02*
X146871905Y-89900533D01*
X146871905Y-89900533D02*
X146871905Y-89805295D01*
X146871905Y-89805295D02*
X146919524Y-89710057D01*
X146919524Y-89710057D02*
X146967143Y-89662438D01*
X146967143Y-89662438D02*
X147062381Y-89614819D01*
X147062381Y-89614819D02*
X147300476Y-89614819D01*
X147300476Y-89614819D02*
X147443333Y-89662438D01*
X148205238Y-90091009D02*
X148348095Y-90138628D01*
X148348095Y-90138628D02*
X148395714Y-90186247D01*
X148395714Y-90186247D02*
X148443333Y-90281485D01*
X148443333Y-90281485D02*
X148443333Y-90424342D01*
X148443333Y-90424342D02*
X148395714Y-90519580D01*
X148395714Y-90519580D02*
X148348095Y-90567200D01*
X148348095Y-90567200D02*
X148252857Y-90614819D01*
X148252857Y-90614819D02*
X147871905Y-90614819D01*
X147871905Y-90614819D02*
X147871905Y-89614819D01*
X147871905Y-89614819D02*
X148205238Y-89614819D01*
X148205238Y-89614819D02*
X148300476Y-89662438D01*
X148300476Y-89662438D02*
X148348095Y-89710057D01*
X148348095Y-89710057D02*
X148395714Y-89805295D01*
X148395714Y-89805295D02*
X148395714Y-89900533D01*
X148395714Y-89900533D02*
X148348095Y-89995771D01*
X148348095Y-89995771D02*
X148300476Y-90043390D01*
X148300476Y-90043390D02*
X148205238Y-90091009D01*
X148205238Y-90091009D02*
X147871905Y-90091009D01*
X149395714Y-90614819D02*
X148824286Y-90614819D01*
X149110000Y-90614819D02*
X149110000Y-89614819D01*
X149110000Y-89614819D02*
X149014762Y-89757676D01*
X149014762Y-89757676D02*
X148919524Y-89852914D01*
X148919524Y-89852914D02*
X148824286Y-89900533D01*
X142051169Y-78969693D02*
X141983825Y-78969693D01*
X141983825Y-78969693D02*
X141849138Y-78902349D01*
X141849138Y-78902349D02*
X141781795Y-78835006D01*
X141781795Y-78835006D02*
X141714451Y-78700319D01*
X141714451Y-78700319D02*
X141714451Y-78565632D01*
X141714451Y-78565632D02*
X141748123Y-78464617D01*
X141748123Y-78464617D02*
X141849138Y-78296258D01*
X141849138Y-78296258D02*
X141950153Y-78195243D01*
X141950153Y-78195243D02*
X142118512Y-78094227D01*
X142118512Y-78094227D02*
X142219527Y-78060556D01*
X142219527Y-78060556D02*
X142354214Y-78060556D01*
X142354214Y-78060556D02*
X142488901Y-78127899D01*
X142488901Y-78127899D02*
X142556245Y-78195243D01*
X142556245Y-78195243D02*
X142623588Y-78329930D01*
X142623588Y-78329930D02*
X142623588Y-78397273D01*
X142657260Y-79710471D02*
X142253199Y-79306410D01*
X142455230Y-79508441D02*
X143162336Y-78801334D01*
X143162336Y-78801334D02*
X142993978Y-78835006D01*
X142993978Y-78835006D02*
X142859291Y-78835006D01*
X142859291Y-78835006D02*
X142758275Y-78801334D01*
X143330695Y-80383907D02*
X142926634Y-79979846D01*
X143128665Y-80181876D02*
X143835772Y-79474769D01*
X143835772Y-79474769D02*
X143667413Y-79508441D01*
X143667413Y-79508441D02*
X143532726Y-79508441D01*
X143532726Y-79508441D02*
X143431711Y-79474769D01*
X118056666Y-90474819D02*
X118056666Y-91189104D01*
X118056666Y-91189104D02*
X118009047Y-91331961D01*
X118009047Y-91331961D02*
X117913809Y-91427200D01*
X117913809Y-91427200D02*
X117770952Y-91474819D01*
X117770952Y-91474819D02*
X117675714Y-91474819D01*
X118437619Y-90474819D02*
X119056666Y-90474819D01*
X119056666Y-90474819D02*
X118723333Y-90855771D01*
X118723333Y-90855771D02*
X118866190Y-90855771D01*
X118866190Y-90855771D02*
X118961428Y-90903390D01*
X118961428Y-90903390D02*
X119009047Y-90951009D01*
X119009047Y-90951009D02*
X119056666Y-91046247D01*
X119056666Y-91046247D02*
X119056666Y-91284342D01*
X119056666Y-91284342D02*
X119009047Y-91379580D01*
X119009047Y-91379580D02*
X118961428Y-91427200D01*
X118961428Y-91427200D02*
X118866190Y-91474819D01*
X118866190Y-91474819D02*
X118580476Y-91474819D01*
X118580476Y-91474819D02*
X118485238Y-91427200D01*
X118485238Y-91427200D02*
X118437619Y-91379580D01*
X141469693Y-76198830D02*
X141469693Y-76266174D01*
X141469693Y-76266174D02*
X141402349Y-76400861D01*
X141402349Y-76400861D02*
X141335006Y-76468204D01*
X141335006Y-76468204D02*
X141200319Y-76535548D01*
X141200319Y-76535548D02*
X141065632Y-76535548D01*
X141065632Y-76535548D02*
X140964617Y-76501876D01*
X140964617Y-76501876D02*
X140796258Y-76400861D01*
X140796258Y-76400861D02*
X140695243Y-76299846D01*
X140695243Y-76299846D02*
X140594227Y-76131487D01*
X140594227Y-76131487D02*
X140560556Y-76030472D01*
X140560556Y-76030472D02*
X140560556Y-75895785D01*
X140560556Y-75895785D02*
X140627899Y-75761098D01*
X140627899Y-75761098D02*
X140695243Y-75693754D01*
X140695243Y-75693754D02*
X140829930Y-75626411D01*
X140829930Y-75626411D02*
X140897273Y-75626411D01*
X141166647Y-75357037D02*
X141166647Y-75289693D01*
X141166647Y-75289693D02*
X141200319Y-75188678D01*
X141200319Y-75188678D02*
X141368678Y-75020319D01*
X141368678Y-75020319D02*
X141469693Y-74986647D01*
X141469693Y-74986647D02*
X141537036Y-74986647D01*
X141537036Y-74986647D02*
X141638052Y-75020319D01*
X141638052Y-75020319D02*
X141705395Y-75087663D01*
X141705395Y-75087663D02*
X141772739Y-75222350D01*
X141772739Y-75222350D02*
X141772739Y-76030472D01*
X141772739Y-76030472D02*
X142210471Y-75592739D01*
X142210472Y-74784617D02*
X142109456Y-74818288D01*
X142109456Y-74818288D02*
X142042113Y-74818288D01*
X142042113Y-74818288D02*
X141941098Y-74784617D01*
X141941098Y-74784617D02*
X141907426Y-74750945D01*
X141907426Y-74750945D02*
X141873754Y-74649930D01*
X141873754Y-74649930D02*
X141873754Y-74582586D01*
X141873754Y-74582586D02*
X141907426Y-74481571D01*
X141907426Y-74481571D02*
X142042113Y-74346884D01*
X142042113Y-74346884D02*
X142143128Y-74313212D01*
X142143128Y-74313212D02*
X142210472Y-74313212D01*
X142210472Y-74313212D02*
X142311487Y-74346884D01*
X142311487Y-74346884D02*
X142345159Y-74380556D01*
X142345159Y-74380556D02*
X142378830Y-74481571D01*
X142378830Y-74481571D02*
X142378830Y-74548914D01*
X142378830Y-74548914D02*
X142345159Y-74649930D01*
X142345159Y-74649930D02*
X142210472Y-74784617D01*
X142210472Y-74784617D02*
X142176800Y-74885632D01*
X142176800Y-74885632D02*
X142176800Y-74952975D01*
X142176800Y-74952975D02*
X142210472Y-75053991D01*
X142210472Y-75053991D02*
X142345159Y-75188678D01*
X142345159Y-75188678D02*
X142446174Y-75222349D01*
X142446174Y-75222349D02*
X142513517Y-75222349D01*
X142513517Y-75222349D02*
X142614533Y-75188678D01*
X142614533Y-75188678D02*
X142749220Y-75053991D01*
X142749220Y-75053991D02*
X142782891Y-74952975D01*
X142782891Y-74952975D02*
X142782891Y-74885632D01*
X142782891Y-74885632D02*
X142749220Y-74784617D01*
X142749220Y-74784617D02*
X142614533Y-74649930D01*
X142614533Y-74649930D02*
X142513517Y-74616258D01*
X142513517Y-74616258D02*
X142446174Y-74616258D01*
X142446174Y-74616258D02*
X142345159Y-74649930D01*
X121763333Y-69434819D02*
X121430000Y-68958628D01*
X121191905Y-69434819D02*
X121191905Y-68434819D01*
X121191905Y-68434819D02*
X121572857Y-68434819D01*
X121572857Y-68434819D02*
X121668095Y-68482438D01*
X121668095Y-68482438D02*
X121715714Y-68530057D01*
X121715714Y-68530057D02*
X121763333Y-68625295D01*
X121763333Y-68625295D02*
X121763333Y-68768152D01*
X121763333Y-68768152D02*
X121715714Y-68863390D01*
X121715714Y-68863390D02*
X121668095Y-68911009D01*
X121668095Y-68911009D02*
X121572857Y-68958628D01*
X121572857Y-68958628D02*
X121191905Y-68958628D01*
X122620476Y-68768152D02*
X122620476Y-69434819D01*
X122382381Y-68387200D02*
X122144286Y-69101485D01*
X122144286Y-69101485D02*
X122763333Y-69101485D01*
X147645750Y-71903245D02*
X148218170Y-72475665D01*
X148218170Y-72475665D02*
X148319185Y-72509337D01*
X148319185Y-72509337D02*
X148386529Y-72509337D01*
X148386529Y-72509337D02*
X148487544Y-72475665D01*
X148487544Y-72475665D02*
X148622231Y-72340978D01*
X148622231Y-72340978D02*
X148655903Y-72239963D01*
X148655903Y-72239963D02*
X148655903Y-72172619D01*
X148655903Y-72172619D02*
X148622231Y-72071604D01*
X148622231Y-72071604D02*
X148049811Y-71499184D01*
X149464025Y-71499184D02*
X149059964Y-71903245D01*
X149261994Y-71701215D02*
X148554888Y-70994108D01*
X148554888Y-70994108D02*
X148588559Y-71162467D01*
X148588559Y-71162467D02*
X148588559Y-71297154D01*
X148588559Y-71297154D02*
X148554888Y-71398169D01*
X156291169Y-76529693D02*
X156223825Y-76529693D01*
X156223825Y-76529693D02*
X156089138Y-76462349D01*
X156089138Y-76462349D02*
X156021795Y-76395006D01*
X156021795Y-76395006D02*
X155954451Y-76260319D01*
X155954451Y-76260319D02*
X155954451Y-76125632D01*
X155954451Y-76125632D02*
X155988123Y-76024617D01*
X155988123Y-76024617D02*
X156089138Y-75856258D01*
X156089138Y-75856258D02*
X156190153Y-75755243D01*
X156190153Y-75755243D02*
X156358512Y-75654227D01*
X156358512Y-75654227D02*
X156459527Y-75620556D01*
X156459527Y-75620556D02*
X156594214Y-75620556D01*
X156594214Y-75620556D02*
X156728901Y-75687899D01*
X156728901Y-75687899D02*
X156796245Y-75755243D01*
X156796245Y-75755243D02*
X156863588Y-75889930D01*
X156863588Y-75889930D02*
X156863588Y-75957273D01*
X156897260Y-77270471D02*
X156493199Y-76866410D01*
X156695230Y-77068441D02*
X157402336Y-76361334D01*
X157402336Y-76361334D02*
X157233978Y-76395006D01*
X157233978Y-76395006D02*
X157099291Y-76395006D01*
X157099291Y-76395006D02*
X156998275Y-76361334D01*
X158042100Y-77001098D02*
X158109443Y-77068441D01*
X158109443Y-77068441D02*
X158143115Y-77169456D01*
X158143115Y-77169456D02*
X158143115Y-77236800D01*
X158143115Y-77236800D02*
X158109443Y-77337815D01*
X158109443Y-77337815D02*
X158008428Y-77506174D01*
X158008428Y-77506174D02*
X157840069Y-77674533D01*
X157840069Y-77674533D02*
X157671711Y-77775548D01*
X157671711Y-77775548D02*
X157570695Y-77809220D01*
X157570695Y-77809220D02*
X157503352Y-77809220D01*
X157503352Y-77809220D02*
X157402337Y-77775548D01*
X157402337Y-77775548D02*
X157334993Y-77708204D01*
X157334993Y-77708204D02*
X157301321Y-77607189D01*
X157301321Y-77607189D02*
X157301321Y-77539846D01*
X157301321Y-77539846D02*
X157334993Y-77438830D01*
X157334993Y-77438830D02*
X157436008Y-77270472D01*
X157436008Y-77270472D02*
X157604367Y-77102113D01*
X157604367Y-77102113D02*
X157772726Y-77001098D01*
X157772726Y-77001098D02*
X157873741Y-76967426D01*
X157873741Y-76967426D02*
X157941085Y-76967426D01*
X157941085Y-76967426D02*
X158042100Y-77001098D01*
X154794411Y-72811382D02*
X154794411Y-72878726D01*
X154794411Y-72878726D02*
X154727067Y-73013413D01*
X154727067Y-73013413D02*
X154659724Y-73080756D01*
X154659724Y-73080756D02*
X154525037Y-73148100D01*
X154525037Y-73148100D02*
X154390350Y-73148100D01*
X154390350Y-73148100D02*
X154289335Y-73114428D01*
X154289335Y-73114428D02*
X154120976Y-73013413D01*
X154120976Y-73013413D02*
X154019961Y-72912398D01*
X154019961Y-72912398D02*
X153918945Y-72744039D01*
X153918945Y-72744039D02*
X153885274Y-72643024D01*
X153885274Y-72643024D02*
X153885274Y-72508337D01*
X153885274Y-72508337D02*
X153952617Y-72373650D01*
X153952617Y-72373650D02*
X154019961Y-72306306D01*
X154019961Y-72306306D02*
X154154648Y-72238963D01*
X154154648Y-72238963D02*
X154221991Y-72238963D01*
X154760739Y-71565528D02*
X154626052Y-71700215D01*
X154626052Y-71700215D02*
X154592380Y-71801230D01*
X154592380Y-71801230D02*
X154592380Y-71868573D01*
X154592380Y-71868573D02*
X154626052Y-72036932D01*
X154626052Y-72036932D02*
X154727067Y-72205291D01*
X154727067Y-72205291D02*
X154996441Y-72474665D01*
X154996441Y-72474665D02*
X155097457Y-72508337D01*
X155097457Y-72508337D02*
X155164800Y-72508337D01*
X155164800Y-72508337D02*
X155265815Y-72474665D01*
X155265815Y-72474665D02*
X155400502Y-72339978D01*
X155400502Y-72339978D02*
X155434174Y-72238963D01*
X155434174Y-72238963D02*
X155434174Y-72171619D01*
X155434174Y-72171619D02*
X155400502Y-72070604D01*
X155400502Y-72070604D02*
X155232144Y-71902245D01*
X155232144Y-71902245D02*
X155131128Y-71868573D01*
X155131128Y-71868573D02*
X155063785Y-71868573D01*
X155063785Y-71868573D02*
X154962770Y-71902245D01*
X154962770Y-71902245D02*
X154828083Y-72036932D01*
X154828083Y-72036932D02*
X154794411Y-72137947D01*
X154794411Y-72137947D02*
X154794411Y-72205291D01*
X154794411Y-72205291D02*
X154828083Y-72306306D01*
X159116666Y-90474819D02*
X159116666Y-91189104D01*
X159116666Y-91189104D02*
X159069047Y-91331961D01*
X159069047Y-91331961D02*
X158973809Y-91427200D01*
X158973809Y-91427200D02*
X158830952Y-91474819D01*
X158830952Y-91474819D02*
X158735714Y-91474819D01*
X159545238Y-90570057D02*
X159592857Y-90522438D01*
X159592857Y-90522438D02*
X159688095Y-90474819D01*
X159688095Y-90474819D02*
X159926190Y-90474819D01*
X159926190Y-90474819D02*
X160021428Y-90522438D01*
X160021428Y-90522438D02*
X160069047Y-90570057D01*
X160069047Y-90570057D02*
X160116666Y-90665295D01*
X160116666Y-90665295D02*
X160116666Y-90760533D01*
X160116666Y-90760533D02*
X160069047Y-90903390D01*
X160069047Y-90903390D02*
X159497619Y-91474819D01*
X159497619Y-91474819D02*
X160116666Y-91474819D01*
X123051009Y-88413809D02*
X123051009Y-88747142D01*
X123574819Y-88747142D02*
X122574819Y-88747142D01*
X122574819Y-88747142D02*
X122574819Y-88270952D01*
X123574819Y-87889999D02*
X122574819Y-87889999D01*
X123574819Y-87413809D02*
X122574819Y-87413809D01*
X122574819Y-87413809D02*
X123574819Y-86842381D01*
X123574819Y-86842381D02*
X122574819Y-86842381D01*
X122622438Y-85842381D02*
X122574819Y-85937619D01*
X122574819Y-85937619D02*
X122574819Y-86080476D01*
X122574819Y-86080476D02*
X122622438Y-86223333D01*
X122622438Y-86223333D02*
X122717676Y-86318571D01*
X122717676Y-86318571D02*
X122812914Y-86366190D01*
X122812914Y-86366190D02*
X123003390Y-86413809D01*
X123003390Y-86413809D02*
X123146247Y-86413809D01*
X123146247Y-86413809D02*
X123336723Y-86366190D01*
X123336723Y-86366190D02*
X123431961Y-86318571D01*
X123431961Y-86318571D02*
X123527200Y-86223333D01*
X123527200Y-86223333D02*
X123574819Y-86080476D01*
X123574819Y-86080476D02*
X123574819Y-85985238D01*
X123574819Y-85985238D02*
X123527200Y-85842381D01*
X123527200Y-85842381D02*
X123479580Y-85794762D01*
X123479580Y-85794762D02*
X123146247Y-85794762D01*
X123146247Y-85794762D02*
X123146247Y-85985238D01*
X123051009Y-85366190D02*
X123051009Y-85032857D01*
X123574819Y-84890000D02*
X123574819Y-85366190D01*
X123574819Y-85366190D02*
X122574819Y-85366190D01*
X122574819Y-85366190D02*
X122574819Y-84890000D01*
X123574819Y-83890000D02*
X123098628Y-84223333D01*
X123574819Y-84461428D02*
X122574819Y-84461428D01*
X122574819Y-84461428D02*
X122574819Y-84080476D01*
X122574819Y-84080476D02*
X122622438Y-83985238D01*
X122622438Y-83985238D02*
X122670057Y-83937619D01*
X122670057Y-83937619D02*
X122765295Y-83890000D01*
X122765295Y-83890000D02*
X122908152Y-83890000D01*
X122908152Y-83890000D02*
X123003390Y-83937619D01*
X123003390Y-83937619D02*
X123051009Y-83985238D01*
X123051009Y-83985238D02*
X123098628Y-84080476D01*
X123098628Y-84080476D02*
X123098628Y-84461428D01*
X122574819Y-82985238D02*
X122574819Y-83461428D01*
X122574819Y-83461428D02*
X123051009Y-83509047D01*
X123051009Y-83509047D02*
X123003390Y-83461428D01*
X123003390Y-83461428D02*
X122955771Y-83366190D01*
X122955771Y-83366190D02*
X122955771Y-83128095D01*
X122955771Y-83128095D02*
X123003390Y-83032857D01*
X123003390Y-83032857D02*
X123051009Y-82985238D01*
X123051009Y-82985238D02*
X123146247Y-82937619D01*
X123146247Y-82937619D02*
X123384342Y-82937619D01*
X123384342Y-82937619D02*
X123479580Y-82985238D01*
X123479580Y-82985238D02*
X123527200Y-83032857D01*
X123527200Y-83032857D02*
X123574819Y-83128095D01*
X123574819Y-83128095D02*
X123574819Y-83366190D01*
X123574819Y-83366190D02*
X123527200Y-83461428D01*
X123527200Y-83461428D02*
X123479580Y-83509047D01*
X123574819Y-81937619D02*
X123098628Y-82270952D01*
X123574819Y-82509047D02*
X122574819Y-82509047D01*
X122574819Y-82509047D02*
X122574819Y-82128095D01*
X122574819Y-82128095D02*
X122622438Y-82032857D01*
X122622438Y-82032857D02*
X122670057Y-81985238D01*
X122670057Y-81985238D02*
X122765295Y-81937619D01*
X122765295Y-81937619D02*
X122908152Y-81937619D01*
X122908152Y-81937619D02*
X123003390Y-81985238D01*
X123003390Y-81985238D02*
X123051009Y-82032857D01*
X123051009Y-82032857D02*
X123098628Y-82128095D01*
X123098628Y-82128095D02*
X123098628Y-82509047D01*
X123574819Y-80985238D02*
X123574819Y-81556666D01*
X123574819Y-81270952D02*
X122574819Y-81270952D01*
X122574819Y-81270952D02*
X122717676Y-81366190D01*
X122717676Y-81366190D02*
X122812914Y-81461428D01*
X122812914Y-81461428D02*
X122860533Y-81556666D01*
X146773754Y-84629456D02*
X146201335Y-84528441D01*
X146369693Y-85033517D02*
X145662587Y-84326410D01*
X145662587Y-84326410D02*
X145931961Y-84057036D01*
X145931961Y-84057036D02*
X146032976Y-84023364D01*
X146032976Y-84023364D02*
X146100319Y-84023364D01*
X146100319Y-84023364D02*
X146201335Y-84057036D01*
X146201335Y-84057036D02*
X146302350Y-84158051D01*
X146302350Y-84158051D02*
X146336022Y-84259067D01*
X146336022Y-84259067D02*
X146336022Y-84326410D01*
X146336022Y-84326410D02*
X146302350Y-84427425D01*
X146302350Y-84427425D02*
X146032976Y-84696799D01*
X146403365Y-83720319D02*
X146403365Y-83652975D01*
X146403365Y-83652975D02*
X146437037Y-83551960D01*
X146437037Y-83551960D02*
X146605396Y-83383601D01*
X146605396Y-83383601D02*
X146706411Y-83349929D01*
X146706411Y-83349929D02*
X146773754Y-83349929D01*
X146773754Y-83349929D02*
X146874770Y-83383601D01*
X146874770Y-83383601D02*
X146942113Y-83450945D01*
X146942113Y-83450945D02*
X147009457Y-83585632D01*
X147009457Y-83585632D02*
X147009457Y-84393754D01*
X147009457Y-84393754D02*
X147447189Y-83956021D01*
X119859999Y-63866009D02*
X119526666Y-63866009D01*
X119526666Y-64389819D02*
X119526666Y-63389819D01*
X119526666Y-63389819D02*
X120002856Y-63389819D01*
X120383809Y-64389819D02*
X120383809Y-63723152D01*
X120383809Y-63389819D02*
X120336190Y-63437438D01*
X120336190Y-63437438D02*
X120383809Y-63485057D01*
X120383809Y-63485057D02*
X120431428Y-63437438D01*
X120431428Y-63437438D02*
X120383809Y-63389819D01*
X120383809Y-63389819D02*
X120383809Y-63485057D01*
X120859999Y-63723152D02*
X120859999Y-64389819D01*
X120859999Y-63818390D02*
X120907618Y-63770771D01*
X120907618Y-63770771D02*
X121002856Y-63723152D01*
X121002856Y-63723152D02*
X121145713Y-63723152D01*
X121145713Y-63723152D02*
X121240951Y-63770771D01*
X121240951Y-63770771D02*
X121288570Y-63866009D01*
X121288570Y-63866009D02*
X121288570Y-64389819D01*
X122193332Y-63723152D02*
X122193332Y-64532676D01*
X122193332Y-64532676D02*
X122145713Y-64627914D01*
X122145713Y-64627914D02*
X122098094Y-64675533D01*
X122098094Y-64675533D02*
X122002856Y-64723152D01*
X122002856Y-64723152D02*
X121859999Y-64723152D01*
X121859999Y-64723152D02*
X121764761Y-64675533D01*
X122193332Y-64342200D02*
X122098094Y-64389819D01*
X122098094Y-64389819D02*
X121907618Y-64389819D01*
X121907618Y-64389819D02*
X121812380Y-64342200D01*
X121812380Y-64342200D02*
X121764761Y-64294580D01*
X121764761Y-64294580D02*
X121717142Y-64199342D01*
X121717142Y-64199342D02*
X121717142Y-63913628D01*
X121717142Y-63913628D02*
X121764761Y-63818390D01*
X121764761Y-63818390D02*
X121812380Y-63770771D01*
X121812380Y-63770771D02*
X121907618Y-63723152D01*
X121907618Y-63723152D02*
X122098094Y-63723152D01*
X122098094Y-63723152D02*
X122193332Y-63770771D01*
X123050475Y-64342200D02*
X122955237Y-64389819D01*
X122955237Y-64389819D02*
X122764761Y-64389819D01*
X122764761Y-64389819D02*
X122669523Y-64342200D01*
X122669523Y-64342200D02*
X122621904Y-64246961D01*
X122621904Y-64246961D02*
X122621904Y-63866009D01*
X122621904Y-63866009D02*
X122669523Y-63770771D01*
X122669523Y-63770771D02*
X122764761Y-63723152D01*
X122764761Y-63723152D02*
X122955237Y-63723152D01*
X122955237Y-63723152D02*
X123050475Y-63770771D01*
X123050475Y-63770771D02*
X123098094Y-63866009D01*
X123098094Y-63866009D02*
X123098094Y-63961247D01*
X123098094Y-63961247D02*
X122621904Y-64056485D01*
X123526666Y-64389819D02*
X123526666Y-63723152D01*
X123526666Y-63913628D02*
X123574285Y-63818390D01*
X123574285Y-63818390D02*
X123621904Y-63770771D01*
X123621904Y-63770771D02*
X123717142Y-63723152D01*
X123717142Y-63723152D02*
X123812380Y-63723152D01*
X124098095Y-64104104D02*
X124574285Y-64104104D01*
X124002857Y-64389819D02*
X124336190Y-63389819D01*
X124336190Y-63389819D02*
X124669523Y-64389819D01*
X125431428Y-63723152D02*
X125431428Y-64389819D01*
X125002857Y-63723152D02*
X125002857Y-64246961D01*
X125002857Y-64246961D02*
X125050476Y-64342200D01*
X125050476Y-64342200D02*
X125145714Y-64389819D01*
X125145714Y-64389819D02*
X125288571Y-64389819D01*
X125288571Y-64389819D02*
X125383809Y-64342200D01*
X125383809Y-64342200D02*
X125431428Y-64294580D01*
X125812381Y-64389819D02*
X126336190Y-63723152D01*
X125812381Y-63723152D02*
X126336190Y-64389819D01*
X127240952Y-64389819D02*
X126669524Y-64389819D01*
X126955238Y-64389819D02*
X126955238Y-63389819D01*
X126955238Y-63389819D02*
X126860000Y-63532676D01*
X126860000Y-63532676D02*
X126764762Y-63627914D01*
X126764762Y-63627914D02*
X126669524Y-63675533D01*
X154012381Y-63866009D02*
X153679048Y-63866009D01*
X153679048Y-64389819D02*
X153679048Y-63389819D01*
X153679048Y-63389819D02*
X154155238Y-63389819D01*
X154536191Y-64389819D02*
X154536191Y-63389819D01*
X155012381Y-64389819D02*
X155012381Y-63389819D01*
X155012381Y-63389819D02*
X155583809Y-64389819D01*
X155583809Y-64389819D02*
X155583809Y-63389819D01*
X156583809Y-63437438D02*
X156488571Y-63389819D01*
X156488571Y-63389819D02*
X156345714Y-63389819D01*
X156345714Y-63389819D02*
X156202857Y-63437438D01*
X156202857Y-63437438D02*
X156107619Y-63532676D01*
X156107619Y-63532676D02*
X156060000Y-63627914D01*
X156060000Y-63627914D02*
X156012381Y-63818390D01*
X156012381Y-63818390D02*
X156012381Y-63961247D01*
X156012381Y-63961247D02*
X156060000Y-64151723D01*
X156060000Y-64151723D02*
X156107619Y-64246961D01*
X156107619Y-64246961D02*
X156202857Y-64342200D01*
X156202857Y-64342200D02*
X156345714Y-64389819D01*
X156345714Y-64389819D02*
X156440952Y-64389819D01*
X156440952Y-64389819D02*
X156583809Y-64342200D01*
X156583809Y-64342200D02*
X156631428Y-64294580D01*
X156631428Y-64294580D02*
X156631428Y-63961247D01*
X156631428Y-63961247D02*
X156440952Y-63961247D01*
X157060000Y-63866009D02*
X157393333Y-63866009D01*
X157536190Y-64389819D02*
X157060000Y-64389819D01*
X157060000Y-64389819D02*
X157060000Y-63389819D01*
X157060000Y-63389819D02*
X157536190Y-63389819D01*
X158536190Y-64389819D02*
X158202857Y-63913628D01*
X157964762Y-64389819D02*
X157964762Y-63389819D01*
X157964762Y-63389819D02*
X158345714Y-63389819D01*
X158345714Y-63389819D02*
X158440952Y-63437438D01*
X158440952Y-63437438D02*
X158488571Y-63485057D01*
X158488571Y-63485057D02*
X158536190Y-63580295D01*
X158536190Y-63580295D02*
X158536190Y-63723152D01*
X158536190Y-63723152D02*
X158488571Y-63818390D01*
X158488571Y-63818390D02*
X158440952Y-63866009D01*
X158440952Y-63866009D02*
X158345714Y-63913628D01*
X158345714Y-63913628D02*
X157964762Y-63913628D01*
X159393333Y-63723152D02*
X159393333Y-64389819D01*
X159155238Y-63342200D02*
X158917143Y-64056485D01*
X158917143Y-64056485D02*
X159536190Y-64056485D01*
X151583754Y-73459456D02*
X151011335Y-73358441D01*
X151179693Y-73863517D02*
X150472587Y-73156410D01*
X150472587Y-73156410D02*
X150741961Y-72887036D01*
X150741961Y-72887036D02*
X150842976Y-72853364D01*
X150842976Y-72853364D02*
X150910319Y-72853364D01*
X150910319Y-72853364D02*
X151011335Y-72887036D01*
X151011335Y-72887036D02*
X151112350Y-72988051D01*
X151112350Y-72988051D02*
X151146022Y-73089067D01*
X151146022Y-73089067D02*
X151146022Y-73156410D01*
X151146022Y-73156410D02*
X151112350Y-73257425D01*
X151112350Y-73257425D02*
X150842976Y-73526799D01*
X151920472Y-73122738D02*
X152055159Y-72988051D01*
X152055159Y-72988051D02*
X152088831Y-72887036D01*
X152088831Y-72887036D02*
X152088831Y-72819693D01*
X152088831Y-72819693D02*
X152055159Y-72651334D01*
X152055159Y-72651334D02*
X151954144Y-72482975D01*
X151954144Y-72482975D02*
X151684770Y-72213601D01*
X151684770Y-72213601D02*
X151583754Y-72179929D01*
X151583754Y-72179929D02*
X151516411Y-72179929D01*
X151516411Y-72179929D02*
X151415396Y-72213601D01*
X151415396Y-72213601D02*
X151280709Y-72348288D01*
X151280709Y-72348288D02*
X151247037Y-72449303D01*
X151247037Y-72449303D02*
X151247037Y-72516647D01*
X151247037Y-72516647D02*
X151280709Y-72617662D01*
X151280709Y-72617662D02*
X151449067Y-72786021D01*
X151449067Y-72786021D02*
X151550083Y-72819693D01*
X151550083Y-72819693D02*
X151617426Y-72819693D01*
X151617426Y-72819693D02*
X151718441Y-72786021D01*
X151718441Y-72786021D02*
X151853128Y-72651334D01*
X151853128Y-72651334D02*
X151886800Y-72550319D01*
X151886800Y-72550319D02*
X151886800Y-72482975D01*
X151886800Y-72482975D02*
X151853128Y-72381960D01*
X132849693Y-86758830D02*
X132849693Y-86826174D01*
X132849693Y-86826174D02*
X132782349Y-86960861D01*
X132782349Y-86960861D02*
X132715006Y-87028204D01*
X132715006Y-87028204D02*
X132580319Y-87095548D01*
X132580319Y-87095548D02*
X132445632Y-87095548D01*
X132445632Y-87095548D02*
X132344617Y-87061876D01*
X132344617Y-87061876D02*
X132176258Y-86960861D01*
X132176258Y-86960861D02*
X132075243Y-86859846D01*
X132075243Y-86859846D02*
X131974227Y-86691487D01*
X131974227Y-86691487D02*
X131940556Y-86590472D01*
X131940556Y-86590472D02*
X131940556Y-86455785D01*
X131940556Y-86455785D02*
X132007899Y-86321098D01*
X132007899Y-86321098D02*
X132075243Y-86253754D01*
X132075243Y-86253754D02*
X132209930Y-86186411D01*
X132209930Y-86186411D02*
X132277273Y-86186411D01*
X132546647Y-85917037D02*
X132546647Y-85849693D01*
X132546647Y-85849693D02*
X132580319Y-85748678D01*
X132580319Y-85748678D02*
X132748678Y-85580319D01*
X132748678Y-85580319D02*
X132849693Y-85546647D01*
X132849693Y-85546647D02*
X132917036Y-85546647D01*
X132917036Y-85546647D02*
X133018052Y-85580319D01*
X133018052Y-85580319D02*
X133085395Y-85647663D01*
X133085395Y-85647663D02*
X133152739Y-85782350D01*
X133152739Y-85782350D02*
X133152739Y-86590472D01*
X133152739Y-86590472D02*
X133590471Y-86152739D01*
X133523128Y-84805869D02*
X133186410Y-85142586D01*
X133186410Y-85142586D02*
X133489456Y-85512975D01*
X133489456Y-85512975D02*
X133489456Y-85445632D01*
X133489456Y-85445632D02*
X133523128Y-85344617D01*
X133523128Y-85344617D02*
X133691487Y-85176258D01*
X133691487Y-85176258D02*
X133792502Y-85142586D01*
X133792502Y-85142586D02*
X133859846Y-85142586D01*
X133859846Y-85142586D02*
X133960861Y-85176258D01*
X133960861Y-85176258D02*
X134129220Y-85344617D01*
X134129220Y-85344617D02*
X134162891Y-85445632D01*
X134162891Y-85445632D02*
X134162891Y-85512975D01*
X134162891Y-85512975D02*
X134129220Y-85613991D01*
X134129220Y-85613991D02*
X133960861Y-85782349D01*
X133960861Y-85782349D02*
X133859846Y-85816021D01*
X133859846Y-85816021D02*
X133792502Y-85816021D01*
X152916411Y-82792112D02*
X152916411Y-82859456D01*
X152916411Y-82859456D02*
X152849067Y-82994143D01*
X152849067Y-82994143D02*
X152781724Y-83061486D01*
X152781724Y-83061486D02*
X152647037Y-83128830D01*
X152647037Y-83128830D02*
X152512350Y-83128830D01*
X152512350Y-83128830D02*
X152411335Y-83095158D01*
X152411335Y-83095158D02*
X152242976Y-82994143D01*
X152242976Y-82994143D02*
X152141961Y-82893128D01*
X152141961Y-82893128D02*
X152040945Y-82724769D01*
X152040945Y-82724769D02*
X152007274Y-82623754D01*
X152007274Y-82623754D02*
X152007274Y-82489067D01*
X152007274Y-82489067D02*
X152074617Y-82354380D01*
X152074617Y-82354380D02*
X152141961Y-82287036D01*
X152141961Y-82287036D02*
X152276648Y-82219693D01*
X152276648Y-82219693D02*
X152343991Y-82219693D01*
X152512350Y-81916647D02*
X152950083Y-81478914D01*
X152950083Y-81478914D02*
X152983754Y-81983990D01*
X152983754Y-81983990D02*
X153084770Y-81882975D01*
X153084770Y-81882975D02*
X153185785Y-81849303D01*
X153185785Y-81849303D02*
X153253128Y-81849303D01*
X153253128Y-81849303D02*
X153354144Y-81882975D01*
X153354144Y-81882975D02*
X153522502Y-82051334D01*
X153522502Y-82051334D02*
X153556174Y-82152349D01*
X153556174Y-82152349D02*
X153556174Y-82219693D01*
X153556174Y-82219693D02*
X153522502Y-82320708D01*
X153522502Y-82320708D02*
X153320472Y-82522738D01*
X153320472Y-82522738D02*
X153219457Y-82556410D01*
X153219457Y-82556410D02*
X153152113Y-82556410D01*
X138209692Y-81198830D02*
X138209692Y-81266174D01*
X138209692Y-81266174D02*
X138142348Y-81400861D01*
X138142348Y-81400861D02*
X138075005Y-81468204D01*
X138075005Y-81468204D02*
X137940318Y-81535548D01*
X137940318Y-81535548D02*
X137805631Y-81535548D01*
X137805631Y-81535548D02*
X137704616Y-81501876D01*
X137704616Y-81501876D02*
X137536257Y-81400861D01*
X137536257Y-81400861D02*
X137435242Y-81299846D01*
X137435242Y-81299846D02*
X137334226Y-81131487D01*
X137334226Y-81131487D02*
X137300555Y-81030472D01*
X137300555Y-81030472D02*
X137300555Y-80895785D01*
X137300555Y-80895785D02*
X137367898Y-80761098D01*
X137367898Y-80761098D02*
X137435242Y-80693754D01*
X137435242Y-80693754D02*
X137569929Y-80626411D01*
X137569929Y-80626411D02*
X137637272Y-80626411D01*
X138950470Y-80592739D02*
X138546409Y-80996800D01*
X138748440Y-80794769D02*
X138041333Y-80087663D01*
X138041333Y-80087663D02*
X138075005Y-80256021D01*
X138075005Y-80256021D02*
X138075005Y-80390708D01*
X138075005Y-80390708D02*
X138041333Y-80491724D01*
X138950471Y-79784617D02*
X138849455Y-79818288D01*
X138849455Y-79818288D02*
X138782112Y-79818288D01*
X138782112Y-79818288D02*
X138681097Y-79784617D01*
X138681097Y-79784617D02*
X138647425Y-79750945D01*
X138647425Y-79750945D02*
X138613753Y-79649930D01*
X138613753Y-79649930D02*
X138613753Y-79582586D01*
X138613753Y-79582586D02*
X138647425Y-79481571D01*
X138647425Y-79481571D02*
X138782112Y-79346884D01*
X138782112Y-79346884D02*
X138883127Y-79313212D01*
X138883127Y-79313212D02*
X138950471Y-79313212D01*
X138950471Y-79313212D02*
X139051486Y-79346884D01*
X139051486Y-79346884D02*
X139085158Y-79380556D01*
X139085158Y-79380556D02*
X139118829Y-79481571D01*
X139118829Y-79481571D02*
X139118829Y-79548914D01*
X139118829Y-79548914D02*
X139085158Y-79649930D01*
X139085158Y-79649930D02*
X138950471Y-79784617D01*
X138950471Y-79784617D02*
X138916799Y-79885632D01*
X138916799Y-79885632D02*
X138916799Y-79952975D01*
X138916799Y-79952975D02*
X138950471Y-80053991D01*
X138950471Y-80053991D02*
X139085158Y-80188678D01*
X139085158Y-80188678D02*
X139186173Y-80222349D01*
X139186173Y-80222349D02*
X139253516Y-80222349D01*
X139253516Y-80222349D02*
X139354532Y-80188678D01*
X139354532Y-80188678D02*
X139489219Y-80053991D01*
X139489219Y-80053991D02*
X139522890Y-79952975D01*
X139522890Y-79952975D02*
X139522890Y-79885632D01*
X139522890Y-79885632D02*
X139489219Y-79784617D01*
X139489219Y-79784617D02*
X139354532Y-79649930D01*
X139354532Y-79649930D02*
X139253516Y-79616258D01*
X139253516Y-79616258D02*
X139186173Y-79616258D01*
X139186173Y-79616258D02*
X139085158Y-79649930D01*
X131257142Y-67127080D02*
X131209523Y-67174700D01*
X131209523Y-67174700D02*
X131066666Y-67222319D01*
X131066666Y-67222319D02*
X130971428Y-67222319D01*
X130971428Y-67222319D02*
X130828571Y-67174700D01*
X130828571Y-67174700D02*
X130733333Y-67079461D01*
X130733333Y-67079461D02*
X130685714Y-66984223D01*
X130685714Y-66984223D02*
X130638095Y-66793747D01*
X130638095Y-66793747D02*
X130638095Y-66650890D01*
X130638095Y-66650890D02*
X130685714Y-66460414D01*
X130685714Y-66460414D02*
X130733333Y-66365176D01*
X130733333Y-66365176D02*
X130828571Y-66269938D01*
X130828571Y-66269938D02*
X130971428Y-66222319D01*
X130971428Y-66222319D02*
X131066666Y-66222319D01*
X131066666Y-66222319D02*
X131209523Y-66269938D01*
X131209523Y-66269938D02*
X131257142Y-66317557D01*
X132209523Y-67222319D02*
X131638095Y-67222319D01*
X131923809Y-67222319D02*
X131923809Y-66222319D01*
X131923809Y-66222319D02*
X131828571Y-66365176D01*
X131828571Y-66365176D02*
X131733333Y-66460414D01*
X131733333Y-66460414D02*
X131638095Y-66508033D01*
X133066666Y-66222319D02*
X132876190Y-66222319D01*
X132876190Y-66222319D02*
X132780952Y-66269938D01*
X132780952Y-66269938D02*
X132733333Y-66317557D01*
X132733333Y-66317557D02*
X132638095Y-66460414D01*
X132638095Y-66460414D02*
X132590476Y-66650890D01*
X132590476Y-66650890D02*
X132590476Y-67031842D01*
X132590476Y-67031842D02*
X132638095Y-67127080D01*
X132638095Y-67127080D02*
X132685714Y-67174700D01*
X132685714Y-67174700D02*
X132780952Y-67222319D01*
X132780952Y-67222319D02*
X132971428Y-67222319D01*
X132971428Y-67222319D02*
X133066666Y-67174700D01*
X133066666Y-67174700D02*
X133114285Y-67127080D01*
X133114285Y-67127080D02*
X133161904Y-67031842D01*
X133161904Y-67031842D02*
X133161904Y-66793747D01*
X133161904Y-66793747D02*
X133114285Y-66698509D01*
X133114285Y-66698509D02*
X133066666Y-66650890D01*
X133066666Y-66650890D02*
X132971428Y-66603271D01*
X132971428Y-66603271D02*
X132780952Y-66603271D01*
X132780952Y-66603271D02*
X132685714Y-66650890D01*
X132685714Y-66650890D02*
X132638095Y-66698509D01*
X132638095Y-66698509D02*
X132590476Y-66793747D01*
X137139693Y-72748830D02*
X137139693Y-72816174D01*
X137139693Y-72816174D02*
X137072349Y-72950861D01*
X137072349Y-72950861D02*
X137005006Y-73018204D01*
X137005006Y-73018204D02*
X136870319Y-73085548D01*
X136870319Y-73085548D02*
X136735632Y-73085548D01*
X136735632Y-73085548D02*
X136634617Y-73051876D01*
X136634617Y-73051876D02*
X136466258Y-72950861D01*
X136466258Y-72950861D02*
X136365243Y-72849846D01*
X136365243Y-72849846D02*
X136264227Y-72681487D01*
X136264227Y-72681487D02*
X136230556Y-72580472D01*
X136230556Y-72580472D02*
X136230556Y-72445785D01*
X136230556Y-72445785D02*
X136297899Y-72311098D01*
X136297899Y-72311098D02*
X136365243Y-72243754D01*
X136365243Y-72243754D02*
X136499930Y-72176411D01*
X136499930Y-72176411D02*
X136567273Y-72176411D01*
X136836647Y-71907037D02*
X136836647Y-71839693D01*
X136836647Y-71839693D02*
X136870319Y-71738678D01*
X136870319Y-71738678D02*
X137038678Y-71570319D01*
X137038678Y-71570319D02*
X137139693Y-71536647D01*
X137139693Y-71536647D02*
X137207036Y-71536647D01*
X137207036Y-71536647D02*
X137308052Y-71570319D01*
X137308052Y-71570319D02*
X137375395Y-71637663D01*
X137375395Y-71637663D02*
X137442739Y-71772350D01*
X137442739Y-71772350D02*
X137442739Y-72580472D01*
X137442739Y-72580472D02*
X137880471Y-72142739D01*
X137409067Y-71199930D02*
X137880472Y-70728525D01*
X137880472Y-70728525D02*
X138284533Y-71738678D01*
X148616411Y-86372112D02*
X148616411Y-86439456D01*
X148616411Y-86439456D02*
X148549067Y-86574143D01*
X148549067Y-86574143D02*
X148481724Y-86641486D01*
X148481724Y-86641486D02*
X148347037Y-86708830D01*
X148347037Y-86708830D02*
X148212350Y-86708830D01*
X148212350Y-86708830D02*
X148111335Y-86675158D01*
X148111335Y-86675158D02*
X147942976Y-86574143D01*
X147942976Y-86574143D02*
X147841961Y-86473128D01*
X147841961Y-86473128D02*
X147740945Y-86304769D01*
X147740945Y-86304769D02*
X147707274Y-86203754D01*
X147707274Y-86203754D02*
X147707274Y-86069067D01*
X147707274Y-86069067D02*
X147774617Y-85934380D01*
X147774617Y-85934380D02*
X147841961Y-85867036D01*
X147841961Y-85867036D02*
X147976648Y-85799693D01*
X147976648Y-85799693D02*
X148043991Y-85799693D01*
X148683754Y-85631334D02*
X148582739Y-85665006D01*
X148582739Y-85665006D02*
X148515396Y-85665006D01*
X148515396Y-85665006D02*
X148414380Y-85631334D01*
X148414380Y-85631334D02*
X148380709Y-85597662D01*
X148380709Y-85597662D02*
X148347037Y-85496647D01*
X148347037Y-85496647D02*
X148347037Y-85429303D01*
X148347037Y-85429303D02*
X148380709Y-85328288D01*
X148380709Y-85328288D02*
X148515396Y-85193601D01*
X148515396Y-85193601D02*
X148616411Y-85159929D01*
X148616411Y-85159929D02*
X148683754Y-85159929D01*
X148683754Y-85159929D02*
X148784770Y-85193601D01*
X148784770Y-85193601D02*
X148818441Y-85227273D01*
X148818441Y-85227273D02*
X148852113Y-85328288D01*
X148852113Y-85328288D02*
X148852113Y-85395632D01*
X148852113Y-85395632D02*
X148818441Y-85496647D01*
X148818441Y-85496647D02*
X148683754Y-85631334D01*
X148683754Y-85631334D02*
X148650083Y-85732349D01*
X148650083Y-85732349D02*
X148650083Y-85799693D01*
X148650083Y-85799693D02*
X148683754Y-85900708D01*
X148683754Y-85900708D02*
X148818441Y-86035395D01*
X148818441Y-86035395D02*
X148919457Y-86069067D01*
X148919457Y-86069067D02*
X148986800Y-86069067D01*
X148986800Y-86069067D02*
X149087815Y-86035395D01*
X149087815Y-86035395D02*
X149222502Y-85900708D01*
X149222502Y-85900708D02*
X149256174Y-85799693D01*
X149256174Y-85799693D02*
X149256174Y-85732349D01*
X149256174Y-85732349D02*
X149222502Y-85631334D01*
X149222502Y-85631334D02*
X149087815Y-85496647D01*
X149087815Y-85496647D02*
X148986800Y-85462975D01*
X148986800Y-85462975D02*
X148919457Y-85462975D01*
X148919457Y-85462975D02*
X148818441Y-85496647D01*
X130327142Y-65917080D02*
X130279523Y-65964700D01*
X130279523Y-65964700D02*
X130136666Y-66012319D01*
X130136666Y-66012319D02*
X130041428Y-66012319D01*
X130041428Y-66012319D02*
X129898571Y-65964700D01*
X129898571Y-65964700D02*
X129803333Y-65869461D01*
X129803333Y-65869461D02*
X129755714Y-65774223D01*
X129755714Y-65774223D02*
X129708095Y-65583747D01*
X129708095Y-65583747D02*
X129708095Y-65440890D01*
X129708095Y-65440890D02*
X129755714Y-65250414D01*
X129755714Y-65250414D02*
X129803333Y-65155176D01*
X129803333Y-65155176D02*
X129898571Y-65059938D01*
X129898571Y-65059938D02*
X130041428Y-65012319D01*
X130041428Y-65012319D02*
X130136666Y-65012319D01*
X130136666Y-65012319D02*
X130279523Y-65059938D01*
X130279523Y-65059938D02*
X130327142Y-65107557D01*
X131279523Y-66012319D02*
X130708095Y-66012319D01*
X130993809Y-66012319D02*
X130993809Y-65012319D01*
X130993809Y-65012319D02*
X130898571Y-65155176D01*
X130898571Y-65155176D02*
X130803333Y-65250414D01*
X130803333Y-65250414D02*
X130708095Y-65298033D01*
X131612857Y-65012319D02*
X132231904Y-65012319D01*
X132231904Y-65012319D02*
X131898571Y-65393271D01*
X131898571Y-65393271D02*
X132041428Y-65393271D01*
X132041428Y-65393271D02*
X132136666Y-65440890D01*
X132136666Y-65440890D02*
X132184285Y-65488509D01*
X132184285Y-65488509D02*
X132231904Y-65583747D01*
X132231904Y-65583747D02*
X132231904Y-65821842D01*
X132231904Y-65821842D02*
X132184285Y-65917080D01*
X132184285Y-65917080D02*
X132136666Y-65964700D01*
X132136666Y-65964700D02*
X132041428Y-66012319D01*
X132041428Y-66012319D02*
X131755714Y-66012319D01*
X131755714Y-66012319D02*
X131660476Y-65964700D01*
X131660476Y-65964700D02*
X131612857Y-65917080D01*
X129973333Y-72984819D02*
X129640000Y-72508628D01*
X129401905Y-72984819D02*
X129401905Y-71984819D01*
X129401905Y-71984819D02*
X129782857Y-71984819D01*
X129782857Y-71984819D02*
X129878095Y-72032438D01*
X129878095Y-72032438D02*
X129925714Y-72080057D01*
X129925714Y-72080057D02*
X129973333Y-72175295D01*
X129973333Y-72175295D02*
X129973333Y-72318152D01*
X129973333Y-72318152D02*
X129925714Y-72413390D01*
X129925714Y-72413390D02*
X129878095Y-72461009D01*
X129878095Y-72461009D02*
X129782857Y-72508628D01*
X129782857Y-72508628D02*
X129401905Y-72508628D01*
X130878095Y-71984819D02*
X130401905Y-71984819D01*
X130401905Y-71984819D02*
X130354286Y-72461009D01*
X130354286Y-72461009D02*
X130401905Y-72413390D01*
X130401905Y-72413390D02*
X130497143Y-72365771D01*
X130497143Y-72365771D02*
X130735238Y-72365771D01*
X130735238Y-72365771D02*
X130830476Y-72413390D01*
X130830476Y-72413390D02*
X130878095Y-72461009D01*
X130878095Y-72461009D02*
X130925714Y-72556247D01*
X130925714Y-72556247D02*
X130925714Y-72794342D01*
X130925714Y-72794342D02*
X130878095Y-72889580D01*
X130878095Y-72889580D02*
X130830476Y-72937200D01*
X130830476Y-72937200D02*
X130735238Y-72984819D01*
X130735238Y-72984819D02*
X130497143Y-72984819D01*
X130497143Y-72984819D02*
X130401905Y-72937200D01*
X130401905Y-72937200D02*
X130354286Y-72889580D01*
X131979693Y-85898830D02*
X131979693Y-85966174D01*
X131979693Y-85966174D02*
X131912349Y-86100861D01*
X131912349Y-86100861D02*
X131845006Y-86168204D01*
X131845006Y-86168204D02*
X131710319Y-86235548D01*
X131710319Y-86235548D02*
X131575632Y-86235548D01*
X131575632Y-86235548D02*
X131474617Y-86201876D01*
X131474617Y-86201876D02*
X131306258Y-86100861D01*
X131306258Y-86100861D02*
X131205243Y-85999846D01*
X131205243Y-85999846D02*
X131104227Y-85831487D01*
X131104227Y-85831487D02*
X131070556Y-85730472D01*
X131070556Y-85730472D02*
X131070556Y-85595785D01*
X131070556Y-85595785D02*
X131137899Y-85461098D01*
X131137899Y-85461098D02*
X131205243Y-85393754D01*
X131205243Y-85393754D02*
X131339930Y-85326411D01*
X131339930Y-85326411D02*
X131407273Y-85326411D01*
X131676647Y-85057037D02*
X131676647Y-84989693D01*
X131676647Y-84989693D02*
X131710319Y-84888678D01*
X131710319Y-84888678D02*
X131878678Y-84720319D01*
X131878678Y-84720319D02*
X131979693Y-84686647D01*
X131979693Y-84686647D02*
X132047036Y-84686647D01*
X132047036Y-84686647D02*
X132148052Y-84720319D01*
X132148052Y-84720319D02*
X132215395Y-84787663D01*
X132215395Y-84787663D02*
X132282739Y-84922350D01*
X132282739Y-84922350D02*
X132282739Y-85730472D01*
X132282739Y-85730472D02*
X132720471Y-85292739D01*
X132350082Y-84383601D02*
X132350082Y-84316258D01*
X132350082Y-84316258D02*
X132383754Y-84215243D01*
X132383754Y-84215243D02*
X132552113Y-84046884D01*
X132552113Y-84046884D02*
X132653128Y-84013212D01*
X132653128Y-84013212D02*
X132720472Y-84013212D01*
X132720472Y-84013212D02*
X132821487Y-84046884D01*
X132821487Y-84046884D02*
X132888830Y-84114227D01*
X132888830Y-84114227D02*
X132956174Y-84248914D01*
X132956174Y-84248914D02*
X132956174Y-85057036D01*
X132956174Y-85057036D02*
X133393907Y-84619304D01*
X139569693Y-72668830D02*
X139569693Y-72736174D01*
X139569693Y-72736174D02*
X139502349Y-72870861D01*
X139502349Y-72870861D02*
X139435006Y-72938204D01*
X139435006Y-72938204D02*
X139300319Y-73005548D01*
X139300319Y-73005548D02*
X139165632Y-73005548D01*
X139165632Y-73005548D02*
X139064617Y-72971876D01*
X139064617Y-72971876D02*
X138896258Y-72870861D01*
X138896258Y-72870861D02*
X138795243Y-72769846D01*
X138795243Y-72769846D02*
X138694227Y-72601487D01*
X138694227Y-72601487D02*
X138660556Y-72500472D01*
X138660556Y-72500472D02*
X138660556Y-72365785D01*
X138660556Y-72365785D02*
X138727899Y-72231098D01*
X138727899Y-72231098D02*
X138795243Y-72163754D01*
X138795243Y-72163754D02*
X138929930Y-72096411D01*
X138929930Y-72096411D02*
X138997273Y-72096411D01*
X139266647Y-71827037D02*
X139266647Y-71759693D01*
X139266647Y-71759693D02*
X139300319Y-71658678D01*
X139300319Y-71658678D02*
X139468678Y-71490319D01*
X139468678Y-71490319D02*
X139569693Y-71456647D01*
X139569693Y-71456647D02*
X139637036Y-71456647D01*
X139637036Y-71456647D02*
X139738052Y-71490319D01*
X139738052Y-71490319D02*
X139805395Y-71557663D01*
X139805395Y-71557663D02*
X139872739Y-71692350D01*
X139872739Y-71692350D02*
X139872739Y-72500472D01*
X139872739Y-72500472D02*
X140310471Y-72062739D01*
X140209456Y-70749540D02*
X140074769Y-70884227D01*
X140074769Y-70884227D02*
X140041098Y-70985243D01*
X140041098Y-70985243D02*
X140041098Y-71052586D01*
X140041098Y-71052586D02*
X140074769Y-71220945D01*
X140074769Y-71220945D02*
X140175785Y-71389304D01*
X140175785Y-71389304D02*
X140445159Y-71658678D01*
X140445159Y-71658678D02*
X140546174Y-71692349D01*
X140546174Y-71692349D02*
X140613517Y-71692349D01*
X140613517Y-71692349D02*
X140714533Y-71658678D01*
X140714533Y-71658678D02*
X140849220Y-71523991D01*
X140849220Y-71523991D02*
X140882891Y-71422975D01*
X140882891Y-71422975D02*
X140882891Y-71355632D01*
X140882891Y-71355632D02*
X140849220Y-71254617D01*
X140849220Y-71254617D02*
X140680861Y-71086258D01*
X140680861Y-71086258D02*
X140579846Y-71052586D01*
X140579846Y-71052586D02*
X140512502Y-71052586D01*
X140512502Y-71052586D02*
X140411487Y-71086258D01*
X140411487Y-71086258D02*
X140276800Y-71220945D01*
X140276800Y-71220945D02*
X140243128Y-71321960D01*
X140243128Y-71321960D02*
X140243128Y-71389304D01*
X140243128Y-71389304D02*
X140276800Y-71490319D01*
X135459693Y-84888830D02*
X135459693Y-84956174D01*
X135459693Y-84956174D02*
X135392349Y-85090861D01*
X135392349Y-85090861D02*
X135325006Y-85158204D01*
X135325006Y-85158204D02*
X135190319Y-85225548D01*
X135190319Y-85225548D02*
X135055632Y-85225548D01*
X135055632Y-85225548D02*
X134954617Y-85191876D01*
X134954617Y-85191876D02*
X134786258Y-85090861D01*
X134786258Y-85090861D02*
X134685243Y-84989846D01*
X134685243Y-84989846D02*
X134584227Y-84821487D01*
X134584227Y-84821487D02*
X134550556Y-84720472D01*
X134550556Y-84720472D02*
X134550556Y-84585785D01*
X134550556Y-84585785D02*
X134617899Y-84451098D01*
X134617899Y-84451098D02*
X134685243Y-84383754D01*
X134685243Y-84383754D02*
X134819930Y-84316411D01*
X134819930Y-84316411D02*
X134887273Y-84316411D01*
X135156647Y-84047037D02*
X135156647Y-83979693D01*
X135156647Y-83979693D02*
X135190319Y-83878678D01*
X135190319Y-83878678D02*
X135358678Y-83710319D01*
X135358678Y-83710319D02*
X135459693Y-83676647D01*
X135459693Y-83676647D02*
X135527036Y-83676647D01*
X135527036Y-83676647D02*
X135628052Y-83710319D01*
X135628052Y-83710319D02*
X135695395Y-83777663D01*
X135695395Y-83777663D02*
X135762739Y-83912350D01*
X135762739Y-83912350D02*
X135762739Y-84720472D01*
X135762739Y-84720472D02*
X136200471Y-84282739D01*
X135931098Y-83137899D02*
X135998441Y-83070556D01*
X135998441Y-83070556D02*
X136099456Y-83036884D01*
X136099456Y-83036884D02*
X136166800Y-83036884D01*
X136166800Y-83036884D02*
X136267815Y-83070556D01*
X136267815Y-83070556D02*
X136436174Y-83171571D01*
X136436174Y-83171571D02*
X136604533Y-83339930D01*
X136604533Y-83339930D02*
X136705548Y-83508288D01*
X136705548Y-83508288D02*
X136739220Y-83609304D01*
X136739220Y-83609304D02*
X136739220Y-83676647D01*
X136739220Y-83676647D02*
X136705548Y-83777662D01*
X136705548Y-83777662D02*
X136638204Y-83845006D01*
X136638204Y-83845006D02*
X136537189Y-83878678D01*
X136537189Y-83878678D02*
X136469846Y-83878678D01*
X136469846Y-83878678D02*
X136368830Y-83845006D01*
X136368830Y-83845006D02*
X136200472Y-83743991D01*
X136200472Y-83743991D02*
X136032113Y-83575632D01*
X136032113Y-83575632D02*
X135931098Y-83407273D01*
X135931098Y-83407273D02*
X135897426Y-83306258D01*
X135897426Y-83306258D02*
X135897426Y-83238914D01*
X135897426Y-83238914D02*
X135931098Y-83137899D01*
X139388394Y-83378170D02*
X139051676Y-83714888D01*
X139523081Y-82772079D02*
X139388394Y-83378170D01*
X139388394Y-83378170D02*
X139994485Y-83243483D01*
X139893470Y-84556681D02*
X139489409Y-84152620D01*
X139691440Y-84354651D02*
X140398546Y-83647544D01*
X140398546Y-83647544D02*
X140230188Y-83681216D01*
X140230188Y-83681216D02*
X140095501Y-83681216D01*
X140095501Y-83681216D02*
X139994485Y-83647544D01*
X130612381Y-63866009D02*
X130279048Y-63866009D01*
X130279048Y-64389819D02*
X130279048Y-63389819D01*
X130279048Y-63389819D02*
X130755238Y-63389819D01*
X131136191Y-64389819D02*
X131136191Y-63389819D01*
X131612381Y-64389819D02*
X131612381Y-63389819D01*
X131612381Y-63389819D02*
X132183809Y-64389819D01*
X132183809Y-64389819D02*
X132183809Y-63389819D01*
X133183809Y-63437438D02*
X133088571Y-63389819D01*
X133088571Y-63389819D02*
X132945714Y-63389819D01*
X132945714Y-63389819D02*
X132802857Y-63437438D01*
X132802857Y-63437438D02*
X132707619Y-63532676D01*
X132707619Y-63532676D02*
X132660000Y-63627914D01*
X132660000Y-63627914D02*
X132612381Y-63818390D01*
X132612381Y-63818390D02*
X132612381Y-63961247D01*
X132612381Y-63961247D02*
X132660000Y-64151723D01*
X132660000Y-64151723D02*
X132707619Y-64246961D01*
X132707619Y-64246961D02*
X132802857Y-64342200D01*
X132802857Y-64342200D02*
X132945714Y-64389819D01*
X132945714Y-64389819D02*
X133040952Y-64389819D01*
X133040952Y-64389819D02*
X133183809Y-64342200D01*
X133183809Y-64342200D02*
X133231428Y-64294580D01*
X133231428Y-64294580D02*
X133231428Y-63961247D01*
X133231428Y-63961247D02*
X133040952Y-63961247D01*
X133660000Y-63866009D02*
X133993333Y-63866009D01*
X134136190Y-64389819D02*
X133660000Y-64389819D01*
X133660000Y-64389819D02*
X133660000Y-63389819D01*
X133660000Y-63389819D02*
X134136190Y-63389819D01*
X135136190Y-64389819D02*
X134802857Y-63913628D01*
X134564762Y-64389819D02*
X134564762Y-63389819D01*
X134564762Y-63389819D02*
X134945714Y-63389819D01*
X134945714Y-63389819D02*
X135040952Y-63437438D01*
X135040952Y-63437438D02*
X135088571Y-63485057D01*
X135088571Y-63485057D02*
X135136190Y-63580295D01*
X135136190Y-63580295D02*
X135136190Y-63723152D01*
X135136190Y-63723152D02*
X135088571Y-63818390D01*
X135088571Y-63818390D02*
X135040952Y-63866009D01*
X135040952Y-63866009D02*
X134945714Y-63913628D01*
X134945714Y-63913628D02*
X134564762Y-63913628D01*
X136088571Y-64389819D02*
X135517143Y-64389819D01*
X135802857Y-64389819D02*
X135802857Y-63389819D01*
X135802857Y-63389819D02*
X135707619Y-63532676D01*
X135707619Y-63532676D02*
X135612381Y-63627914D01*
X135612381Y-63627914D02*
X135517143Y-63675533D01*
X121207142Y-67369580D02*
X121159523Y-67417200D01*
X121159523Y-67417200D02*
X121016666Y-67464819D01*
X121016666Y-67464819D02*
X120921428Y-67464819D01*
X120921428Y-67464819D02*
X120778571Y-67417200D01*
X120778571Y-67417200D02*
X120683333Y-67321961D01*
X120683333Y-67321961D02*
X120635714Y-67226723D01*
X120635714Y-67226723D02*
X120588095Y-67036247D01*
X120588095Y-67036247D02*
X120588095Y-66893390D01*
X120588095Y-66893390D02*
X120635714Y-66702914D01*
X120635714Y-66702914D02*
X120683333Y-66607676D01*
X120683333Y-66607676D02*
X120778571Y-66512438D01*
X120778571Y-66512438D02*
X120921428Y-66464819D01*
X120921428Y-66464819D02*
X121016666Y-66464819D01*
X121016666Y-66464819D02*
X121159523Y-66512438D01*
X121159523Y-66512438D02*
X121207142Y-66560057D01*
X122159523Y-67464819D02*
X121588095Y-67464819D01*
X121873809Y-67464819D02*
X121873809Y-66464819D01*
X121873809Y-66464819D02*
X121778571Y-66607676D01*
X121778571Y-66607676D02*
X121683333Y-66702914D01*
X121683333Y-66702914D02*
X121588095Y-66750533D01*
X123016666Y-66798152D02*
X123016666Y-67464819D01*
X122778571Y-66417200D02*
X122540476Y-67131485D01*
X122540476Y-67131485D02*
X123159523Y-67131485D01*
X153886411Y-71952112D02*
X153886411Y-72019456D01*
X153886411Y-72019456D02*
X153819067Y-72154143D01*
X153819067Y-72154143D02*
X153751724Y-72221486D01*
X153751724Y-72221486D02*
X153617037Y-72288830D01*
X153617037Y-72288830D02*
X153482350Y-72288830D01*
X153482350Y-72288830D02*
X153381335Y-72255158D01*
X153381335Y-72255158D02*
X153212976Y-72154143D01*
X153212976Y-72154143D02*
X153111961Y-72053128D01*
X153111961Y-72053128D02*
X153010945Y-71884769D01*
X153010945Y-71884769D02*
X152977274Y-71783754D01*
X152977274Y-71783754D02*
X152977274Y-71649067D01*
X152977274Y-71649067D02*
X153044617Y-71514380D01*
X153044617Y-71514380D02*
X153111961Y-71447036D01*
X153111961Y-71447036D02*
X153246648Y-71379693D01*
X153246648Y-71379693D02*
X153313991Y-71379693D01*
X154290472Y-71682738D02*
X154425159Y-71548051D01*
X154425159Y-71548051D02*
X154458831Y-71447036D01*
X154458831Y-71447036D02*
X154458831Y-71379693D01*
X154458831Y-71379693D02*
X154425159Y-71211334D01*
X154425159Y-71211334D02*
X154324144Y-71042975D01*
X154324144Y-71042975D02*
X154054770Y-70773601D01*
X154054770Y-70773601D02*
X153953754Y-70739929D01*
X153953754Y-70739929D02*
X153886411Y-70739929D01*
X153886411Y-70739929D02*
X153785396Y-70773601D01*
X153785396Y-70773601D02*
X153650709Y-70908288D01*
X153650709Y-70908288D02*
X153617037Y-71009303D01*
X153617037Y-71009303D02*
X153617037Y-71076647D01*
X153617037Y-71076647D02*
X153650709Y-71177662D01*
X153650709Y-71177662D02*
X153819067Y-71346021D01*
X153819067Y-71346021D02*
X153920083Y-71379693D01*
X153920083Y-71379693D02*
X153987426Y-71379693D01*
X153987426Y-71379693D02*
X154088441Y-71346021D01*
X154088441Y-71346021D02*
X154223128Y-71211334D01*
X154223128Y-71211334D02*
X154256800Y-71110319D01*
X154256800Y-71110319D02*
X154256800Y-71042975D01*
X154256800Y-71042975D02*
X154223128Y-70941960D01*
X126401169Y-78509693D02*
X126333825Y-78509693D01*
X126333825Y-78509693D02*
X126199138Y-78442349D01*
X126199138Y-78442349D02*
X126131795Y-78375006D01*
X126131795Y-78375006D02*
X126064451Y-78240319D01*
X126064451Y-78240319D02*
X126064451Y-78105632D01*
X126064451Y-78105632D02*
X126098123Y-78004617D01*
X126098123Y-78004617D02*
X126199138Y-77836258D01*
X126199138Y-77836258D02*
X126300153Y-77735243D01*
X126300153Y-77735243D02*
X126468512Y-77634227D01*
X126468512Y-77634227D02*
X126569527Y-77600556D01*
X126569527Y-77600556D02*
X126704214Y-77600556D01*
X126704214Y-77600556D02*
X126838901Y-77667899D01*
X126838901Y-77667899D02*
X126906245Y-77735243D01*
X126906245Y-77735243D02*
X126973588Y-77869930D01*
X126973588Y-77869930D02*
X126973588Y-77937273D01*
X127007260Y-79250471D02*
X126603199Y-78846410D01*
X126805230Y-79048441D02*
X127512336Y-78341334D01*
X127512336Y-78341334D02*
X127343978Y-78375006D01*
X127343978Y-78375006D02*
X127209291Y-78375006D01*
X127209291Y-78375006D02*
X127108275Y-78341334D01*
X127343978Y-79587189D02*
X127478665Y-79721876D01*
X127478665Y-79721876D02*
X127579680Y-79755548D01*
X127579680Y-79755548D02*
X127647024Y-79755548D01*
X127647024Y-79755548D02*
X127815382Y-79721876D01*
X127815382Y-79721876D02*
X127983741Y-79620861D01*
X127983741Y-79620861D02*
X128253115Y-79351487D01*
X128253115Y-79351487D02*
X128286787Y-79250472D01*
X128286787Y-79250472D02*
X128286787Y-79183128D01*
X128286787Y-79183128D02*
X128253115Y-79082113D01*
X128253115Y-79082113D02*
X128118428Y-78947426D01*
X128118428Y-78947426D02*
X128017413Y-78913754D01*
X128017413Y-78913754D02*
X127950069Y-78913754D01*
X127950069Y-78913754D02*
X127849054Y-78947426D01*
X127849054Y-78947426D02*
X127680695Y-79115785D01*
X127680695Y-79115785D02*
X127647024Y-79216800D01*
X127647024Y-79216800D02*
X127647024Y-79284143D01*
X127647024Y-79284143D02*
X127680695Y-79385159D01*
X127680695Y-79385159D02*
X127815382Y-79519846D01*
X127815382Y-79519846D02*
X127916398Y-79553517D01*
X127916398Y-79553517D02*
X127983741Y-79553517D01*
X127983741Y-79553517D02*
X128084756Y-79519846D01*
X146212381Y-63866009D02*
X145879048Y-63866009D01*
X145879048Y-64389819D02*
X145879048Y-63389819D01*
X145879048Y-63389819D02*
X146355238Y-63389819D01*
X146736191Y-64389819D02*
X146736191Y-63389819D01*
X147212381Y-64389819D02*
X147212381Y-63389819D01*
X147212381Y-63389819D02*
X147783809Y-64389819D01*
X147783809Y-64389819D02*
X147783809Y-63389819D01*
X148783809Y-63437438D02*
X148688571Y-63389819D01*
X148688571Y-63389819D02*
X148545714Y-63389819D01*
X148545714Y-63389819D02*
X148402857Y-63437438D01*
X148402857Y-63437438D02*
X148307619Y-63532676D01*
X148307619Y-63532676D02*
X148260000Y-63627914D01*
X148260000Y-63627914D02*
X148212381Y-63818390D01*
X148212381Y-63818390D02*
X148212381Y-63961247D01*
X148212381Y-63961247D02*
X148260000Y-64151723D01*
X148260000Y-64151723D02*
X148307619Y-64246961D01*
X148307619Y-64246961D02*
X148402857Y-64342200D01*
X148402857Y-64342200D02*
X148545714Y-64389819D01*
X148545714Y-64389819D02*
X148640952Y-64389819D01*
X148640952Y-64389819D02*
X148783809Y-64342200D01*
X148783809Y-64342200D02*
X148831428Y-64294580D01*
X148831428Y-64294580D02*
X148831428Y-63961247D01*
X148831428Y-63961247D02*
X148640952Y-63961247D01*
X149260000Y-63866009D02*
X149593333Y-63866009D01*
X149736190Y-64389819D02*
X149260000Y-64389819D01*
X149260000Y-64389819D02*
X149260000Y-63389819D01*
X149260000Y-63389819D02*
X149736190Y-63389819D01*
X150736190Y-64389819D02*
X150402857Y-63913628D01*
X150164762Y-64389819D02*
X150164762Y-63389819D01*
X150164762Y-63389819D02*
X150545714Y-63389819D01*
X150545714Y-63389819D02*
X150640952Y-63437438D01*
X150640952Y-63437438D02*
X150688571Y-63485057D01*
X150688571Y-63485057D02*
X150736190Y-63580295D01*
X150736190Y-63580295D02*
X150736190Y-63723152D01*
X150736190Y-63723152D02*
X150688571Y-63818390D01*
X150688571Y-63818390D02*
X150640952Y-63866009D01*
X150640952Y-63866009D02*
X150545714Y-63913628D01*
X150545714Y-63913628D02*
X150164762Y-63913628D01*
X151069524Y-63389819D02*
X151688571Y-63389819D01*
X151688571Y-63389819D02*
X151355238Y-63770771D01*
X151355238Y-63770771D02*
X151498095Y-63770771D01*
X151498095Y-63770771D02*
X151593333Y-63818390D01*
X151593333Y-63818390D02*
X151640952Y-63866009D01*
X151640952Y-63866009D02*
X151688571Y-63961247D01*
X151688571Y-63961247D02*
X151688571Y-64199342D01*
X151688571Y-64199342D02*
X151640952Y-64294580D01*
X151640952Y-64294580D02*
X151593333Y-64342200D01*
X151593333Y-64342200D02*
X151498095Y-64389819D01*
X151498095Y-64389819D02*
X151212381Y-64389819D01*
X151212381Y-64389819D02*
X151117143Y-64342200D01*
X151117143Y-64342200D02*
X151069524Y-64294580D01*
X146133455Y-74807786D02*
X146133455Y-74875130D01*
X146133455Y-74875130D02*
X146066111Y-75009817D01*
X146066111Y-75009817D02*
X145998768Y-75077160D01*
X145998768Y-75077160D02*
X145864081Y-75144504D01*
X145864081Y-75144504D02*
X145729394Y-75144504D01*
X145729394Y-75144504D02*
X145628379Y-75110832D01*
X145628379Y-75110832D02*
X145460020Y-75009817D01*
X145460020Y-75009817D02*
X145359005Y-74908802D01*
X145359005Y-74908802D02*
X145257989Y-74740443D01*
X145257989Y-74740443D02*
X145224318Y-74639428D01*
X145224318Y-74639428D02*
X145224318Y-74504741D01*
X145224318Y-74504741D02*
X145291661Y-74370054D01*
X145291661Y-74370054D02*
X145359005Y-74302710D01*
X145359005Y-74302710D02*
X145493692Y-74235367D01*
X145493692Y-74235367D02*
X145561035Y-74235367D01*
X146133455Y-73528260D02*
X145796737Y-73864977D01*
X145796737Y-73864977D02*
X146099783Y-74235367D01*
X146099783Y-74235367D02*
X146099783Y-74168023D01*
X146099783Y-74168023D02*
X146133455Y-74067008D01*
X146133455Y-74067008D02*
X146301814Y-73898649D01*
X146301814Y-73898649D02*
X146402829Y-73864977D01*
X146402829Y-73864977D02*
X146470172Y-73864977D01*
X146470172Y-73864977D02*
X146571188Y-73898649D01*
X146571188Y-73898649D02*
X146739546Y-74067008D01*
X146739546Y-74067008D02*
X146773218Y-74168023D01*
X146773218Y-74168023D02*
X146773218Y-74235367D01*
X146773218Y-74235367D02*
X146739546Y-74336382D01*
X146739546Y-74336382D02*
X146571188Y-74504741D01*
X146571188Y-74504741D02*
X146470172Y-74538412D01*
X146470172Y-74538412D02*
X146402829Y-74538412D01*
X143499693Y-85068830D02*
X143499693Y-85136174D01*
X143499693Y-85136174D02*
X143432349Y-85270861D01*
X143432349Y-85270861D02*
X143365006Y-85338204D01*
X143365006Y-85338204D02*
X143230319Y-85405548D01*
X143230319Y-85405548D02*
X143095632Y-85405548D01*
X143095632Y-85405548D02*
X142994617Y-85371876D01*
X142994617Y-85371876D02*
X142826258Y-85270861D01*
X142826258Y-85270861D02*
X142725243Y-85169846D01*
X142725243Y-85169846D02*
X142624227Y-85001487D01*
X142624227Y-85001487D02*
X142590556Y-84900472D01*
X142590556Y-84900472D02*
X142590556Y-84765785D01*
X142590556Y-84765785D02*
X142657899Y-84631098D01*
X142657899Y-84631098D02*
X142725243Y-84563754D01*
X142725243Y-84563754D02*
X142859930Y-84496411D01*
X142859930Y-84496411D02*
X142927273Y-84496411D01*
X144240471Y-84462739D02*
X143836410Y-84866800D01*
X144038441Y-84664769D02*
X143331334Y-83957663D01*
X143331334Y-83957663D02*
X143365006Y-84126021D01*
X143365006Y-84126021D02*
X143365006Y-84260708D01*
X143365006Y-84260708D02*
X143331334Y-84361724D01*
X143870082Y-83553601D02*
X143870082Y-83486258D01*
X143870082Y-83486258D02*
X143903754Y-83385243D01*
X143903754Y-83385243D02*
X144072113Y-83216884D01*
X144072113Y-83216884D02*
X144173128Y-83183212D01*
X144173128Y-83183212D02*
X144240472Y-83183212D01*
X144240472Y-83183212D02*
X144341487Y-83216884D01*
X144341487Y-83216884D02*
X144408830Y-83284227D01*
X144408830Y-83284227D02*
X144476174Y-83418914D01*
X144476174Y-83418914D02*
X144476174Y-84227036D01*
X144476174Y-84227036D02*
X144913907Y-83789304D01*
X142423754Y-77099456D02*
X141851335Y-76998441D01*
X142019693Y-77503517D02*
X141312587Y-76796410D01*
X141312587Y-76796410D02*
X141581961Y-76527036D01*
X141581961Y-76527036D02*
X141682976Y-76493364D01*
X141682976Y-76493364D02*
X141750319Y-76493364D01*
X141750319Y-76493364D02*
X141851335Y-76527036D01*
X141851335Y-76527036D02*
X141952350Y-76628051D01*
X141952350Y-76628051D02*
X141986022Y-76729067D01*
X141986022Y-76729067D02*
X141986022Y-76796410D01*
X141986022Y-76796410D02*
X141952350Y-76897425D01*
X141952350Y-76897425D02*
X141682976Y-77166799D01*
X142423754Y-76291334D02*
X142322739Y-76325006D01*
X142322739Y-76325006D02*
X142255396Y-76325006D01*
X142255396Y-76325006D02*
X142154380Y-76291334D01*
X142154380Y-76291334D02*
X142120709Y-76257662D01*
X142120709Y-76257662D02*
X142087037Y-76156647D01*
X142087037Y-76156647D02*
X142087037Y-76089303D01*
X142087037Y-76089303D02*
X142120709Y-75988288D01*
X142120709Y-75988288D02*
X142255396Y-75853601D01*
X142255396Y-75853601D02*
X142356411Y-75819929D01*
X142356411Y-75819929D02*
X142423754Y-75819929D01*
X142423754Y-75819929D02*
X142524770Y-75853601D01*
X142524770Y-75853601D02*
X142558441Y-75887273D01*
X142558441Y-75887273D02*
X142592113Y-75988288D01*
X142592113Y-75988288D02*
X142592113Y-76055632D01*
X142592113Y-76055632D02*
X142558441Y-76156647D01*
X142558441Y-76156647D02*
X142423754Y-76291334D01*
X142423754Y-76291334D02*
X142390083Y-76392349D01*
X142390083Y-76392349D02*
X142390083Y-76459693D01*
X142390083Y-76459693D02*
X142423754Y-76560708D01*
X142423754Y-76560708D02*
X142558441Y-76695395D01*
X142558441Y-76695395D02*
X142659457Y-76729067D01*
X142659457Y-76729067D02*
X142726800Y-76729067D01*
X142726800Y-76729067D02*
X142827815Y-76695395D01*
X142827815Y-76695395D02*
X142962502Y-76560708D01*
X142962502Y-76560708D02*
X142996174Y-76459693D01*
X142996174Y-76459693D02*
X142996174Y-76392349D01*
X142996174Y-76392349D02*
X142962502Y-76291334D01*
X142962502Y-76291334D02*
X142827815Y-76156647D01*
X142827815Y-76156647D02*
X142726800Y-76122975D01*
X142726800Y-76122975D02*
X142659457Y-76122975D01*
X142659457Y-76122975D02*
X142558441Y-76156647D01*
X139773265Y-74565247D02*
X139773265Y-74632591D01*
X139773265Y-74632591D02*
X139705921Y-74767278D01*
X139705921Y-74767278D02*
X139638578Y-74834621D01*
X139638578Y-74834621D02*
X139503891Y-74901965D01*
X139503891Y-74901965D02*
X139369204Y-74901965D01*
X139369204Y-74901965D02*
X139268189Y-74868293D01*
X139268189Y-74868293D02*
X139099830Y-74767278D01*
X139099830Y-74767278D02*
X138998815Y-74666263D01*
X138998815Y-74666263D02*
X138897799Y-74497904D01*
X138897799Y-74497904D02*
X138864128Y-74396889D01*
X138864128Y-74396889D02*
X138864128Y-74262202D01*
X138864128Y-74262202D02*
X138931471Y-74127515D01*
X138931471Y-74127515D02*
X138998815Y-74060171D01*
X138998815Y-74060171D02*
X139133502Y-73992828D01*
X139133502Y-73992828D02*
X139200845Y-73992828D01*
X139470219Y-73723454D02*
X139470219Y-73656110D01*
X139470219Y-73656110D02*
X139503891Y-73555095D01*
X139503891Y-73555095D02*
X139672250Y-73386736D01*
X139672250Y-73386736D02*
X139773265Y-73353064D01*
X139773265Y-73353064D02*
X139840608Y-73353064D01*
X139840608Y-73353064D02*
X139941624Y-73386736D01*
X139941624Y-73386736D02*
X140008967Y-73454080D01*
X140008967Y-73454080D02*
X140076311Y-73588767D01*
X140076311Y-73588767D02*
X140076311Y-74396889D01*
X140076311Y-74396889D02*
X140514043Y-73959156D01*
X140042639Y-73016347D02*
X140480372Y-72578614D01*
X140480372Y-72578614D02*
X140514044Y-73083690D01*
X140514044Y-73083690D02*
X140615059Y-72982675D01*
X140615059Y-72982675D02*
X140716074Y-72949003D01*
X140716074Y-72949003D02*
X140783418Y-72949003D01*
X140783418Y-72949003D02*
X140884433Y-72982675D01*
X140884433Y-72982675D02*
X141052792Y-73151034D01*
X141052792Y-73151034D02*
X141086463Y-73252049D01*
X141086463Y-73252049D02*
X141086463Y-73319392D01*
X141086463Y-73319392D02*
X141052792Y-73420408D01*
X141052792Y-73420408D02*
X140850761Y-73622438D01*
X140850761Y-73622438D02*
X140749746Y-73656110D01*
X140749746Y-73656110D02*
X140682402Y-73656110D01*
D11*
X142420625Y-88181695D02*
X142420625Y-88753123D01*
X142420625Y-88753123D02*
X142382530Y-88867409D01*
X142382530Y-88867409D02*
X142306339Y-88943600D01*
X142306339Y-88943600D02*
X142192054Y-88981695D01*
X142192054Y-88981695D02*
X142115863Y-88981695D01*
X143220625Y-88981695D02*
X142763482Y-88981695D01*
X142992054Y-88981695D02*
X142992054Y-88181695D01*
X142992054Y-88181695D02*
X142915863Y-88295980D01*
X142915863Y-88295980D02*
X142839673Y-88372171D01*
X142839673Y-88372171D02*
X142763482Y-88410266D01*
D10*
X154371009Y-88538571D02*
X154371009Y-88871904D01*
X154894819Y-88871904D02*
X153894819Y-88871904D01*
X153894819Y-88871904D02*
X153894819Y-88395714D01*
X154894819Y-88014761D02*
X153894819Y-88014761D01*
X154894819Y-87538571D02*
X153894819Y-87538571D01*
X153894819Y-87538571D02*
X154894819Y-86967143D01*
X154894819Y-86967143D02*
X153894819Y-86967143D01*
X153942438Y-85967143D02*
X153894819Y-86062381D01*
X153894819Y-86062381D02*
X153894819Y-86205238D01*
X153894819Y-86205238D02*
X153942438Y-86348095D01*
X153942438Y-86348095D02*
X154037676Y-86443333D01*
X154037676Y-86443333D02*
X154132914Y-86490952D01*
X154132914Y-86490952D02*
X154323390Y-86538571D01*
X154323390Y-86538571D02*
X154466247Y-86538571D01*
X154466247Y-86538571D02*
X154656723Y-86490952D01*
X154656723Y-86490952D02*
X154751961Y-86443333D01*
X154751961Y-86443333D02*
X154847200Y-86348095D01*
X154847200Y-86348095D02*
X154894819Y-86205238D01*
X154894819Y-86205238D02*
X154894819Y-86110000D01*
X154894819Y-86110000D02*
X154847200Y-85967143D01*
X154847200Y-85967143D02*
X154799580Y-85919524D01*
X154799580Y-85919524D02*
X154466247Y-85919524D01*
X154466247Y-85919524D02*
X154466247Y-86110000D01*
X154371009Y-85490952D02*
X154371009Y-85157619D01*
X154894819Y-85014762D02*
X154894819Y-85490952D01*
X154894819Y-85490952D02*
X153894819Y-85490952D01*
X153894819Y-85490952D02*
X153894819Y-85014762D01*
X154894819Y-84014762D02*
X154418628Y-84348095D01*
X154894819Y-84586190D02*
X153894819Y-84586190D01*
X153894819Y-84586190D02*
X153894819Y-84205238D01*
X153894819Y-84205238D02*
X153942438Y-84110000D01*
X153942438Y-84110000D02*
X153990057Y-84062381D01*
X153990057Y-84062381D02*
X154085295Y-84014762D01*
X154085295Y-84014762D02*
X154228152Y-84014762D01*
X154228152Y-84014762D02*
X154323390Y-84062381D01*
X154323390Y-84062381D02*
X154371009Y-84110000D01*
X154371009Y-84110000D02*
X154418628Y-84205238D01*
X154418628Y-84205238D02*
X154418628Y-84586190D01*
X153894819Y-83110000D02*
X153894819Y-83586190D01*
X153894819Y-83586190D02*
X154371009Y-83633809D01*
X154371009Y-83633809D02*
X154323390Y-83586190D01*
X154323390Y-83586190D02*
X154275771Y-83490952D01*
X154275771Y-83490952D02*
X154275771Y-83252857D01*
X154275771Y-83252857D02*
X154323390Y-83157619D01*
X154323390Y-83157619D02*
X154371009Y-83110000D01*
X154371009Y-83110000D02*
X154466247Y-83062381D01*
X154466247Y-83062381D02*
X154704342Y-83062381D01*
X154704342Y-83062381D02*
X154799580Y-83110000D01*
X154799580Y-83110000D02*
X154847200Y-83157619D01*
X154847200Y-83157619D02*
X154894819Y-83252857D01*
X154894819Y-83252857D02*
X154894819Y-83490952D01*
X154894819Y-83490952D02*
X154847200Y-83586190D01*
X154847200Y-83586190D02*
X154799580Y-83633809D01*
X154894819Y-82157619D02*
X154894819Y-82633809D01*
X154894819Y-82633809D02*
X153894819Y-82633809D01*
X154894819Y-81300476D02*
X154894819Y-81871904D01*
X154894819Y-81586190D02*
X153894819Y-81586190D01*
X153894819Y-81586190D02*
X154037676Y-81681428D01*
X154037676Y-81681428D02*
X154132914Y-81776666D01*
X154132914Y-81776666D02*
X154180533Y-81871904D01*
X155146411Y-74572112D02*
X155146411Y-74639456D01*
X155146411Y-74639456D02*
X155079067Y-74774143D01*
X155079067Y-74774143D02*
X155011724Y-74841486D01*
X155011724Y-74841486D02*
X154877037Y-74908830D01*
X154877037Y-74908830D02*
X154742350Y-74908830D01*
X154742350Y-74908830D02*
X154641335Y-74875158D01*
X154641335Y-74875158D02*
X154472976Y-74774143D01*
X154472976Y-74774143D02*
X154371961Y-74673128D01*
X154371961Y-74673128D02*
X154270945Y-74504769D01*
X154270945Y-74504769D02*
X154237274Y-74403754D01*
X154237274Y-74403754D02*
X154237274Y-74269067D01*
X154237274Y-74269067D02*
X154304617Y-74134380D01*
X154304617Y-74134380D02*
X154371961Y-74067036D01*
X154371961Y-74067036D02*
X154506648Y-73999693D01*
X154506648Y-73999693D02*
X154573991Y-73999693D01*
X154742350Y-73696647D02*
X155213754Y-73225242D01*
X155213754Y-73225242D02*
X155617815Y-74235395D01*
X142918095Y-70844819D02*
X142918095Y-71654342D01*
X142918095Y-71654342D02*
X142965714Y-71749580D01*
X142965714Y-71749580D02*
X143013333Y-71797200D01*
X143013333Y-71797200D02*
X143108571Y-71844819D01*
X143108571Y-71844819D02*
X143299047Y-71844819D01*
X143299047Y-71844819D02*
X143394285Y-71797200D01*
X143394285Y-71797200D02*
X143441904Y-71749580D01*
X143441904Y-71749580D02*
X143489523Y-71654342D01*
X143489523Y-71654342D02*
X143489523Y-70844819D01*
X144394285Y-71178152D02*
X144394285Y-71844819D01*
X144156190Y-70797200D02*
X143918095Y-71511485D01*
X143918095Y-71511485D02*
X144537142Y-71511485D01*
X122468095Y-71102319D02*
X122468095Y-71911842D01*
X122468095Y-71911842D02*
X122515714Y-72007080D01*
X122515714Y-72007080D02*
X122563333Y-72054700D01*
X122563333Y-72054700D02*
X122658571Y-72102319D01*
X122658571Y-72102319D02*
X122849047Y-72102319D01*
X122849047Y-72102319D02*
X122944285Y-72054700D01*
X122944285Y-72054700D02*
X122991904Y-72007080D01*
X122991904Y-72007080D02*
X123039523Y-71911842D01*
X123039523Y-71911842D02*
X123039523Y-71102319D01*
X123420476Y-71102319D02*
X124039523Y-71102319D01*
X124039523Y-71102319D02*
X123706190Y-71483271D01*
X123706190Y-71483271D02*
X123849047Y-71483271D01*
X123849047Y-71483271D02*
X123944285Y-71530890D01*
X123944285Y-71530890D02*
X123991904Y-71578509D01*
X123991904Y-71578509D02*
X124039523Y-71673747D01*
X124039523Y-71673747D02*
X124039523Y-71911842D01*
X124039523Y-71911842D02*
X123991904Y-72007080D01*
X123991904Y-72007080D02*
X123944285Y-72054700D01*
X123944285Y-72054700D02*
X123849047Y-72102319D01*
X123849047Y-72102319D02*
X123563333Y-72102319D01*
X123563333Y-72102319D02*
X123468095Y-72054700D01*
X123468095Y-72054700D02*
X123420476Y-72007080D01*
X147676412Y-85482112D02*
X147676412Y-85549456D01*
X147676412Y-85549456D02*
X147609068Y-85684143D01*
X147609068Y-85684143D02*
X147541725Y-85751486D01*
X147541725Y-85751486D02*
X147407038Y-85818830D01*
X147407038Y-85818830D02*
X147272351Y-85818830D01*
X147272351Y-85818830D02*
X147171336Y-85785158D01*
X147171336Y-85785158D02*
X147002977Y-85684143D01*
X147002977Y-85684143D02*
X146901962Y-85583128D01*
X146901962Y-85583128D02*
X146800946Y-85414769D01*
X146800946Y-85414769D02*
X146767275Y-85313754D01*
X146767275Y-85313754D02*
X146767275Y-85179067D01*
X146767275Y-85179067D02*
X146834618Y-85044380D01*
X146834618Y-85044380D02*
X146901962Y-84977036D01*
X146901962Y-84977036D02*
X147036649Y-84909693D01*
X147036649Y-84909693D02*
X147103992Y-84909693D01*
X147878442Y-84471960D02*
X148349847Y-84943364D01*
X147440710Y-84370945D02*
X147777427Y-85044380D01*
X147777427Y-85044380D02*
X148215160Y-84606647D01*
X135413168Y-72189323D02*
X134840748Y-72761743D01*
X134840748Y-72761743D02*
X134807076Y-72862758D01*
X134807076Y-72862758D02*
X134807076Y-72930102D01*
X134807076Y-72930102D02*
X134840748Y-73031117D01*
X134840748Y-73031117D02*
X134975435Y-73165804D01*
X134975435Y-73165804D02*
X135076450Y-73199476D01*
X135076450Y-73199476D02*
X135143794Y-73199476D01*
X135143794Y-73199476D02*
X135244809Y-73165804D01*
X135244809Y-73165804D02*
X135817229Y-72593384D01*
X136490664Y-73266819D02*
X136153946Y-72930102D01*
X136153946Y-72930102D02*
X135783557Y-73233148D01*
X135783557Y-73233148D02*
X135850900Y-73233148D01*
X135850900Y-73233148D02*
X135951916Y-73266819D01*
X135951916Y-73266819D02*
X136120274Y-73435178D01*
X136120274Y-73435178D02*
X136153946Y-73536193D01*
X136153946Y-73536193D02*
X136153946Y-73603537D01*
X136153946Y-73603537D02*
X136120274Y-73704552D01*
X136120274Y-73704552D02*
X135951916Y-73872911D01*
X135951916Y-73872911D02*
X135850900Y-73906583D01*
X135850900Y-73906583D02*
X135783557Y-73906583D01*
X135783557Y-73906583D02*
X135682542Y-73872911D01*
X135682542Y-73872911D02*
X135514183Y-73704552D01*
X135514183Y-73704552D02*
X135480511Y-73603537D01*
X135480511Y-73603537D02*
X135480511Y-73536193D01*
X156036411Y-75402112D02*
X156036411Y-75469456D01*
X156036411Y-75469456D02*
X155969067Y-75604143D01*
X155969067Y-75604143D02*
X155901724Y-75671486D01*
X155901724Y-75671486D02*
X155767037Y-75738830D01*
X155767037Y-75738830D02*
X155632350Y-75738830D01*
X155632350Y-75738830D02*
X155531335Y-75705158D01*
X155531335Y-75705158D02*
X155362976Y-75604143D01*
X155362976Y-75604143D02*
X155261961Y-75503128D01*
X155261961Y-75503128D02*
X155160945Y-75334769D01*
X155160945Y-75334769D02*
X155127274Y-75233754D01*
X155127274Y-75233754D02*
X155127274Y-75099067D01*
X155127274Y-75099067D02*
X155194617Y-74964380D01*
X155194617Y-74964380D02*
X155261961Y-74897036D01*
X155261961Y-74897036D02*
X155396648Y-74829693D01*
X155396648Y-74829693D02*
X155463991Y-74829693D01*
X156777189Y-74796021D02*
X156373128Y-75200082D01*
X156575159Y-74998051D02*
X155868052Y-74290945D01*
X155868052Y-74290945D02*
X155901724Y-74459303D01*
X155901724Y-74459303D02*
X155901724Y-74593990D01*
X155901724Y-74593990D02*
X155868052Y-74695006D01*
X131093809Y-68336128D02*
X131093809Y-68812319D01*
X130760476Y-67812319D02*
X131093809Y-68336128D01*
X131093809Y-68336128D02*
X131427142Y-67812319D01*
X131665238Y-67812319D02*
X132284285Y-67812319D01*
X132284285Y-67812319D02*
X131950952Y-68193271D01*
X131950952Y-68193271D02*
X132093809Y-68193271D01*
X132093809Y-68193271D02*
X132189047Y-68240890D01*
X132189047Y-68240890D02*
X132236666Y-68288509D01*
X132236666Y-68288509D02*
X132284285Y-68383747D01*
X132284285Y-68383747D02*
X132284285Y-68621842D01*
X132284285Y-68621842D02*
X132236666Y-68717080D01*
X132236666Y-68717080D02*
X132189047Y-68764700D01*
X132189047Y-68764700D02*
X132093809Y-68812319D01*
X132093809Y-68812319D02*
X131808095Y-68812319D01*
X131808095Y-68812319D02*
X131712857Y-68764700D01*
X131712857Y-68764700D02*
X131665238Y-68717080D01*
X131297142Y-70427080D02*
X131249523Y-70474700D01*
X131249523Y-70474700D02*
X131106666Y-70522319D01*
X131106666Y-70522319D02*
X131011428Y-70522319D01*
X131011428Y-70522319D02*
X130868571Y-70474700D01*
X130868571Y-70474700D02*
X130773333Y-70379461D01*
X130773333Y-70379461D02*
X130725714Y-70284223D01*
X130725714Y-70284223D02*
X130678095Y-70093747D01*
X130678095Y-70093747D02*
X130678095Y-69950890D01*
X130678095Y-69950890D02*
X130725714Y-69760414D01*
X130725714Y-69760414D02*
X130773333Y-69665176D01*
X130773333Y-69665176D02*
X130868571Y-69569938D01*
X130868571Y-69569938D02*
X131011428Y-69522319D01*
X131011428Y-69522319D02*
X131106666Y-69522319D01*
X131106666Y-69522319D02*
X131249523Y-69569938D01*
X131249523Y-69569938D02*
X131297142Y-69617557D01*
X132249523Y-70522319D02*
X131678095Y-70522319D01*
X131963809Y-70522319D02*
X131963809Y-69522319D01*
X131963809Y-69522319D02*
X131868571Y-69665176D01*
X131868571Y-69665176D02*
X131773333Y-69760414D01*
X131773333Y-69760414D02*
X131678095Y-69808033D01*
X133154285Y-69522319D02*
X132678095Y-69522319D01*
X132678095Y-69522319D02*
X132630476Y-69998509D01*
X132630476Y-69998509D02*
X132678095Y-69950890D01*
X132678095Y-69950890D02*
X132773333Y-69903271D01*
X132773333Y-69903271D02*
X133011428Y-69903271D01*
X133011428Y-69903271D02*
X133106666Y-69950890D01*
X133106666Y-69950890D02*
X133154285Y-69998509D01*
X133154285Y-69998509D02*
X133201904Y-70093747D01*
X133201904Y-70093747D02*
X133201904Y-70331842D01*
X133201904Y-70331842D02*
X133154285Y-70427080D01*
X133154285Y-70427080D02*
X133106666Y-70474700D01*
X133106666Y-70474700D02*
X133011428Y-70522319D01*
X133011428Y-70522319D02*
X132773333Y-70522319D01*
X132773333Y-70522319D02*
X132678095Y-70474700D01*
X132678095Y-70474700D02*
X132630476Y-70427080D01*
X128419693Y-85158830D02*
X128419693Y-85226174D01*
X128419693Y-85226174D02*
X128352349Y-85360861D01*
X128352349Y-85360861D02*
X128285006Y-85428204D01*
X128285006Y-85428204D02*
X128150319Y-85495548D01*
X128150319Y-85495548D02*
X128015632Y-85495548D01*
X128015632Y-85495548D02*
X127914617Y-85461876D01*
X127914617Y-85461876D02*
X127746258Y-85360861D01*
X127746258Y-85360861D02*
X127645243Y-85259846D01*
X127645243Y-85259846D02*
X127544227Y-85091487D01*
X127544227Y-85091487D02*
X127510556Y-84990472D01*
X127510556Y-84990472D02*
X127510556Y-84855785D01*
X127510556Y-84855785D02*
X127577899Y-84721098D01*
X127577899Y-84721098D02*
X127645243Y-84653754D01*
X127645243Y-84653754D02*
X127779930Y-84586411D01*
X127779930Y-84586411D02*
X127847273Y-84586411D01*
X128116647Y-84317037D02*
X128116647Y-84249693D01*
X128116647Y-84249693D02*
X128150319Y-84148678D01*
X128150319Y-84148678D02*
X128318678Y-83980319D01*
X128318678Y-83980319D02*
X128419693Y-83946647D01*
X128419693Y-83946647D02*
X128487036Y-83946647D01*
X128487036Y-83946647D02*
X128588052Y-83980319D01*
X128588052Y-83980319D02*
X128655395Y-84047663D01*
X128655395Y-84047663D02*
X128722739Y-84182350D01*
X128722739Y-84182350D02*
X128722739Y-84990472D01*
X128722739Y-84990472D02*
X129160471Y-84552739D01*
X129833907Y-83879304D02*
X129429846Y-84283365D01*
X129631876Y-84081334D02*
X128924769Y-83374227D01*
X128924769Y-83374227D02*
X128958441Y-83542586D01*
X128958441Y-83542586D02*
X128958441Y-83677273D01*
X128958441Y-83677273D02*
X128924769Y-83778288D01*
X154776411Y-80932112D02*
X154776411Y-80999456D01*
X154776411Y-80999456D02*
X154709067Y-81134143D01*
X154709067Y-81134143D02*
X154641724Y-81201486D01*
X154641724Y-81201486D02*
X154507037Y-81268830D01*
X154507037Y-81268830D02*
X154372350Y-81268830D01*
X154372350Y-81268830D02*
X154271335Y-81235158D01*
X154271335Y-81235158D02*
X154102976Y-81134143D01*
X154102976Y-81134143D02*
X154001961Y-81033128D01*
X154001961Y-81033128D02*
X153900945Y-80864769D01*
X153900945Y-80864769D02*
X153867274Y-80763754D01*
X153867274Y-80763754D02*
X153867274Y-80629067D01*
X153867274Y-80629067D02*
X153934617Y-80494380D01*
X153934617Y-80494380D02*
X154001961Y-80427036D01*
X154001961Y-80427036D02*
X154136648Y-80359693D01*
X154136648Y-80359693D02*
X154203991Y-80359693D01*
X154473365Y-80090319D02*
X154473365Y-80022975D01*
X154473365Y-80022975D02*
X154507037Y-79921960D01*
X154507037Y-79921960D02*
X154675396Y-79753601D01*
X154675396Y-79753601D02*
X154776411Y-79719929D01*
X154776411Y-79719929D02*
X154843754Y-79719929D01*
X154843754Y-79719929D02*
X154944770Y-79753601D01*
X154944770Y-79753601D02*
X155012113Y-79820945D01*
X155012113Y-79820945D02*
X155079457Y-79955632D01*
X155079457Y-79955632D02*
X155079457Y-80763754D01*
X155079457Y-80763754D02*
X155517189Y-80326021D01*
X133083825Y-71557036D02*
X133184840Y-70984617D01*
X132679764Y-71152975D02*
X133386871Y-70445869D01*
X133386871Y-70445869D02*
X133656245Y-70715243D01*
X133656245Y-70715243D02*
X133689917Y-70816258D01*
X133689917Y-70816258D02*
X133689917Y-70883601D01*
X133689917Y-70883601D02*
X133656245Y-70984617D01*
X133656245Y-70984617D02*
X133555230Y-71085632D01*
X133555230Y-71085632D02*
X133454214Y-71119304D01*
X133454214Y-71119304D02*
X133386871Y-71119304D01*
X133386871Y-71119304D02*
X133285856Y-71085632D01*
X133285856Y-71085632D02*
X133016482Y-70816258D01*
X133757260Y-72230471D02*
X133353199Y-71826410D01*
X133555230Y-72028441D02*
X134262336Y-71321334D01*
X134262336Y-71321334D02*
X134093978Y-71355006D01*
X134093978Y-71355006D02*
X133959291Y-71355006D01*
X133959291Y-71355006D02*
X133858275Y-71321334D01*
X134902100Y-71961098D02*
X134969443Y-72028441D01*
X134969443Y-72028441D02*
X135003115Y-72129456D01*
X135003115Y-72129456D02*
X135003115Y-72196800D01*
X135003115Y-72196800D02*
X134969443Y-72297815D01*
X134969443Y-72297815D02*
X134868428Y-72466174D01*
X134868428Y-72466174D02*
X134700069Y-72634533D01*
X134700069Y-72634533D02*
X134531711Y-72735548D01*
X134531711Y-72735548D02*
X134430695Y-72769220D01*
X134430695Y-72769220D02*
X134363352Y-72769220D01*
X134363352Y-72769220D02*
X134262337Y-72735548D01*
X134262337Y-72735548D02*
X134194993Y-72668204D01*
X134194993Y-72668204D02*
X134161321Y-72567189D01*
X134161321Y-72567189D02*
X134161321Y-72499846D01*
X134161321Y-72499846D02*
X134194993Y-72398830D01*
X134194993Y-72398830D02*
X134296008Y-72230472D01*
X134296008Y-72230472D02*
X134464367Y-72062113D01*
X134464367Y-72062113D02*
X134632726Y-71961098D01*
X134632726Y-71961098D02*
X134733741Y-71927426D01*
X134733741Y-71927426D02*
X134801085Y-71927426D01*
X134801085Y-71927426D02*
X134902100Y-71961098D01*
X131993754Y-84329456D02*
X131421335Y-84228441D01*
X131589693Y-84733517D02*
X130882587Y-84026410D01*
X130882587Y-84026410D02*
X131151961Y-83757036D01*
X131151961Y-83757036D02*
X131252976Y-83723364D01*
X131252976Y-83723364D02*
X131320319Y-83723364D01*
X131320319Y-83723364D02*
X131421335Y-83757036D01*
X131421335Y-83757036D02*
X131522350Y-83858051D01*
X131522350Y-83858051D02*
X131556022Y-83959067D01*
X131556022Y-83959067D02*
X131556022Y-84026410D01*
X131556022Y-84026410D02*
X131522350Y-84127425D01*
X131522350Y-84127425D02*
X131252976Y-84396799D01*
X131522350Y-83386647D02*
X131993754Y-82915242D01*
X131993754Y-82915242D02*
X132397815Y-83925395D01*
X124468394Y-84098170D02*
X124131676Y-84434888D01*
X124603081Y-83492079D02*
X124468394Y-84098170D01*
X124468394Y-84098170D02*
X125074485Y-83963483D01*
X125209172Y-84232857D02*
X125276516Y-84232857D01*
X125276516Y-84232857D02*
X125377531Y-84266529D01*
X125377531Y-84266529D02*
X125545890Y-84434888D01*
X125545890Y-84434888D02*
X125579562Y-84535903D01*
X125579562Y-84535903D02*
X125579562Y-84603246D01*
X125579562Y-84603246D02*
X125545890Y-84704262D01*
X125545890Y-84704262D02*
X125478546Y-84771605D01*
X125478546Y-84771605D02*
X125343859Y-84838949D01*
X125343859Y-84838949D02*
X124535737Y-84838949D01*
X124535737Y-84838949D02*
X124973470Y-85276681D01*
X124753333Y-65972319D02*
X124420000Y-65496128D01*
X124181905Y-65972319D02*
X124181905Y-64972319D01*
X124181905Y-64972319D02*
X124562857Y-64972319D01*
X124562857Y-64972319D02*
X124658095Y-65019938D01*
X124658095Y-65019938D02*
X124705714Y-65067557D01*
X124705714Y-65067557D02*
X124753333Y-65162795D01*
X124753333Y-65162795D02*
X124753333Y-65305652D01*
X124753333Y-65305652D02*
X124705714Y-65400890D01*
X124705714Y-65400890D02*
X124658095Y-65448509D01*
X124658095Y-65448509D02*
X124562857Y-65496128D01*
X124562857Y-65496128D02*
X124181905Y-65496128D01*
X125086667Y-64972319D02*
X125705714Y-64972319D01*
X125705714Y-64972319D02*
X125372381Y-65353271D01*
X125372381Y-65353271D02*
X125515238Y-65353271D01*
X125515238Y-65353271D02*
X125610476Y-65400890D01*
X125610476Y-65400890D02*
X125658095Y-65448509D01*
X125658095Y-65448509D02*
X125705714Y-65543747D01*
X125705714Y-65543747D02*
X125705714Y-65781842D01*
X125705714Y-65781842D02*
X125658095Y-65877080D01*
X125658095Y-65877080D02*
X125610476Y-65924700D01*
X125610476Y-65924700D02*
X125515238Y-65972319D01*
X125515238Y-65972319D02*
X125229524Y-65972319D01*
X125229524Y-65972319D02*
X125134286Y-65924700D01*
X125134286Y-65924700D02*
X125086667Y-65877080D01*
X140613266Y-75385246D02*
X140613266Y-75452590D01*
X140613266Y-75452590D02*
X140545922Y-75587277D01*
X140545922Y-75587277D02*
X140478579Y-75654620D01*
X140478579Y-75654620D02*
X140343892Y-75721964D01*
X140343892Y-75721964D02*
X140209205Y-75721964D01*
X140209205Y-75721964D02*
X140108190Y-75688292D01*
X140108190Y-75688292D02*
X139939831Y-75587277D01*
X139939831Y-75587277D02*
X139838816Y-75486262D01*
X139838816Y-75486262D02*
X139737800Y-75317903D01*
X139737800Y-75317903D02*
X139704129Y-75216888D01*
X139704129Y-75216888D02*
X139704129Y-75082201D01*
X139704129Y-75082201D02*
X139771472Y-74947514D01*
X139771472Y-74947514D02*
X139838816Y-74880170D01*
X139838816Y-74880170D02*
X139973503Y-74812827D01*
X139973503Y-74812827D02*
X140040846Y-74812827D01*
X141354044Y-74779155D02*
X140949983Y-75183216D01*
X141152014Y-74981185D02*
X140444907Y-74274079D01*
X140444907Y-74274079D02*
X140478579Y-74442437D01*
X140478579Y-74442437D02*
X140478579Y-74577124D01*
X140478579Y-74577124D02*
X140444907Y-74678140D01*
X140882640Y-73836346D02*
X141354045Y-73364941D01*
X141354045Y-73364941D02*
X141758106Y-74375094D01*
X130806108Y-74862403D02*
X130806108Y-74929747D01*
X130806108Y-74929747D02*
X130738764Y-75064434D01*
X130738764Y-75064434D02*
X130671421Y-75131777D01*
X130671421Y-75131777D02*
X130536734Y-75199121D01*
X130536734Y-75199121D02*
X130402047Y-75199121D01*
X130402047Y-75199121D02*
X130301032Y-75165449D01*
X130301032Y-75165449D02*
X130132673Y-75064434D01*
X130132673Y-75064434D02*
X130031658Y-74963419D01*
X130031658Y-74963419D02*
X129930642Y-74795060D01*
X129930642Y-74795060D02*
X129896971Y-74694045D01*
X129896971Y-74694045D02*
X129896971Y-74559358D01*
X129896971Y-74559358D02*
X129964314Y-74424671D01*
X129964314Y-74424671D02*
X130031658Y-74357327D01*
X130031658Y-74357327D02*
X130166345Y-74289984D01*
X130166345Y-74289984D02*
X130233688Y-74289984D01*
X130503062Y-74020610D02*
X130503062Y-73953266D01*
X130503062Y-73953266D02*
X130536734Y-73852251D01*
X130536734Y-73852251D02*
X130705093Y-73683892D01*
X130705093Y-73683892D02*
X130806108Y-73650220D01*
X130806108Y-73650220D02*
X130873451Y-73650220D01*
X130873451Y-73650220D02*
X130974467Y-73683892D01*
X130974467Y-73683892D02*
X131041810Y-73751236D01*
X131041810Y-73751236D02*
X131109154Y-73885923D01*
X131109154Y-73885923D02*
X131109154Y-74694045D01*
X131109154Y-74694045D02*
X131546886Y-74256312D01*
X131681574Y-73178816D02*
X132152978Y-73650220D01*
X131243841Y-73077800D02*
X131580558Y-73751235D01*
X131580558Y-73751235D02*
X132018291Y-73313503D01*
X138412381Y-63866009D02*
X138079048Y-63866009D01*
X138079048Y-64389819D02*
X138079048Y-63389819D01*
X138079048Y-63389819D02*
X138555238Y-63389819D01*
X138936191Y-64389819D02*
X138936191Y-63389819D01*
X139412381Y-64389819D02*
X139412381Y-63389819D01*
X139412381Y-63389819D02*
X139983809Y-64389819D01*
X139983809Y-64389819D02*
X139983809Y-63389819D01*
X140983809Y-63437438D02*
X140888571Y-63389819D01*
X140888571Y-63389819D02*
X140745714Y-63389819D01*
X140745714Y-63389819D02*
X140602857Y-63437438D01*
X140602857Y-63437438D02*
X140507619Y-63532676D01*
X140507619Y-63532676D02*
X140460000Y-63627914D01*
X140460000Y-63627914D02*
X140412381Y-63818390D01*
X140412381Y-63818390D02*
X140412381Y-63961247D01*
X140412381Y-63961247D02*
X140460000Y-64151723D01*
X140460000Y-64151723D02*
X140507619Y-64246961D01*
X140507619Y-64246961D02*
X140602857Y-64342200D01*
X140602857Y-64342200D02*
X140745714Y-64389819D01*
X140745714Y-64389819D02*
X140840952Y-64389819D01*
X140840952Y-64389819D02*
X140983809Y-64342200D01*
X140983809Y-64342200D02*
X141031428Y-64294580D01*
X141031428Y-64294580D02*
X141031428Y-63961247D01*
X141031428Y-63961247D02*
X140840952Y-63961247D01*
X141460000Y-63866009D02*
X141793333Y-63866009D01*
X141936190Y-64389819D02*
X141460000Y-64389819D01*
X141460000Y-64389819D02*
X141460000Y-63389819D01*
X141460000Y-63389819D02*
X141936190Y-63389819D01*
X142936190Y-64389819D02*
X142602857Y-63913628D01*
X142364762Y-64389819D02*
X142364762Y-63389819D01*
X142364762Y-63389819D02*
X142745714Y-63389819D01*
X142745714Y-63389819D02*
X142840952Y-63437438D01*
X142840952Y-63437438D02*
X142888571Y-63485057D01*
X142888571Y-63485057D02*
X142936190Y-63580295D01*
X142936190Y-63580295D02*
X142936190Y-63723152D01*
X142936190Y-63723152D02*
X142888571Y-63818390D01*
X142888571Y-63818390D02*
X142840952Y-63866009D01*
X142840952Y-63866009D02*
X142745714Y-63913628D01*
X142745714Y-63913628D02*
X142364762Y-63913628D01*
X143317143Y-63485057D02*
X143364762Y-63437438D01*
X143364762Y-63437438D02*
X143460000Y-63389819D01*
X143460000Y-63389819D02*
X143698095Y-63389819D01*
X143698095Y-63389819D02*
X143793333Y-63437438D01*
X143793333Y-63437438D02*
X143840952Y-63485057D01*
X143840952Y-63485057D02*
X143888571Y-63580295D01*
X143888571Y-63580295D02*
X143888571Y-63675533D01*
X143888571Y-63675533D02*
X143840952Y-63818390D01*
X143840952Y-63818390D02*
X143269524Y-64389819D01*
X143269524Y-64389819D02*
X143888571Y-64389819D01*
D12*
%TO.C,R1*%
X155954385Y-77475734D02*
X155737104Y-77693015D01*
X155416984Y-76938333D02*
X155199703Y-77155614D01*
%TO.C,U2*%
X147820000Y-65025000D02*
X147820000Y-65285000D01*
X147820000Y-65285000D02*
X146170000Y-65285000D01*
X147820000Y-70475000D02*
X147820000Y-70215000D01*
X150570000Y-65025000D02*
X147820000Y-65025000D01*
X150570000Y-65025000D02*
X153320000Y-65025000D01*
X150570000Y-70475000D02*
X147820000Y-70475000D01*
X150570000Y-70475000D02*
X153320000Y-70475000D01*
X153320000Y-65025000D02*
X153320000Y-65285000D01*
X153320000Y-70475000D02*
X153320000Y-70215000D01*
%TO.C,R6*%
X126526359Y-72197500D02*
X126833641Y-72197500D01*
X126526359Y-72957500D02*
X126833641Y-72957500D01*
%TO.C,USB2*%
X127120000Y-87925000D02*
X128170000Y-87925000D01*
X127120000Y-90425000D02*
X127120000Y-87925000D01*
X128170000Y-87925000D02*
X128170000Y-86935000D01*
X128290000Y-92395000D02*
X132170000Y-92395000D01*
X133340000Y-87925000D02*
X132290000Y-87925000D01*
X133340000Y-90425000D02*
X133340000Y-87925000D01*
%TO.C,USB1*%
X144520000Y-87935000D02*
X145570000Y-87935000D01*
X144520000Y-90435000D02*
X144520000Y-87935000D01*
X145570000Y-87935000D02*
X145570000Y-86945000D01*
X145690000Y-92405000D02*
X149570000Y-92405000D01*
X150740000Y-87935000D02*
X149690000Y-87935000D01*
X150740000Y-90435000D02*
X150740000Y-87935000D01*
%TO.C,C11*%
X144378307Y-80019190D02*
X144530810Y-80171693D01*
X143869190Y-80528307D02*
X144021693Y-80680810D01*
%TO.C,J3*%
X120925000Y-92280000D02*
X120925000Y-91645000D01*
X121560000Y-92280000D02*
X120925000Y-92280000D01*
%TO.C,C28*%
X139192661Y-76489581D02*
X139345164Y-76337078D01*
X139701778Y-76998698D02*
X139854281Y-76846195D01*
%TO.C,R4*%
X123340000Y-69313641D02*
X123340000Y-69006359D01*
X124100000Y-69313641D02*
X124100000Y-69006359D01*
%TO.C,U1*%
X143981104Y-77974944D02*
X144440723Y-77515325D01*
X149546034Y-73329252D02*
X149086415Y-72869633D01*
X144440723Y-78434563D02*
X143981104Y-77974944D01*
X153732107Y-77515325D02*
X154191726Y-77974944D01*
X148626796Y-82620636D02*
X149086415Y-83080255D01*
X154191726Y-77974944D02*
X153732107Y-78434563D01*
X149086415Y-83080255D02*
X149546034Y-82620636D01*
%TO.C,C10*%
X154576234Y-76487367D02*
X154728737Y-76334864D01*
X155085351Y-76996484D02*
X155237854Y-76843981D01*
%TO.C,C6*%
X153299190Y-73811693D02*
X153451693Y-73659190D01*
X153808307Y-74320810D02*
X153960810Y-74168307D01*
%TO.C,J2*%
X156935000Y-89740000D02*
X156935000Y-90375000D01*
X156300000Y-89740000D02*
X156935000Y-89740000D01*
%TO.C,FINGER5R1*%
X120925000Y-81780000D02*
X120925000Y-82830000D01*
X118425000Y-81780000D02*
X120925000Y-81780000D01*
X120925000Y-82830000D02*
X121915000Y-82830000D01*
X116455000Y-82950000D02*
X116455000Y-86830000D01*
X120925000Y-88000000D02*
X120925000Y-86950000D01*
X118425000Y-88000000D02*
X120925000Y-88000000D01*
%TO.C,R2*%
X144222659Y-81749940D02*
X144439940Y-81532659D01*
X144760060Y-82287341D02*
X144977341Y-82070060D01*
%TO.C,FingerAux1*%
X128470000Y-61740000D02*
X127420000Y-61740000D01*
X128470000Y-59240000D02*
X128470000Y-61740000D01*
X127420000Y-61740000D02*
X127420000Y-62730000D01*
X127300000Y-57270000D02*
X119420000Y-57270000D01*
X118250000Y-61740000D02*
X119300000Y-61740000D01*
X118250000Y-59240000D02*
X118250000Y-61740000D01*
%TO.C,FINGER4*%
X159670000Y-61740000D02*
X158620000Y-61740000D01*
X159670000Y-59240000D02*
X159670000Y-61740000D01*
X158620000Y-61740000D02*
X158620000Y-62730000D01*
X158500000Y-57270000D02*
X154620000Y-57270000D01*
X153450000Y-61740000D02*
X154500000Y-61740000D01*
X153450000Y-59240000D02*
X153450000Y-61740000D01*
%TO.C,R9*%
X150132659Y-72089940D02*
X150349940Y-71872659D01*
X150670060Y-72627341D02*
X150887341Y-72410060D01*
%TO.C,C25*%
X130800810Y-83508307D02*
X130648307Y-83660810D01*
X130291693Y-82999190D02*
X130139190Y-83151693D01*
%TO.C,C3*%
X151626234Y-81407367D02*
X151778737Y-81254864D01*
X152135351Y-81916484D02*
X152287854Y-81763981D01*
%TO.C,C18*%
X139789190Y-78541693D02*
X139941693Y-78389190D01*
X140298307Y-79050810D02*
X140450810Y-78898307D01*
%TO.C,C16*%
X129707836Y-66957500D02*
X129492164Y-66957500D01*
X129707836Y-66237500D02*
X129492164Y-66237500D01*
%TO.C,C27*%
X137409190Y-73021693D02*
X137561693Y-72869190D01*
X137918307Y-73530810D02*
X138070810Y-73378307D01*
%TO.C,C8*%
X146220810Y-83428307D02*
X146068307Y-83580810D01*
X145711693Y-82919190D02*
X145559190Y-83071693D01*
%TO.C,C13*%
X128747836Y-66037500D02*
X128532164Y-66037500D01*
X128747836Y-65317500D02*
X128532164Y-65317500D01*
%TO.C,R5*%
X129773641Y-71430000D02*
X129466359Y-71430000D01*
X129773641Y-70670000D02*
X129466359Y-70670000D01*
%TO.C,C22*%
X130150810Y-82848307D02*
X129998307Y-83000810D01*
X129641693Y-82339190D02*
X129489190Y-82491693D01*
%TO.C,C26*%
X138069190Y-73671693D02*
X138221693Y-73519190D01*
X138578307Y-74180810D02*
X138730810Y-74028307D01*
%TO.C,C20*%
X136250810Y-82478307D02*
X136098307Y-82630810D01*
X135741693Y-81969190D02*
X135589190Y-82121693D01*
%TO.C,Y1*%
X144260940Y-81512513D02*
X141927487Y-79179060D01*
X141927487Y-79179060D02*
X139099060Y-82007487D01*
%TO.C,FINGER1*%
X136270000Y-61740000D02*
X135220000Y-61740000D01*
X136270000Y-59240000D02*
X136270000Y-61740000D01*
X135220000Y-61740000D02*
X135220000Y-62730000D01*
X135100000Y-57270000D02*
X131220000Y-57270000D01*
X130050000Y-61740000D02*
X131100000Y-61740000D01*
X130050000Y-59240000D02*
X130050000Y-61740000D01*
%TO.C,C14*%
X124090000Y-66919664D02*
X124090000Y-67135336D01*
X123370000Y-66919664D02*
X123370000Y-67135336D01*
%TO.C,C9*%
X152649190Y-73151693D02*
X152801693Y-72999190D01*
X153158307Y-73660810D02*
X153310810Y-73508307D01*
%TO.C,C19*%
X128948307Y-80099190D02*
X129100810Y-80251693D01*
X128439190Y-80608307D02*
X128591693Y-80760810D01*
%TO.C,FINGER3*%
X151870000Y-61740000D02*
X150820000Y-61740000D01*
X151870000Y-59240000D02*
X151870000Y-61740000D01*
X150820000Y-61740000D02*
X150820000Y-62730000D01*
X150700000Y-57270000D02*
X146820000Y-57270000D01*
X145650000Y-61740000D02*
X146700000Y-61740000D01*
X145650000Y-59240000D02*
X145650000Y-61740000D01*
%TO.C,C5*%
X145127854Y-75963981D02*
X144975351Y-76116484D01*
X144618737Y-75454864D02*
X144466234Y-75607367D01*
%TO.C,C12*%
X143620810Y-83388307D02*
X143468307Y-83540810D01*
X143111693Y-82879190D02*
X142959190Y-83031693D01*
%TO.C,R8*%
X140580812Y-77477948D02*
X140363531Y-77695229D01*
X140043411Y-76940547D02*
X139826130Y-77157828D01*
%TO.C,C23*%
X137872661Y-75169581D02*
X138025164Y-75017078D01*
X138381778Y-75678698D02*
X138534281Y-75526195D01*
D10*
%TO.C,J1*%
X135180000Y-91936600D02*
X142480000Y-91936600D01*
X138430000Y-91550000D02*
X138780000Y-91200000D01*
X138780000Y-91200000D02*
X139130000Y-91550000D01*
X138780000Y-91936600D02*
X138780000Y-91200000D01*
D11*
X135259540Y-93536800D02*
G75*
G03*
X135259540Y-93536800I-79540J0D01*
G01*
D12*
%TO.C,FINGER5L1*%
X156635000Y-88220000D02*
X156635000Y-87170000D01*
X159135000Y-88220000D02*
X156635000Y-88220000D01*
X156635000Y-87170000D02*
X155645000Y-87170000D01*
X161105000Y-87050000D02*
X161105000Y-83170000D01*
X156635000Y-82000000D02*
X156635000Y-83050000D01*
X159135000Y-82000000D02*
X156635000Y-82000000D01*
%TO.C,C7*%
X153256234Y-75177367D02*
X153408737Y-75024864D01*
X153765351Y-75686484D02*
X153917854Y-75533981D01*
%TO.C,U4*%
X137270000Y-65035000D02*
X137270000Y-65295000D01*
X137270000Y-65295000D02*
X135620000Y-65295000D01*
X137270000Y-70485000D02*
X137270000Y-70225000D01*
X140020000Y-65035000D02*
X137270000Y-65035000D01*
X140020000Y-65035000D02*
X142770000Y-65035000D01*
X140020000Y-70485000D02*
X137270000Y-70485000D01*
X140020000Y-70485000D02*
X142770000Y-70485000D01*
X142770000Y-65035000D02*
X142770000Y-65295000D01*
X142770000Y-70485000D02*
X142770000Y-70225000D01*
%TO.C,U3*%
X128450000Y-66410000D02*
X128450000Y-66670000D01*
X124430000Y-66410000D02*
X124690000Y-66410000D01*
X124430000Y-66410000D02*
X124430000Y-66670000D01*
X128450000Y-71830000D02*
X128450000Y-71570000D01*
X128450000Y-71830000D02*
X128190000Y-71830000D01*
X124430000Y-71830000D02*
X124430000Y-71570000D01*
X124430000Y-71830000D02*
X124690000Y-71830000D01*
%TO.C,C4*%
X145570810Y-82768307D02*
X145418307Y-82920810D01*
X145061693Y-82259190D02*
X144909190Y-82411693D01*
%TO.C,U5*%
X128628261Y-77996416D02*
X129087880Y-77536797D01*
X134193191Y-73350724D02*
X133733572Y-72891105D01*
X129087880Y-78456035D02*
X128628261Y-77996416D01*
X138379264Y-77536797D02*
X138838883Y-77996416D01*
X133273953Y-82642108D02*
X133733572Y-83101727D01*
X138838883Y-77996416D02*
X138379264Y-78456035D01*
X133733572Y-83101727D02*
X134193191Y-82642108D01*
%TO.C,C1*%
X153916234Y-75827367D02*
X154068737Y-75674864D01*
X154425351Y-76336484D02*
X154577854Y-76183981D01*
%TO.C,Y3*%
X128790000Y-69557500D02*
X130390000Y-69557500D01*
X130390000Y-69557500D02*
X130390000Y-67157500D01*
X128790000Y-67157500D02*
X128790000Y-69557500D01*
%TO.C,C15*%
X129707836Y-70477500D02*
X129492164Y-70477500D01*
X129707836Y-69757500D02*
X129492164Y-69757500D01*
%TO.C,C21*%
X128200810Y-83468307D02*
X128048307Y-83620810D01*
X127691693Y-82959190D02*
X127539190Y-83111693D01*
%TO.C,C2*%
X154157854Y-79893981D02*
X154005351Y-80046484D01*
X153648737Y-79384864D02*
X153496234Y-79537367D01*
%TO.C,R10*%
X132459940Y-72337341D02*
X132242659Y-72120060D01*
X132997341Y-71799940D02*
X132780060Y-71582659D01*
%TO.C,R7*%
X128802659Y-81829940D02*
X129019940Y-81612659D01*
X129340060Y-82367341D02*
X129557341Y-82150060D01*
%TO.C,Y2*%
X128840940Y-81592513D02*
X126507487Y-79259060D01*
X126507487Y-79259060D02*
X123679060Y-82087487D01*
%TO.C,R3*%
X126646359Y-65287500D02*
X126953641Y-65287500D01*
X126646359Y-66047500D02*
X126953641Y-66047500D01*
%TO.C,C17*%
X138532661Y-75829581D02*
X138685164Y-75677078D01*
X139041778Y-76338698D02*
X139194281Y-76186195D01*
%TO.C,C24*%
X129767225Y-75991880D02*
X129614722Y-76144383D01*
X129258108Y-75482763D02*
X129105605Y-75635266D01*
%TO.C,FINGER2*%
X144070000Y-61740000D02*
X143020000Y-61740000D01*
X144070000Y-59240000D02*
X144070000Y-61740000D01*
X143020000Y-61740000D02*
X143020000Y-62730000D01*
X142900000Y-57270000D02*
X139020000Y-57270000D01*
X137850000Y-61740000D02*
X138900000Y-61740000D01*
X137850000Y-59240000D02*
X137850000Y-61740000D01*
%TD*%
M02*
