%TF.GenerationSoftware,KiCad,Pcbnew,7.0.7*%
%TF.CreationDate,2023-12-03T17:34:17+00:00*%
%TF.ProjectId,tundraIOExpansion,74756e64-7261-4494-9f45-7870616e7369,rev?*%
%TF.SameCoordinates,Original*%
%TF.FileFunction,Copper,L3,Inr*%
%TF.FilePolarity,Positive*%
%FSLAX46Y46*%
G04 Gerber Fmt 4.6, Leading zero omitted, Abs format (unit mm)*
G04 Created by KiCad (PCBNEW 7.0.7) date 2023-12-03 17:34:17*
%MOMM*%
%LPD*%
G01*
G04 APERTURE LIST*
%TA.AperFunction,ViaPad*%
%ADD10C,0.500000*%
%TD*%
G04 APERTURE END LIST*
D10*
%TO.N,Net-(J2-SWCLK)*%
X154390000Y-92350000D03*
X153430000Y-89580000D03*
%TO.N,GND*%
X151580000Y-91030000D03*
%TO.N,Net-(USB2-Pin_4)*%
X131547312Y-71972688D03*
X131740000Y-88970000D03*
%TO.N,Net-(USB1-Pin_4)*%
X150320000Y-71350000D03*
X149902746Y-87162746D03*
%TO.N,+3V3*%
X147260000Y-60910000D03*
X136790000Y-82470000D03*
X130130000Y-71737500D03*
X142550000Y-65850000D03*
X151080000Y-82460000D03*
X119890000Y-86400000D03*
X130640862Y-81531776D03*
X139460000Y-60910000D03*
X157860000Y-83600000D03*
X127196222Y-68294995D03*
X129290000Y-74980000D03*
X137572700Y-74697300D03*
X138088344Y-78093512D03*
X131660000Y-60900000D03*
X123700000Y-70370000D03*
X152557004Y-74947004D03*
X126160000Y-73310000D03*
X149000000Y-73123624D03*
X153100000Y-65840000D03*
X155050000Y-60880000D03*
X156300000Y-89530000D03*
X141120000Y-76420000D03*
X144620000Y-74910000D03*
X133680000Y-74410000D03*
X145970000Y-81520000D03*
X143230000Y-91910000D03*
X120710000Y-92100000D03*
X156480000Y-76390000D03*
X152560000Y-78080000D03*
%TO.N,GND*%
X131250000Y-79070000D03*
X135040000Y-83180000D03*
X124870000Y-81990000D03*
X119880000Y-83400000D03*
X125683500Y-67910000D03*
X133733572Y-77996416D03*
X150260000Y-60910000D03*
X152870000Y-80650000D03*
X127638858Y-81663223D03*
X126729207Y-67774225D03*
X128710000Y-88930000D03*
X154440000Y-74510000D03*
X134670000Y-60880000D03*
X157850000Y-86610000D03*
X128580000Y-75670000D03*
X139070000Y-74470000D03*
X148240000Y-69660000D03*
X140970000Y-77870000D03*
X149090000Y-77970000D03*
X123670000Y-92490000D03*
X158050000Y-60880000D03*
X144370000Y-83470000D03*
X142450000Y-60900000D03*
X143058858Y-81583223D03*
X143940000Y-75610000D03*
X134680000Y-89760000D03*
X146880000Y-79260000D03*
X129970000Y-65670000D03*
X137680000Y-69670000D03*
X146140000Y-89200000D03*
X140301142Y-81936777D03*
X128677000Y-83660000D03*
X134400000Y-92270000D03*
%TO.N,Net-(U1-VREG_VOUT)*%
X150300000Y-76150000D03*
X148170000Y-80260000D03*
%TO.N,D12-MI_MISO*%
X136072746Y-85702746D03*
X135030000Y-84670000D03*
%TO.N,D11-MI_MOSI*%
X145270000Y-86230000D03*
X146621520Y-78408481D03*
%TO.N,Net-(J3-~{RESET})*%
X124410000Y-89190000D03*
X122620000Y-92400000D03*
%TO.N,Net-(J3-SWCLK)*%
X122810000Y-88140000D03*
X122810000Y-89610000D03*
%TO.N,Net-(J2-SWDIO)*%
X154190000Y-89560000D03*
X155630000Y-92350000D03*
%TO.N,Net-(U1-USB_DM)*%
X151700000Y-77170000D03*
X147130000Y-89210000D03*
%TO.N,Net-(U1-USB_DP)*%
X148120000Y-86220000D03*
X151090000Y-76500000D03*
%TO.N,Net-(U5-USB_DM)*%
X136323976Y-77208064D03*
X129730000Y-86323000D03*
%TO.N,Net-(U5-USB_DP)*%
X135680979Y-76565068D03*
X130725434Y-86319997D03*
%TO.N,Net-(FINGER1-Pin_2)*%
X141450000Y-63080000D03*
X145027827Y-71367120D03*
%TO.N,Net-(FINGER1-Pin_3)*%
X140460000Y-60380000D03*
X145809392Y-71426843D03*
%TO.N,Net-(FINGER3-Pin_2)*%
X145500000Y-73790000D03*
X149260000Y-63030000D03*
%TO.N,Net-(FINGER3-Pin_3)*%
X146400000Y-73800000D03*
X149760000Y-66460000D03*
%TO.N,Net-(FINGER5L1-Pin_2)*%
X125665779Y-73805025D03*
X155160000Y-85590000D03*
X119870000Y-84400000D03*
X129050000Y-71950000D03*
%TO.N,Net-(FINGER5L1-Pin_3)*%
X155140000Y-84610000D03*
X122440000Y-85380000D03*
%TO.N,INTER_RP2040_UART_TX1*%
X147800000Y-76300000D03*
X129520000Y-73500000D03*
%TO.N,INTER_RP2040_UART_RX1*%
X145612254Y-77912254D03*
X130872745Y-74127253D03*
%TO.N,Net-(FingerAux1-Pin_1)*%
X126860000Y-63220000D03*
X133734409Y-81602529D03*
%TO.N,Net-(FingerAux1-Pin_2)*%
X125860000Y-63220000D03*
X133164598Y-80788322D03*
%TO.N,Net-(FingerAux1-Pin_3)*%
X124860000Y-63240000D03*
X132790000Y-80180000D03*
%TO.N,Net-(FingerAux1-Pin_4)*%
X135339786Y-79313989D03*
X123860000Y-63240000D03*
%TO.N,Net-(FingerAux1-Pin_5)*%
X135850000Y-78835465D03*
X122860000Y-63220000D03*
%TO.N,Net-(FingerAux1-Pin_6)*%
X121850000Y-63230000D03*
X137728853Y-80361853D03*
%TO.N,Net-(FingerAux1-Pin_7)*%
X136588221Y-78682524D03*
X120840000Y-63260000D03*
%TO.N,Net-(FingerAux1-Pin_8)*%
X119850000Y-63260000D03*
X136960000Y-78090000D03*
%TO.N,Net-(U5-VREG_VOUT)*%
X134819689Y-76184101D03*
X132064362Y-79225638D03*
%TD*%
%TA.AperFunction,Conductor*%
%TO.N,GND*%
G36*
X160782695Y-56590735D02*
G01*
X160825519Y-56594482D01*
X160951769Y-56606918D01*
X160971689Y-56610542D01*
X161038342Y-56628401D01*
X161131581Y-56656686D01*
X161147961Y-56662953D01*
X161215396Y-56694399D01*
X161218355Y-56695878D01*
X161302334Y-56740765D01*
X161308663Y-56744653D01*
X161374843Y-56790993D01*
X161378594Y-56793839D01*
X161450816Y-56853111D01*
X161455316Y-56857189D01*
X161512810Y-56914683D01*
X161516890Y-56919185D01*
X161576153Y-56991399D01*
X161579015Y-56995170D01*
X161625338Y-57061326D01*
X161629233Y-57067667D01*
X161674108Y-57151622D01*
X161675620Y-57154646D01*
X161707037Y-57222019D01*
X161713314Y-57238426D01*
X161713315Y-57238428D01*
X161713316Y-57238429D01*
X161741611Y-57331706D01*
X161759452Y-57398292D01*
X161763080Y-57418230D01*
X161775525Y-57544575D01*
X161779264Y-57587301D01*
X161779500Y-57592709D01*
X161779500Y-68087289D01*
X161779264Y-68092697D01*
X161775523Y-68135445D01*
X161763082Y-68261759D01*
X161759454Y-68281696D01*
X161741603Y-68348321D01*
X161713316Y-68441571D01*
X161707037Y-68457981D01*
X161675614Y-68525366D01*
X161674102Y-68528391D01*
X161629238Y-68612326D01*
X161625343Y-68618666D01*
X161579021Y-68684822D01*
X161576159Y-68688594D01*
X161516887Y-68760816D01*
X161512799Y-68765327D01*
X161455325Y-68822801D01*
X161450813Y-68826890D01*
X161378599Y-68886153D01*
X161374828Y-68889015D01*
X161308672Y-68935338D01*
X161302331Y-68939233D01*
X161218376Y-68984108D01*
X161215352Y-68985620D01*
X161147979Y-69017037D01*
X161131569Y-69023316D01*
X161038293Y-69051611D01*
X160971705Y-69069452D01*
X160951768Y-69073080D01*
X160825424Y-69085525D01*
X160785181Y-69089046D01*
X160782696Y-69089264D01*
X160777290Y-69089500D01*
X158611489Y-69089500D01*
X158423679Y-69110661D01*
X158420342Y-69110946D01*
X158338923Y-69115687D01*
X158318930Y-69122463D01*
X158276615Y-69127231D01*
X158276602Y-69127233D01*
X158077745Y-69172621D01*
X158074715Y-69173234D01*
X157999646Y-69186470D01*
X157983266Y-69194185D01*
X157948042Y-69202225D01*
X157739920Y-69275049D01*
X157737225Y-69275924D01*
X157670765Y-69295821D01*
X157657969Y-69303726D01*
X157639772Y-69310093D01*
X157629940Y-69313534D01*
X157629937Y-69313535D01*
X157413405Y-69417812D01*
X157356610Y-69442311D01*
X157347269Y-69449662D01*
X157326314Y-69459754D01*
X157104904Y-69598875D01*
X157061359Y-69624015D01*
X157055205Y-69630103D01*
X157040961Y-69639053D01*
X157040956Y-69639056D01*
X156817080Y-69817592D01*
X156788949Y-69838534D01*
X156785604Y-69842692D01*
X156777483Y-69849168D01*
X156777479Y-69849172D01*
X156553647Y-70073005D01*
X156543028Y-70083024D01*
X156541993Y-70084659D01*
X156539172Y-70087480D01*
X156329053Y-70350962D01*
X156149752Y-70636316D01*
X156003532Y-70939945D01*
X155892227Y-71258034D01*
X155892223Y-71258046D01*
X155817233Y-71586602D01*
X155817231Y-71586618D01*
X155779500Y-71921491D01*
X155779500Y-72258508D01*
X155817231Y-72593381D01*
X155817233Y-72593397D01*
X155892223Y-72921953D01*
X155892227Y-72921965D01*
X156003532Y-73240054D01*
X156149752Y-73543683D01*
X156149754Y-73543686D01*
X156329054Y-73829039D01*
X156460134Y-73993409D01*
X156539174Y-74092522D01*
X156541983Y-74095331D01*
X156542724Y-74096688D01*
X156553606Y-74106954D01*
X156671403Y-74224751D01*
X156777477Y-74330825D01*
X156785595Y-74337299D01*
X156788046Y-74340792D01*
X156817054Y-74362387D01*
X157040961Y-74540946D01*
X157043302Y-74542417D01*
X157055202Y-74549895D01*
X157059779Y-74555070D01*
X157104876Y-74581106D01*
X157326311Y-74720244D01*
X157326316Y-74720247D01*
X157347263Y-74730335D01*
X157354304Y-74736692D01*
X157413381Y-74762176D01*
X157516725Y-74811943D01*
X157629949Y-74866469D01*
X157657965Y-74876272D01*
X157667712Y-74883262D01*
X157737206Y-74904068D01*
X157739884Y-74904937D01*
X157852493Y-74944340D01*
X157948034Y-74977772D01*
X157948032Y-74977772D01*
X157948039Y-74977773D01*
X157948046Y-74977776D01*
X157983258Y-74985812D01*
X157995856Y-74992859D01*
X158074686Y-75006759D01*
X158077713Y-75007371D01*
X158276606Y-75052767D01*
X158276610Y-75052767D01*
X158276619Y-75052769D01*
X158318894Y-75057532D01*
X158334400Y-75064047D01*
X158420323Y-75069051D01*
X158423657Y-75069335D01*
X158611492Y-75090499D01*
X158611493Y-75090500D01*
X158611496Y-75090500D01*
X158779901Y-75090500D01*
X160777293Y-75090500D01*
X160782695Y-75090735D01*
X160825519Y-75094482D01*
X160951769Y-75106918D01*
X160971689Y-75110542D01*
X161038342Y-75128401D01*
X161131581Y-75156686D01*
X161147961Y-75162953D01*
X161215396Y-75194399D01*
X161218355Y-75195878D01*
X161302334Y-75240765D01*
X161308663Y-75244653D01*
X161374843Y-75290993D01*
X161378594Y-75293839D01*
X161450816Y-75353111D01*
X161455316Y-75357189D01*
X161512810Y-75414683D01*
X161516890Y-75419185D01*
X161576153Y-75491399D01*
X161579015Y-75495170D01*
X161625338Y-75561326D01*
X161629233Y-75567667D01*
X161674108Y-75651622D01*
X161675620Y-75654646D01*
X161707037Y-75722019D01*
X161713314Y-75738426D01*
X161713655Y-75739547D01*
X161741611Y-75831706D01*
X161759452Y-75898292D01*
X161763080Y-75918230D01*
X161775525Y-76044575D01*
X161779264Y-76087301D01*
X161779500Y-76092709D01*
X161779500Y-87968999D01*
X161770512Y-88186288D01*
X161761390Y-88395194D01*
X161760973Y-88400160D01*
X161733662Y-88619271D01*
X161706346Y-88826752D01*
X161705557Y-88831384D01*
X161660215Y-89047634D01*
X161614897Y-89252046D01*
X161613789Y-89256318D01*
X161550700Y-89468233D01*
X161487706Y-89668020D01*
X161486334Y-89671914D01*
X161405911Y-89878022D01*
X161325704Y-90071656D01*
X161324124Y-90075160D01*
X161226895Y-90274048D01*
X161130048Y-90460087D01*
X161128315Y-90463195D01*
X161014933Y-90653478D01*
X160902169Y-90830482D01*
X160900337Y-90833197D01*
X160771547Y-91013578D01*
X160643683Y-91180214D01*
X160641806Y-91182541D01*
X160498484Y-91351761D01*
X160355584Y-91507709D01*
X160197710Y-91665583D01*
X160041760Y-91808484D01*
X159872551Y-91951797D01*
X159870224Y-91953673D01*
X159703575Y-92081550D01*
X159523213Y-92210326D01*
X159520498Y-92212158D01*
X159343459Y-92324944D01*
X159153208Y-92438307D01*
X159150099Y-92440041D01*
X158964016Y-92536910D01*
X158765181Y-92634115D01*
X158761676Y-92635695D01*
X158567981Y-92715927D01*
X158361927Y-92796329D01*
X158358033Y-92797701D01*
X158158176Y-92860717D01*
X157946331Y-92923785D01*
X157942058Y-92924893D01*
X157737551Y-92970232D01*
X157521397Y-93015554D01*
X157516765Y-93016343D01*
X157309062Y-93043688D01*
X157090182Y-93070971D01*
X157085216Y-93071388D01*
X156875875Y-93080530D01*
X156659000Y-93089500D01*
X156251229Y-93089500D01*
X156184190Y-93069815D01*
X156138435Y-93017011D01*
X156128491Y-92947853D01*
X156157516Y-92884297D01*
X156163548Y-92877819D01*
X156186118Y-92855249D01*
X156220477Y-92820890D01*
X156245886Y-92780452D01*
X156310452Y-92677697D01*
X156310454Y-92677694D01*
X156310454Y-92677692D01*
X156310456Y-92677690D01*
X156366313Y-92518059D01*
X156366313Y-92518058D01*
X156366314Y-92518056D01*
X156385249Y-92350002D01*
X156385249Y-92349997D01*
X156366314Y-92181943D01*
X156310454Y-92022305D01*
X156310452Y-92022302D01*
X156220481Y-91879115D01*
X156220476Y-91879109D01*
X156100890Y-91759523D01*
X156100884Y-91759518D01*
X155957697Y-91669547D01*
X155957694Y-91669545D01*
X155798056Y-91613685D01*
X155630003Y-91594751D01*
X155629997Y-91594751D01*
X155461943Y-91613685D01*
X155302305Y-91669545D01*
X155302302Y-91669547D01*
X155159115Y-91759518D01*
X155097681Y-91820952D01*
X155036357Y-91854436D01*
X154966666Y-91849451D01*
X154922319Y-91820952D01*
X154909851Y-91808484D01*
X154860890Y-91759523D01*
X154860887Y-91759521D01*
X154860886Y-91759520D01*
X154860884Y-91759518D01*
X154717697Y-91669547D01*
X154717694Y-91669545D01*
X154558056Y-91613685D01*
X154390003Y-91594751D01*
X154389997Y-91594751D01*
X154221943Y-91613685D01*
X154062305Y-91669545D01*
X154062302Y-91669547D01*
X153919115Y-91759518D01*
X153919109Y-91759523D01*
X153799523Y-91879109D01*
X153799518Y-91879115D01*
X153709547Y-92022302D01*
X153709545Y-92022305D01*
X153653685Y-92181943D01*
X153634751Y-92349997D01*
X153634751Y-92350002D01*
X153653685Y-92518056D01*
X153709545Y-92677694D01*
X153709547Y-92677697D01*
X153799518Y-92820884D01*
X153799523Y-92820890D01*
X153856452Y-92877819D01*
X153889937Y-92939142D01*
X153884953Y-93008834D01*
X153843081Y-93064767D01*
X153777617Y-93089184D01*
X153768771Y-93089500D01*
X123291229Y-93089500D01*
X123224190Y-93069815D01*
X123178435Y-93017011D01*
X123168491Y-92947853D01*
X123197516Y-92884297D01*
X123203548Y-92877819D01*
X123210477Y-92870890D01*
X123232203Y-92836314D01*
X123300452Y-92727697D01*
X123300454Y-92727694D01*
X123300454Y-92727692D01*
X123300456Y-92727690D01*
X123356313Y-92568059D01*
X123356313Y-92568058D01*
X123356314Y-92568056D01*
X123375249Y-92400002D01*
X123375249Y-92399997D01*
X123356314Y-92231943D01*
X123303688Y-92081547D01*
X123300456Y-92072310D01*
X123300455Y-92072309D01*
X123300454Y-92072305D01*
X123300452Y-92072302D01*
X123298792Y-92069660D01*
X124620393Y-92069660D01*
X124621874Y-92078059D01*
X124649008Y-92231943D01*
X124650668Y-92241354D01*
X124719721Y-92401438D01*
X124719722Y-92401440D01*
X124719724Y-92401443D01*
X124772509Y-92472345D01*
X124823832Y-92541283D01*
X124957386Y-92653349D01*
X125113185Y-92731594D01*
X125282829Y-92771800D01*
X125282831Y-92771800D01*
X125413429Y-92771800D01*
X125413436Y-92771800D01*
X125543164Y-92756637D01*
X125706993Y-92697008D01*
X125852654Y-92601205D01*
X125972296Y-92474393D01*
X126059467Y-92323407D01*
X126109469Y-92156388D01*
X126119607Y-91982340D01*
X126106852Y-91910002D01*
X142474751Y-91910002D01*
X142493685Y-92078056D01*
X142549545Y-92237694D01*
X142549547Y-92237697D01*
X142639518Y-92380884D01*
X142639523Y-92380890D01*
X142759109Y-92500476D01*
X142759115Y-92500481D01*
X142902302Y-92590452D01*
X142902305Y-92590454D01*
X142902309Y-92590455D01*
X142902310Y-92590456D01*
X142933029Y-92601205D01*
X143061943Y-92646314D01*
X143229997Y-92665249D01*
X143230000Y-92665249D01*
X143230003Y-92665249D01*
X143398056Y-92646314D01*
X143428378Y-92635704D01*
X143557690Y-92590456D01*
X143557692Y-92590454D01*
X143557694Y-92590454D01*
X143557697Y-92590452D01*
X143700884Y-92500481D01*
X143700885Y-92500480D01*
X143700890Y-92500477D01*
X143820477Y-92380890D01*
X143825807Y-92372407D01*
X143910452Y-92237697D01*
X143910454Y-92237694D01*
X143910454Y-92237692D01*
X143910456Y-92237690D01*
X143966313Y-92078059D01*
X143966313Y-92078058D01*
X143966314Y-92078056D01*
X143967260Y-92069660D01*
X151740393Y-92069660D01*
X151741874Y-92078059D01*
X151769008Y-92231943D01*
X151770668Y-92241354D01*
X151839721Y-92401438D01*
X151839722Y-92401440D01*
X151839724Y-92401443D01*
X151892509Y-92472345D01*
X151943832Y-92541283D01*
X152077386Y-92653349D01*
X152233185Y-92731594D01*
X152402829Y-92771800D01*
X152402831Y-92771800D01*
X152533429Y-92771800D01*
X152533436Y-92771800D01*
X152663164Y-92756637D01*
X152826993Y-92697008D01*
X152972654Y-92601205D01*
X153092296Y-92474393D01*
X153179467Y-92323407D01*
X153229469Y-92156388D01*
X153239607Y-91982340D01*
X153209332Y-91810646D01*
X153140279Y-91650562D01*
X153130442Y-91637349D01*
X153036167Y-91510716D01*
X152902614Y-91398651D01*
X152902612Y-91398650D01*
X152746818Y-91320407D01*
X152746816Y-91320406D01*
X152746815Y-91320406D01*
X152577171Y-91280200D01*
X152446564Y-91280200D01*
X152333051Y-91293467D01*
X152316835Y-91295363D01*
X152316832Y-91295364D01*
X152153008Y-91354991D01*
X152153004Y-91354993D01*
X152007348Y-91450792D01*
X152007347Y-91450793D01*
X151887706Y-91577603D01*
X151887703Y-91577609D01*
X151800534Y-91728590D01*
X151800533Y-91728592D01*
X151800533Y-91728593D01*
X151796928Y-91740635D01*
X151750531Y-91895610D01*
X151750530Y-91895616D01*
X151743151Y-92022305D01*
X151740393Y-92069660D01*
X143967260Y-92069660D01*
X143985249Y-91910002D01*
X143985249Y-91909997D01*
X143966314Y-91741943D01*
X143929715Y-91637349D01*
X143910456Y-91582310D01*
X143910455Y-91582309D01*
X143910454Y-91582305D01*
X143910452Y-91582302D01*
X143820481Y-91439115D01*
X143820476Y-91439109D01*
X143700890Y-91319523D01*
X143700884Y-91319518D01*
X143557697Y-91229547D01*
X143557694Y-91229545D01*
X143398056Y-91173685D01*
X143230003Y-91154751D01*
X143229997Y-91154751D01*
X143061943Y-91173685D01*
X142902305Y-91229545D01*
X142902302Y-91229547D01*
X142759115Y-91319518D01*
X142759109Y-91319523D01*
X142639523Y-91439109D01*
X142639518Y-91439115D01*
X142549547Y-91582302D01*
X142549545Y-91582305D01*
X142493685Y-91741943D01*
X142474751Y-91909997D01*
X142474751Y-91910002D01*
X126106852Y-91910002D01*
X126089332Y-91810646D01*
X126020279Y-91650562D01*
X126010442Y-91637349D01*
X125916167Y-91510716D01*
X125782614Y-91398651D01*
X125782612Y-91398650D01*
X125626818Y-91320407D01*
X125626816Y-91320406D01*
X125626815Y-91320406D01*
X125457171Y-91280200D01*
X125326564Y-91280200D01*
X125213051Y-91293467D01*
X125196835Y-91295363D01*
X125196832Y-91295364D01*
X125033008Y-91354991D01*
X125033004Y-91354993D01*
X124887348Y-91450792D01*
X124887347Y-91450793D01*
X124767706Y-91577603D01*
X124767703Y-91577609D01*
X124680534Y-91728590D01*
X124680533Y-91728592D01*
X124680533Y-91728593D01*
X124676928Y-91740635D01*
X124630531Y-91895610D01*
X124630530Y-91895616D01*
X124623151Y-92022305D01*
X124620393Y-92069660D01*
X123298792Y-92069660D01*
X123210481Y-91929115D01*
X123210476Y-91929109D01*
X123090890Y-91809523D01*
X123090884Y-91809518D01*
X122947697Y-91719547D01*
X122947694Y-91719545D01*
X122788056Y-91663685D01*
X122620003Y-91644751D01*
X122619997Y-91644751D01*
X122451943Y-91663685D01*
X122292305Y-91719545D01*
X122292302Y-91719547D01*
X122149115Y-91809518D01*
X122149109Y-91809523D01*
X122029523Y-91929109D01*
X122029518Y-91929115D01*
X121939547Y-92072302D01*
X121939545Y-92072305D01*
X121883685Y-92231943D01*
X121864751Y-92399997D01*
X121864751Y-92400002D01*
X121883685Y-92568056D01*
X121939545Y-92727694D01*
X121939547Y-92727697D01*
X122029518Y-92870884D01*
X122029523Y-92870890D01*
X122036452Y-92877819D01*
X122069937Y-92939142D01*
X122064953Y-93008834D01*
X122023081Y-93064767D01*
X121957617Y-93089184D01*
X121948771Y-93089500D01*
X120901000Y-93089500D01*
X120897033Y-93089335D01*
X120851205Y-93087440D01*
X120785036Y-93065001D01*
X120741503Y-93010351D01*
X120734426Y-92940841D01*
X120766054Y-92878539D01*
X120826343Y-92843227D01*
X120842447Y-92840326D01*
X120878055Y-92836314D01*
X120878057Y-92836313D01*
X120878059Y-92836313D01*
X121037690Y-92780456D01*
X121037692Y-92780454D01*
X121037694Y-92780454D01*
X121037697Y-92780452D01*
X121180884Y-92690481D01*
X121180885Y-92690480D01*
X121180890Y-92690477D01*
X121300477Y-92570890D01*
X121302258Y-92568056D01*
X121390452Y-92427697D01*
X121390454Y-92427694D01*
X121390454Y-92427692D01*
X121390456Y-92427690D01*
X121446313Y-92268059D01*
X121446313Y-92268058D01*
X121446314Y-92268056D01*
X121465249Y-92100002D01*
X121465249Y-92099997D01*
X121446314Y-91931943D01*
X121403477Y-91809523D01*
X121390456Y-91772310D01*
X121390455Y-91772309D01*
X121390454Y-91772305D01*
X121390452Y-91772302D01*
X121300481Y-91629115D01*
X121300476Y-91629109D01*
X121180890Y-91509523D01*
X121180884Y-91509518D01*
X121040302Y-91421184D01*
X120994011Y-91368850D01*
X120983363Y-91299796D01*
X120987479Y-91280643D01*
X121029469Y-91140388D01*
X121034521Y-91053660D01*
X156820393Y-91053660D01*
X156850668Y-91225354D01*
X156919721Y-91385438D01*
X156919722Y-91385440D01*
X156919724Y-91385443D01*
X156974032Y-91458390D01*
X157023832Y-91525283D01*
X157157386Y-91637349D01*
X157313185Y-91715594D01*
X157482829Y-91755800D01*
X157482831Y-91755800D01*
X157613429Y-91755800D01*
X157613436Y-91755800D01*
X157743164Y-91740637D01*
X157906993Y-91681008D01*
X158052654Y-91585205D01*
X158172296Y-91458393D01*
X158259467Y-91307407D01*
X158309469Y-91140388D01*
X158319607Y-90966340D01*
X158289332Y-90794646D01*
X158220279Y-90634562D01*
X158210442Y-90621349D01*
X158116167Y-90494716D01*
X157982614Y-90382651D01*
X157982612Y-90382650D01*
X157826818Y-90304407D01*
X157826816Y-90304406D01*
X157826815Y-90304406D01*
X157657171Y-90264200D01*
X157526564Y-90264200D01*
X157413051Y-90277467D01*
X157396835Y-90279363D01*
X157396832Y-90279364D01*
X157233008Y-90338991D01*
X157233004Y-90338993D01*
X157087348Y-90434792D01*
X157087347Y-90434793D01*
X156967706Y-90561603D01*
X156967703Y-90561609D01*
X156880534Y-90712590D01*
X156830531Y-90879610D01*
X156830530Y-90879616D01*
X156820393Y-91053659D01*
X156820393Y-91053660D01*
X121034521Y-91053660D01*
X121039607Y-90966340D01*
X121009332Y-90794646D01*
X120940279Y-90634562D01*
X120930442Y-90621349D01*
X120836167Y-90494716D01*
X120702614Y-90382651D01*
X120702612Y-90382650D01*
X120546818Y-90304407D01*
X120546816Y-90304406D01*
X120546815Y-90304406D01*
X120377171Y-90264200D01*
X120246564Y-90264200D01*
X120133051Y-90277467D01*
X120116835Y-90279363D01*
X120116832Y-90279364D01*
X119953008Y-90338991D01*
X119953004Y-90338993D01*
X119807348Y-90434792D01*
X119807347Y-90434793D01*
X119687706Y-90561603D01*
X119687703Y-90561609D01*
X119600534Y-90712590D01*
X119550531Y-90879610D01*
X119550530Y-90879616D01*
X119540393Y-91053659D01*
X119540393Y-91053660D01*
X119570668Y-91225354D01*
X119639721Y-91385438D01*
X119639722Y-91385440D01*
X119639724Y-91385443D01*
X119694032Y-91458390D01*
X119743832Y-91525283D01*
X119877386Y-91637349D01*
X119917961Y-91657726D01*
X119949585Y-91673609D01*
X120000659Y-91721287D01*
X120017849Y-91789009D01*
X120010976Y-91825373D01*
X119973686Y-91931942D01*
X119954751Y-92099997D01*
X119954751Y-92100002D01*
X119973685Y-92268056D01*
X120029545Y-92427694D01*
X120029547Y-92427697D01*
X120119518Y-92570884D01*
X120119523Y-92570890D01*
X120239109Y-92690476D01*
X120239115Y-92690481D01*
X120382302Y-92780452D01*
X120382308Y-92780455D01*
X120382310Y-92780456D01*
X120525812Y-92830669D01*
X120582588Y-92871391D01*
X120608336Y-92936343D01*
X120594880Y-93004905D01*
X120546493Y-93055308D01*
X120479454Y-93071593D01*
X120474809Y-93071391D01*
X120469840Y-93070973D01*
X120250728Y-93043662D01*
X120043246Y-93016346D01*
X120038614Y-93015557D01*
X119822365Y-92970215D01*
X119617952Y-92924897D01*
X119613680Y-92923789D01*
X119401766Y-92860700D01*
X119201978Y-92797706D01*
X119198084Y-92796334D01*
X118991977Y-92715911D01*
X118798342Y-92635704D01*
X118794838Y-92634124D01*
X118595951Y-92536895D01*
X118409911Y-92440049D01*
X118406803Y-92438315D01*
X118216530Y-92324938D01*
X118039488Y-92212150D01*
X118036815Y-92210346D01*
X117939255Y-92140690D01*
X117856421Y-92081547D01*
X117689785Y-91953683D01*
X117687473Y-91951819D01*
X117518237Y-91808483D01*
X117464806Y-91759523D01*
X117362289Y-91665583D01*
X117204416Y-91507710D01*
X117141555Y-91439109D01*
X117061512Y-91351757D01*
X116958003Y-91229545D01*
X116918193Y-91182541D01*
X116916325Y-91180224D01*
X116819207Y-91053659D01*
X116788452Y-91013578D01*
X116659645Y-90833173D01*
X116657866Y-90830536D01*
X116545061Y-90653469D01*
X116431691Y-90463208D01*
X116429957Y-90460099D01*
X116420741Y-90442396D01*
X116382762Y-90369437D01*
X116333089Y-90274016D01*
X116272063Y-90149186D01*
X116235880Y-90075174D01*
X116234303Y-90071676D01*
X116217406Y-90030884D01*
X116154078Y-89877998D01*
X116073662Y-89671909D01*
X116072297Y-89668033D01*
X116054000Y-89610002D01*
X122054751Y-89610002D01*
X122073685Y-89778056D01*
X122129545Y-89937694D01*
X122129547Y-89937697D01*
X122219518Y-90080884D01*
X122219523Y-90080890D01*
X122339109Y-90200476D01*
X122339115Y-90200481D01*
X122482302Y-90290452D01*
X122482305Y-90290454D01*
X122482309Y-90290455D01*
X122482310Y-90290456D01*
X122522177Y-90304406D01*
X122641943Y-90346314D01*
X122809997Y-90365249D01*
X122810000Y-90365249D01*
X122810003Y-90365249D01*
X122978056Y-90346314D01*
X123030906Y-90327821D01*
X123137690Y-90290456D01*
X123137692Y-90290454D01*
X123137694Y-90290454D01*
X123137697Y-90290452D01*
X123280884Y-90200481D01*
X123280885Y-90200480D01*
X123280890Y-90200477D01*
X123400477Y-90080890D01*
X123404064Y-90075181D01*
X123490452Y-89937697D01*
X123490454Y-89937694D01*
X123490454Y-89937692D01*
X123490456Y-89937690D01*
X123546313Y-89778059D01*
X123546313Y-89778057D01*
X123546314Y-89778055D01*
X123559373Y-89662153D01*
X123586439Y-89597739D01*
X123644034Y-89558183D01*
X123713871Y-89556046D01*
X123773777Y-89592004D01*
X123787585Y-89610062D01*
X123801134Y-89631624D01*
X123819523Y-89660890D01*
X123939109Y-89780476D01*
X123939115Y-89780481D01*
X124082302Y-89870452D01*
X124082305Y-89870454D01*
X124082309Y-89870455D01*
X124082310Y-89870456D01*
X124103804Y-89877977D01*
X124241943Y-89926314D01*
X124409997Y-89945249D01*
X124410000Y-89945249D01*
X124410001Y-89945249D01*
X124422663Y-89943822D01*
X124484547Y-89936849D01*
X124553368Y-89948903D01*
X124604748Y-89996251D01*
X124620547Y-90038536D01*
X124634996Y-90120476D01*
X124650668Y-90209354D01*
X124719721Y-90369438D01*
X124719722Y-90369440D01*
X124719724Y-90369443D01*
X124789530Y-90463208D01*
X124823832Y-90509283D01*
X124957386Y-90621349D01*
X125113185Y-90699594D01*
X125282829Y-90739800D01*
X125282831Y-90739800D01*
X125413429Y-90739800D01*
X125413436Y-90739800D01*
X125543164Y-90724637D01*
X125706993Y-90665008D01*
X125852654Y-90569205D01*
X125972296Y-90442393D01*
X126059467Y-90291407D01*
X126109469Y-90124388D01*
X126114521Y-90037660D01*
X151740393Y-90037660D01*
X151747009Y-90075181D01*
X151769102Y-90200476D01*
X151770668Y-90209354D01*
X151839721Y-90369438D01*
X151839722Y-90369440D01*
X151839724Y-90369443D01*
X151909530Y-90463208D01*
X151943832Y-90509283D01*
X152077386Y-90621349D01*
X152233185Y-90699594D01*
X152402829Y-90739800D01*
X152402831Y-90739800D01*
X152533429Y-90739800D01*
X152533436Y-90739800D01*
X152663164Y-90724637D01*
X152826993Y-90665008D01*
X152972654Y-90569205D01*
X153092296Y-90442393D01*
X153130607Y-90376034D01*
X153181172Y-90327821D01*
X153249779Y-90314597D01*
X153256910Y-90315746D01*
X153261940Y-90316312D01*
X153261941Y-90316313D01*
X153305916Y-90321267D01*
X153429997Y-90335249D01*
X153430000Y-90335249D01*
X153430003Y-90335249D01*
X153530835Y-90323887D01*
X153598059Y-90316313D01*
X153757690Y-90260456D01*
X153764992Y-90255867D01*
X153832226Y-90236866D01*
X153871920Y-90243819D01*
X154021939Y-90296313D01*
X154189997Y-90315249D01*
X154190000Y-90315249D01*
X154190003Y-90315249D01*
X154358056Y-90296314D01*
X154372074Y-90291409D01*
X154517690Y-90240456D01*
X154517692Y-90240454D01*
X154517694Y-90240454D01*
X154517697Y-90240452D01*
X154660884Y-90150481D01*
X154660885Y-90150480D01*
X154660890Y-90150477D01*
X154780477Y-90030890D01*
X154780481Y-90030884D01*
X154870452Y-89887697D01*
X154870454Y-89887694D01*
X154870454Y-89887692D01*
X154870456Y-89887690D01*
X154926313Y-89728059D01*
X154926313Y-89728058D01*
X154926314Y-89728056D01*
X154945249Y-89560002D01*
X154945249Y-89559997D01*
X154941869Y-89530002D01*
X155544751Y-89530002D01*
X155563685Y-89698056D01*
X155619545Y-89857694D01*
X155619547Y-89857697D01*
X155709518Y-90000884D01*
X155709523Y-90000890D01*
X155829109Y-90120476D01*
X155829115Y-90120481D01*
X155972302Y-90210452D01*
X155972305Y-90210454D01*
X155972309Y-90210455D01*
X155972310Y-90210456D01*
X156044913Y-90235860D01*
X156131943Y-90266314D01*
X156299997Y-90285249D01*
X156300000Y-90285249D01*
X156300003Y-90285249D01*
X156468056Y-90266314D01*
X156468059Y-90266313D01*
X156627690Y-90210456D01*
X156627692Y-90210454D01*
X156627694Y-90210454D01*
X156627697Y-90210452D01*
X156770884Y-90120481D01*
X156770885Y-90120480D01*
X156770890Y-90120477D01*
X156890477Y-90000890D01*
X156930186Y-89937694D01*
X156980452Y-89857697D01*
X156980454Y-89857694D01*
X156980454Y-89857692D01*
X156980456Y-89857690D01*
X157036313Y-89698059D01*
X157036313Y-89698058D01*
X157036314Y-89698056D01*
X157055249Y-89530002D01*
X157055249Y-89529997D01*
X157036314Y-89361943D01*
X157002768Y-89266074D01*
X156980456Y-89202310D01*
X156980455Y-89202309D01*
X156980454Y-89202305D01*
X156980452Y-89202302D01*
X156890481Y-89059115D01*
X156890476Y-89059109D01*
X156770890Y-88939523D01*
X156770884Y-88939518D01*
X156627697Y-88849547D01*
X156627694Y-88849545D01*
X156468056Y-88793685D01*
X156300003Y-88774751D01*
X156299997Y-88774751D01*
X156131943Y-88793685D01*
X155972305Y-88849545D01*
X155972302Y-88849547D01*
X155829115Y-88939518D01*
X155829109Y-88939523D01*
X155709523Y-89059109D01*
X155709518Y-89059115D01*
X155619547Y-89202302D01*
X155619545Y-89202305D01*
X155563685Y-89361943D01*
X155544751Y-89529997D01*
X155544751Y-89530002D01*
X154941869Y-89530002D01*
X154926314Y-89391943D01*
X154878857Y-89256318D01*
X154870456Y-89232310D01*
X154870455Y-89232309D01*
X154870454Y-89232305D01*
X154870452Y-89232302D01*
X154780481Y-89089115D01*
X154780476Y-89089109D01*
X154660890Y-88969523D01*
X154660884Y-88969518D01*
X154517697Y-88879547D01*
X154517694Y-88879545D01*
X154358056Y-88823685D01*
X154190003Y-88804751D01*
X154189997Y-88804751D01*
X154021943Y-88823685D01*
X153862306Y-88879545D01*
X153855002Y-88884135D01*
X153787764Y-88903132D01*
X153748080Y-88896181D01*
X153598057Y-88843686D01*
X153430003Y-88824751D01*
X153429997Y-88824751D01*
X153261943Y-88843685D01*
X153102305Y-88899545D01*
X153102302Y-88899547D01*
X152959115Y-88989518D01*
X152959109Y-88989523D01*
X152839523Y-89109109D01*
X152818656Y-89142319D01*
X152780965Y-89202305D01*
X152776673Y-89209135D01*
X152724338Y-89255426D01*
X152655284Y-89266074D01*
X152643084Y-89263821D01*
X152577171Y-89248200D01*
X152446564Y-89248200D01*
X152333051Y-89261467D01*
X152316835Y-89263363D01*
X152316832Y-89263364D01*
X152153008Y-89322991D01*
X152153004Y-89322993D01*
X152007348Y-89418792D01*
X152007347Y-89418793D01*
X151887706Y-89545603D01*
X151887704Y-89545607D01*
X151879119Y-89560477D01*
X151800534Y-89696590D01*
X151750531Y-89863610D01*
X151750530Y-89863616D01*
X151742805Y-89996251D01*
X151740393Y-90037660D01*
X126114521Y-90037660D01*
X126119607Y-89950340D01*
X126089332Y-89778646D01*
X126020279Y-89618562D01*
X126013952Y-89610064D01*
X125916167Y-89478716D01*
X125782614Y-89366651D01*
X125782612Y-89366650D01*
X125626818Y-89288407D01*
X125626816Y-89288406D01*
X125626815Y-89288406D01*
X125457171Y-89248200D01*
X125326564Y-89248200D01*
X125326563Y-89248200D01*
X125297489Y-89251598D01*
X125228618Y-89239828D01*
X125177044Y-89192691D01*
X125159877Y-89142319D01*
X125146314Y-89021944D01*
X125145466Y-89019521D01*
X125128139Y-88970002D01*
X130984751Y-88970002D01*
X131003685Y-89138056D01*
X131059545Y-89297694D01*
X131059547Y-89297697D01*
X131149518Y-89440884D01*
X131149523Y-89440890D01*
X131269109Y-89560476D01*
X131269115Y-89560481D01*
X131412302Y-89650452D01*
X131412305Y-89650454D01*
X131412309Y-89650455D01*
X131412310Y-89650456D01*
X131473634Y-89671914D01*
X131571943Y-89706314D01*
X131739997Y-89725249D01*
X131740000Y-89725249D01*
X131740003Y-89725249D01*
X131908056Y-89706314D01*
X131908059Y-89706313D01*
X132067690Y-89650456D01*
X132067692Y-89650454D01*
X132067694Y-89650454D01*
X132067697Y-89650452D01*
X132210884Y-89560481D01*
X132210885Y-89560480D01*
X132210890Y-89560477D01*
X132330477Y-89440890D01*
X132336315Y-89431599D01*
X132420452Y-89297697D01*
X132420454Y-89297694D01*
X132420454Y-89297692D01*
X132420456Y-89297690D01*
X132451139Y-89210002D01*
X146374751Y-89210002D01*
X146393685Y-89378056D01*
X146449545Y-89537694D01*
X146449547Y-89537697D01*
X146539518Y-89680884D01*
X146539523Y-89680890D01*
X146659109Y-89800476D01*
X146659115Y-89800481D01*
X146802302Y-89890452D01*
X146802305Y-89890454D01*
X146802309Y-89890455D01*
X146802310Y-89890456D01*
X146854946Y-89908874D01*
X146961943Y-89946314D01*
X147129997Y-89965249D01*
X147130000Y-89965249D01*
X147130003Y-89965249D01*
X147298056Y-89946314D01*
X147322682Y-89937697D01*
X147457690Y-89890456D01*
X147457692Y-89890454D01*
X147457694Y-89890454D01*
X147457697Y-89890452D01*
X147600884Y-89800481D01*
X147600885Y-89800480D01*
X147600890Y-89800477D01*
X147720477Y-89680890D01*
X147728564Y-89668020D01*
X147810452Y-89537697D01*
X147810454Y-89537694D01*
X147810454Y-89537692D01*
X147810456Y-89537690D01*
X147866313Y-89378059D01*
X147866313Y-89378058D01*
X147866314Y-89378056D01*
X147885249Y-89210002D01*
X147885249Y-89209997D01*
X147866314Y-89041943D01*
X147816486Y-88899544D01*
X147810456Y-88882310D01*
X147810455Y-88882309D01*
X147810454Y-88882305D01*
X147810452Y-88882302D01*
X147720481Y-88739115D01*
X147720476Y-88739109D01*
X147600890Y-88619523D01*
X147600884Y-88619518D01*
X147457697Y-88529547D01*
X147457694Y-88529545D01*
X147298056Y-88473685D01*
X147130003Y-88454751D01*
X147129997Y-88454751D01*
X146961943Y-88473685D01*
X146802305Y-88529545D01*
X146802302Y-88529547D01*
X146659115Y-88619518D01*
X146659109Y-88619523D01*
X146539523Y-88739109D01*
X146539518Y-88739115D01*
X146449547Y-88882302D01*
X146449545Y-88882305D01*
X146393685Y-89041943D01*
X146374751Y-89209997D01*
X146374751Y-89210002D01*
X132451139Y-89210002D01*
X132476313Y-89138059D01*
X132476313Y-89138058D01*
X132476314Y-89138056D01*
X132495249Y-88970002D01*
X132495249Y-88969997D01*
X132476314Y-88801943D01*
X132420454Y-88642305D01*
X132420452Y-88642302D01*
X132330481Y-88499115D01*
X132330476Y-88499109D01*
X132210890Y-88379523D01*
X132210884Y-88379518D01*
X132067697Y-88289547D01*
X132067694Y-88289545D01*
X131908056Y-88233685D01*
X131740003Y-88214751D01*
X131739997Y-88214751D01*
X131571943Y-88233685D01*
X131412305Y-88289545D01*
X131412302Y-88289547D01*
X131269115Y-88379518D01*
X131269109Y-88379523D01*
X131149523Y-88499109D01*
X131149518Y-88499115D01*
X131059547Y-88642302D01*
X131059545Y-88642305D01*
X131003685Y-88801943D01*
X130984751Y-88969997D01*
X130984751Y-88970002D01*
X125128139Y-88970002D01*
X125090456Y-88862310D01*
X125090455Y-88862309D01*
X125090454Y-88862305D01*
X125090452Y-88862302D01*
X125000481Y-88719115D01*
X125000476Y-88719109D01*
X124880890Y-88599523D01*
X124880884Y-88599518D01*
X124737697Y-88509547D01*
X124737694Y-88509545D01*
X124578056Y-88453685D01*
X124410003Y-88434751D01*
X124409997Y-88434751D01*
X124241943Y-88453685D01*
X124082305Y-88509545D01*
X124082302Y-88509547D01*
X123939115Y-88599518D01*
X123939109Y-88599523D01*
X123819523Y-88719109D01*
X123819518Y-88719115D01*
X123729547Y-88862302D01*
X123729545Y-88862305D01*
X123673685Y-89021944D01*
X123660626Y-89137847D01*
X123633559Y-89202261D01*
X123575964Y-89241816D01*
X123506127Y-89243953D01*
X123446221Y-89207994D01*
X123432415Y-89189939D01*
X123400477Y-89139110D01*
X123280890Y-89019523D01*
X123217979Y-88979993D01*
X123171689Y-88927659D01*
X123161041Y-88858605D01*
X123189416Y-88794757D01*
X123217980Y-88770006D01*
X123280890Y-88730477D01*
X123400477Y-88610890D01*
X123405414Y-88603033D01*
X123490452Y-88467697D01*
X123490454Y-88467694D01*
X123490454Y-88467692D01*
X123490456Y-88467690D01*
X123546313Y-88308059D01*
X123546313Y-88308058D01*
X123546314Y-88308056D01*
X123565249Y-88140002D01*
X123565249Y-88139997D01*
X123546314Y-87971943D01*
X123515860Y-87884913D01*
X123490456Y-87812310D01*
X123490455Y-87812309D01*
X123490454Y-87812305D01*
X123490452Y-87812302D01*
X123400481Y-87669115D01*
X123400476Y-87669109D01*
X123280890Y-87549523D01*
X123280884Y-87549518D01*
X123137697Y-87459547D01*
X123137694Y-87459545D01*
X122978056Y-87403685D01*
X122810003Y-87384751D01*
X122809997Y-87384751D01*
X122641943Y-87403685D01*
X122482305Y-87459545D01*
X122482302Y-87459547D01*
X122339115Y-87549518D01*
X122339109Y-87549523D01*
X122219523Y-87669109D01*
X122219518Y-87669115D01*
X122129547Y-87812302D01*
X122129545Y-87812305D01*
X122073685Y-87971943D01*
X122054751Y-88139997D01*
X122054751Y-88140002D01*
X122073685Y-88308056D01*
X122129545Y-88467694D01*
X122129547Y-88467697D01*
X122219518Y-88610884D01*
X122219523Y-88610890D01*
X122339109Y-88730476D01*
X122339112Y-88730478D01*
X122402020Y-88770007D01*
X122448311Y-88822342D01*
X122458958Y-88891395D01*
X122430583Y-88955244D01*
X122402020Y-88979993D01*
X122339112Y-89019521D01*
X122339109Y-89019523D01*
X122219523Y-89139109D01*
X122219518Y-89139115D01*
X122129547Y-89282302D01*
X122129545Y-89282305D01*
X122073685Y-89441943D01*
X122054751Y-89609997D01*
X122054751Y-89610002D01*
X116054000Y-89610002D01*
X116037661Y-89558183D01*
X116009287Y-89468191D01*
X115946209Y-89256316D01*
X115945105Y-89252058D01*
X115899775Y-89047587D01*
X115854441Y-88831381D01*
X115853660Y-88826804D01*
X115826306Y-88619022D01*
X115799025Y-88400160D01*
X115798611Y-88395239D01*
X115789482Y-88186181D01*
X115780500Y-87969000D01*
X115780500Y-87968500D01*
X115780500Y-87162748D01*
X149147497Y-87162748D01*
X149166431Y-87330802D01*
X149222291Y-87490440D01*
X149222293Y-87490443D01*
X149312264Y-87633630D01*
X149312269Y-87633636D01*
X149431855Y-87753222D01*
X149431861Y-87753227D01*
X149575048Y-87843198D01*
X149575051Y-87843200D01*
X149575055Y-87843201D01*
X149575056Y-87843202D01*
X149647659Y-87868606D01*
X149734689Y-87899060D01*
X149902743Y-87917995D01*
X149902746Y-87917995D01*
X149902749Y-87917995D01*
X150070802Y-87899060D01*
X150070805Y-87899059D01*
X150230436Y-87843202D01*
X150230438Y-87843200D01*
X150230440Y-87843200D01*
X150230443Y-87843198D01*
X150373630Y-87753227D01*
X150373631Y-87753226D01*
X150373636Y-87753223D01*
X150493223Y-87633636D01*
X150583198Y-87490443D01*
X150583200Y-87490440D01*
X150583200Y-87490438D01*
X150583202Y-87490436D01*
X150639059Y-87330805D01*
X150639059Y-87330804D01*
X150639060Y-87330802D01*
X150657995Y-87162748D01*
X150657995Y-87162743D01*
X150639060Y-86994689D01*
X150583200Y-86835051D01*
X150583198Y-86835048D01*
X150493227Y-86691861D01*
X150493222Y-86691855D01*
X150373636Y-86572269D01*
X150373630Y-86572264D01*
X150230443Y-86482293D01*
X150230440Y-86482291D01*
X150070802Y-86426431D01*
X149902749Y-86407497D01*
X149902743Y-86407497D01*
X149734689Y-86426431D01*
X149575051Y-86482291D01*
X149575048Y-86482293D01*
X149431861Y-86572264D01*
X149431855Y-86572269D01*
X149312269Y-86691855D01*
X149312264Y-86691861D01*
X149222293Y-86835048D01*
X149222291Y-86835051D01*
X149166431Y-86994689D01*
X149147497Y-87162743D01*
X149147497Y-87162748D01*
X115780500Y-87162748D01*
X115780500Y-86400002D01*
X119134751Y-86400002D01*
X119153685Y-86568056D01*
X119209545Y-86727694D01*
X119209547Y-86727697D01*
X119299518Y-86870884D01*
X119299523Y-86870890D01*
X119419109Y-86990476D01*
X119419115Y-86990481D01*
X119562302Y-87080452D01*
X119562305Y-87080454D01*
X119562309Y-87080455D01*
X119562310Y-87080456D01*
X119634913Y-87105860D01*
X119721943Y-87136314D01*
X119889997Y-87155249D01*
X119890000Y-87155249D01*
X119890003Y-87155249D01*
X120058056Y-87136314D01*
X120058059Y-87136313D01*
X120217690Y-87080456D01*
X120217692Y-87080454D01*
X120217694Y-87080454D01*
X120217697Y-87080452D01*
X120360884Y-86990481D01*
X120360885Y-86990480D01*
X120360890Y-86990477D01*
X120480477Y-86870890D01*
X120502993Y-86835056D01*
X120570452Y-86727697D01*
X120570454Y-86727694D01*
X120570454Y-86727692D01*
X120570456Y-86727690D01*
X120626313Y-86568059D01*
X120626313Y-86568058D01*
X120626314Y-86568056D01*
X120645249Y-86400002D01*
X120645249Y-86399997D01*
X120636574Y-86323002D01*
X128974751Y-86323002D01*
X128993685Y-86491056D01*
X129049545Y-86650694D01*
X129049547Y-86650697D01*
X129139518Y-86793884D01*
X129139523Y-86793890D01*
X129259109Y-86913476D01*
X129259115Y-86913481D01*
X129402302Y-87003452D01*
X129402305Y-87003454D01*
X129402309Y-87003455D01*
X129402310Y-87003456D01*
X129474913Y-87028860D01*
X129561943Y-87059314D01*
X129729997Y-87078249D01*
X129730000Y-87078249D01*
X129730003Y-87078249D01*
X129898056Y-87059314D01*
X129906641Y-87056310D01*
X130057690Y-87003456D01*
X130164136Y-86936571D01*
X130231369Y-86917571D01*
X130296078Y-86936571D01*
X130381874Y-86990481D01*
X130397741Y-87000451D01*
X130397739Y-87000451D01*
X130397743Y-87000452D01*
X130397744Y-87000453D01*
X130470347Y-87025857D01*
X130557377Y-87056311D01*
X130725431Y-87075246D01*
X130725434Y-87075246D01*
X130725437Y-87075246D01*
X130893490Y-87056311D01*
X130893493Y-87056310D01*
X131053124Y-87000453D01*
X131053126Y-87000451D01*
X131053128Y-87000451D01*
X131053131Y-87000449D01*
X131196318Y-86910478D01*
X131196319Y-86910477D01*
X131196324Y-86910474D01*
X131315911Y-86790887D01*
X131372464Y-86700884D01*
X131405886Y-86647694D01*
X131405888Y-86647691D01*
X131405888Y-86647689D01*
X131405890Y-86647687D01*
X131461747Y-86488056D01*
X131461747Y-86488055D01*
X131461748Y-86488053D01*
X131480683Y-86319999D01*
X131480683Y-86319994D01*
X131461748Y-86151940D01*
X131405888Y-85992302D01*
X131405886Y-85992299D01*
X131315915Y-85849112D01*
X131315910Y-85849106D01*
X131196324Y-85729520D01*
X131196318Y-85729515D01*
X131053131Y-85639544D01*
X131053128Y-85639542D01*
X130893490Y-85583682D01*
X130725437Y-85564748D01*
X130725431Y-85564748D01*
X130557377Y-85583682D01*
X130397741Y-85639542D01*
X130291299Y-85706425D01*
X130224063Y-85725425D01*
X130159354Y-85706424D01*
X130057692Y-85642545D01*
X130057694Y-85642545D01*
X129898056Y-85586685D01*
X129730003Y-85567751D01*
X129729997Y-85567751D01*
X129561943Y-85586685D01*
X129402305Y-85642545D01*
X129402302Y-85642547D01*
X129259115Y-85732518D01*
X129259109Y-85732523D01*
X129139523Y-85852109D01*
X129139518Y-85852115D01*
X129049547Y-85995302D01*
X129049545Y-85995305D01*
X128993685Y-86154943D01*
X128974751Y-86322997D01*
X128974751Y-86323002D01*
X120636574Y-86323002D01*
X120626314Y-86231943D01*
X120592479Y-86135249D01*
X120570456Y-86072310D01*
X120570455Y-86072309D01*
X120570454Y-86072305D01*
X120570452Y-86072302D01*
X120480481Y-85929115D01*
X120480476Y-85929109D01*
X120360890Y-85809523D01*
X120360884Y-85809518D01*
X120217697Y-85719547D01*
X120217694Y-85719545D01*
X120058056Y-85663685D01*
X119890003Y-85644751D01*
X119889997Y-85644751D01*
X119721943Y-85663685D01*
X119562305Y-85719545D01*
X119562302Y-85719547D01*
X119419115Y-85809518D01*
X119419109Y-85809523D01*
X119299523Y-85929109D01*
X119299518Y-85929115D01*
X119209547Y-86072302D01*
X119209545Y-86072305D01*
X119153685Y-86231943D01*
X119134751Y-86399997D01*
X119134751Y-86400002D01*
X115780500Y-86400002D01*
X115780500Y-85380002D01*
X121684751Y-85380002D01*
X121703685Y-85548056D01*
X121759545Y-85707694D01*
X121759547Y-85707697D01*
X121849518Y-85850884D01*
X121849523Y-85850890D01*
X121969109Y-85970476D01*
X121969115Y-85970481D01*
X122112302Y-86060452D01*
X122112305Y-86060454D01*
X122112309Y-86060455D01*
X122112310Y-86060456D01*
X122116560Y-86061943D01*
X122271943Y-86116314D01*
X122439997Y-86135249D01*
X122440000Y-86135249D01*
X122440003Y-86135249D01*
X122608056Y-86116314D01*
X122608059Y-86116313D01*
X122767690Y-86060456D01*
X122767692Y-86060454D01*
X122767694Y-86060454D01*
X122767697Y-86060452D01*
X122910884Y-85970481D01*
X122910885Y-85970480D01*
X122910890Y-85970477D01*
X123030477Y-85850890D01*
X123031594Y-85849112D01*
X123120452Y-85707697D01*
X123120454Y-85707694D01*
X123120454Y-85707692D01*
X123120456Y-85707690D01*
X123176313Y-85548059D01*
X123176313Y-85548058D01*
X123176314Y-85548056D01*
X123195249Y-85380002D01*
X123195249Y-85379997D01*
X123176314Y-85211943D01*
X123131132Y-85082821D01*
X123120456Y-85052310D01*
X123120455Y-85052309D01*
X123120454Y-85052305D01*
X123120452Y-85052302D01*
X123030481Y-84909115D01*
X123030476Y-84909109D01*
X122910890Y-84789523D01*
X122910884Y-84789518D01*
X122767697Y-84699547D01*
X122767694Y-84699545D01*
X122683265Y-84670002D01*
X134274751Y-84670002D01*
X134293685Y-84838056D01*
X134349545Y-84997694D01*
X134349547Y-84997697D01*
X134439518Y-85140884D01*
X134439523Y-85140890D01*
X134559109Y-85260476D01*
X134559115Y-85260481D01*
X134702302Y-85350452D01*
X134702305Y-85350454D01*
X134702309Y-85350455D01*
X134702310Y-85350456D01*
X134772590Y-85375048D01*
X134861943Y-85406314D01*
X135029997Y-85425249D01*
X135030000Y-85425249D01*
X135030003Y-85425249D01*
X135198348Y-85406281D01*
X135267170Y-85418335D01*
X135318550Y-85465684D01*
X135336174Y-85533295D01*
X135335452Y-85543384D01*
X135317497Y-85702742D01*
X135317497Y-85702748D01*
X135336431Y-85870802D01*
X135392291Y-86030440D01*
X135392293Y-86030443D01*
X135482264Y-86173630D01*
X135482269Y-86173636D01*
X135601855Y-86293222D01*
X135601861Y-86293227D01*
X135745048Y-86383198D01*
X135745051Y-86383200D01*
X135745055Y-86383201D01*
X135745056Y-86383202D01*
X135817659Y-86408606D01*
X135904689Y-86439060D01*
X136072743Y-86457995D01*
X136072746Y-86457995D01*
X136072749Y-86457995D01*
X136240802Y-86439060D01*
X136276888Y-86426433D01*
X136400436Y-86383202D01*
X136400438Y-86383200D01*
X136400440Y-86383200D01*
X136400443Y-86383198D01*
X136543630Y-86293227D01*
X136543631Y-86293226D01*
X136543636Y-86293223D01*
X136606857Y-86230002D01*
X144514751Y-86230002D01*
X144533685Y-86398056D01*
X144589545Y-86557694D01*
X144589547Y-86557697D01*
X144679518Y-86700884D01*
X144679523Y-86700890D01*
X144799109Y-86820476D01*
X144799115Y-86820481D01*
X144942302Y-86910452D01*
X144942305Y-86910454D01*
X144942309Y-86910455D01*
X144942310Y-86910456D01*
X144962644Y-86917571D01*
X145101943Y-86966314D01*
X145269997Y-86985249D01*
X145270000Y-86985249D01*
X145270003Y-86985249D01*
X145438056Y-86966314D01*
X145438059Y-86966313D01*
X145597690Y-86910456D01*
X145597692Y-86910454D01*
X145597694Y-86910454D01*
X145597697Y-86910452D01*
X145740884Y-86820481D01*
X145740885Y-86820480D01*
X145740890Y-86820477D01*
X145860477Y-86700890D01*
X145860481Y-86700884D01*
X145950452Y-86557697D01*
X145950454Y-86557694D01*
X145950454Y-86557692D01*
X145950456Y-86557690D01*
X146006313Y-86398059D01*
X146006313Y-86398058D01*
X146006314Y-86398056D01*
X146025249Y-86230002D01*
X146025249Y-86229997D01*
X146024123Y-86220002D01*
X147364751Y-86220002D01*
X147383685Y-86388056D01*
X147439545Y-86547694D01*
X147439547Y-86547697D01*
X147529518Y-86690884D01*
X147529523Y-86690890D01*
X147649109Y-86810476D01*
X147649115Y-86810481D01*
X147792302Y-86900452D01*
X147792305Y-86900454D01*
X147792309Y-86900455D01*
X147792310Y-86900456D01*
X147829522Y-86913477D01*
X147951943Y-86956314D01*
X148119997Y-86975249D01*
X148120000Y-86975249D01*
X148120003Y-86975249D01*
X148288056Y-86956314D01*
X148288059Y-86956313D01*
X148447690Y-86900456D01*
X148447692Y-86900454D01*
X148447694Y-86900454D01*
X148447697Y-86900452D01*
X148590884Y-86810481D01*
X148590885Y-86810480D01*
X148590890Y-86810477D01*
X148710477Y-86690890D01*
X148735734Y-86650694D01*
X148800452Y-86547697D01*
X148800454Y-86547694D01*
X148800454Y-86547692D01*
X148800456Y-86547690D01*
X148856313Y-86388059D01*
X148856313Y-86388058D01*
X148856314Y-86388056D01*
X148875249Y-86220002D01*
X148875249Y-86219997D01*
X148856314Y-86051943D01*
X148825860Y-85964913D01*
X148800456Y-85892310D01*
X148800455Y-85892309D01*
X148800454Y-85892305D01*
X148800452Y-85892302D01*
X148710481Y-85749115D01*
X148710476Y-85749109D01*
X148590890Y-85629523D01*
X148590884Y-85629518D01*
X148447697Y-85539547D01*
X148447694Y-85539545D01*
X148288056Y-85483685D01*
X148120003Y-85464751D01*
X148119997Y-85464751D01*
X147951943Y-85483685D01*
X147792305Y-85539545D01*
X147792302Y-85539547D01*
X147649115Y-85629518D01*
X147649109Y-85629523D01*
X147529523Y-85749109D01*
X147529518Y-85749115D01*
X147439547Y-85892302D01*
X147439545Y-85892305D01*
X147383685Y-86051943D01*
X147364751Y-86219997D01*
X147364751Y-86220002D01*
X146024123Y-86220002D01*
X146006314Y-86061943D01*
X145955839Y-85917694D01*
X145950456Y-85902310D01*
X145950455Y-85902309D01*
X145950454Y-85902305D01*
X145950452Y-85902302D01*
X145860481Y-85759115D01*
X145860476Y-85759109D01*
X145740890Y-85639523D01*
X145740884Y-85639518D01*
X145597697Y-85549547D01*
X145597694Y-85549545D01*
X145438056Y-85493685D01*
X145270003Y-85474751D01*
X145269997Y-85474751D01*
X145101943Y-85493685D01*
X144942305Y-85549545D01*
X144942302Y-85549547D01*
X144799115Y-85639518D01*
X144799109Y-85639523D01*
X144679523Y-85759109D01*
X144679518Y-85759115D01*
X144589547Y-85902302D01*
X144589545Y-85902305D01*
X144533685Y-86061943D01*
X144514751Y-86229997D01*
X144514751Y-86230002D01*
X136606857Y-86230002D01*
X136663223Y-86173636D01*
X136676857Y-86151938D01*
X136753198Y-86030443D01*
X136753200Y-86030440D01*
X136753200Y-86030438D01*
X136753202Y-86030436D01*
X136809059Y-85870805D01*
X136809059Y-85870804D01*
X136809060Y-85870802D01*
X136827995Y-85702748D01*
X136827995Y-85702743D01*
X136809060Y-85534689D01*
X136768346Y-85418335D01*
X136753202Y-85375056D01*
X136753201Y-85375055D01*
X136753200Y-85375051D01*
X136753198Y-85375048D01*
X136663227Y-85231861D01*
X136663222Y-85231855D01*
X136543636Y-85112269D01*
X136543630Y-85112264D01*
X136400443Y-85022293D01*
X136400440Y-85022291D01*
X136240802Y-84966431D01*
X136072749Y-84947497D01*
X136072742Y-84947497D01*
X135904396Y-84966464D01*
X135835574Y-84954409D01*
X135784195Y-84907060D01*
X135766571Y-84839449D01*
X135767293Y-84829360D01*
X135785249Y-84670002D01*
X135785249Y-84669997D01*
X135778489Y-84610002D01*
X154384751Y-84610002D01*
X154403685Y-84778056D01*
X154436170Y-84870890D01*
X154449543Y-84909110D01*
X154459545Y-84937692D01*
X154530077Y-85049942D01*
X154549077Y-85117178D01*
X154530077Y-85181886D01*
X154479545Y-85262307D01*
X154423685Y-85421943D01*
X154404751Y-85589997D01*
X154404751Y-85590002D01*
X154423685Y-85758056D01*
X154479545Y-85917694D01*
X154479547Y-85917697D01*
X154569518Y-86060884D01*
X154569523Y-86060890D01*
X154689109Y-86180476D01*
X154689115Y-86180481D01*
X154832302Y-86270452D01*
X154832305Y-86270454D01*
X154832309Y-86270455D01*
X154832310Y-86270456D01*
X154897372Y-86293222D01*
X154991943Y-86326314D01*
X155159997Y-86345249D01*
X155160000Y-86345249D01*
X155160003Y-86345249D01*
X155328056Y-86326314D01*
X155337527Y-86323000D01*
X155487690Y-86270456D01*
X155487692Y-86270454D01*
X155487694Y-86270454D01*
X155487697Y-86270452D01*
X155630884Y-86180481D01*
X155630885Y-86180480D01*
X155630890Y-86180477D01*
X155750477Y-86060890D01*
X155807288Y-85970477D01*
X155840452Y-85917697D01*
X155840454Y-85917694D01*
X155840454Y-85917692D01*
X155840456Y-85917690D01*
X155896313Y-85758059D01*
X155896313Y-85758058D01*
X155896314Y-85758056D01*
X155915249Y-85590002D01*
X155915249Y-85589997D01*
X155896314Y-85421943D01*
X155853113Y-85298482D01*
X155840456Y-85262310D01*
X155840454Y-85262307D01*
X155840454Y-85262306D01*
X155769923Y-85150058D01*
X155750922Y-85082821D01*
X155769923Y-85018112D01*
X155787288Y-84990477D01*
X155820456Y-84937690D01*
X155876313Y-84778059D01*
X155876313Y-84778058D01*
X155876314Y-84778056D01*
X155895249Y-84610002D01*
X155895249Y-84609997D01*
X155876314Y-84441943D01*
X155820454Y-84282305D01*
X155820452Y-84282302D01*
X155730481Y-84139115D01*
X155730476Y-84139109D01*
X155610890Y-84019523D01*
X155610884Y-84019518D01*
X155467697Y-83929547D01*
X155467694Y-83929545D01*
X155308056Y-83873685D01*
X155140003Y-83854751D01*
X155139997Y-83854751D01*
X154971943Y-83873685D01*
X154812305Y-83929545D01*
X154812302Y-83929547D01*
X154669115Y-84019518D01*
X154669109Y-84019523D01*
X154549523Y-84139109D01*
X154549518Y-84139115D01*
X154459547Y-84282302D01*
X154459545Y-84282305D01*
X154403685Y-84441943D01*
X154384751Y-84609997D01*
X154384751Y-84610002D01*
X135778489Y-84610002D01*
X135766314Y-84501943D01*
X135730641Y-84399997D01*
X135710456Y-84342310D01*
X135710455Y-84342309D01*
X135710454Y-84342305D01*
X135710452Y-84342302D01*
X135620481Y-84199115D01*
X135620476Y-84199109D01*
X135500890Y-84079523D01*
X135500884Y-84079518D01*
X135357697Y-83989547D01*
X135357694Y-83989545D01*
X135198056Y-83933685D01*
X135030003Y-83914751D01*
X135029997Y-83914751D01*
X134861943Y-83933685D01*
X134702305Y-83989545D01*
X134702302Y-83989547D01*
X134559115Y-84079518D01*
X134559109Y-84079523D01*
X134439523Y-84199109D01*
X134439518Y-84199115D01*
X134349547Y-84342302D01*
X134349545Y-84342305D01*
X134293685Y-84501943D01*
X134274751Y-84669997D01*
X134274751Y-84670002D01*
X122683265Y-84670002D01*
X122608056Y-84643685D01*
X122440003Y-84624751D01*
X122439997Y-84624751D01*
X122271943Y-84643685D01*
X122112305Y-84699545D01*
X122112302Y-84699547D01*
X121969115Y-84789518D01*
X121969109Y-84789523D01*
X121849523Y-84909109D01*
X121849518Y-84909115D01*
X121759547Y-85052302D01*
X121759545Y-85052305D01*
X121703685Y-85211943D01*
X121684751Y-85379997D01*
X121684751Y-85380002D01*
X115780500Y-85380002D01*
X115780500Y-84400002D01*
X119114751Y-84400002D01*
X119133685Y-84568056D01*
X119189545Y-84727694D01*
X119189547Y-84727697D01*
X119279518Y-84870884D01*
X119279523Y-84870890D01*
X119399109Y-84990476D01*
X119399115Y-84990481D01*
X119542302Y-85080452D01*
X119542305Y-85080454D01*
X119542309Y-85080455D01*
X119542310Y-85080456D01*
X119614913Y-85105860D01*
X119701943Y-85136314D01*
X119869997Y-85155249D01*
X119870000Y-85155249D01*
X119870003Y-85155249D01*
X120038056Y-85136314D01*
X120038059Y-85136313D01*
X120197690Y-85080456D01*
X120197692Y-85080454D01*
X120197694Y-85080454D01*
X120197697Y-85080452D01*
X120340884Y-84990481D01*
X120340885Y-84990480D01*
X120340890Y-84990477D01*
X120460477Y-84870890D01*
X120550452Y-84727697D01*
X120550454Y-84727694D01*
X120550454Y-84727692D01*
X120550456Y-84727690D01*
X120606313Y-84568059D01*
X120606313Y-84568058D01*
X120606314Y-84568056D01*
X120625249Y-84400002D01*
X120625249Y-84399997D01*
X120606314Y-84231943D01*
X120550454Y-84072305D01*
X120550452Y-84072302D01*
X120460481Y-83929115D01*
X120460476Y-83929109D01*
X120340890Y-83809523D01*
X120340884Y-83809518D01*
X120197697Y-83719547D01*
X120197694Y-83719545D01*
X120038056Y-83663685D01*
X119870003Y-83644751D01*
X119869997Y-83644751D01*
X119701943Y-83663685D01*
X119542305Y-83719545D01*
X119542302Y-83719547D01*
X119399115Y-83809518D01*
X119399109Y-83809523D01*
X119279523Y-83929109D01*
X119279518Y-83929115D01*
X119189547Y-84072302D01*
X119189545Y-84072305D01*
X119133685Y-84231943D01*
X119114751Y-84399997D01*
X119114751Y-84400002D01*
X115780500Y-84400002D01*
X115780500Y-83600002D01*
X157104751Y-83600002D01*
X157123685Y-83768056D01*
X157179545Y-83927694D01*
X157179547Y-83927697D01*
X157269518Y-84070884D01*
X157269523Y-84070890D01*
X157389109Y-84190476D01*
X157389115Y-84190481D01*
X157532302Y-84280452D01*
X157532305Y-84280454D01*
X157532309Y-84280455D01*
X157532310Y-84280456D01*
X157604913Y-84305860D01*
X157691943Y-84336314D01*
X157859997Y-84355249D01*
X157860000Y-84355249D01*
X157860003Y-84355249D01*
X158028056Y-84336314D01*
X158028059Y-84336313D01*
X158187690Y-84280456D01*
X158187692Y-84280454D01*
X158187694Y-84280454D01*
X158187697Y-84280452D01*
X158330884Y-84190481D01*
X158330885Y-84190480D01*
X158330890Y-84190477D01*
X158450477Y-84070890D01*
X158482753Y-84019523D01*
X158540452Y-83927697D01*
X158540454Y-83927694D01*
X158540454Y-83927692D01*
X158540456Y-83927690D01*
X158596313Y-83768059D01*
X158596313Y-83768058D01*
X158596314Y-83768056D01*
X158615249Y-83600002D01*
X158615249Y-83599997D01*
X158596314Y-83431943D01*
X158540454Y-83272305D01*
X158540452Y-83272302D01*
X158450481Y-83129115D01*
X158450476Y-83129109D01*
X158330890Y-83009523D01*
X158330884Y-83009518D01*
X158187697Y-82919547D01*
X158187694Y-82919545D01*
X158028056Y-82863685D01*
X157860003Y-82844751D01*
X157859997Y-82844751D01*
X157691943Y-82863685D01*
X157532305Y-82919545D01*
X157532302Y-82919547D01*
X157389115Y-83009518D01*
X157389109Y-83009523D01*
X157269523Y-83129109D01*
X157269518Y-83129115D01*
X157179547Y-83272302D01*
X157179545Y-83272305D01*
X157123685Y-83431943D01*
X157104751Y-83599997D01*
X157104751Y-83600002D01*
X115780500Y-83600002D01*
X115780500Y-82470002D01*
X136034751Y-82470002D01*
X136053685Y-82638056D01*
X136109545Y-82797694D01*
X136109547Y-82797697D01*
X136199518Y-82940884D01*
X136199523Y-82940890D01*
X136319109Y-83060476D01*
X136319115Y-83060481D01*
X136462302Y-83150452D01*
X136462305Y-83150454D01*
X136462309Y-83150455D01*
X136462310Y-83150456D01*
X136534913Y-83175860D01*
X136621943Y-83206314D01*
X136789997Y-83225249D01*
X136790000Y-83225249D01*
X136790003Y-83225249D01*
X136958056Y-83206314D01*
X136958059Y-83206313D01*
X137117690Y-83150456D01*
X137117692Y-83150454D01*
X137117694Y-83150454D01*
X137117697Y-83150452D01*
X137260884Y-83060481D01*
X137260885Y-83060480D01*
X137260890Y-83060477D01*
X137380477Y-82940890D01*
X137380481Y-82940884D01*
X137470452Y-82797697D01*
X137470454Y-82797694D01*
X137470454Y-82797692D01*
X137470456Y-82797690D01*
X137526313Y-82638059D01*
X137526313Y-82638058D01*
X137526314Y-82638056D01*
X137545249Y-82470002D01*
X137545249Y-82469997D01*
X137544123Y-82460002D01*
X150324751Y-82460002D01*
X150343685Y-82628056D01*
X150399545Y-82787694D01*
X150399547Y-82787697D01*
X150489518Y-82930884D01*
X150489523Y-82930890D01*
X150609109Y-83050476D01*
X150609115Y-83050481D01*
X150752302Y-83140452D01*
X150752305Y-83140454D01*
X150752309Y-83140455D01*
X150752310Y-83140456D01*
X150780883Y-83150454D01*
X150911943Y-83196314D01*
X151079997Y-83215249D01*
X151080000Y-83215249D01*
X151080003Y-83215249D01*
X151248056Y-83196314D01*
X151248059Y-83196313D01*
X151407690Y-83140456D01*
X151407692Y-83140454D01*
X151407694Y-83140454D01*
X151407697Y-83140452D01*
X151550884Y-83050481D01*
X151550885Y-83050480D01*
X151550890Y-83050477D01*
X151670477Y-82930890D01*
X151670481Y-82930884D01*
X151760452Y-82787697D01*
X151760454Y-82787694D01*
X151760454Y-82787692D01*
X151760456Y-82787690D01*
X151816313Y-82628059D01*
X151816313Y-82628058D01*
X151816314Y-82628056D01*
X151835249Y-82460002D01*
X151835249Y-82459997D01*
X151816314Y-82291943D01*
X151760454Y-82132305D01*
X151760452Y-82132302D01*
X151670481Y-81989115D01*
X151670476Y-81989109D01*
X151550890Y-81869523D01*
X151550884Y-81869518D01*
X151407697Y-81779547D01*
X151407694Y-81779545D01*
X151248056Y-81723685D01*
X151080003Y-81704751D01*
X151079997Y-81704751D01*
X150911943Y-81723685D01*
X150752305Y-81779545D01*
X150752302Y-81779547D01*
X150609115Y-81869518D01*
X150609109Y-81869523D01*
X150489523Y-81989109D01*
X150489518Y-81989115D01*
X150399547Y-82132302D01*
X150399545Y-82132305D01*
X150343685Y-82291943D01*
X150324751Y-82459997D01*
X150324751Y-82460002D01*
X137544123Y-82460002D01*
X137526314Y-82301943D01*
X137470454Y-82142305D01*
X137470452Y-82142302D01*
X137380481Y-81999115D01*
X137380476Y-81999109D01*
X137260890Y-81879523D01*
X137260884Y-81879518D01*
X137117697Y-81789547D01*
X137117694Y-81789545D01*
X136958056Y-81733685D01*
X136790003Y-81714751D01*
X136789997Y-81714751D01*
X136621943Y-81733685D01*
X136462305Y-81789545D01*
X136462302Y-81789547D01*
X136319115Y-81879518D01*
X136319109Y-81879523D01*
X136199523Y-81999109D01*
X136199518Y-81999115D01*
X136109547Y-82142302D01*
X136109545Y-82142305D01*
X136053685Y-82301943D01*
X136034751Y-82469997D01*
X136034751Y-82470002D01*
X115780500Y-82470002D01*
X115780500Y-81531778D01*
X129885613Y-81531778D01*
X129904547Y-81699832D01*
X129960407Y-81859470D01*
X129960409Y-81859473D01*
X130050380Y-82002660D01*
X130050385Y-82002666D01*
X130169971Y-82122252D01*
X130169977Y-82122257D01*
X130313164Y-82212228D01*
X130313167Y-82212230D01*
X130313171Y-82212231D01*
X130313172Y-82212232D01*
X130385775Y-82237636D01*
X130472805Y-82268090D01*
X130640859Y-82287025D01*
X130640862Y-82287025D01*
X130640865Y-82287025D01*
X130808918Y-82268090D01*
X130842575Y-82256313D01*
X130968552Y-82212232D01*
X130968554Y-82212230D01*
X130968556Y-82212230D01*
X130968559Y-82212228D01*
X131111746Y-82122257D01*
X131111747Y-82122256D01*
X131111752Y-82122253D01*
X131231339Y-82002666D01*
X131233570Y-81999115D01*
X131321314Y-81859473D01*
X131321316Y-81859470D01*
X131321316Y-81859468D01*
X131321318Y-81859466D01*
X131377175Y-81699835D01*
X131377175Y-81699834D01*
X131377176Y-81699832D01*
X131396111Y-81531778D01*
X131396111Y-81531773D01*
X131377176Y-81363719D01*
X131321316Y-81204081D01*
X131321314Y-81204078D01*
X131231343Y-81060891D01*
X131231338Y-81060885D01*
X131111752Y-80941299D01*
X131111746Y-80941294D01*
X130968559Y-80851323D01*
X130968556Y-80851321D01*
X130808918Y-80795461D01*
X130640865Y-80776527D01*
X130640859Y-80776527D01*
X130472805Y-80795461D01*
X130313167Y-80851321D01*
X130313164Y-80851323D01*
X130169977Y-80941294D01*
X130169971Y-80941299D01*
X130050385Y-81060885D01*
X130050380Y-81060891D01*
X129960409Y-81204078D01*
X129960407Y-81204081D01*
X129904547Y-81363719D01*
X129885613Y-81531773D01*
X129885613Y-81531778D01*
X115780500Y-81531778D01*
X115780500Y-79225640D01*
X131309113Y-79225640D01*
X131328047Y-79393694D01*
X131383907Y-79553332D01*
X131383909Y-79553335D01*
X131473880Y-79696522D01*
X131473885Y-79696528D01*
X131593471Y-79816114D01*
X131593477Y-79816119D01*
X131736664Y-79906090D01*
X131736667Y-79906092D01*
X131736671Y-79906093D01*
X131736672Y-79906094D01*
X131896303Y-79961951D01*
X131896306Y-79961952D01*
X131934054Y-79966205D01*
X131998468Y-79993271D01*
X132038023Y-80050866D01*
X132043391Y-80103308D01*
X132034751Y-80179995D01*
X132034751Y-80180002D01*
X132053685Y-80348056D01*
X132109545Y-80507694D01*
X132109547Y-80507697D01*
X132199518Y-80650884D01*
X132199523Y-80650890D01*
X132319110Y-80770477D01*
X132363497Y-80798367D01*
X132409789Y-80850701D01*
X132420746Y-80889477D01*
X132428283Y-80956375D01*
X132484142Y-81116014D01*
X132484145Y-81116019D01*
X132574116Y-81259206D01*
X132574121Y-81259212D01*
X132693707Y-81378798D01*
X132693713Y-81378803D01*
X132836904Y-81468777D01*
X132896114Y-81489495D01*
X132952890Y-81530217D01*
X132978638Y-81595169D01*
X132978849Y-81599776D01*
X132998094Y-81770585D01*
X133053954Y-81930223D01*
X133053956Y-81930226D01*
X133143927Y-82073413D01*
X133143932Y-82073419D01*
X133263518Y-82193005D01*
X133263524Y-82193010D01*
X133406711Y-82282981D01*
X133406714Y-82282983D01*
X133406718Y-82282984D01*
X133406719Y-82282985D01*
X133460898Y-82301943D01*
X133566352Y-82338843D01*
X133734406Y-82357778D01*
X133734409Y-82357778D01*
X133734412Y-82357778D01*
X133902465Y-82338843D01*
X133902468Y-82338842D01*
X134062099Y-82282985D01*
X134062101Y-82282983D01*
X134062103Y-82282983D01*
X134062106Y-82282981D01*
X134205293Y-82193010D01*
X134205294Y-82193009D01*
X134205299Y-82193006D01*
X134324886Y-82073419D01*
X134324890Y-82073413D01*
X134414861Y-81930226D01*
X134414863Y-81930223D01*
X134414863Y-81930221D01*
X134414865Y-81930219D01*
X134470722Y-81770588D01*
X134470722Y-81770587D01*
X134470723Y-81770585D01*
X134489658Y-81602531D01*
X134489658Y-81602526D01*
X134480360Y-81520002D01*
X145214751Y-81520002D01*
X145233685Y-81688056D01*
X145289545Y-81847694D01*
X145289547Y-81847697D01*
X145379518Y-81990884D01*
X145379523Y-81990890D01*
X145499109Y-82110476D01*
X145499115Y-82110481D01*
X145642302Y-82200452D01*
X145642305Y-82200454D01*
X145642309Y-82200455D01*
X145642310Y-82200456D01*
X145675964Y-82212232D01*
X145801943Y-82256314D01*
X145969997Y-82275249D01*
X145970000Y-82275249D01*
X145970003Y-82275249D01*
X146138056Y-82256314D01*
X146138059Y-82256313D01*
X146297690Y-82200456D01*
X146297692Y-82200454D01*
X146297694Y-82200454D01*
X146297697Y-82200452D01*
X146440884Y-82110481D01*
X146440885Y-82110480D01*
X146440890Y-82110477D01*
X146560477Y-81990890D01*
X146560481Y-81990884D01*
X146650452Y-81847697D01*
X146650454Y-81847694D01*
X146650454Y-81847692D01*
X146650456Y-81847690D01*
X146706313Y-81688059D01*
X146706313Y-81688058D01*
X146706314Y-81688056D01*
X146725249Y-81520002D01*
X146725249Y-81519997D01*
X146706314Y-81351943D01*
X146673864Y-81259206D01*
X146650456Y-81192310D01*
X146650455Y-81192309D01*
X146650454Y-81192305D01*
X146650452Y-81192302D01*
X146560481Y-81049115D01*
X146560476Y-81049109D01*
X146440890Y-80929523D01*
X146440884Y-80929518D01*
X146297697Y-80839547D01*
X146297694Y-80839545D01*
X146138056Y-80783685D01*
X145970003Y-80764751D01*
X145969997Y-80764751D01*
X145801943Y-80783685D01*
X145642305Y-80839545D01*
X145642302Y-80839547D01*
X145499115Y-80929518D01*
X145499109Y-80929523D01*
X145379523Y-81049109D01*
X145379518Y-81049115D01*
X145289547Y-81192302D01*
X145289545Y-81192305D01*
X145233685Y-81351943D01*
X145214751Y-81519997D01*
X145214751Y-81520002D01*
X134480360Y-81520002D01*
X134470723Y-81434472D01*
X134414863Y-81274834D01*
X134414861Y-81274831D01*
X134324890Y-81131644D01*
X134324885Y-81131638D01*
X134205299Y-81012052D01*
X134205293Y-81012047D01*
X134062108Y-80922077D01*
X134062100Y-80922073D01*
X134002891Y-80901355D01*
X133946116Y-80860633D01*
X133920369Y-80795680D01*
X133920157Y-80791075D01*
X133919324Y-80783685D01*
X133904362Y-80650890D01*
X133900912Y-80620265D01*
X133845052Y-80460627D01*
X133845050Y-80460624D01*
X133782989Y-80361855D01*
X136973604Y-80361855D01*
X136992538Y-80529909D01*
X137048398Y-80689547D01*
X137048400Y-80689550D01*
X137138371Y-80832737D01*
X137138376Y-80832743D01*
X137257962Y-80952329D01*
X137257968Y-80952334D01*
X137401155Y-81042305D01*
X137401158Y-81042307D01*
X137401162Y-81042308D01*
X137401163Y-81042309D01*
X137454253Y-81060886D01*
X137560796Y-81098167D01*
X137728850Y-81117102D01*
X137728853Y-81117102D01*
X137728856Y-81117102D01*
X137896909Y-81098167D01*
X137896912Y-81098166D01*
X138056543Y-81042309D01*
X138056545Y-81042307D01*
X138056547Y-81042307D01*
X138056550Y-81042305D01*
X138199737Y-80952334D01*
X138199738Y-80952333D01*
X138199743Y-80952330D01*
X138319330Y-80832743D01*
X138340930Y-80798367D01*
X138409305Y-80689550D01*
X138409307Y-80689547D01*
X138409307Y-80689545D01*
X138409309Y-80689543D01*
X138465166Y-80529912D01*
X138465166Y-80529911D01*
X138465167Y-80529909D01*
X138484102Y-80361855D01*
X138484102Y-80361850D01*
X138472627Y-80260002D01*
X147414751Y-80260002D01*
X147433685Y-80428056D01*
X147489545Y-80587694D01*
X147489547Y-80587697D01*
X147579518Y-80730884D01*
X147579523Y-80730890D01*
X147699109Y-80850476D01*
X147699115Y-80850481D01*
X147842302Y-80940452D01*
X147842305Y-80940454D01*
X147842309Y-80940455D01*
X147842310Y-80940456D01*
X147914913Y-80965860D01*
X148001943Y-80996314D01*
X148169997Y-81015249D01*
X148170000Y-81015249D01*
X148170003Y-81015249D01*
X148338056Y-80996314D01*
X148338059Y-80996313D01*
X148497690Y-80940456D01*
X148497692Y-80940454D01*
X148497694Y-80940454D01*
X148497697Y-80940452D01*
X148640884Y-80850481D01*
X148640885Y-80850480D01*
X148640890Y-80850477D01*
X148760477Y-80730890D01*
X148810745Y-80650890D01*
X148850452Y-80587697D01*
X148850454Y-80587694D01*
X148850454Y-80587692D01*
X148850456Y-80587690D01*
X148906313Y-80428059D01*
X148906313Y-80428058D01*
X148906314Y-80428056D01*
X148925249Y-80260002D01*
X148925249Y-80259997D01*
X148906314Y-80091943D01*
X148850454Y-79932305D01*
X148850452Y-79932302D01*
X148760481Y-79789115D01*
X148760476Y-79789109D01*
X148640890Y-79669523D01*
X148640884Y-79669518D01*
X148497697Y-79579547D01*
X148497694Y-79579545D01*
X148338056Y-79523685D01*
X148170003Y-79504751D01*
X148169997Y-79504751D01*
X148001943Y-79523685D01*
X147842305Y-79579545D01*
X147842302Y-79579547D01*
X147699115Y-79669518D01*
X147699109Y-79669523D01*
X147579523Y-79789109D01*
X147579518Y-79789115D01*
X147489547Y-79932302D01*
X147489545Y-79932305D01*
X147433685Y-80091943D01*
X147414751Y-80259997D01*
X147414751Y-80260002D01*
X138472627Y-80260002D01*
X138465167Y-80193796D01*
X138421582Y-80069238D01*
X138409309Y-80034163D01*
X138409308Y-80034162D01*
X138409307Y-80034158D01*
X138409305Y-80034155D01*
X138319334Y-79890968D01*
X138319329Y-79890962D01*
X138199743Y-79771376D01*
X138199737Y-79771371D01*
X138056550Y-79681400D01*
X138056547Y-79681398D01*
X137896909Y-79625538D01*
X137728856Y-79606604D01*
X137728850Y-79606604D01*
X137560796Y-79625538D01*
X137401158Y-79681398D01*
X137401155Y-79681400D01*
X137257968Y-79771371D01*
X137257962Y-79771376D01*
X137138376Y-79890962D01*
X137138371Y-79890968D01*
X137048400Y-80034155D01*
X137048398Y-80034158D01*
X136992538Y-80193796D01*
X136973604Y-80361850D01*
X136973604Y-80361855D01*
X133782989Y-80361855D01*
X133755079Y-80317437D01*
X133755074Y-80317431D01*
X133635488Y-80197845D01*
X133635485Y-80197843D01*
X133591098Y-80169952D01*
X133544807Y-80117617D01*
X133533851Y-80078842D01*
X133526314Y-80011945D01*
X133526313Y-80011941D01*
X133520190Y-79994443D01*
X133470456Y-79852310D01*
X133470455Y-79852309D01*
X133470454Y-79852305D01*
X133470452Y-79852302D01*
X133380481Y-79709115D01*
X133380476Y-79709109D01*
X133260890Y-79589523D01*
X133260884Y-79589518D01*
X133117697Y-79499547D01*
X133117694Y-79499545D01*
X132958056Y-79443686D01*
X132920304Y-79439432D01*
X132855890Y-79412365D01*
X132816336Y-79354769D01*
X132810969Y-79302331D01*
X132819611Y-79225638D01*
X132812636Y-79163730D01*
X132800676Y-79057581D01*
X132744816Y-78897943D01*
X132744814Y-78897940D01*
X132654843Y-78754753D01*
X132654838Y-78754747D01*
X132535252Y-78635161D01*
X132535246Y-78635156D01*
X132392059Y-78545185D01*
X132392056Y-78545183D01*
X132232418Y-78489323D01*
X132064365Y-78470389D01*
X132064359Y-78470389D01*
X131896305Y-78489323D01*
X131736667Y-78545183D01*
X131736664Y-78545185D01*
X131593477Y-78635156D01*
X131593471Y-78635161D01*
X131473885Y-78754747D01*
X131473880Y-78754753D01*
X131383909Y-78897940D01*
X131383907Y-78897943D01*
X131328047Y-79057581D01*
X131309113Y-79225635D01*
X131309113Y-79225640D01*
X115780500Y-79225640D01*
X115780500Y-76184103D01*
X134064440Y-76184103D01*
X134083374Y-76352157D01*
X134139234Y-76511795D01*
X134139236Y-76511798D01*
X134229207Y-76654985D01*
X134229212Y-76654991D01*
X134348798Y-76774577D01*
X134348804Y-76774582D01*
X134491991Y-76864553D01*
X134491994Y-76864555D01*
X134491998Y-76864556D01*
X134491999Y-76864557D01*
X134554177Y-76886314D01*
X134651632Y-76920415D01*
X134819686Y-76939350D01*
X134819689Y-76939350D01*
X134819691Y-76939350D01*
X134891932Y-76931210D01*
X134938481Y-76925965D01*
X135007303Y-76938019D01*
X135057358Y-76983212D01*
X135090499Y-77035954D01*
X135090500Y-77035956D01*
X135210088Y-77155544D01*
X135210094Y-77155549D01*
X135353281Y-77245520D01*
X135353287Y-77245523D01*
X135353289Y-77245524D01*
X135511925Y-77301032D01*
X135568700Y-77341754D01*
X135588012Y-77377120D01*
X135643520Y-77535755D01*
X135643523Y-77535761D01*
X135733494Y-77678948D01*
X135733499Y-77678954D01*
X135853086Y-77798541D01*
X135935705Y-77850454D01*
X135939983Y-77853142D01*
X135986274Y-77905477D01*
X135996922Y-77974530D01*
X135968547Y-78038379D01*
X135910157Y-78076751D01*
X135860133Y-78081357D01*
X135850002Y-78080216D01*
X135849997Y-78080216D01*
X135681943Y-78099150D01*
X135522305Y-78155010D01*
X135522302Y-78155012D01*
X135379115Y-78244983D01*
X135379109Y-78244988D01*
X135259523Y-78364574D01*
X135259518Y-78364580D01*
X135169548Y-78507765D01*
X135169544Y-78507775D01*
X135161088Y-78531938D01*
X135120364Y-78588713D01*
X135085004Y-78608020D01*
X135012094Y-78633532D01*
X134868901Y-78723507D01*
X134868895Y-78723512D01*
X134749309Y-78843098D01*
X134749304Y-78843104D01*
X134659333Y-78986291D01*
X134659331Y-78986294D01*
X134603471Y-79145932D01*
X134584537Y-79313986D01*
X134584537Y-79313991D01*
X134603471Y-79482045D01*
X134659331Y-79641683D01*
X134659333Y-79641686D01*
X134749304Y-79784873D01*
X134749309Y-79784879D01*
X134868895Y-79904465D01*
X134868901Y-79904470D01*
X135012088Y-79994441D01*
X135012091Y-79994443D01*
X135012095Y-79994444D01*
X135012096Y-79994445D01*
X135084699Y-80019849D01*
X135171729Y-80050303D01*
X135339783Y-80069238D01*
X135339786Y-80069238D01*
X135339789Y-80069238D01*
X135507842Y-80050303D01*
X135507845Y-80050302D01*
X135667476Y-79994445D01*
X135667478Y-79994443D01*
X135667480Y-79994443D01*
X135667483Y-79994441D01*
X135810670Y-79904470D01*
X135810671Y-79904469D01*
X135810676Y-79904466D01*
X135930263Y-79784879D01*
X135995285Y-79681398D01*
X136020238Y-79641686D01*
X136020239Y-79641683D01*
X136020242Y-79641679D01*
X136028695Y-79617520D01*
X136069414Y-79560744D01*
X136104782Y-79541431D01*
X136177690Y-79515921D01*
X136313099Y-79430837D01*
X136380334Y-79411837D01*
X136413298Y-79417611D01*
X136413372Y-79417288D01*
X136419711Y-79418734D01*
X136420026Y-79418790D01*
X136420111Y-79418819D01*
X136420162Y-79418837D01*
X136420161Y-79418837D01*
X136588218Y-79437773D01*
X136588221Y-79437773D01*
X136588224Y-79437773D01*
X136756277Y-79418838D01*
X136776285Y-79411837D01*
X136915911Y-79362980D01*
X136915913Y-79362978D01*
X136915915Y-79362978D01*
X136915918Y-79362976D01*
X137059105Y-79273005D01*
X137059106Y-79273004D01*
X137059111Y-79273001D01*
X137178698Y-79153414D01*
X137178702Y-79153408D01*
X137268673Y-79010221D01*
X137268676Y-79010215D01*
X137268677Y-79010214D01*
X137324534Y-78850583D01*
X137330371Y-78798773D01*
X137357436Y-78734363D01*
X137387620Y-78707665D01*
X137430890Y-78680477D01*
X137434732Y-78676634D01*
X137496051Y-78643147D01*
X137565743Y-78648128D01*
X137610095Y-78676630D01*
X137617454Y-78683989D01*
X137617456Y-78683990D01*
X137617459Y-78683993D01*
X137760646Y-78773964D01*
X137760649Y-78773966D01*
X137760653Y-78773967D01*
X137760654Y-78773968D01*
X137831554Y-78798777D01*
X137920287Y-78829826D01*
X138088341Y-78848761D01*
X138088344Y-78848761D01*
X138088347Y-78848761D01*
X138256400Y-78829826D01*
X138295018Y-78816313D01*
X138416034Y-78773968D01*
X138416036Y-78773966D01*
X138416038Y-78773966D01*
X138416041Y-78773964D01*
X138559228Y-78683993D01*
X138559229Y-78683992D01*
X138559234Y-78683989D01*
X138678821Y-78564402D01*
X138699220Y-78531938D01*
X138768796Y-78421209D01*
X138768798Y-78421206D01*
X138768798Y-78421204D01*
X138768800Y-78421202D01*
X138824657Y-78261571D01*
X138824657Y-78261570D01*
X138824658Y-78261568D01*
X138843593Y-78093514D01*
X138843593Y-78093509D01*
X138824658Y-77925455D01*
X138820039Y-77912256D01*
X144857005Y-77912256D01*
X144875939Y-78080310D01*
X144931799Y-78239948D01*
X144931801Y-78239951D01*
X145021772Y-78383138D01*
X145021777Y-78383144D01*
X145141363Y-78502730D01*
X145141369Y-78502735D01*
X145284556Y-78592706D01*
X145284559Y-78592708D01*
X145284563Y-78592709D01*
X145284564Y-78592710D01*
X145328289Y-78608010D01*
X145444197Y-78648568D01*
X145612251Y-78667503D01*
X145612254Y-78667503D01*
X145612257Y-78667503D01*
X145696283Y-78658034D01*
X145780313Y-78648567D01*
X145780318Y-78648565D01*
X145787095Y-78647019D01*
X145787443Y-78648545D01*
X145848938Y-78645398D01*
X145909570Y-78680118D01*
X145937171Y-78725047D01*
X145941063Y-78736168D01*
X145941068Y-78736180D01*
X146031038Y-78879365D01*
X146031043Y-78879371D01*
X146150629Y-78998957D01*
X146150635Y-78998962D01*
X146293822Y-79088933D01*
X146293825Y-79088935D01*
X146293829Y-79088936D01*
X146293830Y-79088937D01*
X146366433Y-79114341D01*
X146453463Y-79144795D01*
X146621517Y-79163730D01*
X146621520Y-79163730D01*
X146621523Y-79163730D01*
X146789576Y-79144795D01*
X146789579Y-79144794D01*
X146949210Y-79088937D01*
X146949212Y-79088935D01*
X146949214Y-79088935D01*
X146949217Y-79088933D01*
X147092404Y-78998962D01*
X147092405Y-78998961D01*
X147092410Y-78998958D01*
X147211997Y-78879371D01*
X147234785Y-78843104D01*
X147301972Y-78736178D01*
X147301974Y-78736175D01*
X147301974Y-78736173D01*
X147301976Y-78736171D01*
X147357833Y-78576540D01*
X147357833Y-78576539D01*
X147357834Y-78576537D01*
X147376769Y-78408483D01*
X147376769Y-78408478D01*
X147357834Y-78240424D01*
X147306426Y-78093509D01*
X147301976Y-78080791D01*
X147301975Y-78080790D01*
X147301974Y-78080786D01*
X147301972Y-78080783D01*
X147212001Y-77937596D01*
X147211996Y-77937590D01*
X147092410Y-77818004D01*
X147092404Y-77817999D01*
X146949217Y-77728028D01*
X146949214Y-77728026D01*
X146789576Y-77672166D01*
X146621523Y-77653232D01*
X146621517Y-77653232D01*
X146453461Y-77672167D01*
X146446672Y-77673717D01*
X146446324Y-77672195D01*
X146384801Y-77675327D01*
X146324179Y-77640590D01*
X146296599Y-77595678D01*
X146292709Y-77584561D01*
X146202735Y-77441369D01*
X146202730Y-77441363D01*
X146083144Y-77321777D01*
X146083138Y-77321772D01*
X145939951Y-77231801D01*
X145939948Y-77231799D01*
X145780310Y-77175939D01*
X145612257Y-77157005D01*
X145612251Y-77157005D01*
X145444197Y-77175939D01*
X145284559Y-77231799D01*
X145284556Y-77231801D01*
X145141369Y-77321772D01*
X145141363Y-77321777D01*
X145021777Y-77441363D01*
X145021772Y-77441369D01*
X144931801Y-77584556D01*
X144931799Y-77584559D01*
X144875939Y-77744197D01*
X144857005Y-77912251D01*
X144857005Y-77912256D01*
X138820039Y-77912256D01*
X138768798Y-77765817D01*
X138768796Y-77765814D01*
X138678825Y-77622627D01*
X138678820Y-77622621D01*
X138559234Y-77503035D01*
X138559228Y-77503030D01*
X138416041Y-77413059D01*
X138416038Y-77413057D01*
X138256400Y-77357197D01*
X138088347Y-77338263D01*
X138088341Y-77338263D01*
X137920287Y-77357197D01*
X137760649Y-77413057D01*
X137760646Y-77413059D01*
X137617456Y-77503032D01*
X137617447Y-77503039D01*
X137613604Y-77506883D01*
X137552279Y-77540365D01*
X137482588Y-77535376D01*
X137438250Y-77506882D01*
X137430890Y-77499523D01*
X137430887Y-77499520D01*
X137287697Y-77409547D01*
X137287686Y-77409542D01*
X137158628Y-77364382D01*
X137101852Y-77323660D01*
X137076105Y-77258708D01*
X137076362Y-77233464D01*
X137079225Y-77208064D01*
X137070014Y-77126313D01*
X137060290Y-77040007D01*
X137018443Y-76920415D01*
X137004432Y-76880374D01*
X137004431Y-76880373D01*
X137004430Y-76880369D01*
X137004428Y-76880366D01*
X136914457Y-76737179D01*
X136914452Y-76737173D01*
X136794866Y-76617587D01*
X136794860Y-76617582D01*
X136651673Y-76527611D01*
X136651670Y-76527609D01*
X136542885Y-76489544D01*
X136493028Y-76472098D01*
X136436253Y-76431377D01*
X136430042Y-76420002D01*
X140364751Y-76420002D01*
X140383685Y-76588056D01*
X140439545Y-76747694D01*
X140439547Y-76747697D01*
X140529518Y-76890884D01*
X140529523Y-76890890D01*
X140649109Y-77010476D01*
X140649115Y-77010481D01*
X140792302Y-77100452D01*
X140792305Y-77100454D01*
X140792309Y-77100455D01*
X140792310Y-77100456D01*
X140864913Y-77125860D01*
X140951943Y-77156314D01*
X141119997Y-77175249D01*
X141120000Y-77175249D01*
X141120003Y-77175249D01*
X141288056Y-77156314D01*
X141319678Y-77145249D01*
X141447690Y-77100456D01*
X141447692Y-77100454D01*
X141447694Y-77100454D01*
X141447697Y-77100452D01*
X141590884Y-77010481D01*
X141590885Y-77010480D01*
X141590890Y-77010477D01*
X141710477Y-76890890D01*
X141711920Y-76888594D01*
X141800452Y-76747697D01*
X141800454Y-76747694D01*
X141800454Y-76747692D01*
X141800456Y-76747690D01*
X141856313Y-76588059D01*
X141856313Y-76588058D01*
X141856314Y-76588056D01*
X141875249Y-76420002D01*
X141875249Y-76419997D01*
X141861729Y-76300002D01*
X147044751Y-76300002D01*
X147063685Y-76468056D01*
X147119545Y-76627694D01*
X147119547Y-76627697D01*
X147209518Y-76770884D01*
X147209523Y-76770890D01*
X147329109Y-76890476D01*
X147329115Y-76890481D01*
X147472302Y-76980452D01*
X147472305Y-76980454D01*
X147472309Y-76980455D01*
X147472310Y-76980456D01*
X147533711Y-77001941D01*
X147631943Y-77036314D01*
X147799997Y-77055249D01*
X147800000Y-77055249D01*
X147800003Y-77055249D01*
X147968056Y-77036314D01*
X147968059Y-77036313D01*
X148127690Y-76980456D01*
X148127692Y-76980454D01*
X148127694Y-76980454D01*
X148127697Y-76980452D01*
X148270884Y-76890481D01*
X148270885Y-76890480D01*
X148270890Y-76890477D01*
X148390477Y-76770890D01*
X148405055Y-76747690D01*
X148480452Y-76627697D01*
X148480454Y-76627694D01*
X148480454Y-76627692D01*
X148480456Y-76627690D01*
X148536313Y-76468059D01*
X148536313Y-76468058D01*
X148536314Y-76468056D01*
X148555249Y-76300002D01*
X148555249Y-76299997D01*
X148538349Y-76150002D01*
X149544751Y-76150002D01*
X149563685Y-76318056D01*
X149619545Y-76477694D01*
X149619547Y-76477697D01*
X149709518Y-76620884D01*
X149709523Y-76620890D01*
X149829109Y-76740476D01*
X149829115Y-76740481D01*
X149972302Y-76830452D01*
X149972305Y-76830454D01*
X149972309Y-76830455D01*
X149972310Y-76830456D01*
X150006164Y-76842302D01*
X150131943Y-76886314D01*
X150299997Y-76905249D01*
X150300000Y-76905249D01*
X150300002Y-76905249D01*
X150370388Y-76897318D01*
X150439210Y-76909372D01*
X150489264Y-76954564D01*
X150499523Y-76970890D01*
X150499525Y-76970892D01*
X150619109Y-77090476D01*
X150619115Y-77090481D01*
X150762302Y-77180452D01*
X150762308Y-77180455D01*
X150762310Y-77180456D01*
X150841198Y-77208060D01*
X150879922Y-77221610D01*
X150936699Y-77262332D01*
X150962188Y-77324764D01*
X150963686Y-77338056D01*
X151019545Y-77497694D01*
X151019547Y-77497697D01*
X151109518Y-77640884D01*
X151109523Y-77640890D01*
X151229109Y-77760476D01*
X151229115Y-77760481D01*
X151372302Y-77850452D01*
X151372305Y-77850454D01*
X151372309Y-77850455D01*
X151372310Y-77850456D01*
X151529552Y-77905477D01*
X151531944Y-77906314D01*
X151697434Y-77924960D01*
X151761848Y-77952026D01*
X151801404Y-78009621D01*
X151806772Y-78062061D01*
X151804751Y-78080001D01*
X151804751Y-78080002D01*
X151823685Y-78248056D01*
X151879545Y-78407694D01*
X151879547Y-78407697D01*
X151969518Y-78550884D01*
X151969523Y-78550890D01*
X152089109Y-78670476D01*
X152089115Y-78670481D01*
X152232302Y-78760452D01*
X152232305Y-78760454D01*
X152232309Y-78760455D01*
X152232310Y-78760456D01*
X152304913Y-78785860D01*
X152391943Y-78816314D01*
X152559997Y-78835249D01*
X152560000Y-78835249D01*
X152560003Y-78835249D01*
X152728056Y-78816314D01*
X152778174Y-78798777D01*
X152887690Y-78760456D01*
X152887692Y-78760454D01*
X152887694Y-78760454D01*
X152887697Y-78760452D01*
X153030884Y-78670481D01*
X153030885Y-78670480D01*
X153030890Y-78670477D01*
X153150477Y-78550890D01*
X153154064Y-78545182D01*
X153240452Y-78407697D01*
X153240454Y-78407694D01*
X153240454Y-78407692D01*
X153240456Y-78407690D01*
X153296313Y-78248059D01*
X153296313Y-78248058D01*
X153296314Y-78248056D01*
X153315249Y-78080002D01*
X153315249Y-78079997D01*
X153296314Y-77911943D01*
X153240454Y-77752305D01*
X153240452Y-77752302D01*
X153150481Y-77609115D01*
X153150476Y-77609109D01*
X153030890Y-77489523D01*
X153030884Y-77489518D01*
X152887697Y-77399547D01*
X152887694Y-77399545D01*
X152728056Y-77343685D01*
X152562564Y-77325039D01*
X152498150Y-77297972D01*
X152458595Y-77240377D01*
X152453228Y-77187933D01*
X152454580Y-77175941D01*
X152455249Y-77170000D01*
X152453621Y-77155549D01*
X152436314Y-77001943D01*
X152396651Y-76888594D01*
X152380456Y-76842310D01*
X152380455Y-76842309D01*
X152380454Y-76842305D01*
X152380452Y-76842302D01*
X152290481Y-76699115D01*
X152290476Y-76699109D01*
X152170890Y-76579523D01*
X152170884Y-76579518D01*
X152027697Y-76489547D01*
X152027694Y-76489545D01*
X151910075Y-76448389D01*
X151853299Y-76407667D01*
X151846088Y-76390002D01*
X155724751Y-76390002D01*
X155743685Y-76558056D01*
X155799545Y-76717694D01*
X155799547Y-76717697D01*
X155889518Y-76860884D01*
X155889523Y-76860890D01*
X156009109Y-76980476D01*
X156009115Y-76980481D01*
X156152302Y-77070452D01*
X156152305Y-77070454D01*
X156152309Y-77070455D01*
X156152310Y-77070456D01*
X156224913Y-77095860D01*
X156311943Y-77126314D01*
X156479997Y-77145249D01*
X156480000Y-77145249D01*
X156480003Y-77145249D01*
X156648056Y-77126314D01*
X156721954Y-77100456D01*
X156807690Y-77070456D01*
X156807692Y-77070454D01*
X156807694Y-77070454D01*
X156807697Y-77070452D01*
X156950884Y-76980481D01*
X156950885Y-76980480D01*
X156950890Y-76980477D01*
X157070477Y-76860890D01*
X157089600Y-76830456D01*
X157160452Y-76717697D01*
X157160454Y-76717694D01*
X157160454Y-76717692D01*
X157160456Y-76717690D01*
X157216313Y-76558059D01*
X157216313Y-76558058D01*
X157216314Y-76558056D01*
X157235249Y-76390002D01*
X157235249Y-76389997D01*
X157216314Y-76221943D01*
X157185860Y-76134913D01*
X157160456Y-76062310D01*
X157160455Y-76062309D01*
X157160454Y-76062305D01*
X157160452Y-76062302D01*
X157070481Y-75919115D01*
X157070476Y-75919109D01*
X156950890Y-75799523D01*
X156950884Y-75799518D01*
X156807697Y-75709547D01*
X156807694Y-75709545D01*
X156648056Y-75653685D01*
X156480003Y-75634751D01*
X156479997Y-75634751D01*
X156311943Y-75653685D01*
X156152305Y-75709545D01*
X156152302Y-75709547D01*
X156009115Y-75799518D01*
X156009109Y-75799523D01*
X155889523Y-75919109D01*
X155889518Y-75919115D01*
X155799547Y-76062302D01*
X155799545Y-76062305D01*
X155743685Y-76221943D01*
X155724751Y-76389997D01*
X155724751Y-76390002D01*
X151846088Y-76390002D01*
X151827809Y-76345227D01*
X151826313Y-76331941D01*
X151770456Y-76172310D01*
X151770455Y-76172308D01*
X151770452Y-76172302D01*
X151680481Y-76029115D01*
X151680476Y-76029109D01*
X151560890Y-75909523D01*
X151560884Y-75909518D01*
X151417697Y-75819547D01*
X151417694Y-75819545D01*
X151258056Y-75763685D01*
X151090003Y-75744751D01*
X151089997Y-75744751D01*
X151019611Y-75752681D01*
X150950789Y-75740626D01*
X150900735Y-75695434D01*
X150890479Y-75679113D01*
X150890478Y-75679111D01*
X150770890Y-75559523D01*
X150770884Y-75559518D01*
X150627697Y-75469547D01*
X150627694Y-75469545D01*
X150468056Y-75413685D01*
X150300003Y-75394751D01*
X150299997Y-75394751D01*
X150131943Y-75413685D01*
X149972305Y-75469545D01*
X149972302Y-75469547D01*
X149829115Y-75559518D01*
X149829109Y-75559523D01*
X149709523Y-75679109D01*
X149709518Y-75679115D01*
X149619547Y-75822302D01*
X149619545Y-75822305D01*
X149563685Y-75981943D01*
X149544751Y-76149997D01*
X149544751Y-76150002D01*
X148538349Y-76150002D01*
X148536314Y-76131943D01*
X148491009Y-76002468D01*
X148480456Y-75972310D01*
X148480455Y-75972309D01*
X148480454Y-75972305D01*
X148480452Y-75972302D01*
X148390481Y-75829115D01*
X148390476Y-75829109D01*
X148270890Y-75709523D01*
X148270884Y-75709518D01*
X148127697Y-75619547D01*
X148127694Y-75619545D01*
X147968056Y-75563685D01*
X147800003Y-75544751D01*
X147799997Y-75544751D01*
X147631943Y-75563685D01*
X147472305Y-75619545D01*
X147472302Y-75619547D01*
X147329115Y-75709518D01*
X147329109Y-75709523D01*
X147209523Y-75829109D01*
X147209518Y-75829115D01*
X147119547Y-75972302D01*
X147119545Y-75972305D01*
X147063685Y-76131943D01*
X147044751Y-76299997D01*
X147044751Y-76300002D01*
X141861729Y-76300002D01*
X141856314Y-76251943D01*
X141801111Y-76094183D01*
X141800456Y-76092310D01*
X141800455Y-76092309D01*
X141800454Y-76092305D01*
X141800452Y-76092302D01*
X141710481Y-75949115D01*
X141710476Y-75949109D01*
X141590890Y-75829523D01*
X141590884Y-75829518D01*
X141447697Y-75739547D01*
X141447694Y-75739545D01*
X141288056Y-75683685D01*
X141120003Y-75664751D01*
X141119997Y-75664751D01*
X140951943Y-75683685D01*
X140792305Y-75739545D01*
X140792302Y-75739547D01*
X140649115Y-75829518D01*
X140649109Y-75829523D01*
X140529523Y-75949109D01*
X140529518Y-75949115D01*
X140439547Y-76092302D01*
X140439545Y-76092305D01*
X140383685Y-76251943D01*
X140364751Y-76419997D01*
X140364751Y-76420002D01*
X136430042Y-76420002D01*
X136416944Y-76396015D01*
X136361435Y-76237378D01*
X136361434Y-76237375D01*
X136361431Y-76237370D01*
X136271460Y-76094183D01*
X136271455Y-76094177D01*
X136151869Y-75974591D01*
X136151863Y-75974586D01*
X136008676Y-75884615D01*
X136008673Y-75884613D01*
X135849035Y-75828753D01*
X135680982Y-75809819D01*
X135680975Y-75809819D01*
X135562184Y-75823203D01*
X135493362Y-75811148D01*
X135443307Y-75765955D01*
X135434966Y-75752681D01*
X135410166Y-75713211D01*
X135290579Y-75593624D01*
X135290573Y-75593619D01*
X135147386Y-75503648D01*
X135147383Y-75503646D01*
X134987745Y-75447786D01*
X134819692Y-75428852D01*
X134819686Y-75428852D01*
X134651632Y-75447786D01*
X134491994Y-75503646D01*
X134491991Y-75503648D01*
X134348804Y-75593619D01*
X134348798Y-75593624D01*
X134229212Y-75713210D01*
X134229207Y-75713216D01*
X134139236Y-75856403D01*
X134139234Y-75856406D01*
X134083374Y-76016044D01*
X134064440Y-76184098D01*
X134064440Y-76184103D01*
X115780500Y-76184103D01*
X115780500Y-76092704D01*
X115780736Y-76087298D01*
X115782923Y-76062310D01*
X115784475Y-76044556D01*
X115796918Y-75918226D01*
X115800540Y-75898316D01*
X115818398Y-75831668D01*
X115819050Y-75829523D01*
X115846689Y-75738408D01*
X115852949Y-75722047D01*
X115884413Y-75654573D01*
X115885863Y-75651672D01*
X115930775Y-75567647D01*
X115934643Y-75561351D01*
X115981011Y-75495130D01*
X115983818Y-75491431D01*
X116043122Y-75419169D01*
X116047169Y-75414703D01*
X116104705Y-75357167D01*
X116109161Y-75353128D01*
X116181408Y-75293837D01*
X116185155Y-75290994D01*
X116251335Y-75244653D01*
X116257658Y-75240770D01*
X116341658Y-75195871D01*
X116344603Y-75194399D01*
X116412038Y-75162953D01*
X116428405Y-75156691D01*
X116521682Y-75128395D01*
X116588310Y-75110542D01*
X116608217Y-75106920D01*
X116734501Y-75094480D01*
X116777304Y-75090735D01*
X116782706Y-75090500D01*
X118948507Y-75090500D01*
X118948507Y-75090499D01*
X119136358Y-75069333D01*
X119139672Y-75069051D01*
X119221123Y-75064308D01*
X119241107Y-75057531D01*
X119283394Y-75052767D01*
X119482309Y-75007366D01*
X119485312Y-75006759D01*
X119560369Y-74993525D01*
X119576740Y-74985813D01*
X119611954Y-74977776D01*
X119611964Y-74977772D01*
X119611966Y-74977772D01*
X119661578Y-74960411D01*
X119820139Y-74904928D01*
X119822810Y-74904062D01*
X119889247Y-74884172D01*
X119902033Y-74876272D01*
X119930051Y-74866469D01*
X120146658Y-74762156D01*
X120203398Y-74737682D01*
X120212736Y-74730334D01*
X120233686Y-74720246D01*
X120455135Y-74581099D01*
X120498649Y-74555977D01*
X120504802Y-74549891D01*
X120519039Y-74540946D01*
X120742956Y-74362378D01*
X120771056Y-74341459D01*
X120774408Y-74337296D01*
X120782523Y-74330825D01*
X121006410Y-74106937D01*
X121016987Y-74096959D01*
X121018021Y-74095326D01*
X121020825Y-74092523D01*
X121230946Y-73829039D01*
X121246034Y-73805027D01*
X124910530Y-73805027D01*
X124929464Y-73973081D01*
X124985324Y-74132719D01*
X124985326Y-74132722D01*
X125075297Y-74275909D01*
X125075302Y-74275915D01*
X125194888Y-74395501D01*
X125194894Y-74395506D01*
X125338081Y-74485477D01*
X125338084Y-74485479D01*
X125338088Y-74485480D01*
X125338089Y-74485481D01*
X125410692Y-74510885D01*
X125497722Y-74541339D01*
X125665776Y-74560274D01*
X125665779Y-74560274D01*
X125665782Y-74560274D01*
X125833835Y-74541339D01*
X125848196Y-74536314D01*
X125993469Y-74485481D01*
X125993471Y-74485479D01*
X125993473Y-74485479D01*
X125993476Y-74485477D01*
X126136663Y-74395506D01*
X126136664Y-74395505D01*
X126136669Y-74395502D01*
X126256256Y-74275915D01*
X126256260Y-74275909D01*
X126346231Y-74132722D01*
X126346235Y-74132714D01*
X126348943Y-74124977D01*
X126363499Y-74083375D01*
X126404220Y-74026599D01*
X126439587Y-74007287D01*
X126487690Y-73990456D01*
X126487693Y-73990453D01*
X126487697Y-73990452D01*
X126630884Y-73900481D01*
X126630885Y-73900480D01*
X126630890Y-73900477D01*
X126750477Y-73780890D01*
X126782738Y-73729547D01*
X126840452Y-73637697D01*
X126840454Y-73637694D01*
X126840454Y-73637692D01*
X126840456Y-73637690D01*
X126896313Y-73478059D01*
X126896313Y-73478058D01*
X126896314Y-73478056D01*
X126915249Y-73310002D01*
X126915249Y-73309997D01*
X126896314Y-73141943D01*
X126840454Y-72982305D01*
X126840452Y-72982302D01*
X126750481Y-72839115D01*
X126750476Y-72839109D01*
X126630890Y-72719523D01*
X126630884Y-72719518D01*
X126487697Y-72629547D01*
X126487694Y-72629545D01*
X126328056Y-72573685D01*
X126160003Y-72554751D01*
X126159997Y-72554751D01*
X125991943Y-72573685D01*
X125832305Y-72629545D01*
X125832302Y-72629547D01*
X125689115Y-72719518D01*
X125689109Y-72719523D01*
X125569523Y-72839109D01*
X125569518Y-72839115D01*
X125479548Y-72982300D01*
X125479545Y-72982306D01*
X125462278Y-73031652D01*
X125421555Y-73088427D01*
X125386194Y-73107736D01*
X125338085Y-73124570D01*
X125338079Y-73124573D01*
X125194894Y-73214543D01*
X125194888Y-73214548D01*
X125075302Y-73334134D01*
X125075297Y-73334140D01*
X124985326Y-73477327D01*
X124985324Y-73477330D01*
X124929464Y-73636968D01*
X124910530Y-73805022D01*
X124910530Y-73805027D01*
X121246034Y-73805027D01*
X121410246Y-73543686D01*
X121556469Y-73240051D01*
X121667776Y-72921954D01*
X121742767Y-72593394D01*
X121780500Y-72258504D01*
X121780500Y-71950002D01*
X128294751Y-71950002D01*
X128313685Y-72118056D01*
X128369545Y-72277694D01*
X128369547Y-72277697D01*
X128459518Y-72420884D01*
X128459523Y-72420890D01*
X128579109Y-72540476D01*
X128579115Y-72540481D01*
X128722302Y-72630452D01*
X128722305Y-72630454D01*
X128722309Y-72630455D01*
X128722310Y-72630456D01*
X128881941Y-72686313D01*
X128881944Y-72686314D01*
X128976918Y-72697015D01*
X129041332Y-72724081D01*
X129080888Y-72781676D01*
X129083025Y-72851513D01*
X129050717Y-72907916D01*
X128929518Y-73029115D01*
X128839547Y-73172302D01*
X128839545Y-73172305D01*
X128783685Y-73331943D01*
X128764751Y-73499997D01*
X128764751Y-73500002D01*
X128783685Y-73668056D01*
X128839545Y-73827694D01*
X128839547Y-73827697D01*
X128929518Y-73970884D01*
X128929523Y-73970890D01*
X129041940Y-74083307D01*
X129075425Y-74144630D01*
X129070441Y-74214322D01*
X129028569Y-74270255D01*
X128995216Y-74288029D01*
X128962308Y-74299544D01*
X128962302Y-74299547D01*
X128819115Y-74389518D01*
X128819109Y-74389523D01*
X128699523Y-74509109D01*
X128699518Y-74509115D01*
X128609547Y-74652302D01*
X128609545Y-74652305D01*
X128553685Y-74811943D01*
X128534751Y-74979997D01*
X128534751Y-74980002D01*
X128553685Y-75148056D01*
X128609545Y-75307694D01*
X128609547Y-75307697D01*
X128699518Y-75450884D01*
X128699523Y-75450890D01*
X128819109Y-75570476D01*
X128819115Y-75570481D01*
X128962302Y-75660452D01*
X128962305Y-75660454D01*
X128962309Y-75660455D01*
X128962310Y-75660456D01*
X129015623Y-75679111D01*
X129121943Y-75716314D01*
X129289997Y-75735249D01*
X129290000Y-75735249D01*
X129290003Y-75735249D01*
X129458056Y-75716314D01*
X129477401Y-75709545D01*
X129617690Y-75660456D01*
X129617692Y-75660454D01*
X129617694Y-75660454D01*
X129617697Y-75660452D01*
X129760884Y-75570481D01*
X129760885Y-75570480D01*
X129760890Y-75570477D01*
X129880477Y-75450890D01*
X129882426Y-75447788D01*
X129970452Y-75307697D01*
X129970454Y-75307694D01*
X129970454Y-75307692D01*
X129970456Y-75307690D01*
X130026313Y-75148059D01*
X130026313Y-75148058D01*
X130026314Y-75148056D01*
X130045249Y-74980002D01*
X130045249Y-74979997D01*
X130026314Y-74811943D01*
X129986199Y-74697300D01*
X129970456Y-74652310D01*
X129970455Y-74652309D01*
X129970454Y-74652305D01*
X129970452Y-74652302D01*
X129880481Y-74509115D01*
X129880476Y-74509109D01*
X129768059Y-74396692D01*
X129734574Y-74335369D01*
X129739558Y-74265677D01*
X129781430Y-74209744D01*
X129814785Y-74191969D01*
X129847690Y-74180456D01*
X129851211Y-74178244D01*
X129877767Y-74161556D01*
X129938158Y-74123610D01*
X130005393Y-74104610D01*
X130072229Y-74124977D01*
X130117443Y-74178244D01*
X130127350Y-74214719D01*
X130136431Y-74295309D01*
X130192290Y-74454947D01*
X130192292Y-74454950D01*
X130282263Y-74598137D01*
X130282268Y-74598143D01*
X130401854Y-74717729D01*
X130401860Y-74717734D01*
X130545047Y-74807705D01*
X130545050Y-74807707D01*
X130545054Y-74807708D01*
X130545055Y-74807709D01*
X130617658Y-74833113D01*
X130704688Y-74863567D01*
X130872742Y-74882502D01*
X130872745Y-74882502D01*
X130872748Y-74882502D01*
X131040801Y-74863567D01*
X131040804Y-74863566D01*
X131200435Y-74807709D01*
X131200437Y-74807707D01*
X131200439Y-74807707D01*
X131200442Y-74807705D01*
X131343629Y-74717734D01*
X131343630Y-74717733D01*
X131343635Y-74717730D01*
X131463222Y-74598143D01*
X131489717Y-74555977D01*
X131553197Y-74454950D01*
X131553199Y-74454947D01*
X131553199Y-74454945D01*
X131553201Y-74454943D01*
X131568926Y-74410002D01*
X132924751Y-74410002D01*
X132943685Y-74578056D01*
X132999545Y-74737694D01*
X132999547Y-74737697D01*
X133089518Y-74880884D01*
X133089523Y-74880890D01*
X133209109Y-75000476D01*
X133209115Y-75000481D01*
X133352302Y-75090452D01*
X133352305Y-75090454D01*
X133352309Y-75090455D01*
X133352310Y-75090456D01*
X133399356Y-75106918D01*
X133511943Y-75146314D01*
X133679997Y-75165249D01*
X133680000Y-75165249D01*
X133680003Y-75165249D01*
X133848056Y-75146314D01*
X133848059Y-75146313D01*
X134007690Y-75090456D01*
X134007692Y-75090454D01*
X134007694Y-75090454D01*
X134007697Y-75090452D01*
X134150884Y-75000481D01*
X134150885Y-75000480D01*
X134150890Y-75000477D01*
X134270477Y-74880890D01*
X134273380Y-74876270D01*
X134360452Y-74737697D01*
X134360454Y-74737694D01*
X134360454Y-74737692D01*
X134360456Y-74737690D01*
X134374588Y-74697302D01*
X136817451Y-74697302D01*
X136836385Y-74865356D01*
X136892245Y-75024994D01*
X136892247Y-75024997D01*
X136982218Y-75168184D01*
X136982223Y-75168190D01*
X137101809Y-75287776D01*
X137101815Y-75287781D01*
X137245002Y-75377752D01*
X137245005Y-75377754D01*
X137245009Y-75377755D01*
X137245010Y-75377756D01*
X137253967Y-75380890D01*
X137404643Y-75433614D01*
X137572697Y-75452549D01*
X137572700Y-75452549D01*
X137572703Y-75452549D01*
X137740756Y-75433614D01*
X137781992Y-75419185D01*
X137900390Y-75377756D01*
X137900392Y-75377754D01*
X137900394Y-75377754D01*
X137900397Y-75377752D01*
X138043584Y-75287781D01*
X138043585Y-75287780D01*
X138043590Y-75287777D01*
X138163177Y-75168190D01*
X138166463Y-75162961D01*
X138253152Y-75024997D01*
X138253154Y-75024994D01*
X138253154Y-75024992D01*
X138253156Y-75024990D01*
X138293392Y-74910002D01*
X143864751Y-74910002D01*
X143883685Y-75078056D01*
X143939545Y-75237694D01*
X143939547Y-75237697D01*
X144029518Y-75380884D01*
X144029523Y-75380890D01*
X144149109Y-75500476D01*
X144149115Y-75500481D01*
X144292302Y-75590452D01*
X144292305Y-75590454D01*
X144292309Y-75590455D01*
X144292310Y-75590456D01*
X144301364Y-75593624D01*
X144451943Y-75646314D01*
X144619997Y-75665249D01*
X144620000Y-75665249D01*
X144620003Y-75665249D01*
X144788056Y-75646314D01*
X144821101Y-75634751D01*
X144947690Y-75590456D01*
X144947692Y-75590454D01*
X144947694Y-75590454D01*
X144947697Y-75590452D01*
X145090884Y-75500481D01*
X145090885Y-75500480D01*
X145090890Y-75500477D01*
X145210477Y-75380890D01*
X145212446Y-75377756D01*
X145300452Y-75237697D01*
X145300454Y-75237694D01*
X145300454Y-75237692D01*
X145300456Y-75237690D01*
X145356313Y-75078059D01*
X145356313Y-75078058D01*
X145356314Y-75078056D01*
X145371080Y-74947006D01*
X151801755Y-74947006D01*
X151820689Y-75115060D01*
X151876549Y-75274698D01*
X151876551Y-75274701D01*
X151966522Y-75417888D01*
X151966527Y-75417894D01*
X152086113Y-75537480D01*
X152086119Y-75537485D01*
X152229306Y-75627456D01*
X152229309Y-75627458D01*
X152229313Y-75627459D01*
X152229314Y-75627460D01*
X152250151Y-75634751D01*
X152388947Y-75683318D01*
X152557001Y-75702253D01*
X152557004Y-75702253D01*
X152557007Y-75702253D01*
X152725060Y-75683318D01*
X152725063Y-75683317D01*
X152884694Y-75627460D01*
X152884696Y-75627458D01*
X152884698Y-75627458D01*
X152884701Y-75627456D01*
X153027888Y-75537485D01*
X153027889Y-75537484D01*
X153027894Y-75537481D01*
X153147481Y-75417894D01*
X153149506Y-75414671D01*
X153237456Y-75274701D01*
X153237458Y-75274698D01*
X153237458Y-75274696D01*
X153237460Y-75274694D01*
X153293317Y-75115063D01*
X153293317Y-75115062D01*
X153293318Y-75115060D01*
X153312253Y-74947006D01*
X153312253Y-74947001D01*
X153293318Y-74778947D01*
X153237458Y-74619309D01*
X153237456Y-74619306D01*
X153147485Y-74476119D01*
X153147480Y-74476113D01*
X153027894Y-74356527D01*
X153027888Y-74356522D01*
X152884701Y-74266551D01*
X152884698Y-74266549D01*
X152725060Y-74210689D01*
X152557007Y-74191755D01*
X152557001Y-74191755D01*
X152388947Y-74210689D01*
X152229309Y-74266549D01*
X152229306Y-74266551D01*
X152086119Y-74356522D01*
X152086113Y-74356527D01*
X151966527Y-74476113D01*
X151966522Y-74476119D01*
X151876551Y-74619306D01*
X151876549Y-74619309D01*
X151820689Y-74778947D01*
X151801755Y-74947001D01*
X151801755Y-74947006D01*
X145371080Y-74947006D01*
X145375249Y-74910002D01*
X145375249Y-74909997D01*
X145356313Y-74741942D01*
X145354825Y-74737690D01*
X145343944Y-74706591D01*
X145340383Y-74636812D01*
X145375112Y-74576185D01*
X145437105Y-74543958D01*
X145474867Y-74542417D01*
X145500000Y-74545249D01*
X145500001Y-74545248D01*
X145500002Y-74545249D01*
X145500003Y-74545249D01*
X145600835Y-74533887D01*
X145668059Y-74526313D01*
X145827690Y-74470456D01*
X145876070Y-74440056D01*
X145943305Y-74421056D01*
X146008013Y-74440056D01*
X146056395Y-74470456D01*
X146072310Y-74480456D01*
X146193621Y-74522904D01*
X146231943Y-74536314D01*
X146399997Y-74555249D01*
X146400000Y-74555249D01*
X146400003Y-74555249D01*
X146568056Y-74536314D01*
X146588264Y-74529243D01*
X146727690Y-74480456D01*
X146727692Y-74480454D01*
X146727694Y-74480454D01*
X146727697Y-74480452D01*
X146870884Y-74390481D01*
X146870885Y-74390480D01*
X146870890Y-74390477D01*
X146990477Y-74270890D01*
X146990876Y-74270255D01*
X147080452Y-74127697D01*
X147080454Y-74127694D01*
X147080454Y-74127692D01*
X147080456Y-74127690D01*
X147136313Y-73968059D01*
X147136313Y-73968058D01*
X147136314Y-73968056D01*
X147155249Y-73800002D01*
X147155249Y-73799997D01*
X147136314Y-73631943D01*
X147105430Y-73543683D01*
X147080456Y-73472310D01*
X147080455Y-73472309D01*
X147080454Y-73472305D01*
X147080452Y-73472302D01*
X146990481Y-73329115D01*
X146990476Y-73329109D01*
X146870890Y-73209523D01*
X146870884Y-73209518D01*
X146734189Y-73123626D01*
X148244751Y-73123626D01*
X148263685Y-73291680D01*
X148319545Y-73451318D01*
X148319547Y-73451321D01*
X148409518Y-73594508D01*
X148409523Y-73594514D01*
X148529109Y-73714100D01*
X148529115Y-73714105D01*
X148672302Y-73804076D01*
X148672305Y-73804078D01*
X148672309Y-73804079D01*
X148672310Y-73804080D01*
X148716430Y-73819518D01*
X148831943Y-73859938D01*
X148999997Y-73878873D01*
X149000000Y-73878873D01*
X149000003Y-73878873D01*
X149168056Y-73859938D01*
X149168059Y-73859937D01*
X149327690Y-73804080D01*
X149327692Y-73804078D01*
X149327694Y-73804078D01*
X149327697Y-73804076D01*
X149470884Y-73714105D01*
X149470885Y-73714104D01*
X149470890Y-73714101D01*
X149590477Y-73594514D01*
X149622415Y-73543686D01*
X149680452Y-73451321D01*
X149680454Y-73451318D01*
X149680454Y-73451316D01*
X149680456Y-73451314D01*
X149736313Y-73291683D01*
X149736313Y-73291682D01*
X149736314Y-73291680D01*
X149755249Y-73123626D01*
X149755249Y-73123621D01*
X149736314Y-72955567D01*
X149695564Y-72839110D01*
X149680456Y-72795934D01*
X149680455Y-72795933D01*
X149680454Y-72795929D01*
X149680452Y-72795926D01*
X149590481Y-72652739D01*
X149590476Y-72652733D01*
X149470890Y-72533147D01*
X149470884Y-72533142D01*
X149327697Y-72443171D01*
X149327694Y-72443169D01*
X149168056Y-72387309D01*
X149000003Y-72368375D01*
X148999997Y-72368375D01*
X148831943Y-72387309D01*
X148672305Y-72443169D01*
X148672302Y-72443171D01*
X148529115Y-72533142D01*
X148529109Y-72533147D01*
X148409523Y-72652733D01*
X148409518Y-72652739D01*
X148319547Y-72795926D01*
X148319545Y-72795929D01*
X148263685Y-72955567D01*
X148244751Y-73123621D01*
X148244751Y-73123626D01*
X146734189Y-73123626D01*
X146727697Y-73119547D01*
X146727694Y-73119545D01*
X146568056Y-73063685D01*
X146400003Y-73044751D01*
X146399997Y-73044751D01*
X146231943Y-73063685D01*
X146072308Y-73119544D01*
X146023927Y-73149944D01*
X145956690Y-73168943D01*
X145891985Y-73149943D01*
X145827692Y-73109545D01*
X145827691Y-73109544D01*
X145827690Y-73109544D01*
X145767341Y-73088427D01*
X145668056Y-73053685D01*
X145500003Y-73034751D01*
X145499997Y-73034751D01*
X145331943Y-73053685D01*
X145172305Y-73109545D01*
X145172302Y-73109547D01*
X145029115Y-73199518D01*
X145029109Y-73199523D01*
X144909523Y-73319109D01*
X144909518Y-73319115D01*
X144819547Y-73462302D01*
X144819545Y-73462305D01*
X144763685Y-73621943D01*
X144744751Y-73789997D01*
X144744751Y-73790002D01*
X144763686Y-73958059D01*
X144776055Y-73993409D01*
X144779616Y-74063188D01*
X144744886Y-74123815D01*
X144682892Y-74156041D01*
X144645130Y-74157582D01*
X144620004Y-74154751D01*
X144619997Y-74154751D01*
X144451943Y-74173685D01*
X144292305Y-74229545D01*
X144292302Y-74229547D01*
X144149115Y-74319518D01*
X144149109Y-74319523D01*
X144029523Y-74439109D01*
X144029518Y-74439115D01*
X143939547Y-74582302D01*
X143939545Y-74582305D01*
X143883685Y-74741943D01*
X143864751Y-74909997D01*
X143864751Y-74910002D01*
X138293392Y-74910002D01*
X138309013Y-74865359D01*
X138309013Y-74865358D01*
X138309014Y-74865356D01*
X138327949Y-74697302D01*
X138327949Y-74697297D01*
X138309014Y-74529243D01*
X138262216Y-74395502D01*
X138253156Y-74369610D01*
X138253155Y-74369609D01*
X138253154Y-74369605D01*
X138253152Y-74369602D01*
X138163181Y-74226415D01*
X138163176Y-74226409D01*
X138043590Y-74106823D01*
X138043584Y-74106818D01*
X137900397Y-74016847D01*
X137900394Y-74016845D01*
X137740756Y-73960985D01*
X137572703Y-73942051D01*
X137572697Y-73942051D01*
X137404643Y-73960985D01*
X137245005Y-74016845D01*
X137245002Y-74016847D01*
X137101815Y-74106818D01*
X137101809Y-74106823D01*
X136982223Y-74226409D01*
X136982218Y-74226415D01*
X136892247Y-74369602D01*
X136892245Y-74369605D01*
X136836385Y-74529243D01*
X136817451Y-74697297D01*
X136817451Y-74697302D01*
X134374588Y-74697302D01*
X134416313Y-74578059D01*
X134416313Y-74578058D01*
X134416314Y-74578056D01*
X134435249Y-74410002D01*
X134435249Y-74409997D01*
X134416314Y-74241943D01*
X134378093Y-74132714D01*
X134360456Y-74082310D01*
X134360455Y-74082309D01*
X134360454Y-74082305D01*
X134360452Y-74082302D01*
X134270481Y-73939115D01*
X134270476Y-73939109D01*
X134150890Y-73819523D01*
X134150884Y-73819518D01*
X134007697Y-73729547D01*
X134007694Y-73729545D01*
X133848056Y-73673685D01*
X133680003Y-73654751D01*
X133679997Y-73654751D01*
X133511943Y-73673685D01*
X133352305Y-73729545D01*
X133352302Y-73729547D01*
X133209115Y-73819518D01*
X133209109Y-73819523D01*
X133089523Y-73939109D01*
X133089518Y-73939115D01*
X132999547Y-74082302D01*
X132999545Y-74082305D01*
X132943685Y-74241943D01*
X132924751Y-74409997D01*
X132924751Y-74410002D01*
X131568926Y-74410002D01*
X131609058Y-74295312D01*
X131609058Y-74295311D01*
X131609059Y-74295309D01*
X131627994Y-74127255D01*
X131627994Y-74127250D01*
X131609059Y-73959196D01*
X131560185Y-73819523D01*
X131553201Y-73799563D01*
X131553200Y-73799562D01*
X131553199Y-73799558D01*
X131553197Y-73799555D01*
X131463226Y-73656368D01*
X131463221Y-73656362D01*
X131343635Y-73536776D01*
X131343629Y-73536771D01*
X131200442Y-73446800D01*
X131200439Y-73446798D01*
X131040801Y-73390938D01*
X130872748Y-73372004D01*
X130872742Y-73372004D01*
X130704688Y-73390938D01*
X130545052Y-73446798D01*
X130454586Y-73503642D01*
X130387349Y-73522642D01*
X130320514Y-73502274D01*
X130275300Y-73449006D01*
X130265394Y-73412531D01*
X130256314Y-73331944D01*
X130248636Y-73310002D01*
X130200456Y-73172310D01*
X130200455Y-73172309D01*
X130200454Y-73172305D01*
X130200452Y-73172302D01*
X130110481Y-73029115D01*
X130110476Y-73029109D01*
X129990890Y-72909523D01*
X129990884Y-72909518D01*
X129847697Y-72819547D01*
X129847694Y-72819545D01*
X129688055Y-72763685D01*
X129593080Y-72752984D01*
X129528666Y-72725917D01*
X129489111Y-72668322D01*
X129486974Y-72598485D01*
X129519283Y-72542083D01*
X129520887Y-72540478D01*
X129520890Y-72540477D01*
X129634804Y-72426562D01*
X129696125Y-72393079D01*
X129765817Y-72398063D01*
X129788454Y-72409250D01*
X129802308Y-72417955D01*
X129802310Y-72417956D01*
X129874362Y-72443168D01*
X129961943Y-72473814D01*
X130129997Y-72492749D01*
X130130000Y-72492749D01*
X130130003Y-72492749D01*
X130298056Y-72473814D01*
X130298059Y-72473813D01*
X130457690Y-72417956D01*
X130457692Y-72417954D01*
X130457694Y-72417954D01*
X130457697Y-72417952D01*
X130600884Y-72327981D01*
X130600884Y-72327980D01*
X130600890Y-72327977D01*
X130665804Y-72263062D01*
X130727123Y-72229580D01*
X130796815Y-72234564D01*
X130852749Y-72276435D01*
X130865203Y-72296946D01*
X130866858Y-72300384D01*
X130956830Y-72443572D01*
X130956835Y-72443578D01*
X131076421Y-72563164D01*
X131076427Y-72563169D01*
X131219614Y-72653140D01*
X131219617Y-72653142D01*
X131219621Y-72653143D01*
X131219622Y-72653144D01*
X131292225Y-72678548D01*
X131379255Y-72709002D01*
X131547309Y-72727937D01*
X131547312Y-72727937D01*
X131547315Y-72727937D01*
X131715368Y-72709002D01*
X131715371Y-72709001D01*
X131875002Y-72653144D01*
X131875004Y-72653142D01*
X131875006Y-72653142D01*
X131875009Y-72653140D01*
X132018196Y-72563169D01*
X132018197Y-72563168D01*
X132018202Y-72563165D01*
X132137789Y-72443578D01*
X132148480Y-72426564D01*
X132227764Y-72300385D01*
X132227766Y-72300382D01*
X132227766Y-72300380D01*
X132227768Y-72300378D01*
X132283625Y-72140747D01*
X132283625Y-72140746D01*
X132283626Y-72140744D01*
X132302561Y-71972690D01*
X132302561Y-71972685D01*
X132283626Y-71804631D01*
X132227766Y-71644993D01*
X132227764Y-71644990D01*
X132137793Y-71501803D01*
X132137788Y-71501797D01*
X132018202Y-71382211D01*
X132018196Y-71382206D01*
X131994190Y-71367122D01*
X144272578Y-71367122D01*
X144291512Y-71535176D01*
X144347372Y-71694814D01*
X144347374Y-71694817D01*
X144437345Y-71838004D01*
X144437350Y-71838010D01*
X144556936Y-71957596D01*
X144556942Y-71957601D01*
X144700129Y-72047572D01*
X144700132Y-72047574D01*
X144700136Y-72047575D01*
X144700137Y-72047576D01*
X144770935Y-72072349D01*
X144859770Y-72103434D01*
X145027824Y-72122369D01*
X145027827Y-72122369D01*
X145027830Y-72122369D01*
X145195886Y-72103433D01*
X145195888Y-72103433D01*
X145319152Y-72060301D01*
X145388931Y-72056739D01*
X145426080Y-72072349D01*
X145481701Y-72107299D01*
X145561517Y-72135227D01*
X145641333Y-72163156D01*
X145683347Y-72167890D01*
X145809389Y-72182092D01*
X145809392Y-72182092D01*
X145809395Y-72182092D01*
X145977448Y-72163157D01*
X145977451Y-72163156D01*
X146137082Y-72107299D01*
X146137084Y-72107297D01*
X146137086Y-72107297D01*
X146137089Y-72107295D01*
X146280276Y-72017324D01*
X146280277Y-72017323D01*
X146280282Y-72017320D01*
X146399869Y-71897733D01*
X146437396Y-71838010D01*
X146489844Y-71754540D01*
X146489846Y-71754537D01*
X146489846Y-71754535D01*
X146489848Y-71754533D01*
X146545705Y-71594902D01*
X146545705Y-71594901D01*
X146545706Y-71594899D01*
X146564641Y-71426845D01*
X146564641Y-71426840D01*
X146555983Y-71350002D01*
X149564751Y-71350002D01*
X149583685Y-71518056D01*
X149639545Y-71677694D01*
X149639547Y-71677697D01*
X149729518Y-71820884D01*
X149729523Y-71820890D01*
X149849109Y-71940476D01*
X149849115Y-71940481D01*
X149992302Y-72030452D01*
X149992305Y-72030454D01*
X149992309Y-72030455D01*
X149992310Y-72030456D01*
X150064913Y-72055860D01*
X150151943Y-72086314D01*
X150319997Y-72105249D01*
X150320000Y-72105249D01*
X150320003Y-72105249D01*
X150488056Y-72086314D01*
X150562397Y-72060301D01*
X150647690Y-72030456D01*
X150647692Y-72030454D01*
X150647694Y-72030454D01*
X150647697Y-72030452D01*
X150790884Y-71940481D01*
X150790885Y-71940480D01*
X150790890Y-71940477D01*
X150910477Y-71820890D01*
X150910481Y-71820884D01*
X151000452Y-71677697D01*
X151000454Y-71677694D01*
X151000454Y-71677692D01*
X151000456Y-71677690D01*
X151056313Y-71518059D01*
X151056313Y-71518058D01*
X151056314Y-71518056D01*
X151075249Y-71350002D01*
X151075249Y-71349997D01*
X151056314Y-71181943D01*
X151010303Y-71050452D01*
X151000456Y-71022310D01*
X151000455Y-71022309D01*
X151000454Y-71022305D01*
X151000452Y-71022302D01*
X150910481Y-70879115D01*
X150910476Y-70879109D01*
X150790890Y-70759523D01*
X150790884Y-70759518D01*
X150647697Y-70669547D01*
X150647694Y-70669545D01*
X150488056Y-70613685D01*
X150320003Y-70594751D01*
X150319997Y-70594751D01*
X150151943Y-70613685D01*
X149992305Y-70669545D01*
X149992302Y-70669547D01*
X149849115Y-70759518D01*
X149849109Y-70759523D01*
X149729523Y-70879109D01*
X149729518Y-70879115D01*
X149639547Y-71022302D01*
X149639545Y-71022305D01*
X149583685Y-71181943D01*
X149564751Y-71349997D01*
X149564751Y-71350002D01*
X146555983Y-71350002D01*
X146545706Y-71258786D01*
X146489846Y-71099148D01*
X146489844Y-71099145D01*
X146399873Y-70955958D01*
X146399868Y-70955952D01*
X146280282Y-70836366D01*
X146280276Y-70836361D01*
X146137089Y-70746390D01*
X146137086Y-70746388D01*
X145977448Y-70690528D01*
X145809395Y-70671594D01*
X145809389Y-70671594D01*
X145641334Y-70690529D01*
X145518066Y-70733662D01*
X145448287Y-70737223D01*
X145411140Y-70721614D01*
X145355519Y-70686665D01*
X145355518Y-70686664D01*
X145355517Y-70686664D01*
X145306599Y-70669547D01*
X145195883Y-70630805D01*
X145027830Y-70611871D01*
X145027824Y-70611871D01*
X144859770Y-70630805D01*
X144700132Y-70686665D01*
X144700129Y-70686667D01*
X144556942Y-70776638D01*
X144556936Y-70776643D01*
X144437350Y-70896229D01*
X144437345Y-70896235D01*
X144347374Y-71039422D01*
X144347372Y-71039425D01*
X144291512Y-71199063D01*
X144272578Y-71367117D01*
X144272578Y-71367122D01*
X131994190Y-71367122D01*
X131875009Y-71292235D01*
X131875006Y-71292233D01*
X131715368Y-71236373D01*
X131547315Y-71217439D01*
X131547309Y-71217439D01*
X131379255Y-71236373D01*
X131219617Y-71292233D01*
X131219614Y-71292235D01*
X131076427Y-71382206D01*
X131011510Y-71447123D01*
X130950186Y-71480607D01*
X130880495Y-71475622D01*
X130824561Y-71433751D01*
X130812106Y-71413237D01*
X130810451Y-71409800D01*
X130720481Y-71266615D01*
X130720476Y-71266609D01*
X130600890Y-71147023D01*
X130600884Y-71147018D01*
X130457697Y-71057047D01*
X130457694Y-71057045D01*
X130298056Y-71001185D01*
X130130003Y-70982251D01*
X130129997Y-70982251D01*
X129961943Y-71001185D01*
X129802305Y-71057045D01*
X129802302Y-71057047D01*
X129659115Y-71147018D01*
X129659113Y-71147020D01*
X129545196Y-71260936D01*
X129483872Y-71294420D01*
X129414180Y-71289435D01*
X129391543Y-71278248D01*
X129377692Y-71269545D01*
X129377691Y-71269544D01*
X129377690Y-71269544D01*
X129339370Y-71256135D01*
X129218056Y-71213685D01*
X129050003Y-71194751D01*
X129049997Y-71194751D01*
X128881943Y-71213685D01*
X128722305Y-71269545D01*
X128722302Y-71269547D01*
X128579115Y-71359518D01*
X128579109Y-71359523D01*
X128459523Y-71479109D01*
X128459518Y-71479115D01*
X128369547Y-71622302D01*
X128369545Y-71622305D01*
X128313685Y-71781943D01*
X128294751Y-71949997D01*
X128294751Y-71950002D01*
X121780500Y-71950002D01*
X121780500Y-71921496D01*
X121742767Y-71586606D01*
X121667776Y-71258046D01*
X121556469Y-70939949D01*
X121410246Y-70636314D01*
X121242910Y-70370002D01*
X122944751Y-70370002D01*
X122963685Y-70538056D01*
X123019545Y-70697694D01*
X123019547Y-70697697D01*
X123109518Y-70840884D01*
X123109523Y-70840890D01*
X123229109Y-70960476D01*
X123229115Y-70960481D01*
X123372302Y-71050452D01*
X123372305Y-71050454D01*
X123372309Y-71050455D01*
X123372310Y-71050456D01*
X123444913Y-71075860D01*
X123531943Y-71106314D01*
X123699997Y-71125249D01*
X123700000Y-71125249D01*
X123700003Y-71125249D01*
X123868056Y-71106314D01*
X123888521Y-71099153D01*
X124027690Y-71050456D01*
X124027692Y-71050454D01*
X124027694Y-71050454D01*
X124027697Y-71050452D01*
X124170884Y-70960481D01*
X124170885Y-70960480D01*
X124170890Y-70960477D01*
X124290477Y-70840890D01*
X124323355Y-70788566D01*
X124380452Y-70697697D01*
X124380454Y-70697694D01*
X124380454Y-70697692D01*
X124380456Y-70697690D01*
X124436313Y-70538059D01*
X124436313Y-70538058D01*
X124436314Y-70538056D01*
X124455249Y-70370002D01*
X124455249Y-70369997D01*
X124436314Y-70201943D01*
X124405860Y-70114913D01*
X124380456Y-70042310D01*
X124380455Y-70042309D01*
X124380454Y-70042305D01*
X124380452Y-70042302D01*
X124290481Y-69899115D01*
X124290476Y-69899109D01*
X124170890Y-69779523D01*
X124170884Y-69779518D01*
X124027697Y-69689547D01*
X124027694Y-69689545D01*
X123868056Y-69633685D01*
X123700003Y-69614751D01*
X123699997Y-69614751D01*
X123531943Y-69633685D01*
X123372305Y-69689545D01*
X123372302Y-69689547D01*
X123229115Y-69779518D01*
X123229109Y-69779523D01*
X123109523Y-69899109D01*
X123109518Y-69899115D01*
X123019547Y-70042302D01*
X123019545Y-70042305D01*
X122963685Y-70201943D01*
X122944751Y-70369997D01*
X122944751Y-70370002D01*
X121242910Y-70370002D01*
X121230946Y-70350961D01*
X121020825Y-70087477D01*
X121018015Y-70084667D01*
X121017273Y-70083309D01*
X121006372Y-70073024D01*
X120782520Y-69849172D01*
X120774405Y-69842701D01*
X120771952Y-69839207D01*
X120742939Y-69817607D01*
X120582352Y-69689544D01*
X120519039Y-69639054D01*
X120510498Y-69633687D01*
X120504795Y-69630103D01*
X120500216Y-69624926D01*
X120455113Y-69598885D01*
X120233686Y-69459754D01*
X120212731Y-69449662D01*
X120205689Y-69443303D01*
X120146612Y-69417820D01*
X119930062Y-69313535D01*
X119930059Y-69313534D01*
X119930052Y-69313531D01*
X119930051Y-69313531D01*
X119902031Y-69303726D01*
X119892286Y-69296736D01*
X119822792Y-69275931D01*
X119820097Y-69275056D01*
X119611965Y-69202227D01*
X119611960Y-69202225D01*
X119576734Y-69194185D01*
X119564137Y-69187138D01*
X119485298Y-69173237D01*
X119482268Y-69172624D01*
X119283397Y-69127233D01*
X119283381Y-69127231D01*
X119241075Y-69122464D01*
X119225571Y-69115949D01*
X119139654Y-69110946D01*
X119136316Y-69110661D01*
X118948510Y-69089500D01*
X118948504Y-69089500D01*
X118780099Y-69089500D01*
X116782710Y-69089500D01*
X116777303Y-69089264D01*
X116775015Y-69089063D01*
X116734554Y-69085523D01*
X116608240Y-69073082D01*
X116588301Y-69069454D01*
X116521678Y-69051603D01*
X116428427Y-69023316D01*
X116412023Y-69017039D01*
X116344633Y-68985614D01*
X116341615Y-68984106D01*
X116257672Y-68939238D01*
X116251332Y-68935343D01*
X116227726Y-68918814D01*
X116185164Y-68889012D01*
X116181404Y-68886159D01*
X116109182Y-68826887D01*
X116104681Y-68822808D01*
X116047187Y-68765314D01*
X116043108Y-68760813D01*
X115983845Y-68688599D01*
X115980983Y-68684828D01*
X115934660Y-68618672D01*
X115930765Y-68612331D01*
X115885890Y-68528376D01*
X115884378Y-68525352D01*
X115855328Y-68463054D01*
X115852957Y-68457970D01*
X115846688Y-68441584D01*
X115818388Y-68348293D01*
X115804108Y-68294997D01*
X126440973Y-68294997D01*
X126459907Y-68463051D01*
X126515767Y-68622689D01*
X126515769Y-68622692D01*
X126605740Y-68765879D01*
X126605745Y-68765885D01*
X126725331Y-68885471D01*
X126725337Y-68885476D01*
X126868524Y-68975447D01*
X126868527Y-68975449D01*
X126868531Y-68975450D01*
X126868532Y-68975451D01*
X126939332Y-69000225D01*
X127028165Y-69031309D01*
X127196219Y-69050244D01*
X127196222Y-69050244D01*
X127196225Y-69050244D01*
X127364278Y-69031309D01*
X127364281Y-69031308D01*
X127523912Y-68975451D01*
X127523914Y-68975449D01*
X127523916Y-68975449D01*
X127523919Y-68975447D01*
X127667106Y-68885476D01*
X127667107Y-68885475D01*
X127667112Y-68885472D01*
X127786699Y-68765885D01*
X127807698Y-68732466D01*
X127876674Y-68622692D01*
X127876676Y-68622689D01*
X127876676Y-68622687D01*
X127876678Y-68622685D01*
X127932535Y-68463054D01*
X127932535Y-68463053D01*
X127932536Y-68463051D01*
X127951471Y-68294997D01*
X127951471Y-68294992D01*
X127932536Y-68126938D01*
X127876676Y-67967300D01*
X127876674Y-67967297D01*
X127786703Y-67824110D01*
X127786698Y-67824104D01*
X127667112Y-67704518D01*
X127667106Y-67704513D01*
X127523919Y-67614542D01*
X127523916Y-67614540D01*
X127364278Y-67558680D01*
X127196225Y-67539746D01*
X127196219Y-67539746D01*
X127028165Y-67558680D01*
X126868527Y-67614540D01*
X126868524Y-67614542D01*
X126725337Y-67704513D01*
X126725331Y-67704518D01*
X126605745Y-67824104D01*
X126605740Y-67824110D01*
X126515769Y-67967297D01*
X126515767Y-67967300D01*
X126459907Y-68126938D01*
X126440973Y-68294992D01*
X126440973Y-68294997D01*
X115804108Y-68294997D01*
X115800543Y-68281693D01*
X115796919Y-68261777D01*
X115784476Y-68135445D01*
X115780735Y-68092694D01*
X115780500Y-68087294D01*
X115780500Y-65850002D01*
X141794751Y-65850002D01*
X141813685Y-66018056D01*
X141869545Y-66177694D01*
X141869547Y-66177697D01*
X141959518Y-66320884D01*
X141959523Y-66320890D01*
X142079109Y-66440476D01*
X142079115Y-66440481D01*
X142222302Y-66530452D01*
X142222305Y-66530454D01*
X142222309Y-66530455D01*
X142222310Y-66530456D01*
X142294913Y-66555860D01*
X142381943Y-66586314D01*
X142549997Y-66605249D01*
X142550000Y-66605249D01*
X142550003Y-66605249D01*
X142718056Y-66586314D01*
X142718059Y-66586313D01*
X142877690Y-66530456D01*
X142877692Y-66530454D01*
X142877694Y-66530454D01*
X142877697Y-66530452D01*
X142989817Y-66460002D01*
X149004751Y-66460002D01*
X149023685Y-66628056D01*
X149079545Y-66787694D01*
X149079547Y-66787697D01*
X149169518Y-66930884D01*
X149169523Y-66930890D01*
X149289109Y-67050476D01*
X149289115Y-67050481D01*
X149432302Y-67140452D01*
X149432305Y-67140454D01*
X149432309Y-67140455D01*
X149432310Y-67140456D01*
X149504913Y-67165860D01*
X149591943Y-67196314D01*
X149759997Y-67215249D01*
X149760000Y-67215249D01*
X149760003Y-67215249D01*
X149928056Y-67196314D01*
X149928059Y-67196313D01*
X150087690Y-67140456D01*
X150087692Y-67140454D01*
X150087694Y-67140454D01*
X150087697Y-67140452D01*
X150230884Y-67050481D01*
X150230885Y-67050480D01*
X150230890Y-67050477D01*
X150350477Y-66930890D01*
X150440452Y-66787697D01*
X150440454Y-66787694D01*
X150440454Y-66787692D01*
X150440456Y-66787690D01*
X150496313Y-66628059D01*
X150496313Y-66628058D01*
X150496314Y-66628056D01*
X150515249Y-66460002D01*
X150515249Y-66459997D01*
X150496314Y-66291943D01*
X150465860Y-66204913D01*
X150440456Y-66132310D01*
X150440455Y-66132309D01*
X150440454Y-66132305D01*
X150440452Y-66132302D01*
X150350481Y-65989115D01*
X150350476Y-65989109D01*
X150230890Y-65869523D01*
X150230884Y-65869518D01*
X150183910Y-65840002D01*
X152344751Y-65840002D01*
X152363685Y-66008056D01*
X152419545Y-66167694D01*
X152419547Y-66167697D01*
X152509518Y-66310884D01*
X152509523Y-66310890D01*
X152629109Y-66430476D01*
X152629115Y-66430481D01*
X152772302Y-66520452D01*
X152772305Y-66520454D01*
X152772309Y-66520455D01*
X152772310Y-66520456D01*
X152800883Y-66530454D01*
X152931943Y-66576314D01*
X153099997Y-66595249D01*
X153100000Y-66595249D01*
X153100003Y-66595249D01*
X153268056Y-66576314D01*
X153268059Y-66576313D01*
X153427690Y-66520456D01*
X153427692Y-66520454D01*
X153427694Y-66520454D01*
X153427697Y-66520452D01*
X153570884Y-66430481D01*
X153570885Y-66430480D01*
X153570890Y-66430477D01*
X153690477Y-66310890D01*
X153690481Y-66310884D01*
X153780452Y-66167697D01*
X153780454Y-66167694D01*
X153780454Y-66167692D01*
X153780456Y-66167690D01*
X153836313Y-66008059D01*
X153836313Y-66008058D01*
X153836314Y-66008056D01*
X153855249Y-65840002D01*
X153855249Y-65839997D01*
X153836314Y-65671943D01*
X153780454Y-65512305D01*
X153780452Y-65512302D01*
X153690481Y-65369115D01*
X153690476Y-65369109D01*
X153570890Y-65249523D01*
X153570884Y-65249518D01*
X153427697Y-65159547D01*
X153427694Y-65159545D01*
X153268056Y-65103685D01*
X153100003Y-65084751D01*
X153099997Y-65084751D01*
X152931943Y-65103685D01*
X152772305Y-65159545D01*
X152772302Y-65159547D01*
X152629115Y-65249518D01*
X152629109Y-65249523D01*
X152509523Y-65369109D01*
X152509518Y-65369115D01*
X152419547Y-65512302D01*
X152419545Y-65512305D01*
X152363685Y-65671943D01*
X152344751Y-65839997D01*
X152344751Y-65840002D01*
X150183910Y-65840002D01*
X150087697Y-65779547D01*
X150087694Y-65779545D01*
X149928056Y-65723685D01*
X149760003Y-65704751D01*
X149759997Y-65704751D01*
X149591943Y-65723685D01*
X149432305Y-65779545D01*
X149432302Y-65779547D01*
X149289115Y-65869518D01*
X149289109Y-65869523D01*
X149169523Y-65989109D01*
X149169518Y-65989115D01*
X149079547Y-66132302D01*
X149079545Y-66132305D01*
X149023685Y-66291943D01*
X149004751Y-66459997D01*
X149004751Y-66460002D01*
X142989817Y-66460002D01*
X143020884Y-66440481D01*
X143020885Y-66440480D01*
X143020890Y-66440477D01*
X143140477Y-66320890D01*
X143140481Y-66320884D01*
X143230452Y-66177697D01*
X143230454Y-66177694D01*
X143230454Y-66177692D01*
X143230456Y-66177690D01*
X143286313Y-66018059D01*
X143286313Y-66018058D01*
X143286314Y-66018056D01*
X143305249Y-65850002D01*
X143305249Y-65849997D01*
X143286314Y-65681943D01*
X143230454Y-65522305D01*
X143230452Y-65522302D01*
X143140481Y-65379115D01*
X143140476Y-65379109D01*
X143020890Y-65259523D01*
X143020884Y-65259518D01*
X142877697Y-65169547D01*
X142877694Y-65169545D01*
X142718056Y-65113685D01*
X142550003Y-65094751D01*
X142549997Y-65094751D01*
X142381943Y-65113685D01*
X142222305Y-65169545D01*
X142222302Y-65169547D01*
X142079115Y-65259518D01*
X142079109Y-65259523D01*
X141959523Y-65379109D01*
X141959518Y-65379115D01*
X141869547Y-65522302D01*
X141869545Y-65522305D01*
X141813685Y-65681943D01*
X141794751Y-65849997D01*
X141794751Y-65850002D01*
X115780500Y-65850002D01*
X115780500Y-63260002D01*
X119094751Y-63260002D01*
X119113685Y-63428056D01*
X119169545Y-63587694D01*
X119169547Y-63587697D01*
X119259518Y-63730884D01*
X119259523Y-63730890D01*
X119379109Y-63850476D01*
X119379115Y-63850481D01*
X119522302Y-63940452D01*
X119522305Y-63940454D01*
X119522309Y-63940455D01*
X119522310Y-63940456D01*
X119567627Y-63956313D01*
X119681943Y-63996314D01*
X119849997Y-64015249D01*
X119850000Y-64015249D01*
X119850003Y-64015249D01*
X120018056Y-63996314D01*
X120049678Y-63985249D01*
X120177690Y-63940456D01*
X120279028Y-63876780D01*
X120346264Y-63857780D01*
X120410971Y-63876780D01*
X120448644Y-63900452D01*
X120512306Y-63940454D01*
X120512307Y-63940454D01*
X120512310Y-63940456D01*
X120611743Y-63975249D01*
X120671943Y-63996314D01*
X120839997Y-64015249D01*
X120840000Y-64015249D01*
X120840003Y-64015249D01*
X121008056Y-63996314D01*
X121039678Y-63985249D01*
X121167690Y-63940456D01*
X121302899Y-63855497D01*
X121370136Y-63836497D01*
X121434845Y-63855498D01*
X121522307Y-63910454D01*
X121522305Y-63910454D01*
X121522309Y-63910455D01*
X121522310Y-63910456D01*
X121550883Y-63920454D01*
X121681943Y-63966314D01*
X121849997Y-63985249D01*
X121850000Y-63985249D01*
X121850003Y-63985249D01*
X122018056Y-63966314D01*
X122018059Y-63966313D01*
X122177690Y-63910456D01*
X122296984Y-63835497D01*
X122364221Y-63816497D01*
X122428929Y-63835498D01*
X122532302Y-63900452D01*
X122532305Y-63900454D01*
X122532309Y-63900455D01*
X122532310Y-63900456D01*
X122560883Y-63910454D01*
X122691943Y-63956314D01*
X122859997Y-63975249D01*
X122860000Y-63975249D01*
X122860003Y-63975249D01*
X123028056Y-63956314D01*
X123028059Y-63956313D01*
X123187690Y-63900456D01*
X123278114Y-63843638D01*
X123345348Y-63824638D01*
X123410056Y-63843638D01*
X123462802Y-63876781D01*
X123532306Y-63920454D01*
X123532307Y-63920454D01*
X123532310Y-63920456D01*
X123634784Y-63956313D01*
X123691943Y-63976314D01*
X123859997Y-63995249D01*
X123860000Y-63995249D01*
X123860003Y-63995249D01*
X124028056Y-63976314D01*
X124031100Y-63975249D01*
X124187690Y-63920456D01*
X124294028Y-63853638D01*
X124361263Y-63834638D01*
X124425970Y-63853638D01*
X124462802Y-63876781D01*
X124532306Y-63920454D01*
X124532307Y-63920454D01*
X124532310Y-63920456D01*
X124634784Y-63956313D01*
X124691943Y-63976314D01*
X124859997Y-63995249D01*
X124860000Y-63995249D01*
X124860003Y-63995249D01*
X125028056Y-63976314D01*
X125031100Y-63975249D01*
X125187690Y-63920456D01*
X125309944Y-63843638D01*
X125377177Y-63824638D01*
X125441886Y-63843638D01*
X125452776Y-63850481D01*
X125532307Y-63900454D01*
X125532305Y-63900454D01*
X125532309Y-63900455D01*
X125532310Y-63900456D01*
X125560883Y-63910454D01*
X125691943Y-63956314D01*
X125859997Y-63975249D01*
X125860000Y-63975249D01*
X125860003Y-63975249D01*
X126028056Y-63956314D01*
X126028059Y-63956313D01*
X126187690Y-63900456D01*
X126294028Y-63833638D01*
X126361263Y-63814638D01*
X126425970Y-63833638D01*
X126464392Y-63857780D01*
X126532306Y-63900454D01*
X126532307Y-63900454D01*
X126532310Y-63900456D01*
X126638730Y-63937693D01*
X126691943Y-63956314D01*
X126859997Y-63975249D01*
X126860000Y-63975249D01*
X126860003Y-63975249D01*
X127028056Y-63956314D01*
X127028059Y-63956313D01*
X127187690Y-63900456D01*
X127187692Y-63900454D01*
X127187694Y-63900454D01*
X127187697Y-63900452D01*
X127330884Y-63810481D01*
X127330885Y-63810480D01*
X127330890Y-63810477D01*
X127450477Y-63690890D01*
X127463301Y-63670481D01*
X127540452Y-63547697D01*
X127540454Y-63547694D01*
X127540454Y-63547692D01*
X127540456Y-63547690D01*
X127596313Y-63388059D01*
X127596313Y-63388058D01*
X127596314Y-63388056D01*
X127615249Y-63220002D01*
X127615249Y-63219997D01*
X127599475Y-63080002D01*
X140694751Y-63080002D01*
X140713685Y-63248056D01*
X140769545Y-63407694D01*
X140769547Y-63407697D01*
X140859518Y-63550884D01*
X140859523Y-63550890D01*
X140979109Y-63670476D01*
X140979115Y-63670481D01*
X141122302Y-63760452D01*
X141122305Y-63760454D01*
X141122309Y-63760455D01*
X141122310Y-63760456D01*
X141182068Y-63781366D01*
X141281943Y-63816314D01*
X141449997Y-63835249D01*
X141450000Y-63835249D01*
X141450003Y-63835249D01*
X141618056Y-63816314D01*
X141660772Y-63801367D01*
X141777690Y-63760456D01*
X141777692Y-63760454D01*
X141777694Y-63760454D01*
X141777697Y-63760452D01*
X141920884Y-63670481D01*
X141920885Y-63670480D01*
X141920890Y-63670477D01*
X142040477Y-63550890D01*
X142040481Y-63550884D01*
X142130452Y-63407697D01*
X142130454Y-63407694D01*
X142130454Y-63407692D01*
X142130456Y-63407690D01*
X142186313Y-63248059D01*
X142186313Y-63248058D01*
X142186314Y-63248056D01*
X142205249Y-63080002D01*
X142205249Y-63079997D01*
X142199616Y-63030002D01*
X148504751Y-63030002D01*
X148523685Y-63198056D01*
X148579545Y-63357694D01*
X148579547Y-63357697D01*
X148669518Y-63500884D01*
X148669523Y-63500890D01*
X148789109Y-63620476D01*
X148789115Y-63620481D01*
X148932302Y-63710452D01*
X148932305Y-63710454D01*
X148932309Y-63710455D01*
X148932310Y-63710456D01*
X148990690Y-63730884D01*
X149091943Y-63766314D01*
X149259997Y-63785249D01*
X149260000Y-63785249D01*
X149260003Y-63785249D01*
X149428056Y-63766314D01*
X149444809Y-63760452D01*
X149587690Y-63710456D01*
X149587692Y-63710454D01*
X149587694Y-63710454D01*
X149587697Y-63710452D01*
X149730884Y-63620481D01*
X149730885Y-63620480D01*
X149730890Y-63620477D01*
X149850477Y-63500890D01*
X149896242Y-63428056D01*
X149940452Y-63357697D01*
X149940454Y-63357694D01*
X149940454Y-63357692D01*
X149940456Y-63357690D01*
X149996313Y-63198059D01*
X149996313Y-63198058D01*
X149996314Y-63198056D01*
X150015249Y-63030002D01*
X150015249Y-63029997D01*
X149996314Y-62861943D01*
X149940454Y-62702305D01*
X149940452Y-62702302D01*
X149850481Y-62559115D01*
X149850476Y-62559109D01*
X149730890Y-62439523D01*
X149730884Y-62439518D01*
X149587697Y-62349547D01*
X149587694Y-62349545D01*
X149428056Y-62293685D01*
X149260003Y-62274751D01*
X149259997Y-62274751D01*
X149091943Y-62293685D01*
X148932305Y-62349545D01*
X148932302Y-62349547D01*
X148789115Y-62439518D01*
X148789109Y-62439523D01*
X148669523Y-62559109D01*
X148669518Y-62559115D01*
X148579547Y-62702302D01*
X148579545Y-62702305D01*
X148523685Y-62861943D01*
X148504751Y-63029997D01*
X148504751Y-63030002D01*
X142199616Y-63030002D01*
X142186314Y-62911943D01*
X142155860Y-62824913D01*
X142130456Y-62752310D01*
X142130455Y-62752309D01*
X142130454Y-62752305D01*
X142130452Y-62752302D01*
X142040481Y-62609115D01*
X142040476Y-62609109D01*
X141920890Y-62489523D01*
X141920884Y-62489518D01*
X141777697Y-62399547D01*
X141777694Y-62399545D01*
X141618056Y-62343685D01*
X141450003Y-62324751D01*
X141449997Y-62324751D01*
X141281943Y-62343685D01*
X141122305Y-62399545D01*
X141122302Y-62399547D01*
X140979115Y-62489518D01*
X140979109Y-62489523D01*
X140859523Y-62609109D01*
X140859518Y-62609115D01*
X140769547Y-62752302D01*
X140769545Y-62752305D01*
X140713685Y-62911943D01*
X140694751Y-63079997D01*
X140694751Y-63080002D01*
X127599475Y-63080002D01*
X127596314Y-63051943D01*
X127565860Y-62964913D01*
X127540456Y-62892310D01*
X127540455Y-62892309D01*
X127540454Y-62892305D01*
X127540452Y-62892302D01*
X127450481Y-62749115D01*
X127450476Y-62749109D01*
X127330890Y-62629523D01*
X127330884Y-62629518D01*
X127187697Y-62539547D01*
X127187694Y-62539545D01*
X127028056Y-62483685D01*
X126860003Y-62464751D01*
X126859997Y-62464751D01*
X126691943Y-62483685D01*
X126532307Y-62539545D01*
X126425972Y-62606361D01*
X126358736Y-62625361D01*
X126294028Y-62606361D01*
X126187692Y-62539545D01*
X126187691Y-62539544D01*
X126187690Y-62539544D01*
X126142367Y-62523685D01*
X126028056Y-62483685D01*
X125860003Y-62464751D01*
X125859997Y-62464751D01*
X125691943Y-62483685D01*
X125532307Y-62539545D01*
X125410057Y-62616361D01*
X125342821Y-62635361D01*
X125278112Y-62616360D01*
X125187692Y-62559545D01*
X125187694Y-62559545D01*
X125028056Y-62503685D01*
X124860003Y-62484751D01*
X124859997Y-62484751D01*
X124691943Y-62503685D01*
X124532307Y-62559545D01*
X124425972Y-62626361D01*
X124358736Y-62645361D01*
X124294028Y-62626361D01*
X124187692Y-62559545D01*
X124187691Y-62559544D01*
X124187690Y-62559544D01*
X124130533Y-62539544D01*
X124028056Y-62503685D01*
X123860003Y-62484751D01*
X123859997Y-62484751D01*
X123691943Y-62503685D01*
X123532307Y-62559545D01*
X123441886Y-62616361D01*
X123374649Y-62635361D01*
X123309941Y-62616360D01*
X123187692Y-62539545D01*
X123187694Y-62539545D01*
X123028056Y-62483685D01*
X122860003Y-62464751D01*
X122859997Y-62464751D01*
X122691943Y-62483685D01*
X122532307Y-62539545D01*
X122413014Y-62614502D01*
X122345777Y-62633502D01*
X122281070Y-62614502D01*
X122177692Y-62549545D01*
X122177691Y-62549544D01*
X122177690Y-62549544D01*
X122103795Y-62523687D01*
X122018056Y-62493685D01*
X121850003Y-62474751D01*
X121849997Y-62474751D01*
X121681943Y-62493685D01*
X121522307Y-62549545D01*
X121387099Y-62634502D01*
X121319862Y-62653502D01*
X121255155Y-62634502D01*
X121167692Y-62579545D01*
X121167691Y-62579544D01*
X121167690Y-62579544D01*
X121109290Y-62559109D01*
X121008056Y-62523685D01*
X120840003Y-62504751D01*
X120839997Y-62504751D01*
X120671943Y-62523685D01*
X120512307Y-62579545D01*
X120410972Y-62643219D01*
X120343736Y-62662219D01*
X120279028Y-62643219D01*
X120177692Y-62579545D01*
X120177691Y-62579544D01*
X120177690Y-62579544D01*
X120119290Y-62559109D01*
X120018056Y-62523685D01*
X119850003Y-62504751D01*
X119849997Y-62504751D01*
X119681943Y-62523685D01*
X119522305Y-62579545D01*
X119522302Y-62579547D01*
X119379115Y-62669518D01*
X119379109Y-62669523D01*
X119259523Y-62789109D01*
X119259518Y-62789115D01*
X119169547Y-62932302D01*
X119169545Y-62932305D01*
X119113685Y-63091943D01*
X119094751Y-63259997D01*
X119094751Y-63260002D01*
X115780500Y-63260002D01*
X115780500Y-60900002D01*
X130904751Y-60900002D01*
X130923685Y-61068056D01*
X130979545Y-61227694D01*
X130979547Y-61227697D01*
X131069518Y-61370884D01*
X131069523Y-61370890D01*
X131189109Y-61490476D01*
X131189115Y-61490481D01*
X131332302Y-61580452D01*
X131332305Y-61580454D01*
X131332309Y-61580455D01*
X131332310Y-61580456D01*
X131360883Y-61590454D01*
X131491943Y-61636314D01*
X131659997Y-61655249D01*
X131660000Y-61655249D01*
X131660003Y-61655249D01*
X131828056Y-61636314D01*
X131831100Y-61635249D01*
X131987690Y-61580456D01*
X131987692Y-61580454D01*
X131987694Y-61580454D01*
X131987697Y-61580452D01*
X132130884Y-61490481D01*
X132130885Y-61490480D01*
X132130890Y-61490477D01*
X132250477Y-61370890D01*
X132263048Y-61350884D01*
X132340452Y-61227697D01*
X132340454Y-61227694D01*
X132340454Y-61227692D01*
X132340456Y-61227690D01*
X132396313Y-61068059D01*
X132396313Y-61068058D01*
X132396314Y-61068056D01*
X132414122Y-60910002D01*
X138704751Y-60910002D01*
X138723685Y-61078056D01*
X138779545Y-61237694D01*
X138779547Y-61237697D01*
X138869518Y-61380884D01*
X138869523Y-61380890D01*
X138989109Y-61500476D01*
X138989115Y-61500481D01*
X139132302Y-61590452D01*
X139132305Y-61590454D01*
X139132309Y-61590455D01*
X139132310Y-61590456D01*
X139204913Y-61615860D01*
X139291943Y-61646314D01*
X139459997Y-61665249D01*
X139460000Y-61665249D01*
X139460003Y-61665249D01*
X139628056Y-61646314D01*
X139628059Y-61646313D01*
X139787690Y-61590456D01*
X139787692Y-61590454D01*
X139787694Y-61590454D01*
X139787697Y-61590452D01*
X139930884Y-61500481D01*
X139930885Y-61500480D01*
X139930890Y-61500477D01*
X140050477Y-61380890D01*
X140050481Y-61380884D01*
X140140452Y-61237697D01*
X140140457Y-61237687D01*
X140154401Y-61197836D01*
X140195121Y-61141059D01*
X140260073Y-61115310D01*
X140285327Y-61115568D01*
X140459997Y-61135249D01*
X140460000Y-61135249D01*
X140460003Y-61135249D01*
X140628056Y-61116314D01*
X140630925Y-61115310D01*
X140787690Y-61060456D01*
X140787692Y-61060454D01*
X140787694Y-61060454D01*
X140787697Y-61060452D01*
X140930884Y-60970481D01*
X140930885Y-60970480D01*
X140930890Y-60970477D01*
X140991365Y-60910002D01*
X146504751Y-60910002D01*
X146523685Y-61078056D01*
X146579545Y-61237694D01*
X146579547Y-61237697D01*
X146669518Y-61380884D01*
X146669523Y-61380890D01*
X146789109Y-61500476D01*
X146789115Y-61500481D01*
X146932302Y-61590452D01*
X146932305Y-61590454D01*
X146932309Y-61590455D01*
X146932310Y-61590456D01*
X147004913Y-61615860D01*
X147091943Y-61646314D01*
X147259997Y-61665249D01*
X147260000Y-61665249D01*
X147260003Y-61665249D01*
X147428056Y-61646314D01*
X147428059Y-61646313D01*
X147587690Y-61590456D01*
X147587692Y-61590454D01*
X147587694Y-61590454D01*
X147587697Y-61590452D01*
X147730884Y-61500481D01*
X147730885Y-61500480D01*
X147730890Y-61500477D01*
X147850477Y-61380890D01*
X147850481Y-61380884D01*
X147940452Y-61237697D01*
X147940454Y-61237694D01*
X147940454Y-61237692D01*
X147940456Y-61237690D01*
X147996313Y-61078059D01*
X147996313Y-61078058D01*
X147996314Y-61078056D01*
X148015249Y-60910002D01*
X148015249Y-60909997D01*
X148011869Y-60880002D01*
X154294751Y-60880002D01*
X154313685Y-61048056D01*
X154369545Y-61207694D01*
X154369547Y-61207697D01*
X154459518Y-61350884D01*
X154459523Y-61350890D01*
X154579109Y-61470476D01*
X154579115Y-61470481D01*
X154722302Y-61560452D01*
X154722305Y-61560454D01*
X154722309Y-61560455D01*
X154722310Y-61560456D01*
X154779456Y-61580452D01*
X154881943Y-61616314D01*
X155049997Y-61635249D01*
X155050000Y-61635249D01*
X155050003Y-61635249D01*
X155218056Y-61616314D01*
X155291954Y-61590456D01*
X155377690Y-61560456D01*
X155377692Y-61560454D01*
X155377694Y-61560454D01*
X155377697Y-61560452D01*
X155520884Y-61470481D01*
X155520885Y-61470480D01*
X155520890Y-61470477D01*
X155640477Y-61350890D01*
X155640481Y-61350884D01*
X155730452Y-61207697D01*
X155730454Y-61207694D01*
X155730454Y-61207692D01*
X155730456Y-61207690D01*
X155786313Y-61048059D01*
X155786313Y-61048058D01*
X155786314Y-61048056D01*
X155805249Y-60880002D01*
X155805249Y-60879997D01*
X155786314Y-60711943D01*
X155740952Y-60582305D01*
X155730456Y-60552310D01*
X155730455Y-60552309D01*
X155730454Y-60552305D01*
X155730452Y-60552302D01*
X155640481Y-60409115D01*
X155640476Y-60409109D01*
X155520890Y-60289523D01*
X155520884Y-60289518D01*
X155377697Y-60199547D01*
X155377694Y-60199545D01*
X155218056Y-60143685D01*
X155050003Y-60124751D01*
X155049997Y-60124751D01*
X154881943Y-60143685D01*
X154722305Y-60199545D01*
X154722302Y-60199547D01*
X154579115Y-60289518D01*
X154579109Y-60289523D01*
X154459523Y-60409109D01*
X154459518Y-60409115D01*
X154369547Y-60552302D01*
X154369545Y-60552305D01*
X154313685Y-60711943D01*
X154294751Y-60879997D01*
X154294751Y-60880002D01*
X148011869Y-60880002D01*
X147996314Y-60741943D01*
X147940454Y-60582305D01*
X147940452Y-60582302D01*
X147850481Y-60439115D01*
X147850476Y-60439109D01*
X147730890Y-60319523D01*
X147730884Y-60319518D01*
X147587697Y-60229547D01*
X147587694Y-60229545D01*
X147428056Y-60173685D01*
X147260003Y-60154751D01*
X147259997Y-60154751D01*
X147091943Y-60173685D01*
X146932305Y-60229545D01*
X146932302Y-60229547D01*
X146789115Y-60319518D01*
X146789109Y-60319523D01*
X146669523Y-60439109D01*
X146669518Y-60439115D01*
X146579547Y-60582302D01*
X146579545Y-60582305D01*
X146523685Y-60741943D01*
X146504751Y-60909997D01*
X146504751Y-60910002D01*
X140991365Y-60910002D01*
X141050477Y-60850890D01*
X141050481Y-60850884D01*
X141140452Y-60707697D01*
X141140454Y-60707694D01*
X141140454Y-60707692D01*
X141140456Y-60707690D01*
X141196313Y-60548059D01*
X141196313Y-60548058D01*
X141196314Y-60548056D01*
X141215249Y-60380002D01*
X141215249Y-60379997D01*
X141196314Y-60211943D01*
X141140454Y-60052305D01*
X141140452Y-60052302D01*
X141050481Y-59909115D01*
X141050476Y-59909109D01*
X140930890Y-59789523D01*
X140930884Y-59789518D01*
X140787697Y-59699547D01*
X140787694Y-59699545D01*
X140628056Y-59643685D01*
X140460003Y-59624751D01*
X140459997Y-59624751D01*
X140291943Y-59643685D01*
X140132305Y-59699545D01*
X140132302Y-59699547D01*
X139989115Y-59789518D01*
X139989109Y-59789523D01*
X139869523Y-59909109D01*
X139869518Y-59909115D01*
X139779543Y-60052308D01*
X139765596Y-60092167D01*
X139724873Y-60148943D01*
X139659920Y-60174689D01*
X139634672Y-60174431D01*
X139460004Y-60154751D01*
X139459997Y-60154751D01*
X139291943Y-60173685D01*
X139132305Y-60229545D01*
X139132302Y-60229547D01*
X138989115Y-60319518D01*
X138989109Y-60319523D01*
X138869523Y-60439109D01*
X138869518Y-60439115D01*
X138779547Y-60582302D01*
X138779545Y-60582305D01*
X138723685Y-60741943D01*
X138704751Y-60909997D01*
X138704751Y-60910002D01*
X132414122Y-60910002D01*
X132415249Y-60900002D01*
X132415249Y-60899997D01*
X132396314Y-60731943D01*
X132340454Y-60572305D01*
X132340452Y-60572302D01*
X132250481Y-60429115D01*
X132250476Y-60429109D01*
X132130890Y-60309523D01*
X132130884Y-60309518D01*
X131987697Y-60219547D01*
X131987694Y-60219545D01*
X131828056Y-60163685D01*
X131660003Y-60144751D01*
X131659997Y-60144751D01*
X131491943Y-60163685D01*
X131332305Y-60219545D01*
X131332302Y-60219547D01*
X131189115Y-60309518D01*
X131189109Y-60309523D01*
X131069523Y-60429109D01*
X131069518Y-60429115D01*
X130979547Y-60572302D01*
X130979545Y-60572305D01*
X130923685Y-60731943D01*
X130904751Y-60899997D01*
X130904751Y-60900002D01*
X115780500Y-60900002D01*
X115780500Y-57592705D01*
X115780736Y-57587299D01*
X115784476Y-57544554D01*
X115796918Y-57418226D01*
X115800540Y-57398316D01*
X115818398Y-57331668D01*
X115846689Y-57238408D01*
X115852949Y-57222047D01*
X115884413Y-57154573D01*
X115885863Y-57151672D01*
X115930775Y-57067647D01*
X115934643Y-57061351D01*
X115981011Y-56995130D01*
X115983818Y-56991431D01*
X116043122Y-56919169D01*
X116047169Y-56914703D01*
X116104705Y-56857167D01*
X116109161Y-56853128D01*
X116181408Y-56793837D01*
X116185155Y-56790994D01*
X116251335Y-56744653D01*
X116257658Y-56740770D01*
X116341658Y-56695871D01*
X116344603Y-56694399D01*
X116412038Y-56662953D01*
X116428405Y-56656691D01*
X116521682Y-56628395D01*
X116588310Y-56610542D01*
X116608217Y-56606920D01*
X116734501Y-56594480D01*
X116777304Y-56590735D01*
X116782706Y-56590500D01*
X160777293Y-56590500D01*
X160782695Y-56590735D01*
G37*
%TD.AperFunction*%
%TD*%
M02*
