%TF.GenerationSoftware,KiCad,Pcbnew,7.0.8*%
%TF.CreationDate,2023-12-04T13:14:01+00:00*%
%TF.ProjectId,tundraIOExpansion,74756e64-7261-4494-9f45-7870616e7369,rev?*%
%TF.SameCoordinates,Original*%
%TF.FileFunction,Profile,NP*%
%FSLAX46Y46*%
G04 Gerber Fmt 4.6, Leading zero omitted, Abs format (unit mm)*
G04 Created by KiCad (PCBNEW 7.0.8) date 2023-12-04 13:14:01*
%MOMM*%
%LPD*%
G01*
G04 APERTURE LIST*
%TA.AperFunction,Profile*%
%ADD10C,0.100000*%
%TD*%
G04 APERTURE END LIST*
D10*
X115780000Y-68090000D02*
X115780000Y-57590000D01*
X118780000Y-75090000D02*
X116780000Y-75090000D01*
X158780000Y-69090000D02*
X160780000Y-69090000D01*
X120901000Y-93090000D02*
X156659000Y-93090000D01*
X161780000Y-68090000D02*
X161780000Y-57590000D01*
X115780000Y-76090000D02*
X115780000Y-87969000D01*
X156659000Y-93090000D02*
G75*
G03*
X161780000Y-87969000I0J5121000D01*
G01*
X116780000Y-75090000D02*
G75*
G03*
X115780000Y-76090000I0J-1000000D01*
G01*
X160780000Y-69090000D02*
G75*
G03*
X161780000Y-68090000I0J1000000D01*
G01*
X160780000Y-75090000D02*
X158780000Y-75090000D01*
X116780000Y-69090000D02*
X118780000Y-69090000D01*
X160780000Y-56590000D02*
X116780000Y-56590000D01*
X118780000Y-75090000D02*
G75*
G03*
X118780000Y-69090000I0J3000000D01*
G01*
X161780000Y-76090000D02*
G75*
G03*
X160780000Y-75090000I-1000000J0D01*
G01*
X115780000Y-68090000D02*
G75*
G03*
X116780000Y-69090000I1000000J0D01*
G01*
X161780000Y-87969000D02*
X161780000Y-76090000D01*
X158780000Y-69090000D02*
G75*
G03*
X158780000Y-75090000I0J-3000000D01*
G01*
X161780000Y-57590000D02*
G75*
G03*
X160780000Y-56590000I-1000000J0D01*
G01*
X116780000Y-56590000D02*
G75*
G03*
X115780000Y-57590000I0J-1000000D01*
G01*
X115780000Y-87969000D02*
G75*
G03*
X120901000Y-93090000I5121000J0D01*
G01*
M02*
