M48
; DRILL file {KiCad 7.0.8} date Mon Dec  4 13:14:04 2023
; FORMAT={-:-/ absolute / inch / decimal}
; #@! TF.CreationDate,2023-12-04T13:14:04+00:00
; #@! TF.GenerationSoftware,Kicad,Pcbnew,7.0.8
; #@! TF.FileFunction,Plated,1,4,PTH
FMAT,2
INCH
; #@! TA.AperFunction,Plated,PTH,ViaDrill
T1C0.0079
%
G90
G05
T1
X4.7185Y-2.4906
X4.7193Y-3.3228
X4.7197Y-3.2835
X4.7201Y-3.4016
X4.7524Y-3.626
X4.7575Y-2.4906
X4.7972Y-2.4894
X4.8205Y-3.3614
X4.8276Y-3.6378
X4.835Y-3.4701
X4.835Y-3.528
X4.837Y-2.489
X4.8689Y-3.6413
X4.8701Y-2.7705
X4.8764Y-2.4898
X4.898Y-3.5114
X4.9157Y-2.4898
X4.9161Y-3.228
X4.9475Y-2.9057
X4.9482Y-2.6736
X4.9551Y-2.489
X4.9669Y-2.8862
X4.9893Y-2.6683
X4.9945Y-2.489
X5.0077Y-2.6888
X5.0252Y-3.2151
X5.0622Y-2.9791
X5.066Y-3.2937
X5.0673Y-3.5012
X5.0807Y-2.8327
X5.0902Y-2.952
X5.0992Y-2.8937
X5.1075Y-3.3985
X5.1169Y-2.5854
X5.1232Y-2.8243
X5.1433Y-3.2099
X5.1467Y-3.3984
X5.1525Y-2.9184
X5.1673Y-3.113
X5.179Y-2.8336
X5.1835Y-2.3976
X5.1866Y-3.5028
X5.1994Y-3.1191
X5.228Y-3.1567
X5.2427Y-3.1806
X5.263Y-2.9295
X5.2651Y-3.0707
X5.2651Y-3.2127
X5.2913Y-3.6327
X5.302Y-2.3969
X5.3024Y-3.5339
X5.3079Y-2.9994
X5.3161Y-3.3335
X5.3165Y-3.2748
X5.3283Y-3.1226
X5.3418Y-3.0144
X5.3484Y-3.1038
X5.3572Y-3.3741
X5.3671Y-3.0397
X5.3775Y-3.0977
X5.3854Y-3.2469
X5.3921Y-3.0744
X5.4162Y-2.9408
X5.4205Y-2.7429
X5.4224Y-3.1639
X5.4365Y-3.0745
X5.4752Y-2.9319
X5.4906Y-2.398
X5.5237Y-3.2259
X5.5299Y-2.3772
X5.55Y-3.0657
X5.5559Y-3.0087
X5.5689Y-2.4835
X5.6083Y-2.3976
X5.6122Y-2.5925
X5.6322Y-3.2119
X5.639Y-3.6185
X5.6669Y-2.9768
X5.6839Y-3.2862
X5.6937Y-2.9492
X5.7098Y-2.8097
X5.7193Y-3.3949
X5.7283Y-2.9051
X5.7328Y-3.0674
X5.7405Y-2.8121
X5.7469Y-3.2094
X5.7535Y-3.5118
X5.7638Y-2.9055
X5.7725Y-3.0869
X5.7827Y-3.1205
X5.7925Y-3.5122
X5.7976Y-2.398
X5.8189Y-3.0039
X5.8315Y-3.3945
X5.8335Y-3.1598
X5.8362Y-2.7425
X5.8661Y-2.8789
X5.8697Y-3.0697
X5.8764Y-2.4815
X5.8961Y-2.6165
X5.9017Y-3.4316
X5.9157Y-2.398
X5.9173Y-2.998
X5.9181Y-2.8091
X5.948Y-3.2465
X5.9484Y-3.0118
X5.9677Y-3.5839
X5.9724Y-3.0382
X6.0062Y-2.9507
X6.0063Y-3.074
X6.0185Y-3.1752
X6.0276Y-2.5921
X6.0406Y-3.5268
X6.0705Y-3.526
X6.0783Y-3.6358
X6.0803Y-2.9335
X6.1043Y-2.3969
X6.1079Y-3.3311
X6.1087Y-3.3697
X6.1272Y-3.6358
X6.1535Y-3.5248
X6.1606Y-3.0075
X6.2146Y-3.4098
X6.215Y-3.2913
X6.2224Y-2.3969
T0
M30
