%TF.GenerationSoftware,KiCad,Pcbnew,7.0.7*%
%TF.CreationDate,2023-12-02T22:01:05+00:00*%
%TF.ProjectId,BNO085_0x4A_Board,424e4f30-3835-45f3-9078-34415f426f61,rev?*%
%TF.SameCoordinates,Original*%
%TF.FileFunction,Drillmap*%
%TF.FilePolarity,Positive*%
%FSLAX45Y45*%
G04 Gerber Fmt 4.5, Leading zero omitted, Abs format (unit mm)*
G04 Created by KiCad (PCBNEW 7.0.7) date 2023-12-02 22:01:05*
%MOMM*%
%LPD*%
G01*
G04 APERTURE LIST*
%ADD10C,0.100000*%
%ADD11C,0.200000*%
%ADD12C,0.020000*%
G04 APERTURE END LIST*
D10*
X10231500Y-10602000D02*
G75*
G03*
X10131500Y-10502000I-100000J0D01*
G01*
X9524500Y-10502000D02*
G75*
G03*
X9424500Y-10602000I0J-100000D01*
G01*
X9524500Y-10502000D02*
X10131500Y-10502000D01*
X10131500Y-11377000D02*
G75*
G03*
X10231500Y-11277000I0J100000D01*
G01*
X10231500Y-10602000D02*
X10231500Y-11277000D01*
X9424500Y-11277000D02*
X9424500Y-10602000D01*
X9524500Y-11377000D02*
X10131500Y-11377000D01*
X9424500Y-11277000D02*
G75*
G03*
X9524500Y-11377000I100000J0D01*
G01*
D11*
D12*
X9586000Y-10554000D02*
X9606000Y-10574000D01*
X9606000Y-10554000D02*
X9586000Y-10574000D01*
X9586000Y-10656000D02*
X9606000Y-10676000D01*
X9606000Y-10656000D02*
X9586000Y-10676000D01*
X9652000Y-11215000D02*
X9672000Y-11235000D01*
X9672000Y-11215000D02*
X9652000Y-11235000D01*
X9653000Y-11291950D02*
X9673000Y-11311950D01*
X9673000Y-11291950D02*
X9653000Y-11311950D01*
X9680000Y-10656000D02*
X9700000Y-10676000D01*
X9700000Y-10656000D02*
X9680000Y-10676000D01*
X9767000Y-11302000D02*
X9787000Y-11322000D01*
X9787000Y-11302000D02*
X9767000Y-11322000D01*
X9773000Y-10655000D02*
X9793000Y-10675000D01*
X9793000Y-10655000D02*
X9773000Y-10675000D01*
X9791000Y-10733000D02*
X9811000Y-10753000D01*
X9811000Y-10733000D02*
X9791000Y-10753000D01*
X9831037Y-10943220D02*
X9851037Y-10963220D01*
X9851037Y-10943220D02*
X9831037Y-10963220D01*
X9831450Y-11063300D02*
X9851450Y-11083300D01*
X9851450Y-11063300D02*
X9831450Y-11083300D01*
X9919000Y-11088000D02*
X9939000Y-11108000D01*
X9939000Y-11088000D02*
X9919000Y-11108000D01*
X9934097Y-11189002D02*
X9954097Y-11209002D01*
X9954097Y-11189002D02*
X9934097Y-11209002D01*
X9966000Y-10884000D02*
X9986000Y-10904000D01*
X9986000Y-10884000D02*
X9966000Y-10904000D01*
X10001000Y-11097000D02*
X10021000Y-11117000D01*
X10021000Y-11097000D02*
X10001000Y-11117000D01*
X10051000Y-10655000D02*
X10071000Y-10675000D01*
X10071000Y-10655000D02*
X10051000Y-10675000D01*
D11*
X9680277Y-11693484D02*
X9680277Y-11493484D01*
X9680277Y-11493484D02*
X9727896Y-11493484D01*
X9727896Y-11493484D02*
X9756467Y-11503008D01*
X9756467Y-11503008D02*
X9775515Y-11522055D01*
X9775515Y-11522055D02*
X9785039Y-11541103D01*
X9785039Y-11541103D02*
X9794563Y-11579198D01*
X9794563Y-11579198D02*
X9794563Y-11607769D01*
X9794563Y-11607769D02*
X9785039Y-11645865D01*
X9785039Y-11645865D02*
X9775515Y-11664912D01*
X9775515Y-11664912D02*
X9756467Y-11683960D01*
X9756467Y-11683960D02*
X9727896Y-11693484D01*
X9727896Y-11693484D02*
X9680277Y-11693484D01*
X9880277Y-11693484D02*
X9880277Y-11560150D01*
X9880277Y-11598246D02*
X9889801Y-11579198D01*
X9889801Y-11579198D02*
X9899324Y-11569674D01*
X9899324Y-11569674D02*
X9918372Y-11560150D01*
X9918372Y-11560150D02*
X9937420Y-11560150D01*
X10004086Y-11693484D02*
X10004086Y-11560150D01*
X10004086Y-11493484D02*
X9994563Y-11503008D01*
X9994563Y-11503008D02*
X10004086Y-11512531D01*
X10004086Y-11512531D02*
X10013610Y-11503008D01*
X10013610Y-11503008D02*
X10004086Y-11493484D01*
X10004086Y-11493484D02*
X10004086Y-11512531D01*
X10127896Y-11693484D02*
X10108848Y-11683960D01*
X10108848Y-11683960D02*
X10099324Y-11664912D01*
X10099324Y-11664912D02*
X10099324Y-11493484D01*
X10232658Y-11693484D02*
X10213610Y-11683960D01*
X10213610Y-11683960D02*
X10204086Y-11664912D01*
X10204086Y-11664912D02*
X10204086Y-11493484D01*
X10461229Y-11693484D02*
X10461229Y-11493484D01*
X10461229Y-11493484D02*
X10527896Y-11636341D01*
X10527896Y-11636341D02*
X10594563Y-11493484D01*
X10594563Y-11493484D02*
X10594563Y-11693484D01*
X10775515Y-11693484D02*
X10775515Y-11588722D01*
X10775515Y-11588722D02*
X10765991Y-11569674D01*
X10765991Y-11569674D02*
X10746944Y-11560150D01*
X10746944Y-11560150D02*
X10708848Y-11560150D01*
X10708848Y-11560150D02*
X10689801Y-11569674D01*
X10775515Y-11683960D02*
X10756467Y-11693484D01*
X10756467Y-11693484D02*
X10708848Y-11693484D01*
X10708848Y-11693484D02*
X10689801Y-11683960D01*
X10689801Y-11683960D02*
X10680277Y-11664912D01*
X10680277Y-11664912D02*
X10680277Y-11645865D01*
X10680277Y-11645865D02*
X10689801Y-11626817D01*
X10689801Y-11626817D02*
X10708848Y-11617293D01*
X10708848Y-11617293D02*
X10756467Y-11617293D01*
X10756467Y-11617293D02*
X10775515Y-11607769D01*
X10870753Y-11560150D02*
X10870753Y-11760150D01*
X10870753Y-11569674D02*
X10889801Y-11560150D01*
X10889801Y-11560150D02*
X10927896Y-11560150D01*
X10927896Y-11560150D02*
X10946944Y-11569674D01*
X10946944Y-11569674D02*
X10956467Y-11579198D01*
X10956467Y-11579198D02*
X10965991Y-11598246D01*
X10965991Y-11598246D02*
X10965991Y-11655388D01*
X10965991Y-11655388D02*
X10956467Y-11674436D01*
X10956467Y-11674436D02*
X10946944Y-11683960D01*
X10946944Y-11683960D02*
X10927896Y-11693484D01*
X10927896Y-11693484D02*
X10889801Y-11693484D01*
X10889801Y-11693484D02*
X10870753Y-11683960D01*
X11051705Y-11674436D02*
X11061229Y-11683960D01*
X11061229Y-11683960D02*
X11051705Y-11693484D01*
X11051705Y-11693484D02*
X11042182Y-11683960D01*
X11042182Y-11683960D02*
X11051705Y-11674436D01*
X11051705Y-11674436D02*
X11051705Y-11693484D01*
X11051705Y-11569674D02*
X11061229Y-11579198D01*
X11061229Y-11579198D02*
X11051705Y-11588722D01*
X11051705Y-11588722D02*
X11042182Y-11579198D01*
X11042182Y-11579198D02*
X11051705Y-11569674D01*
X11051705Y-11569674D02*
X11051705Y-11588722D01*
D12*
X9399500Y-12012000D02*
X9419500Y-12032000D01*
X9419500Y-12012000D02*
X9399500Y-12032000D01*
D11*
X9718372Y-11913484D02*
X9737420Y-11913484D01*
X9737420Y-11913484D02*
X9756467Y-11923008D01*
X9756467Y-11923008D02*
X9765991Y-11932531D01*
X9765991Y-11932531D02*
X9775515Y-11951579D01*
X9775515Y-11951579D02*
X9785039Y-11989674D01*
X9785039Y-11989674D02*
X9785039Y-12037293D01*
X9785039Y-12037293D02*
X9775515Y-12075388D01*
X9775515Y-12075388D02*
X9765991Y-12094436D01*
X9765991Y-12094436D02*
X9756467Y-12103960D01*
X9756467Y-12103960D02*
X9737420Y-12113484D01*
X9737420Y-12113484D02*
X9718372Y-12113484D01*
X9718372Y-12113484D02*
X9699324Y-12103960D01*
X9699324Y-12103960D02*
X9689801Y-12094436D01*
X9689801Y-12094436D02*
X9680277Y-12075388D01*
X9680277Y-12075388D02*
X9670753Y-12037293D01*
X9670753Y-12037293D02*
X9670753Y-11989674D01*
X9670753Y-11989674D02*
X9680277Y-11951579D01*
X9680277Y-11951579D02*
X9689801Y-11932531D01*
X9689801Y-11932531D02*
X9699324Y-11923008D01*
X9699324Y-11923008D02*
X9718372Y-11913484D01*
X9870753Y-12094436D02*
X9880277Y-12103960D01*
X9880277Y-12103960D02*
X9870753Y-12113484D01*
X9870753Y-12113484D02*
X9861229Y-12103960D01*
X9861229Y-12103960D02*
X9870753Y-12094436D01*
X9870753Y-12094436D02*
X9870753Y-12113484D01*
X9956467Y-11932531D02*
X9965991Y-11923008D01*
X9965991Y-11923008D02*
X9985039Y-11913484D01*
X9985039Y-11913484D02*
X10032658Y-11913484D01*
X10032658Y-11913484D02*
X10051705Y-11923008D01*
X10051705Y-11923008D02*
X10061229Y-11932531D01*
X10061229Y-11932531D02*
X10070753Y-11951579D01*
X10070753Y-11951579D02*
X10070753Y-11970627D01*
X10070753Y-11970627D02*
X10061229Y-11999198D01*
X10061229Y-11999198D02*
X9946944Y-12113484D01*
X9946944Y-12113484D02*
X10070753Y-12113484D01*
X10194563Y-11913484D02*
X10213610Y-11913484D01*
X10213610Y-11913484D02*
X10232658Y-11923008D01*
X10232658Y-11923008D02*
X10242182Y-11932531D01*
X10242182Y-11932531D02*
X10251705Y-11951579D01*
X10251705Y-11951579D02*
X10261229Y-11989674D01*
X10261229Y-11989674D02*
X10261229Y-12037293D01*
X10261229Y-12037293D02*
X10251705Y-12075388D01*
X10251705Y-12075388D02*
X10242182Y-12094436D01*
X10242182Y-12094436D02*
X10232658Y-12103960D01*
X10232658Y-12103960D02*
X10213610Y-12113484D01*
X10213610Y-12113484D02*
X10194563Y-12113484D01*
X10194563Y-12113484D02*
X10175515Y-12103960D01*
X10175515Y-12103960D02*
X10165991Y-12094436D01*
X10165991Y-12094436D02*
X10156467Y-12075388D01*
X10156467Y-12075388D02*
X10146944Y-12037293D01*
X10146944Y-12037293D02*
X10146944Y-11989674D01*
X10146944Y-11989674D02*
X10156467Y-11951579D01*
X10156467Y-11951579D02*
X10165991Y-11932531D01*
X10165991Y-11932531D02*
X10175515Y-11923008D01*
X10175515Y-11923008D02*
X10194563Y-11913484D01*
X10385039Y-11913484D02*
X10404086Y-11913484D01*
X10404086Y-11913484D02*
X10423134Y-11923008D01*
X10423134Y-11923008D02*
X10432658Y-11932531D01*
X10432658Y-11932531D02*
X10442182Y-11951579D01*
X10442182Y-11951579D02*
X10451705Y-11989674D01*
X10451705Y-11989674D02*
X10451705Y-12037293D01*
X10451705Y-12037293D02*
X10442182Y-12075388D01*
X10442182Y-12075388D02*
X10432658Y-12094436D01*
X10432658Y-12094436D02*
X10423134Y-12103960D01*
X10423134Y-12103960D02*
X10404086Y-12113484D01*
X10404086Y-12113484D02*
X10385039Y-12113484D01*
X10385039Y-12113484D02*
X10365991Y-12103960D01*
X10365991Y-12103960D02*
X10356467Y-12094436D01*
X10356467Y-12094436D02*
X10346944Y-12075388D01*
X10346944Y-12075388D02*
X10337420Y-12037293D01*
X10337420Y-12037293D02*
X10337420Y-11989674D01*
X10337420Y-11989674D02*
X10346944Y-11951579D01*
X10346944Y-11951579D02*
X10356467Y-11932531D01*
X10356467Y-11932531D02*
X10365991Y-11923008D01*
X10365991Y-11923008D02*
X10385039Y-11913484D01*
X10537420Y-12113484D02*
X10537420Y-11980150D01*
X10537420Y-11999198D02*
X10546944Y-11989674D01*
X10546944Y-11989674D02*
X10565991Y-11980150D01*
X10565991Y-11980150D02*
X10594563Y-11980150D01*
X10594563Y-11980150D02*
X10613610Y-11989674D01*
X10613610Y-11989674D02*
X10623134Y-12008722D01*
X10623134Y-12008722D02*
X10623134Y-12113484D01*
X10623134Y-12008722D02*
X10632658Y-11989674D01*
X10632658Y-11989674D02*
X10651705Y-11980150D01*
X10651705Y-11980150D02*
X10680277Y-11980150D01*
X10680277Y-11980150D02*
X10699325Y-11989674D01*
X10699325Y-11989674D02*
X10708848Y-12008722D01*
X10708848Y-12008722D02*
X10708848Y-12113484D01*
X10804086Y-12113484D02*
X10804086Y-11980150D01*
X10804086Y-11999198D02*
X10813610Y-11989674D01*
X10813610Y-11989674D02*
X10832658Y-11980150D01*
X10832658Y-11980150D02*
X10861229Y-11980150D01*
X10861229Y-11980150D02*
X10880277Y-11989674D01*
X10880277Y-11989674D02*
X10889801Y-12008722D01*
X10889801Y-12008722D02*
X10889801Y-12113484D01*
X10889801Y-12008722D02*
X10899325Y-11989674D01*
X10899325Y-11989674D02*
X10918372Y-11980150D01*
X10918372Y-11980150D02*
X10946944Y-11980150D01*
X10946944Y-11980150D02*
X10965991Y-11989674D01*
X10965991Y-11989674D02*
X10975515Y-12008722D01*
X10975515Y-12008722D02*
X10975515Y-12113484D01*
X11365991Y-11903960D02*
X11194563Y-12161103D01*
X11623134Y-11913484D02*
X11642182Y-11913484D01*
X11642182Y-11913484D02*
X11661229Y-11923008D01*
X11661229Y-11923008D02*
X11670753Y-11932531D01*
X11670753Y-11932531D02*
X11680277Y-11951579D01*
X11680277Y-11951579D02*
X11689801Y-11989674D01*
X11689801Y-11989674D02*
X11689801Y-12037293D01*
X11689801Y-12037293D02*
X11680277Y-12075388D01*
X11680277Y-12075388D02*
X11670753Y-12094436D01*
X11670753Y-12094436D02*
X11661229Y-12103960D01*
X11661229Y-12103960D02*
X11642182Y-12113484D01*
X11642182Y-12113484D02*
X11623134Y-12113484D01*
X11623134Y-12113484D02*
X11604086Y-12103960D01*
X11604086Y-12103960D02*
X11594563Y-12094436D01*
X11594563Y-12094436D02*
X11585039Y-12075388D01*
X11585039Y-12075388D02*
X11575515Y-12037293D01*
X11575515Y-12037293D02*
X11575515Y-11989674D01*
X11575515Y-11989674D02*
X11585039Y-11951579D01*
X11585039Y-11951579D02*
X11594563Y-11932531D01*
X11594563Y-11932531D02*
X11604086Y-11923008D01*
X11604086Y-11923008D02*
X11623134Y-11913484D01*
X11775515Y-12094436D02*
X11785039Y-12103960D01*
X11785039Y-12103960D02*
X11775515Y-12113484D01*
X11775515Y-12113484D02*
X11765991Y-12103960D01*
X11765991Y-12103960D02*
X11775515Y-12094436D01*
X11775515Y-12094436D02*
X11775515Y-12113484D01*
X11908848Y-11913484D02*
X11927896Y-11913484D01*
X11927896Y-11913484D02*
X11946944Y-11923008D01*
X11946944Y-11923008D02*
X11956467Y-11932531D01*
X11956467Y-11932531D02*
X11965991Y-11951579D01*
X11965991Y-11951579D02*
X11975515Y-11989674D01*
X11975515Y-11989674D02*
X11975515Y-12037293D01*
X11975515Y-12037293D02*
X11965991Y-12075388D01*
X11965991Y-12075388D02*
X11956467Y-12094436D01*
X11956467Y-12094436D02*
X11946944Y-12103960D01*
X11946944Y-12103960D02*
X11927896Y-12113484D01*
X11927896Y-12113484D02*
X11908848Y-12113484D01*
X11908848Y-12113484D02*
X11889801Y-12103960D01*
X11889801Y-12103960D02*
X11880277Y-12094436D01*
X11880277Y-12094436D02*
X11870753Y-12075388D01*
X11870753Y-12075388D02*
X11861229Y-12037293D01*
X11861229Y-12037293D02*
X11861229Y-11989674D01*
X11861229Y-11989674D02*
X11870753Y-11951579D01*
X11870753Y-11951579D02*
X11880277Y-11932531D01*
X11880277Y-11932531D02*
X11889801Y-11923008D01*
X11889801Y-11923008D02*
X11908848Y-11913484D01*
X12099325Y-11913484D02*
X12118372Y-11913484D01*
X12118372Y-11913484D02*
X12137420Y-11923008D01*
X12137420Y-11923008D02*
X12146944Y-11932531D01*
X12146944Y-11932531D02*
X12156467Y-11951579D01*
X12156467Y-11951579D02*
X12165991Y-11989674D01*
X12165991Y-11989674D02*
X12165991Y-12037293D01*
X12165991Y-12037293D02*
X12156467Y-12075388D01*
X12156467Y-12075388D02*
X12146944Y-12094436D01*
X12146944Y-12094436D02*
X12137420Y-12103960D01*
X12137420Y-12103960D02*
X12118372Y-12113484D01*
X12118372Y-12113484D02*
X12099325Y-12113484D01*
X12099325Y-12113484D02*
X12080277Y-12103960D01*
X12080277Y-12103960D02*
X12070753Y-12094436D01*
X12070753Y-12094436D02*
X12061229Y-12075388D01*
X12061229Y-12075388D02*
X12051706Y-12037293D01*
X12051706Y-12037293D02*
X12051706Y-11989674D01*
X12051706Y-11989674D02*
X12061229Y-11951579D01*
X12061229Y-11951579D02*
X12070753Y-11932531D01*
X12070753Y-11932531D02*
X12080277Y-11923008D01*
X12080277Y-11923008D02*
X12099325Y-11913484D01*
X12232658Y-11913484D02*
X12365991Y-11913484D01*
X12365991Y-11913484D02*
X12280277Y-12113484D01*
X12451706Y-12113484D02*
X12489801Y-12113484D01*
X12489801Y-12113484D02*
X12508848Y-12103960D01*
X12508848Y-12103960D02*
X12518372Y-12094436D01*
X12518372Y-12094436D02*
X12537420Y-12065865D01*
X12537420Y-12065865D02*
X12546944Y-12027769D01*
X12546944Y-12027769D02*
X12546944Y-11951579D01*
X12546944Y-11951579D02*
X12537420Y-11932531D01*
X12537420Y-11932531D02*
X12527896Y-11923008D01*
X12527896Y-11923008D02*
X12508848Y-11913484D01*
X12508848Y-11913484D02*
X12470753Y-11913484D01*
X12470753Y-11913484D02*
X12451706Y-11923008D01*
X12451706Y-11923008D02*
X12442182Y-11932531D01*
X12442182Y-11932531D02*
X12432658Y-11951579D01*
X12432658Y-11951579D02*
X12432658Y-11999198D01*
X12432658Y-11999198D02*
X12442182Y-12018246D01*
X12442182Y-12018246D02*
X12451706Y-12027769D01*
X12451706Y-12027769D02*
X12470753Y-12037293D01*
X12470753Y-12037293D02*
X12508848Y-12037293D01*
X12508848Y-12037293D02*
X12527896Y-12027769D01*
X12527896Y-12027769D02*
X12537420Y-12018246D01*
X12537420Y-12018246D02*
X12546944Y-11999198D01*
X12623134Y-11913484D02*
X12623134Y-11951579D01*
X12699325Y-11913484D02*
X12699325Y-11951579D01*
X12994563Y-12189674D02*
X12985039Y-12180150D01*
X12985039Y-12180150D02*
X12965991Y-12151579D01*
X12965991Y-12151579D02*
X12956468Y-12132531D01*
X12956468Y-12132531D02*
X12946944Y-12103960D01*
X12946944Y-12103960D02*
X12937420Y-12056341D01*
X12937420Y-12056341D02*
X12937420Y-12018246D01*
X12937420Y-12018246D02*
X12946944Y-11970627D01*
X12946944Y-11970627D02*
X12956468Y-11942055D01*
X12956468Y-11942055D02*
X12965991Y-11923008D01*
X12965991Y-11923008D02*
X12985039Y-11894436D01*
X12985039Y-11894436D02*
X12994563Y-11884912D01*
X13175515Y-12113484D02*
X13061229Y-12113484D01*
X13118372Y-12113484D02*
X13118372Y-11913484D01*
X13118372Y-11913484D02*
X13099325Y-11942055D01*
X13099325Y-11942055D02*
X13080277Y-11961103D01*
X13080277Y-11961103D02*
X13061229Y-11970627D01*
X13356468Y-11913484D02*
X13261229Y-11913484D01*
X13261229Y-11913484D02*
X13251706Y-12008722D01*
X13251706Y-12008722D02*
X13261229Y-11999198D01*
X13261229Y-11999198D02*
X13280277Y-11989674D01*
X13280277Y-11989674D02*
X13327896Y-11989674D01*
X13327896Y-11989674D02*
X13346944Y-11999198D01*
X13346944Y-11999198D02*
X13356468Y-12008722D01*
X13356468Y-12008722D02*
X13365991Y-12027769D01*
X13365991Y-12027769D02*
X13365991Y-12075388D01*
X13365991Y-12075388D02*
X13356468Y-12094436D01*
X13356468Y-12094436D02*
X13346944Y-12103960D01*
X13346944Y-12103960D02*
X13327896Y-12113484D01*
X13327896Y-12113484D02*
X13280277Y-12113484D01*
X13280277Y-12113484D02*
X13261229Y-12103960D01*
X13261229Y-12103960D02*
X13251706Y-12094436D01*
X13604087Y-12113484D02*
X13604087Y-11913484D01*
X13689801Y-12113484D02*
X13689801Y-12008722D01*
X13689801Y-12008722D02*
X13680277Y-11989674D01*
X13680277Y-11989674D02*
X13661230Y-11980150D01*
X13661230Y-11980150D02*
X13632658Y-11980150D01*
X13632658Y-11980150D02*
X13613610Y-11989674D01*
X13613610Y-11989674D02*
X13604087Y-11999198D01*
X13813610Y-12113484D02*
X13794563Y-12103960D01*
X13794563Y-12103960D02*
X13785039Y-12094436D01*
X13785039Y-12094436D02*
X13775515Y-12075388D01*
X13775515Y-12075388D02*
X13775515Y-12018246D01*
X13775515Y-12018246D02*
X13785039Y-11999198D01*
X13785039Y-11999198D02*
X13794563Y-11989674D01*
X13794563Y-11989674D02*
X13813610Y-11980150D01*
X13813610Y-11980150D02*
X13842182Y-11980150D01*
X13842182Y-11980150D02*
X13861230Y-11989674D01*
X13861230Y-11989674D02*
X13870753Y-11999198D01*
X13870753Y-11999198D02*
X13880277Y-12018246D01*
X13880277Y-12018246D02*
X13880277Y-12075388D01*
X13880277Y-12075388D02*
X13870753Y-12094436D01*
X13870753Y-12094436D02*
X13861230Y-12103960D01*
X13861230Y-12103960D02*
X13842182Y-12113484D01*
X13842182Y-12113484D02*
X13813610Y-12113484D01*
X13994563Y-12113484D02*
X13975515Y-12103960D01*
X13975515Y-12103960D02*
X13965991Y-12084912D01*
X13965991Y-12084912D02*
X13965991Y-11913484D01*
X14146944Y-12103960D02*
X14127896Y-12113484D01*
X14127896Y-12113484D02*
X14089801Y-12113484D01*
X14089801Y-12113484D02*
X14070753Y-12103960D01*
X14070753Y-12103960D02*
X14061230Y-12084912D01*
X14061230Y-12084912D02*
X14061230Y-12008722D01*
X14061230Y-12008722D02*
X14070753Y-11989674D01*
X14070753Y-11989674D02*
X14089801Y-11980150D01*
X14089801Y-11980150D02*
X14127896Y-11980150D01*
X14127896Y-11980150D02*
X14146944Y-11989674D01*
X14146944Y-11989674D02*
X14156468Y-12008722D01*
X14156468Y-12008722D02*
X14156468Y-12027769D01*
X14156468Y-12027769D02*
X14061230Y-12046817D01*
X14232658Y-12103960D02*
X14251706Y-12113484D01*
X14251706Y-12113484D02*
X14289801Y-12113484D01*
X14289801Y-12113484D02*
X14308849Y-12103960D01*
X14308849Y-12103960D02*
X14318372Y-12084912D01*
X14318372Y-12084912D02*
X14318372Y-12075388D01*
X14318372Y-12075388D02*
X14308849Y-12056341D01*
X14308849Y-12056341D02*
X14289801Y-12046817D01*
X14289801Y-12046817D02*
X14261230Y-12046817D01*
X14261230Y-12046817D02*
X14242182Y-12037293D01*
X14242182Y-12037293D02*
X14232658Y-12018246D01*
X14232658Y-12018246D02*
X14232658Y-12008722D01*
X14232658Y-12008722D02*
X14242182Y-11989674D01*
X14242182Y-11989674D02*
X14261230Y-11980150D01*
X14261230Y-11980150D02*
X14289801Y-11980150D01*
X14289801Y-11980150D02*
X14308849Y-11989674D01*
X14385039Y-12189674D02*
X14394563Y-12180150D01*
X14394563Y-12180150D02*
X14413611Y-12151579D01*
X14413611Y-12151579D02*
X14423134Y-12132531D01*
X14423134Y-12132531D02*
X14432658Y-12103960D01*
X14432658Y-12103960D02*
X14442182Y-12056341D01*
X14442182Y-12056341D02*
X14442182Y-12018246D01*
X14442182Y-12018246D02*
X14432658Y-11970627D01*
X14432658Y-11970627D02*
X14423134Y-11942055D01*
X14423134Y-11942055D02*
X14413611Y-11923008D01*
X14413611Y-11923008D02*
X14394563Y-11894436D01*
X14394563Y-11894436D02*
X14385039Y-11884912D01*
M02*
