%TF.GenerationSoftware,KiCad,Pcbnew,7.0.7*%
%TF.CreationDate,2023-12-02T22:00:58+00:00*%
%TF.ProjectId,BNO085_0x4A_Board,424e4f30-3835-45f3-9078-34415f426f61,rev?*%
%TF.SameCoordinates,Original*%
%TF.FileFunction,Copper,L3,Inr*%
%TF.FilePolarity,Positive*%
%FSLAX46Y46*%
G04 Gerber Fmt 4.6, Leading zero omitted, Abs format (unit mm)*
G04 Created by KiCad (PCBNEW 7.0.7) date 2023-12-02 22:00:58*
%MOMM*%
%LPD*%
G01*
G04 APERTURE LIST*
%TA.AperFunction,ViaPad*%
%ADD10C,0.500000*%
%TD*%
G04 APERTURE END LIST*
D10*
%TO.N,GND*%
X100610000Y-106650000D03*
X97830000Y-106650000D03*
X99290000Y-110980000D03*
X99760000Y-108940000D03*
%TO.N,+3V3*%
X99440974Y-111990016D03*
X95960000Y-105640000D03*
X98010000Y-107430000D03*
X98410371Y-109532203D03*
X96620000Y-112250000D03*
%TO.N,SCL*%
X96900000Y-106660000D03*
X98414502Y-110733000D03*
%TO.N,SDA*%
X95960000Y-106660000D03*
X97770000Y-113120000D03*
%TO.N,Net-(U1-NRST)*%
X96630000Y-113019500D03*
X100110000Y-111070000D03*
%TD*%
%TA.AperFunction,Conductor*%
%TO.N,GND*%
G36*
X95225105Y-105042378D02*
G01*
X95292091Y-105062229D01*
X95337714Y-105115146D01*
X95347486Y-105184329D01*
X95329786Y-105232349D01*
X95279545Y-105312307D01*
X95223685Y-105471943D01*
X95204751Y-105639997D01*
X95204751Y-105640002D01*
X95223685Y-105808056D01*
X95239211Y-105852425D01*
X95274762Y-105954025D01*
X95279545Y-105967692D01*
X95352644Y-106084028D01*
X95371644Y-106151265D01*
X95352644Y-106215972D01*
X95279545Y-106332307D01*
X95223685Y-106491943D01*
X95204751Y-106659997D01*
X95204751Y-106660002D01*
X95223685Y-106828056D01*
X95279545Y-106987694D01*
X95279547Y-106987697D01*
X95369518Y-107130884D01*
X95369523Y-107130890D01*
X95489109Y-107250476D01*
X95489115Y-107250481D01*
X95632302Y-107340452D01*
X95632305Y-107340454D01*
X95632309Y-107340455D01*
X95632310Y-107340456D01*
X95704913Y-107365860D01*
X95791943Y-107396314D01*
X95959997Y-107415249D01*
X95960000Y-107415249D01*
X95960003Y-107415249D01*
X96128056Y-107396314D01*
X96128059Y-107396313D01*
X96287690Y-107340456D01*
X96364026Y-107292490D01*
X96431264Y-107273489D01*
X96495973Y-107292490D01*
X96572307Y-107340454D01*
X96572305Y-107340454D01*
X96572309Y-107340455D01*
X96572310Y-107340456D01*
X96644913Y-107365860D01*
X96731943Y-107396314D01*
X96899997Y-107415249D01*
X96900000Y-107415249D01*
X96900003Y-107415249D01*
X96984029Y-107405781D01*
X97068059Y-107396313D01*
X97097252Y-107386097D01*
X97167028Y-107382535D01*
X97227657Y-107417262D01*
X97259885Y-107479255D01*
X97261427Y-107489255D01*
X97273685Y-107598056D01*
X97329545Y-107757694D01*
X97329547Y-107757697D01*
X97419518Y-107900884D01*
X97419523Y-107900890D01*
X97539109Y-108020476D01*
X97539115Y-108020481D01*
X97682302Y-108110452D01*
X97682305Y-108110454D01*
X97682309Y-108110455D01*
X97682310Y-108110456D01*
X97754913Y-108135860D01*
X97841943Y-108166314D01*
X98009997Y-108185249D01*
X98010000Y-108185249D01*
X98010003Y-108185249D01*
X98178056Y-108166314D01*
X98178059Y-108166313D01*
X98337690Y-108110456D01*
X98337692Y-108110454D01*
X98337694Y-108110454D01*
X98337697Y-108110452D01*
X98480884Y-108020481D01*
X98480885Y-108020480D01*
X98480890Y-108020477D01*
X98600477Y-107900890D01*
X98690452Y-107757697D01*
X98690454Y-107757694D01*
X98690454Y-107757692D01*
X98690456Y-107757690D01*
X98746313Y-107598059D01*
X98746313Y-107598058D01*
X98746314Y-107598056D01*
X98765249Y-107430002D01*
X98765249Y-107429997D01*
X98746314Y-107261943D01*
X98715860Y-107174913D01*
X98690456Y-107102310D01*
X98690455Y-107102309D01*
X98690454Y-107102305D01*
X98690452Y-107102302D01*
X98600481Y-106959115D01*
X98600476Y-106959109D01*
X98480890Y-106839523D01*
X98480884Y-106839518D01*
X98337697Y-106749547D01*
X98337694Y-106749545D01*
X98178056Y-106693685D01*
X98010003Y-106674751D01*
X98009997Y-106674751D01*
X97841940Y-106693686D01*
X97812745Y-106703902D01*
X97742967Y-106707463D01*
X97682340Y-106672734D01*
X97650113Y-106610740D01*
X97648572Y-106600743D01*
X97636314Y-106491944D01*
X97580454Y-106332305D01*
X97580452Y-106332302D01*
X97490481Y-106189115D01*
X97490476Y-106189109D01*
X97370890Y-106069523D01*
X97370884Y-106069518D01*
X97227697Y-105979547D01*
X97227694Y-105979545D01*
X97068056Y-105923685D01*
X96900003Y-105904751D01*
X96899996Y-105904751D01*
X96837172Y-105911829D01*
X96768350Y-105899774D01*
X96716971Y-105852425D01*
X96699347Y-105784814D01*
X96700069Y-105774725D01*
X96715249Y-105640002D01*
X96715249Y-105639997D01*
X96696314Y-105471943D01*
X96663279Y-105377534D01*
X96640456Y-105312310D01*
X96640454Y-105312307D01*
X96640454Y-105312306D01*
X96592519Y-105236019D01*
X96573518Y-105168782D01*
X96593885Y-105101947D01*
X96647153Y-105056732D01*
X96697818Y-105046046D01*
X101554413Y-105058142D01*
X101590083Y-105063480D01*
X101666564Y-105086680D01*
X101682956Y-105092951D01*
X101750426Y-105124413D01*
X101753360Y-105125880D01*
X101825830Y-105164616D01*
X101837328Y-105170762D01*
X101843668Y-105174657D01*
X101909828Y-105220983D01*
X101913600Y-105223844D01*
X101985808Y-105283103D01*
X101990309Y-105287182D01*
X102047815Y-105344688D01*
X102051895Y-105349190D01*
X102111154Y-105421398D01*
X102114015Y-105425170D01*
X102160341Y-105491331D01*
X102164236Y-105497671D01*
X102209101Y-105581605D01*
X102210614Y-105584631D01*
X102242040Y-105652027D01*
X102248319Y-105668435D01*
X102276601Y-105761669D01*
X102294454Y-105828299D01*
X102298082Y-105848240D01*
X102300644Y-105874256D01*
X102300942Y-105880264D01*
X102308938Y-112828412D01*
X102308640Y-112834564D01*
X102298082Y-112941760D01*
X102294454Y-112961699D01*
X102276601Y-113028330D01*
X102248318Y-113121563D01*
X102242040Y-113137971D01*
X102210614Y-113205367D01*
X102209101Y-113208393D01*
X102164236Y-113292327D01*
X102160341Y-113298667D01*
X102114015Y-113364828D01*
X102111154Y-113368600D01*
X102051895Y-113440808D01*
X102047806Y-113445320D01*
X101990320Y-113502806D01*
X101985808Y-113506895D01*
X101913600Y-113566154D01*
X101909828Y-113569015D01*
X101843667Y-113615341D01*
X101837327Y-113619236D01*
X101753393Y-113664101D01*
X101750367Y-113665613D01*
X101682975Y-113697039D01*
X101666566Y-113703317D01*
X101573333Y-113731600D01*
X101547420Y-113738543D01*
X101520430Y-113745775D01*
X101488341Y-113750000D01*
X98484863Y-113750000D01*
X98417824Y-113730315D01*
X98372069Y-113677511D01*
X98362125Y-113608353D01*
X98379869Y-113560028D01*
X98395180Y-113535661D01*
X98450456Y-113447690D01*
X98506313Y-113288059D01*
X98506313Y-113288058D01*
X98506314Y-113288056D01*
X98525249Y-113120002D01*
X98525249Y-113119997D01*
X98506314Y-112951943D01*
X98465241Y-112834564D01*
X98450456Y-112792310D01*
X98450455Y-112792309D01*
X98450454Y-112792305D01*
X98450452Y-112792302D01*
X98360481Y-112649115D01*
X98360476Y-112649109D01*
X98240890Y-112529523D01*
X98240884Y-112529518D01*
X98097697Y-112439547D01*
X98097694Y-112439545D01*
X97938056Y-112383685D01*
X97770003Y-112364751D01*
X97769997Y-112364751D01*
X97601940Y-112383686D01*
X97536532Y-112406573D01*
X97466753Y-112410134D01*
X97406126Y-112375404D01*
X97373900Y-112313411D01*
X97372359Y-112275645D01*
X97375249Y-112249999D01*
X97375249Y-112249997D01*
X97356314Y-112081943D01*
X97300454Y-111922305D01*
X97300452Y-111922302D01*
X97210481Y-111779115D01*
X97210476Y-111779109D01*
X97090890Y-111659523D01*
X97090884Y-111659518D01*
X96947697Y-111569547D01*
X96947694Y-111569545D01*
X96788056Y-111513685D01*
X96620003Y-111494751D01*
X96619997Y-111494751D01*
X96451943Y-111513685D01*
X96292305Y-111569545D01*
X96292302Y-111569547D01*
X96149115Y-111659518D01*
X96149109Y-111659523D01*
X96029523Y-111779109D01*
X96029518Y-111779115D01*
X95939547Y-111922302D01*
X95939545Y-111922305D01*
X95883685Y-112081943D01*
X95864751Y-112249997D01*
X95864751Y-112250002D01*
X95883685Y-112418056D01*
X95939545Y-112577694D01*
X95939546Y-112577696D01*
X95939857Y-112578190D01*
X95939959Y-112578554D01*
X95942566Y-112583966D01*
X95941617Y-112584422D01*
X95958854Y-112645428D01*
X95949874Y-112684548D01*
X95951844Y-112685238D01*
X95893685Y-112851443D01*
X95874751Y-113019497D01*
X95874751Y-113019502D01*
X95893685Y-113187556D01*
X95949545Y-113347194D01*
X95949547Y-113347197D01*
X96039518Y-113490384D01*
X96039523Y-113490390D01*
X96087452Y-113538319D01*
X96120937Y-113599642D01*
X96115953Y-113669334D01*
X96074081Y-113725267D01*
X96008617Y-113749684D01*
X95999771Y-113750000D01*
X95071662Y-113750000D01*
X95039568Y-113745775D01*
X94986667Y-113731599D01*
X94893431Y-113703317D01*
X94877023Y-113697039D01*
X94817609Y-113669334D01*
X94809618Y-113665607D01*
X94806605Y-113664101D01*
X94722671Y-113619236D01*
X94716331Y-113615341D01*
X94650170Y-113569015D01*
X94646398Y-113566154D01*
X94574190Y-113506895D01*
X94569688Y-113502815D01*
X94512182Y-113445309D01*
X94508103Y-113440808D01*
X94448844Y-113368600D01*
X94445983Y-113364828D01*
X94399657Y-113298667D01*
X94395762Y-113292327D01*
X94370982Y-113245969D01*
X94350888Y-113208375D01*
X94349406Y-113205411D01*
X94317958Y-113137971D01*
X94311682Y-113121570D01*
X94283398Y-113028330D01*
X94265541Y-112961685D01*
X94261918Y-112941771D01*
X94252391Y-112845041D01*
X94252092Y-112838818D01*
X94252690Y-112578554D01*
X94259685Y-109532205D01*
X97655122Y-109532205D01*
X97674056Y-109700259D01*
X97729916Y-109859897D01*
X97729918Y-109859900D01*
X97819889Y-110003087D01*
X97819894Y-110003093D01*
X97863786Y-110046985D01*
X97897271Y-110108308D01*
X97892287Y-110178000D01*
X97863788Y-110222345D01*
X97824026Y-110262107D01*
X97824020Y-110262115D01*
X97734049Y-110405302D01*
X97734047Y-110405305D01*
X97678187Y-110564943D01*
X97659253Y-110732997D01*
X97659253Y-110733002D01*
X97678187Y-110901056D01*
X97734047Y-111060694D01*
X97734049Y-111060697D01*
X97824020Y-111203884D01*
X97824025Y-111203890D01*
X97943611Y-111323476D01*
X97943617Y-111323481D01*
X98086804Y-111413452D01*
X98086807Y-111413454D01*
X98086811Y-111413455D01*
X98086812Y-111413456D01*
X98159415Y-111438860D01*
X98246445Y-111469314D01*
X98414499Y-111488249D01*
X98414502Y-111488249D01*
X98414505Y-111488249D01*
X98582561Y-111469313D01*
X98582562Y-111469313D01*
X98631643Y-111452139D01*
X98701421Y-111448576D01*
X98762049Y-111483305D01*
X98794276Y-111545298D01*
X98787872Y-111614874D01*
X98777592Y-111635151D01*
X98760520Y-111662320D01*
X98760519Y-111662321D01*
X98704659Y-111821959D01*
X98685725Y-111990013D01*
X98685725Y-111990018D01*
X98704659Y-112158072D01*
X98760519Y-112317710D01*
X98760521Y-112317713D01*
X98850492Y-112460900D01*
X98850497Y-112460906D01*
X98970083Y-112580492D01*
X98970089Y-112580497D01*
X99113276Y-112670468D01*
X99113279Y-112670470D01*
X99113283Y-112670471D01*
X99113284Y-112670472D01*
X99153511Y-112684548D01*
X99272917Y-112726330D01*
X99440971Y-112745265D01*
X99440974Y-112745265D01*
X99440977Y-112745265D01*
X99609030Y-112726330D01*
X99609033Y-112726329D01*
X99768664Y-112670472D01*
X99768666Y-112670470D01*
X99768668Y-112670470D01*
X99768671Y-112670468D01*
X99911858Y-112580497D01*
X99911859Y-112580496D01*
X99911864Y-112580493D01*
X100031451Y-112460906D01*
X100058376Y-112418056D01*
X100121426Y-112317713D01*
X100121428Y-112317710D01*
X100121428Y-112317708D01*
X100121430Y-112317706D01*
X100177287Y-112158075D01*
X100177287Y-112158074D01*
X100177288Y-112158072D01*
X100196223Y-111990018D01*
X100196223Y-111990016D01*
X100196223Y-111990013D01*
X100190485Y-111939095D01*
X100202539Y-111870276D01*
X100249887Y-111818895D01*
X100272751Y-111808170D01*
X100278057Y-111806313D01*
X100278059Y-111806313D01*
X100437690Y-111750456D01*
X100437693Y-111750453D01*
X100437697Y-111750452D01*
X100580884Y-111660481D01*
X100580885Y-111660480D01*
X100580890Y-111660477D01*
X100700477Y-111540890D01*
X100700481Y-111540884D01*
X100790452Y-111397697D01*
X100790454Y-111397694D01*
X100790454Y-111397692D01*
X100790456Y-111397690D01*
X100846313Y-111238059D01*
X100846313Y-111238058D01*
X100846314Y-111238056D01*
X100865249Y-111070002D01*
X100865249Y-111069997D01*
X100846314Y-110901943D01*
X100790454Y-110742305D01*
X100790452Y-110742302D01*
X100700481Y-110599115D01*
X100700476Y-110599109D01*
X100580890Y-110479523D01*
X100580884Y-110479518D01*
X100437697Y-110389547D01*
X100437694Y-110389545D01*
X100278056Y-110333685D01*
X100110003Y-110314751D01*
X100109997Y-110314751D01*
X99941943Y-110333685D01*
X99782305Y-110389545D01*
X99782302Y-110389547D01*
X99639115Y-110479518D01*
X99639109Y-110479523D01*
X99519523Y-110599109D01*
X99519518Y-110599115D01*
X99429547Y-110742302D01*
X99429543Y-110742311D01*
X99408302Y-110803013D01*
X99367580Y-110859788D01*
X99302627Y-110885535D01*
X99234065Y-110872078D01*
X99183663Y-110823690D01*
X99167422Y-110755734D01*
X99168038Y-110748196D01*
X99169751Y-110733000D01*
X99154665Y-110599109D01*
X99150816Y-110564943D01*
X99094956Y-110405305D01*
X99094954Y-110405302D01*
X99004983Y-110262115D01*
X99004978Y-110262109D01*
X99004976Y-110262107D01*
X98961084Y-110218215D01*
X98927600Y-110156895D01*
X98932584Y-110087204D01*
X98961084Y-110042856D01*
X99000848Y-110003093D01*
X99090823Y-109859900D01*
X99090825Y-109859897D01*
X99090825Y-109859895D01*
X99090827Y-109859893D01*
X99146684Y-109700262D01*
X99146684Y-109700261D01*
X99146685Y-109700259D01*
X99165620Y-109532205D01*
X99165620Y-109532200D01*
X99146685Y-109364146D01*
X99090825Y-109204508D01*
X99090823Y-109204505D01*
X99000852Y-109061318D01*
X99000847Y-109061312D01*
X98881261Y-108941726D01*
X98881255Y-108941721D01*
X98738068Y-108851750D01*
X98738065Y-108851748D01*
X98578427Y-108795888D01*
X98410374Y-108776954D01*
X98410368Y-108776954D01*
X98242314Y-108795888D01*
X98082676Y-108851748D01*
X98082673Y-108851750D01*
X97939486Y-108941721D01*
X97939480Y-108941726D01*
X97819894Y-109061312D01*
X97819889Y-109061318D01*
X97729918Y-109204505D01*
X97729916Y-109204508D01*
X97674056Y-109364146D01*
X97655122Y-109532200D01*
X97655122Y-109532205D01*
X94259685Y-109532205D01*
X94268175Y-105834512D01*
X94272398Y-105802722D01*
X94283401Y-105761662D01*
X94289063Y-105742994D01*
X94311684Y-105668422D01*
X94317950Y-105652045D01*
X94349413Y-105584573D01*
X94350865Y-105581667D01*
X94395768Y-105497659D01*
X94399649Y-105491342D01*
X94445994Y-105425155D01*
X94448827Y-105421420D01*
X94508122Y-105349168D01*
X94512162Y-105344710D01*
X94569710Y-105287162D01*
X94574168Y-105283122D01*
X94646420Y-105223827D01*
X94650155Y-105220994D01*
X94716334Y-105174654D01*
X94722666Y-105170764D01*
X94806639Y-105125880D01*
X94809573Y-105124413D01*
X94877033Y-105092955D01*
X94893426Y-105086682D01*
X94986640Y-105058406D01*
X95032189Y-105046201D01*
X95064576Y-105041978D01*
X95225105Y-105042378D01*
G37*
%TD.AperFunction*%
%TD*%
M02*
