%TF.GenerationSoftware,KiCad,Pcbnew,7.0.7*%
%TF.CreationDate,2023-12-02T22:39:50+00:00*%
%TF.ProjectId,BNO085_0x4B_Board,424e4f30-3835-45f3-9078-34425f426f61,rev?*%
%TF.SameCoordinates,Original*%
%TF.FileFunction,Soldermask,Bot*%
%TF.FilePolarity,Negative*%
%FSLAX46Y46*%
G04 Gerber Fmt 4.6, Leading zero omitted, Abs format (unit mm)*
G04 Created by KiCad (PCBNEW 7.0.7) date 2023-12-02 22:39:50*
%MOMM*%
%LPD*%
G01*
G04 APERTURE LIST*
G04 Aperture macros list*
%AMRoundRect*
0 Rectangle with rounded corners*
0 $1 Rounding radius*
0 $2 $3 $4 $5 $6 $7 $8 $9 X,Y pos of 4 corners*
0 Add a 4 corners polygon primitive as box body*
4,1,4,$2,$3,$4,$5,$6,$7,$8,$9,$2,$3,0*
0 Add four circle primitives for the rounded corners*
1,1,$1+$1,$2,$3*
1,1,$1+$1,$4,$5*
1,1,$1+$1,$6,$7*
1,1,$1+$1,$8,$9*
0 Add four rect primitives between the rounded corners*
20,1,$1+$1,$2,$3,$4,$5,0*
20,1,$1+$1,$4,$5,$6,$7,0*
20,1,$1+$1,$6,$7,$8,$9,0*
20,1,$1+$1,$8,$9,$2,$3,0*%
G04 Aperture macros list end*
%ADD10RoundRect,0.135000X0.185000X-0.135000X0.185000X0.135000X-0.185000X0.135000X-0.185000X-0.135000X0*%
%ADD11RoundRect,0.140000X0.170000X-0.140000X0.170000X0.140000X-0.170000X0.140000X-0.170000X-0.140000X0*%
%ADD12RoundRect,0.135000X-0.185000X0.135000X-0.185000X-0.135000X0.185000X-0.135000X0.185000X0.135000X0*%
%ADD13R,0.675000X0.254000*%
%ADD14R,0.254000X0.675000*%
%ADD15RoundRect,0.140000X-0.140000X-0.170000X0.140000X-0.170000X0.140000X0.170000X-0.140000X0.170000X0*%
%ADD16RoundRect,0.140000X-0.170000X0.140000X-0.170000X-0.140000X0.170000X-0.140000X0.170000X0.140000X0*%
%ADD17RoundRect,0.135000X0.135000X0.185000X-0.135000X0.185000X-0.135000X-0.185000X0.135000X-0.185000X0*%
%ADD18R,1.100000X0.600000*%
G04 APERTURE END LIST*
D10*
%TO.C,R3*%
X99680000Y-106660000D03*
X99680000Y-105640000D03*
%TD*%
D11*
%TO.C,C2*%
X97830000Y-106650000D03*
X97830000Y-105690000D03*
%TD*%
D12*
%TO.C,R2*%
X95960000Y-105640000D03*
X95960000Y-106660000D03*
%TD*%
D13*
%TO.C,U1*%
X97627500Y-108220000D03*
D14*
X98540000Y-108082500D03*
X99040000Y-108082500D03*
X99540000Y-108082500D03*
X100040000Y-108082500D03*
D13*
X100952500Y-108220000D03*
X100952500Y-108720000D03*
X100952500Y-109220000D03*
X100952500Y-109720000D03*
X100952500Y-110220000D03*
X100952500Y-110720000D03*
X100952500Y-111220000D03*
X100952500Y-111720000D03*
X100952500Y-112220000D03*
X100952500Y-112720000D03*
D14*
X100040000Y-112857500D03*
X99540000Y-112857500D03*
X99040000Y-112857500D03*
X98540000Y-112857500D03*
D13*
X97627500Y-112720000D03*
X97627500Y-112220000D03*
X97627500Y-111720000D03*
X97627500Y-111220000D03*
X97627500Y-110720000D03*
X97627500Y-110220000D03*
X97627500Y-109720000D03*
X97627500Y-109220000D03*
X97627500Y-108720000D03*
%TD*%
D15*
%TO.C,C4*%
X95650000Y-111320000D03*
X96610000Y-111320000D03*
%TD*%
D16*
%TO.C,C6*%
X98750000Y-105690000D03*
X98750000Y-106650000D03*
%TD*%
D17*
%TO.C,R4*%
X96620000Y-112250000D03*
X95600000Y-112250000D03*
%TD*%
D12*
%TO.C,R1*%
X96900000Y-105640000D03*
X96900000Y-106660000D03*
%TD*%
D18*
%TO.C,Y1*%
X96140000Y-110260000D03*
X96140000Y-108860000D03*
%TD*%
D15*
%TO.C,C5*%
X95640000Y-107800000D03*
X96600000Y-107800000D03*
%TD*%
D11*
%TO.C,C1*%
X100610000Y-106650000D03*
X100610000Y-105690000D03*
%TD*%
M02*
