%TF.GenerationSoftware,KiCad,Pcbnew,7.0.7*%
%TF.CreationDate,2023-12-02T22:39:50+00:00*%
%TF.ProjectId,BNO085_0x4B_Board,424e4f30-3835-45f3-9078-34425f426f61,rev?*%
%TF.SameCoordinates,Original*%
%TF.FileFunction,Legend,Bot*%
%TF.FilePolarity,Positive*%
%FSLAX46Y46*%
G04 Gerber Fmt 4.6, Leading zero omitted, Abs format (unit mm)*
G04 Created by KiCad (PCBNEW 7.0.7) date 2023-12-02 22:39:50*
%MOMM*%
%LPD*%
G01*
G04 APERTURE LIST*
%ADD10C,0.120000*%
G04 APERTURE END LIST*
D10*
%TO.C,R3*%
X99300000Y-106303641D02*
X99300000Y-105996359D01*
X100060000Y-106303641D02*
X100060000Y-105996359D01*
%TO.C,C2*%
X97470000Y-106277836D02*
X97470000Y-106062164D01*
X98190000Y-106277836D02*
X98190000Y-106062164D01*
%TO.C,R2*%
X96340000Y-105996359D02*
X96340000Y-106303641D01*
X95580000Y-105996359D02*
X95580000Y-106303641D01*
%TO.C,U1*%
X101300000Y-107760000D02*
X101040000Y-107760000D01*
X101300000Y-107760000D02*
X101300000Y-108020000D01*
X97280000Y-107760000D02*
X97280000Y-108020000D01*
X101300000Y-113180000D02*
X101300000Y-112920000D01*
X101300000Y-113180000D02*
X101040000Y-113180000D01*
X97280000Y-113180000D02*
X97280000Y-112920000D01*
X97280000Y-113180000D02*
X97540000Y-113180000D01*
%TO.C,C4*%
X96022164Y-110960000D02*
X96237836Y-110960000D01*
X96022164Y-111680000D02*
X96237836Y-111680000D01*
%TO.C,C6*%
X99110000Y-106062164D02*
X99110000Y-106277836D01*
X98390000Y-106062164D02*
X98390000Y-106277836D01*
%TO.C,R4*%
X96263641Y-112630000D02*
X95956359Y-112630000D01*
X96263641Y-111870000D02*
X95956359Y-111870000D01*
%TO.C,R1*%
X97280000Y-105996359D02*
X97280000Y-106303641D01*
X96520000Y-105996359D02*
X96520000Y-106303641D01*
%TO.C,Y1*%
X95340000Y-110760000D02*
X95340000Y-108360000D01*
X96940000Y-110760000D02*
X95340000Y-110760000D01*
X96940000Y-108360000D02*
X96940000Y-110760000D01*
%TO.C,C5*%
X96012164Y-107440000D02*
X96227836Y-107440000D01*
X96012164Y-108160000D02*
X96227836Y-108160000D01*
%TO.C,C1*%
X100250000Y-106277836D02*
X100250000Y-106062164D01*
X100970000Y-106277836D02*
X100970000Y-106062164D01*
%TD*%
M02*
