%TF.GenerationSoftware,KiCad,Pcbnew,7.0.7*%
%TF.CreationDate,2023-12-02T22:39:50+00:00*%
%TF.ProjectId,BNO085_0x4B_Board,424e4f30-3835-45f3-9078-34425f426f61,rev?*%
%TF.SameCoordinates,Original*%
%TF.FileFunction,Legend,Top*%
%TF.FilePolarity,Positive*%
%FSLAX46Y46*%
G04 Gerber Fmt 4.6, Leading zero omitted, Abs format (unit mm)*
G04 Created by KiCad (PCBNEW 7.0.7) date 2023-12-02 22:39:50*
%MOMM*%
%LPD*%
G01*
G04 APERTURE LIST*
%ADD10C,0.150000*%
G04 APERTURE END LIST*
D10*
X100724819Y-106376666D02*
X100248628Y-106709999D01*
X100724819Y-106948094D02*
X99724819Y-106948094D01*
X99724819Y-106948094D02*
X99724819Y-106567142D01*
X99724819Y-106567142D02*
X99772438Y-106471904D01*
X99772438Y-106471904D02*
X99820057Y-106424285D01*
X99820057Y-106424285D02*
X99915295Y-106376666D01*
X99915295Y-106376666D02*
X100058152Y-106376666D01*
X100058152Y-106376666D02*
X100153390Y-106424285D01*
X100153390Y-106424285D02*
X100201009Y-106471904D01*
X100201009Y-106471904D02*
X100248628Y-106567142D01*
X100248628Y-106567142D02*
X100248628Y-106948094D01*
X99724819Y-106043332D02*
X99724819Y-105424285D01*
X99724819Y-105424285D02*
X100105771Y-105757618D01*
X100105771Y-105757618D02*
X100105771Y-105614761D01*
X100105771Y-105614761D02*
X100153390Y-105519523D01*
X100153390Y-105519523D02*
X100201009Y-105471904D01*
X100201009Y-105471904D02*
X100296247Y-105424285D01*
X100296247Y-105424285D02*
X100534342Y-105424285D01*
X100534342Y-105424285D02*
X100629580Y-105471904D01*
X100629580Y-105471904D02*
X100677200Y-105519523D01*
X100677200Y-105519523D02*
X100724819Y-105614761D01*
X100724819Y-105614761D02*
X100724819Y-105900475D01*
X100724819Y-105900475D02*
X100677200Y-105995713D01*
X100677200Y-105995713D02*
X100629580Y-106043332D01*
X98229580Y-106336666D02*
X98277200Y-106384285D01*
X98277200Y-106384285D02*
X98324819Y-106527142D01*
X98324819Y-106527142D02*
X98324819Y-106622380D01*
X98324819Y-106622380D02*
X98277200Y-106765237D01*
X98277200Y-106765237D02*
X98181961Y-106860475D01*
X98181961Y-106860475D02*
X98086723Y-106908094D01*
X98086723Y-106908094D02*
X97896247Y-106955713D01*
X97896247Y-106955713D02*
X97753390Y-106955713D01*
X97753390Y-106955713D02*
X97562914Y-106908094D01*
X97562914Y-106908094D02*
X97467676Y-106860475D01*
X97467676Y-106860475D02*
X97372438Y-106765237D01*
X97372438Y-106765237D02*
X97324819Y-106622380D01*
X97324819Y-106622380D02*
X97324819Y-106527142D01*
X97324819Y-106527142D02*
X97372438Y-106384285D01*
X97372438Y-106384285D02*
X97420057Y-106336666D01*
X97420057Y-105955713D02*
X97372438Y-105908094D01*
X97372438Y-105908094D02*
X97324819Y-105812856D01*
X97324819Y-105812856D02*
X97324819Y-105574761D01*
X97324819Y-105574761D02*
X97372438Y-105479523D01*
X97372438Y-105479523D02*
X97420057Y-105431904D01*
X97420057Y-105431904D02*
X97515295Y-105384285D01*
X97515295Y-105384285D02*
X97610533Y-105384285D01*
X97610533Y-105384285D02*
X97753390Y-105431904D01*
X97753390Y-105431904D02*
X98324819Y-106003332D01*
X98324819Y-106003332D02*
X98324819Y-105384285D01*
X95644819Y-106336666D02*
X95168628Y-106669999D01*
X95644819Y-106908094D02*
X94644819Y-106908094D01*
X94644819Y-106908094D02*
X94644819Y-106527142D01*
X94644819Y-106527142D02*
X94692438Y-106431904D01*
X94692438Y-106431904D02*
X94740057Y-106384285D01*
X94740057Y-106384285D02*
X94835295Y-106336666D01*
X94835295Y-106336666D02*
X94978152Y-106336666D01*
X94978152Y-106336666D02*
X95073390Y-106384285D01*
X95073390Y-106384285D02*
X95121009Y-106431904D01*
X95121009Y-106431904D02*
X95168628Y-106527142D01*
X95168628Y-106527142D02*
X95168628Y-106908094D01*
X94740057Y-105955713D02*
X94692438Y-105908094D01*
X94692438Y-105908094D02*
X94644819Y-105812856D01*
X94644819Y-105812856D02*
X94644819Y-105574761D01*
X94644819Y-105574761D02*
X94692438Y-105479523D01*
X94692438Y-105479523D02*
X94740057Y-105431904D01*
X94740057Y-105431904D02*
X94835295Y-105384285D01*
X94835295Y-105384285D02*
X94930533Y-105384285D01*
X94930533Y-105384285D02*
X95073390Y-105431904D01*
X95073390Y-105431904D02*
X95644819Y-106003332D01*
X95644819Y-106003332D02*
X95644819Y-105384285D01*
X95263333Y-111829580D02*
X95215714Y-111877200D01*
X95215714Y-111877200D02*
X95072857Y-111924819D01*
X95072857Y-111924819D02*
X94977619Y-111924819D01*
X94977619Y-111924819D02*
X94834762Y-111877200D01*
X94834762Y-111877200D02*
X94739524Y-111781961D01*
X94739524Y-111781961D02*
X94691905Y-111686723D01*
X94691905Y-111686723D02*
X94644286Y-111496247D01*
X94644286Y-111496247D02*
X94644286Y-111353390D01*
X94644286Y-111353390D02*
X94691905Y-111162914D01*
X94691905Y-111162914D02*
X94739524Y-111067676D01*
X94739524Y-111067676D02*
X94834762Y-110972438D01*
X94834762Y-110972438D02*
X94977619Y-110924819D01*
X94977619Y-110924819D02*
X95072857Y-110924819D01*
X95072857Y-110924819D02*
X95215714Y-110972438D01*
X95215714Y-110972438D02*
X95263333Y-111020057D01*
X96120476Y-111258152D02*
X96120476Y-111924819D01*
X95882381Y-110877200D02*
X95644286Y-111591485D01*
X95644286Y-111591485D02*
X96263333Y-111591485D01*
X99449580Y-106346666D02*
X99497200Y-106394285D01*
X99497200Y-106394285D02*
X99544819Y-106537142D01*
X99544819Y-106537142D02*
X99544819Y-106632380D01*
X99544819Y-106632380D02*
X99497200Y-106775237D01*
X99497200Y-106775237D02*
X99401961Y-106870475D01*
X99401961Y-106870475D02*
X99306723Y-106918094D01*
X99306723Y-106918094D02*
X99116247Y-106965713D01*
X99116247Y-106965713D02*
X98973390Y-106965713D01*
X98973390Y-106965713D02*
X98782914Y-106918094D01*
X98782914Y-106918094D02*
X98687676Y-106870475D01*
X98687676Y-106870475D02*
X98592438Y-106775237D01*
X98592438Y-106775237D02*
X98544819Y-106632380D01*
X98544819Y-106632380D02*
X98544819Y-106537142D01*
X98544819Y-106537142D02*
X98592438Y-106394285D01*
X98592438Y-106394285D02*
X98640057Y-106346666D01*
X98544819Y-105489523D02*
X98544819Y-105679999D01*
X98544819Y-105679999D02*
X98592438Y-105775237D01*
X98592438Y-105775237D02*
X98640057Y-105822856D01*
X98640057Y-105822856D02*
X98782914Y-105918094D01*
X98782914Y-105918094D02*
X98973390Y-105965713D01*
X98973390Y-105965713D02*
X99354342Y-105965713D01*
X99354342Y-105965713D02*
X99449580Y-105918094D01*
X99449580Y-105918094D02*
X99497200Y-105870475D01*
X99497200Y-105870475D02*
X99544819Y-105775237D01*
X99544819Y-105775237D02*
X99544819Y-105584761D01*
X99544819Y-105584761D02*
X99497200Y-105489523D01*
X99497200Y-105489523D02*
X99449580Y-105441904D01*
X99449580Y-105441904D02*
X99354342Y-105394285D01*
X99354342Y-105394285D02*
X99116247Y-105394285D01*
X99116247Y-105394285D02*
X99021009Y-105441904D01*
X99021009Y-105441904D02*
X98973390Y-105489523D01*
X98973390Y-105489523D02*
X98925771Y-105584761D01*
X98925771Y-105584761D02*
X98925771Y-105775237D01*
X98925771Y-105775237D02*
X98973390Y-105870475D01*
X98973390Y-105870475D02*
X99021009Y-105918094D01*
X99021009Y-105918094D02*
X99116247Y-105965713D01*
X95223333Y-113304819D02*
X94890000Y-112828628D01*
X94651905Y-113304819D02*
X94651905Y-112304819D01*
X94651905Y-112304819D02*
X95032857Y-112304819D01*
X95032857Y-112304819D02*
X95128095Y-112352438D01*
X95128095Y-112352438D02*
X95175714Y-112400057D01*
X95175714Y-112400057D02*
X95223333Y-112495295D01*
X95223333Y-112495295D02*
X95223333Y-112638152D01*
X95223333Y-112638152D02*
X95175714Y-112733390D01*
X95175714Y-112733390D02*
X95128095Y-112781009D01*
X95128095Y-112781009D02*
X95032857Y-112828628D01*
X95032857Y-112828628D02*
X94651905Y-112828628D01*
X96080476Y-112638152D02*
X96080476Y-113304819D01*
X95842381Y-112257200D02*
X95604286Y-112971485D01*
X95604286Y-112971485D02*
X96223333Y-112971485D01*
X97094819Y-106286666D02*
X96618628Y-106619999D01*
X97094819Y-106858094D02*
X96094819Y-106858094D01*
X96094819Y-106858094D02*
X96094819Y-106477142D01*
X96094819Y-106477142D02*
X96142438Y-106381904D01*
X96142438Y-106381904D02*
X96190057Y-106334285D01*
X96190057Y-106334285D02*
X96285295Y-106286666D01*
X96285295Y-106286666D02*
X96428152Y-106286666D01*
X96428152Y-106286666D02*
X96523390Y-106334285D01*
X96523390Y-106334285D02*
X96571009Y-106381904D01*
X96571009Y-106381904D02*
X96618628Y-106477142D01*
X96618628Y-106477142D02*
X96618628Y-106858094D01*
X97094819Y-105334285D02*
X97094819Y-105905713D01*
X97094819Y-105619999D02*
X96094819Y-105619999D01*
X96094819Y-105619999D02*
X96237676Y-105715237D01*
X96237676Y-105715237D02*
X96332914Y-105810475D01*
X96332914Y-105810475D02*
X96380533Y-105905713D01*
X95223333Y-108219580D02*
X95175714Y-108267200D01*
X95175714Y-108267200D02*
X95032857Y-108314819D01*
X95032857Y-108314819D02*
X94937619Y-108314819D01*
X94937619Y-108314819D02*
X94794762Y-108267200D01*
X94794762Y-108267200D02*
X94699524Y-108171961D01*
X94699524Y-108171961D02*
X94651905Y-108076723D01*
X94651905Y-108076723D02*
X94604286Y-107886247D01*
X94604286Y-107886247D02*
X94604286Y-107743390D01*
X94604286Y-107743390D02*
X94651905Y-107552914D01*
X94651905Y-107552914D02*
X94699524Y-107457676D01*
X94699524Y-107457676D02*
X94794762Y-107362438D01*
X94794762Y-107362438D02*
X94937619Y-107314819D01*
X94937619Y-107314819D02*
X95032857Y-107314819D01*
X95032857Y-107314819D02*
X95175714Y-107362438D01*
X95175714Y-107362438D02*
X95223333Y-107410057D01*
X96128095Y-107314819D02*
X95651905Y-107314819D01*
X95651905Y-107314819D02*
X95604286Y-107791009D01*
X95604286Y-107791009D02*
X95651905Y-107743390D01*
X95651905Y-107743390D02*
X95747143Y-107695771D01*
X95747143Y-107695771D02*
X95985238Y-107695771D01*
X95985238Y-107695771D02*
X96080476Y-107743390D01*
X96080476Y-107743390D02*
X96128095Y-107791009D01*
X96128095Y-107791009D02*
X96175714Y-107886247D01*
X96175714Y-107886247D02*
X96175714Y-108124342D01*
X96175714Y-108124342D02*
X96128095Y-108219580D01*
X96128095Y-108219580D02*
X96080476Y-108267200D01*
X96080476Y-108267200D02*
X95985238Y-108314819D01*
X95985238Y-108314819D02*
X95747143Y-108314819D01*
X95747143Y-108314819D02*
X95651905Y-108267200D01*
X95651905Y-108267200D02*
X95604286Y-108219580D01*
X101799580Y-106336666D02*
X101847200Y-106384285D01*
X101847200Y-106384285D02*
X101894819Y-106527142D01*
X101894819Y-106527142D02*
X101894819Y-106622380D01*
X101894819Y-106622380D02*
X101847200Y-106765237D01*
X101847200Y-106765237D02*
X101751961Y-106860475D01*
X101751961Y-106860475D02*
X101656723Y-106908094D01*
X101656723Y-106908094D02*
X101466247Y-106955713D01*
X101466247Y-106955713D02*
X101323390Y-106955713D01*
X101323390Y-106955713D02*
X101132914Y-106908094D01*
X101132914Y-106908094D02*
X101037676Y-106860475D01*
X101037676Y-106860475D02*
X100942438Y-106765237D01*
X100942438Y-106765237D02*
X100894819Y-106622380D01*
X100894819Y-106622380D02*
X100894819Y-106527142D01*
X100894819Y-106527142D02*
X100942438Y-106384285D01*
X100942438Y-106384285D02*
X100990057Y-106336666D01*
X101894819Y-105384285D02*
X101894819Y-105955713D01*
X101894819Y-105669999D02*
X100894819Y-105669999D01*
X100894819Y-105669999D02*
X101037676Y-105765237D01*
X101037676Y-105765237D02*
X101132914Y-105860475D01*
X101132914Y-105860475D02*
X101180533Y-105955713D01*
M02*
