%TF.GenerationSoftware,KiCad,Pcbnew,7.0.7*%
%TF.CreationDate,2023-11-22T02:03:25+00:00*%
%TF.ProjectId,IMUBoard1QwiicConnector,494d5542-6f61-4726-9431-517769696343,rev?*%
%TF.SameCoordinates,Original*%
%TF.FileFunction,Legend,Top*%
%TF.FilePolarity,Positive*%
%FSLAX46Y46*%
G04 Gerber Fmt 4.6, Leading zero omitted, Abs format (unit mm)*
G04 Created by KiCad (PCBNEW 7.0.7) date 2023-11-22 02:03:25*
%MOMM*%
%LPD*%
G01*
G04 APERTURE LIST*
%ADD10C,0.150000*%
%ADD11C,0.120000*%
G04 APERTURE END LIST*
D10*
X94300000Y-105040000D02*
X102250000Y-105040000D01*
X102250000Y-113890000D01*
X94300000Y-113890000D01*
X94300000Y-105040000D01*
X102064819Y-108146666D02*
X101588628Y-108479999D01*
X102064819Y-108718094D02*
X101064819Y-108718094D01*
X101064819Y-108718094D02*
X101064819Y-108337142D01*
X101064819Y-108337142D02*
X101112438Y-108241904D01*
X101112438Y-108241904D02*
X101160057Y-108194285D01*
X101160057Y-108194285D02*
X101255295Y-108146666D01*
X101255295Y-108146666D02*
X101398152Y-108146666D01*
X101398152Y-108146666D02*
X101493390Y-108194285D01*
X101493390Y-108194285D02*
X101541009Y-108241904D01*
X101541009Y-108241904D02*
X101588628Y-108337142D01*
X101588628Y-108337142D02*
X101588628Y-108718094D01*
X101064819Y-107813332D02*
X101064819Y-107194285D01*
X101064819Y-107194285D02*
X101445771Y-107527618D01*
X101445771Y-107527618D02*
X101445771Y-107384761D01*
X101445771Y-107384761D02*
X101493390Y-107289523D01*
X101493390Y-107289523D02*
X101541009Y-107241904D01*
X101541009Y-107241904D02*
X101636247Y-107194285D01*
X101636247Y-107194285D02*
X101874342Y-107194285D01*
X101874342Y-107194285D02*
X101969580Y-107241904D01*
X101969580Y-107241904D02*
X102017200Y-107289523D01*
X102017200Y-107289523D02*
X102064819Y-107384761D01*
X102064819Y-107384761D02*
X102064819Y-107670475D01*
X102064819Y-107670475D02*
X102017200Y-107765713D01*
X102017200Y-107765713D02*
X101969580Y-107813332D01*
X96169580Y-109786666D02*
X96217200Y-109834285D01*
X96217200Y-109834285D02*
X96264819Y-109977142D01*
X96264819Y-109977142D02*
X96264819Y-110072380D01*
X96264819Y-110072380D02*
X96217200Y-110215237D01*
X96217200Y-110215237D02*
X96121961Y-110310475D01*
X96121961Y-110310475D02*
X96026723Y-110358094D01*
X96026723Y-110358094D02*
X95836247Y-110405713D01*
X95836247Y-110405713D02*
X95693390Y-110405713D01*
X95693390Y-110405713D02*
X95502914Y-110358094D01*
X95502914Y-110358094D02*
X95407676Y-110310475D01*
X95407676Y-110310475D02*
X95312438Y-110215237D01*
X95312438Y-110215237D02*
X95264819Y-110072380D01*
X95264819Y-110072380D02*
X95264819Y-109977142D01*
X95264819Y-109977142D02*
X95312438Y-109834285D01*
X95312438Y-109834285D02*
X95360057Y-109786666D01*
X95360057Y-109405713D02*
X95312438Y-109358094D01*
X95312438Y-109358094D02*
X95264819Y-109262856D01*
X95264819Y-109262856D02*
X95264819Y-109024761D01*
X95264819Y-109024761D02*
X95312438Y-108929523D01*
X95312438Y-108929523D02*
X95360057Y-108881904D01*
X95360057Y-108881904D02*
X95455295Y-108834285D01*
X95455295Y-108834285D02*
X95550533Y-108834285D01*
X95550533Y-108834285D02*
X95693390Y-108881904D01*
X95693390Y-108881904D02*
X96264819Y-109453332D01*
X96264819Y-109453332D02*
X96264819Y-108834285D01*
X95504819Y-106286666D02*
X95028628Y-106619999D01*
X95504819Y-106858094D02*
X94504819Y-106858094D01*
X94504819Y-106858094D02*
X94504819Y-106477142D01*
X94504819Y-106477142D02*
X94552438Y-106381904D01*
X94552438Y-106381904D02*
X94600057Y-106334285D01*
X94600057Y-106334285D02*
X94695295Y-106286666D01*
X94695295Y-106286666D02*
X94838152Y-106286666D01*
X94838152Y-106286666D02*
X94933390Y-106334285D01*
X94933390Y-106334285D02*
X94981009Y-106381904D01*
X94981009Y-106381904D02*
X95028628Y-106477142D01*
X95028628Y-106477142D02*
X95028628Y-106858094D01*
X94600057Y-105905713D02*
X94552438Y-105858094D01*
X94552438Y-105858094D02*
X94504819Y-105762856D01*
X94504819Y-105762856D02*
X94504819Y-105524761D01*
X94504819Y-105524761D02*
X94552438Y-105429523D01*
X94552438Y-105429523D02*
X94600057Y-105381904D01*
X94600057Y-105381904D02*
X94695295Y-105334285D01*
X94695295Y-105334285D02*
X94790533Y-105334285D01*
X94790533Y-105334285D02*
X94933390Y-105381904D01*
X94933390Y-105381904D02*
X95504819Y-105953332D01*
X95504819Y-105953332D02*
X95504819Y-105334285D01*
X98146666Y-111274819D02*
X98146666Y-111989104D01*
X98146666Y-111989104D02*
X98099047Y-112131961D01*
X98099047Y-112131961D02*
X98003809Y-112227200D01*
X98003809Y-112227200D02*
X97860952Y-112274819D01*
X97860952Y-112274819D02*
X97765714Y-112274819D01*
X99146666Y-112274819D02*
X98575238Y-112274819D01*
X98860952Y-112274819D02*
X98860952Y-111274819D01*
X98860952Y-111274819D02*
X98765714Y-111417676D01*
X98765714Y-111417676D02*
X98670476Y-111512914D01*
X98670476Y-111512914D02*
X98575238Y-111560533D01*
X95534819Y-108036666D02*
X95058628Y-108369999D01*
X95534819Y-108608094D02*
X94534819Y-108608094D01*
X94534819Y-108608094D02*
X94534819Y-108227142D01*
X94534819Y-108227142D02*
X94582438Y-108131904D01*
X94582438Y-108131904D02*
X94630057Y-108084285D01*
X94630057Y-108084285D02*
X94725295Y-108036666D01*
X94725295Y-108036666D02*
X94868152Y-108036666D01*
X94868152Y-108036666D02*
X94963390Y-108084285D01*
X94963390Y-108084285D02*
X95011009Y-108131904D01*
X95011009Y-108131904D02*
X95058628Y-108227142D01*
X95058628Y-108227142D02*
X95058628Y-108608094D01*
X95534819Y-107084285D02*
X95534819Y-107655713D01*
X95534819Y-107369999D02*
X94534819Y-107369999D01*
X94534819Y-107369999D02*
X94677676Y-107465237D01*
X94677676Y-107465237D02*
X94772914Y-107560475D01*
X94772914Y-107560475D02*
X94820533Y-107655713D01*
X101979580Y-106296666D02*
X102027200Y-106344285D01*
X102027200Y-106344285D02*
X102074819Y-106487142D01*
X102074819Y-106487142D02*
X102074819Y-106582380D01*
X102074819Y-106582380D02*
X102027200Y-106725237D01*
X102027200Y-106725237D02*
X101931961Y-106820475D01*
X101931961Y-106820475D02*
X101836723Y-106868094D01*
X101836723Y-106868094D02*
X101646247Y-106915713D01*
X101646247Y-106915713D02*
X101503390Y-106915713D01*
X101503390Y-106915713D02*
X101312914Y-106868094D01*
X101312914Y-106868094D02*
X101217676Y-106820475D01*
X101217676Y-106820475D02*
X101122438Y-106725237D01*
X101122438Y-106725237D02*
X101074819Y-106582380D01*
X101074819Y-106582380D02*
X101074819Y-106487142D01*
X101074819Y-106487142D02*
X101122438Y-106344285D01*
X101122438Y-106344285D02*
X101170057Y-106296666D01*
X102074819Y-105344285D02*
X102074819Y-105915713D01*
X102074819Y-105629999D02*
X101074819Y-105629999D01*
X101074819Y-105629999D02*
X101217676Y-105725237D01*
X101217676Y-105725237D02*
X101312914Y-105820475D01*
X101312914Y-105820475D02*
X101360533Y-105915713D01*
X101199580Y-109846666D02*
X101247200Y-109894285D01*
X101247200Y-109894285D02*
X101294819Y-110037142D01*
X101294819Y-110037142D02*
X101294819Y-110132380D01*
X101294819Y-110132380D02*
X101247200Y-110275237D01*
X101247200Y-110275237D02*
X101151961Y-110370475D01*
X101151961Y-110370475D02*
X101056723Y-110418094D01*
X101056723Y-110418094D02*
X100866247Y-110465713D01*
X100866247Y-110465713D02*
X100723390Y-110465713D01*
X100723390Y-110465713D02*
X100532914Y-110418094D01*
X100532914Y-110418094D02*
X100437676Y-110370475D01*
X100437676Y-110370475D02*
X100342438Y-110275237D01*
X100342438Y-110275237D02*
X100294819Y-110132380D01*
X100294819Y-110132380D02*
X100294819Y-110037142D01*
X100294819Y-110037142D02*
X100342438Y-109894285D01*
X100342438Y-109894285D02*
X100390057Y-109846666D01*
X100294819Y-108989523D02*
X100294819Y-109179999D01*
X100294819Y-109179999D02*
X100342438Y-109275237D01*
X100342438Y-109275237D02*
X100390057Y-109322856D01*
X100390057Y-109322856D02*
X100532914Y-109418094D01*
X100532914Y-109418094D02*
X100723390Y-109465713D01*
X100723390Y-109465713D02*
X101104342Y-109465713D01*
X101104342Y-109465713D02*
X101199580Y-109418094D01*
X101199580Y-109418094D02*
X101247200Y-109370475D01*
X101247200Y-109370475D02*
X101294819Y-109275237D01*
X101294819Y-109275237D02*
X101294819Y-109084761D01*
X101294819Y-109084761D02*
X101247200Y-108989523D01*
X101247200Y-108989523D02*
X101199580Y-108941904D01*
X101199580Y-108941904D02*
X101104342Y-108894285D01*
X101104342Y-108894285D02*
X100866247Y-108894285D01*
X100866247Y-108894285D02*
X100771009Y-108941904D01*
X100771009Y-108941904D02*
X100723390Y-108989523D01*
X100723390Y-108989523D02*
X100675771Y-109084761D01*
X100675771Y-109084761D02*
X100675771Y-109275237D01*
X100675771Y-109275237D02*
X100723390Y-109370475D01*
X100723390Y-109370475D02*
X100771009Y-109418094D01*
X100771009Y-109418094D02*
X100866247Y-109465713D01*
D11*
%TO.C,R3*%
X99300000Y-106303641D02*
X99300000Y-105996359D01*
X100060000Y-106303641D02*
X100060000Y-105996359D01*
%TO.C,C2*%
X97470000Y-106277836D02*
X97470000Y-106062164D01*
X98190000Y-106277836D02*
X98190000Y-106062164D01*
%TO.C,R2*%
X95580000Y-105996359D02*
X95580000Y-106303641D01*
X96340000Y-105996359D02*
X96340000Y-106303641D01*
%TO.C,J1*%
X95160000Y-108575000D02*
X96210000Y-108575000D01*
X95160000Y-111075000D02*
X95160000Y-108575000D01*
X96210000Y-108575000D02*
X96210000Y-107585000D01*
X96330000Y-113045000D02*
X100210000Y-113045000D01*
X101380000Y-108575000D02*
X100330000Y-108575000D01*
X101380000Y-111075000D02*
X101380000Y-108575000D01*
%TO.C,R1*%
X97280000Y-105996359D02*
X97280000Y-106303641D01*
X96520000Y-105996359D02*
X96520000Y-106303641D01*
%TO.C,C1*%
X100250000Y-106277836D02*
X100250000Y-106062164D01*
X100970000Y-106277836D02*
X100970000Y-106062164D01*
%TO.C,C6*%
X98390000Y-106062164D02*
X98390000Y-106277836D01*
X99110000Y-106062164D02*
X99110000Y-106277836D01*
%TD*%
M02*
