%TF.GenerationSoftware,KiCad,Pcbnew,7.0.7*%
%TF.CreationDate,2023-11-22T02:03:25+00:00*%
%TF.ProjectId,IMUBoard1QwiicConnector,494d5542-6f61-4726-9431-517769696343,rev?*%
%TF.SameCoordinates,Original*%
%TF.FileFunction,Copper,L2,Inr*%
%TF.FilePolarity,Positive*%
%FSLAX46Y46*%
G04 Gerber Fmt 4.6, Leading zero omitted, Abs format (unit mm)*
G04 Created by KiCad (PCBNEW 7.0.7) date 2023-11-22 02:03:25*
%MOMM*%
%LPD*%
G01*
G04 APERTURE LIST*
%TA.AperFunction,ViaPad*%
%ADD10C,0.500000*%
%TD*%
%TA.AperFunction,Conductor*%
%ADD11C,0.127000*%
%TD*%
G04 APERTURE END LIST*
D10*
%TO.N,Net-(U1-CAP)*%
X100610000Y-105690000D03*
%TO.N,GND*%
X100610000Y-106650000D03*
%TO.N,Net-(U1-BOOTN)*%
X99680000Y-106660000D03*
%TO.N,Net-(U1-NRST)*%
X96630000Y-113019500D03*
%TO.N,SDA*%
X97770000Y-113120000D03*
%TO.N,+3V3*%
X96620000Y-112250000D03*
X98750000Y-105690000D03*
%TO.N,GND*%
X97830000Y-106650000D03*
%TO.N,Net-(U1-NRST)*%
X100120000Y-110730000D03*
%TO.N,GND*%
X99414229Y-111290562D03*
X100040000Y-109645000D03*
%TO.N,+3V3*%
X99440974Y-111990016D03*
X98630000Y-109707000D03*
%TO.N,SCL*%
X98414502Y-110733000D03*
%TD*%
D11*
%TO.N,Net-(U1-NRST)*%
X97043000Y-112606500D02*
X96630000Y-113019500D01*
X98016500Y-112606500D02*
X97043000Y-112606500D01*
X101260000Y-113530000D02*
X98940000Y-113530000D01*
X101750000Y-113040000D02*
X101260000Y-113530000D01*
X98940000Y-113530000D02*
X98016500Y-112606500D01*
X101750000Y-112360000D02*
X101750000Y-113040000D01*
X100120000Y-110730000D02*
X101750000Y-112360000D01*
%TD*%
%TA.AperFunction,Conductor*%
%TO.N,+3V3*%
G36*
X99987460Y-105040185D02*
G01*
X100033215Y-105092989D01*
X100043159Y-105162147D01*
X100021540Y-105212154D01*
X100023227Y-105213214D01*
X99929547Y-105362302D01*
X99929545Y-105362305D01*
X99873685Y-105521943D01*
X99854751Y-105689997D01*
X99854751Y-105690005D01*
X99864095Y-105772943D01*
X99852040Y-105841764D01*
X99804690Y-105893143D01*
X99737080Y-105910767D01*
X99726992Y-105910045D01*
X99680004Y-105904751D01*
X99679997Y-105904751D01*
X99511943Y-105923685D01*
X99352305Y-105979545D01*
X99352302Y-105979547D01*
X99209115Y-106069518D01*
X99209109Y-106069523D01*
X99089523Y-106189109D01*
X99089518Y-106189115D01*
X98999547Y-106332302D01*
X98999545Y-106332305D01*
X98943685Y-106491943D01*
X98924751Y-106659997D01*
X98924751Y-106660002D01*
X98943685Y-106828056D01*
X98999545Y-106987694D01*
X98999547Y-106987697D01*
X99089518Y-107130884D01*
X99089523Y-107130890D01*
X99209109Y-107250476D01*
X99209115Y-107250481D01*
X99352302Y-107340452D01*
X99352305Y-107340454D01*
X99352309Y-107340455D01*
X99352310Y-107340456D01*
X99424913Y-107365860D01*
X99511943Y-107396314D01*
X99679997Y-107415249D01*
X99680000Y-107415249D01*
X99680003Y-107415249D01*
X99848056Y-107396314D01*
X99848059Y-107396313D01*
X100007690Y-107340456D01*
X100086984Y-107290631D01*
X100154221Y-107271631D01*
X100218929Y-107290631D01*
X100282310Y-107330456D01*
X100403621Y-107372904D01*
X100441943Y-107386314D01*
X100609997Y-107405249D01*
X100610000Y-107405249D01*
X100610003Y-107405249D01*
X100778056Y-107386314D01*
X100778059Y-107386313D01*
X100937690Y-107330456D01*
X100937692Y-107330454D01*
X100937694Y-107330454D01*
X100937697Y-107330452D01*
X101080884Y-107240481D01*
X101080885Y-107240480D01*
X101080890Y-107240477D01*
X101200477Y-107120890D01*
X101200481Y-107120884D01*
X101290452Y-106977697D01*
X101290454Y-106977694D01*
X101290454Y-106977692D01*
X101290456Y-106977690D01*
X101346313Y-106818059D01*
X101346313Y-106818058D01*
X101346314Y-106818056D01*
X101365249Y-106650002D01*
X101365249Y-106649997D01*
X101346314Y-106481943D01*
X101293952Y-106332302D01*
X101290456Y-106322310D01*
X101290454Y-106322307D01*
X101290454Y-106322306D01*
X101264986Y-106281775D01*
X101236205Y-106235971D01*
X101217205Y-106168737D01*
X101236205Y-106104028D01*
X101290456Y-106017690D01*
X101346313Y-105858059D01*
X101346313Y-105858058D01*
X101346314Y-105858056D01*
X101365249Y-105690002D01*
X101365249Y-105689997D01*
X101346314Y-105521943D01*
X101290454Y-105362305D01*
X101290452Y-105362302D01*
X101196773Y-105213214D01*
X101198643Y-105212038D01*
X101176224Y-105157135D01*
X101188975Y-105088439D01*
X101236842Y-105037542D01*
X101299579Y-105020500D01*
X102176000Y-105020500D01*
X102243039Y-105040185D01*
X102288794Y-105092989D01*
X102300000Y-105144500D01*
X102300000Y-111813021D01*
X102280315Y-111880060D01*
X102227511Y-111925815D01*
X102158353Y-111935759D01*
X102094797Y-111906734D01*
X102088319Y-111900702D01*
X100900550Y-110712933D01*
X100867065Y-110651610D01*
X100865011Y-110639135D01*
X100856314Y-110561944D01*
X100822133Y-110464261D01*
X100800456Y-110402310D01*
X100800455Y-110402308D01*
X100800454Y-110402305D01*
X100800452Y-110402302D01*
X100710481Y-110259115D01*
X100710476Y-110259109D01*
X100676005Y-110224638D01*
X100642520Y-110163315D01*
X100647504Y-110093623D01*
X100658693Y-110070984D01*
X100670280Y-110052545D01*
X100720456Y-109972690D01*
X100776313Y-109813059D01*
X100776313Y-109813058D01*
X100776314Y-109813056D01*
X100795249Y-109645002D01*
X100795249Y-109644997D01*
X100776314Y-109476943D01*
X100720454Y-109317305D01*
X100720452Y-109317302D01*
X100630481Y-109174115D01*
X100630476Y-109174109D01*
X100510890Y-109054523D01*
X100510884Y-109054518D01*
X100367697Y-108964547D01*
X100367694Y-108964545D01*
X100208056Y-108908685D01*
X100040003Y-108889751D01*
X100039997Y-108889751D01*
X99871943Y-108908685D01*
X99712305Y-108964545D01*
X99712302Y-108964547D01*
X99569115Y-109054518D01*
X99569109Y-109054523D01*
X99449523Y-109174109D01*
X99449518Y-109174115D01*
X99359547Y-109317302D01*
X99359545Y-109317305D01*
X99303685Y-109476943D01*
X99284751Y-109644997D01*
X99284751Y-109645002D01*
X99303685Y-109813056D01*
X99359545Y-109972692D01*
X99449523Y-110115891D01*
X99483993Y-110150360D01*
X99517479Y-110211682D01*
X99512495Y-110281374D01*
X99501307Y-110304014D01*
X99439545Y-110402307D01*
X99439544Y-110402308D01*
X99417866Y-110464261D01*
X99377144Y-110521036D01*
X99314709Y-110546525D01*
X99249098Y-110553918D01*
X99180276Y-110541864D01*
X99128897Y-110494515D01*
X99118172Y-110471653D01*
X99115585Y-110464261D01*
X99094958Y-110405310D01*
X99094957Y-110405309D01*
X99094956Y-110405305D01*
X99094954Y-110405302D01*
X99004983Y-110262115D01*
X99004978Y-110262109D01*
X98885392Y-110142523D01*
X98885386Y-110142518D01*
X98742199Y-110052547D01*
X98742196Y-110052545D01*
X98582558Y-109996685D01*
X98414505Y-109977751D01*
X98414499Y-109977751D01*
X98246445Y-109996685D01*
X98086807Y-110052545D01*
X98086804Y-110052547D01*
X97943617Y-110142518D01*
X97943611Y-110142523D01*
X97824025Y-110262109D01*
X97824020Y-110262115D01*
X97734049Y-110405302D01*
X97734047Y-110405305D01*
X97678187Y-110564943D01*
X97659253Y-110732997D01*
X97659253Y-110733002D01*
X97678187Y-110901056D01*
X97734047Y-111060694D01*
X97734049Y-111060697D01*
X97824020Y-111203884D01*
X97824025Y-111203890D01*
X97943611Y-111323476D01*
X97943617Y-111323481D01*
X98086804Y-111413452D01*
X98086807Y-111413454D01*
X98086811Y-111413455D01*
X98086812Y-111413456D01*
X98153546Y-111436807D01*
X98246445Y-111469314D01*
X98414499Y-111488249D01*
X98414502Y-111488249D01*
X98414505Y-111488249D01*
X98579633Y-111469643D01*
X98648455Y-111481697D01*
X98699835Y-111529046D01*
X98710559Y-111551909D01*
X98733773Y-111618254D01*
X98733776Y-111618259D01*
X98823747Y-111761446D01*
X98823752Y-111761452D01*
X98943338Y-111881038D01*
X98943344Y-111881043D01*
X99086531Y-111971014D01*
X99086534Y-111971016D01*
X99086538Y-111971017D01*
X99086539Y-111971018D01*
X99159142Y-111996422D01*
X99246172Y-112026876D01*
X99414226Y-112045811D01*
X99414229Y-112045811D01*
X99414232Y-112045811D01*
X99582285Y-112026876D01*
X99582288Y-112026875D01*
X99741919Y-111971018D01*
X99741921Y-111971016D01*
X99741923Y-111971016D01*
X99741926Y-111971014D01*
X99885113Y-111881043D01*
X99885114Y-111881042D01*
X99885119Y-111881039D01*
X100004706Y-111761452D01*
X100056702Y-111678700D01*
X100109036Y-111632411D01*
X100178089Y-111621763D01*
X100241938Y-111650138D01*
X100249376Y-111656993D01*
X101149681Y-112557297D01*
X101183166Y-112618620D01*
X101186000Y-112644978D01*
X101186000Y-112755021D01*
X101166315Y-112822060D01*
X101149681Y-112842702D01*
X101062702Y-112929681D01*
X101001379Y-112963166D01*
X100975021Y-112966000D01*
X99224978Y-112966000D01*
X99157939Y-112946315D01*
X99137297Y-112929681D01*
X98826236Y-112618620D01*
X98444317Y-112236700D01*
X98438977Y-112230610D01*
X98418750Y-112204250D01*
X98418749Y-112204249D01*
X98300934Y-112113847D01*
X98208517Y-112075567D01*
X98163734Y-112057017D01*
X98053468Y-112042500D01*
X98034983Y-112040066D01*
X98016501Y-112037633D01*
X98016500Y-112037633D01*
X97983563Y-112041969D01*
X97975466Y-112042500D01*
X97084034Y-112042500D01*
X97075936Y-112041969D01*
X97043000Y-112037633D01*
X97042999Y-112037633D01*
X97024516Y-112040066D01*
X97006032Y-112042500D01*
X96895766Y-112057017D01*
X96895765Y-112057017D01*
X96758565Y-112113847D01*
X96640750Y-112204248D01*
X96640749Y-112204250D01*
X96623461Y-112226778D01*
X96567031Y-112267978D01*
X96538976Y-112274506D01*
X96461941Y-112283187D01*
X96302307Y-112339044D01*
X96302302Y-112339047D01*
X96159115Y-112429018D01*
X96159109Y-112429023D01*
X96039523Y-112548609D01*
X96039518Y-112548615D01*
X95949547Y-112691802D01*
X95949545Y-112691805D01*
X95893685Y-112851443D01*
X95874751Y-113019497D01*
X95874751Y-113019502D01*
X95893685Y-113187556D01*
X95949545Y-113347194D01*
X95949547Y-113347197D01*
X96039518Y-113490384D01*
X96039523Y-113490390D01*
X96106952Y-113557819D01*
X96140437Y-113619142D01*
X96135453Y-113688834D01*
X96093581Y-113744767D01*
X96028117Y-113769184D01*
X96019271Y-113769500D01*
X94369500Y-113769500D01*
X94302461Y-113749815D01*
X94256706Y-113697011D01*
X94245500Y-113645500D01*
X94245500Y-111358244D01*
X94256237Y-106650002D01*
X97074751Y-106650002D01*
X97093685Y-106818056D01*
X97149545Y-106977694D01*
X97149547Y-106977697D01*
X97239518Y-107120884D01*
X97239523Y-107120890D01*
X97359109Y-107240476D01*
X97359115Y-107240481D01*
X97502302Y-107330452D01*
X97502305Y-107330454D01*
X97502309Y-107330455D01*
X97502310Y-107330456D01*
X97530883Y-107340454D01*
X97661943Y-107386314D01*
X97829997Y-107405249D01*
X97830000Y-107405249D01*
X97830003Y-107405249D01*
X97998056Y-107386314D01*
X97998059Y-107386313D01*
X98157690Y-107330456D01*
X98157692Y-107330454D01*
X98157694Y-107330454D01*
X98157697Y-107330452D01*
X98300884Y-107240481D01*
X98300885Y-107240480D01*
X98300890Y-107240477D01*
X98420477Y-107120890D01*
X98420481Y-107120884D01*
X98510452Y-106977697D01*
X98510454Y-106977694D01*
X98510454Y-106977692D01*
X98510456Y-106977690D01*
X98566313Y-106818059D01*
X98566313Y-106818058D01*
X98566314Y-106818056D01*
X98585249Y-106650002D01*
X98585249Y-106649997D01*
X98566314Y-106481943D01*
X98510454Y-106322305D01*
X98510452Y-106322302D01*
X98420481Y-106179115D01*
X98420476Y-106179109D01*
X98300890Y-106059523D01*
X98300884Y-106059518D01*
X98157697Y-105969547D01*
X98157694Y-105969545D01*
X97998056Y-105913685D01*
X97830003Y-105894751D01*
X97829997Y-105894751D01*
X97661943Y-105913685D01*
X97502305Y-105969545D01*
X97502302Y-105969547D01*
X97359115Y-106059518D01*
X97359109Y-106059523D01*
X97239523Y-106179109D01*
X97239518Y-106179115D01*
X97149547Y-106322302D01*
X97149545Y-106322305D01*
X97093685Y-106481943D01*
X97074751Y-106649997D01*
X97074751Y-106650002D01*
X94256237Y-106650002D01*
X94259671Y-105144217D01*
X94279509Y-105077223D01*
X94332417Y-105031588D01*
X94383671Y-105020500D01*
X99920421Y-105020500D01*
X99987460Y-105040185D01*
G37*
%TD.AperFunction*%
%TD*%
M02*
