%TF.GenerationSoftware,KiCad,Pcbnew,7.0.7*%
%TF.CreationDate,2023-11-22T02:03:25+00:00*%
%TF.ProjectId,IMUBoard1QwiicConnector,494d5542-6f61-4726-9431-517769696343,rev?*%
%TF.SameCoordinates,Original*%
%TF.FileFunction,Copper,L4,Bot*%
%TF.FilePolarity,Positive*%
%FSLAX46Y46*%
G04 Gerber Fmt 4.6, Leading zero omitted, Abs format (unit mm)*
G04 Created by KiCad (PCBNEW 7.0.7) date 2023-11-22 02:03:25*
%MOMM*%
%LPD*%
G01*
G04 APERTURE LIST*
G04 Aperture macros list*
%AMRoundRect*
0 Rectangle with rounded corners*
0 $1 Rounding radius*
0 $2 $3 $4 $5 $6 $7 $8 $9 X,Y pos of 4 corners*
0 Add a 4 corners polygon primitive as box body*
4,1,4,$2,$3,$4,$5,$6,$7,$8,$9,$2,$3,0*
0 Add four circle primitives for the rounded corners*
1,1,$1+$1,$2,$3*
1,1,$1+$1,$4,$5*
1,1,$1+$1,$6,$7*
1,1,$1+$1,$8,$9*
0 Add four rect primitives between the rounded corners*
20,1,$1+$1,$2,$3,$4,$5,0*
20,1,$1+$1,$4,$5,$6,$7,0*
20,1,$1+$1,$6,$7,$8,$9,0*
20,1,$1+$1,$8,$9,$2,$3,0*%
G04 Aperture macros list end*
%TA.AperFunction,SMDPad,CuDef*%
%ADD10R,0.675000X0.254000*%
%TD*%
%TA.AperFunction,SMDPad,CuDef*%
%ADD11R,0.254000X0.675000*%
%TD*%
%TA.AperFunction,SMDPad,CuDef*%
%ADD12RoundRect,0.140000X-0.140000X-0.170000X0.140000X-0.170000X0.140000X0.170000X-0.140000X0.170000X0*%
%TD*%
%TA.AperFunction,SMDPad,CuDef*%
%ADD13RoundRect,0.135000X0.135000X0.185000X-0.135000X0.185000X-0.135000X-0.185000X0.135000X-0.185000X0*%
%TD*%
%TA.AperFunction,SMDPad,CuDef*%
%ADD14R,1.100000X0.600000*%
%TD*%
%TA.AperFunction,ViaPad*%
%ADD15C,0.500000*%
%TD*%
%TA.AperFunction,Conductor*%
%ADD16C,0.127000*%
%TD*%
G04 APERTURE END LIST*
D10*
%TO.P,U1,1,PIN1/DNC*%
%TO.N,unconnected-(U1-PIN1{slash}DNC-Pad1)*%
X97627500Y-108220000D03*
D11*
%TO.P,U1,2,GND*%
%TO.N,GND*%
X98540000Y-108082500D03*
%TO.P,U1,3,VDD*%
%TO.N,+3V3*%
X99040000Y-108082500D03*
%TO.P,U1,4,BOOTN*%
%TO.N,Net-(U1-BOOTN)*%
X99540000Y-108082500D03*
%TO.P,U1,5,PS1*%
%TO.N,GND*%
X100040000Y-108082500D03*
D10*
%TO.P,U1,6,PS0/WAKE*%
X100952500Y-108220000D03*
%TO.P,U1,7,PIN7/DNC*%
%TO.N,unconnected-(U1-PIN7{slash}DNC-Pad7)*%
X100952500Y-108720000D03*
%TO.P,U1,8,PIN8/DNC*%
%TO.N,unconnected-(U1-PIN8{slash}DNC-Pad8)*%
X100952500Y-109220000D03*
%TO.P,U1,9,CAP*%
%TO.N,Net-(U1-CAP)*%
X100952500Y-109720000D03*
%TO.P,U1,10,CLKSEL0*%
%TO.N,GND*%
X100952500Y-110220000D03*
%TO.P,U1,11,NRST*%
%TO.N,Net-(U1-NRST)*%
X100952500Y-110720000D03*
%TO.P,U1,12,PIN12/DNC*%
%TO.N,unconnected-(U1-PIN12{slash}DNC-Pad12)*%
X100952500Y-111220000D03*
%TO.P,U1,13,PIN13/DNC*%
%TO.N,unconnected-(U1-PIN13{slash}DNC-Pad13)*%
X100952500Y-111720000D03*
%TO.P,U1,14,H_INTN*%
%TO.N,INT*%
X100952500Y-112220000D03*
%TO.P,U1,15,ENV_SCL*%
%TO.N,unconnected-(U1-ENV_SCL-Pad15)*%
X100952500Y-112720000D03*
D11*
%TO.P,U1,16,ENV_SDA*%
%TO.N,unconnected-(U1-ENV_SDA-Pad16)*%
X100040000Y-112857500D03*
%TO.P,U1,17,H_SA0/MOSI*%
%TO.N,+3V3*%
X99540000Y-112857500D03*
%TO.P,U1,18,H_CSN*%
%TO.N,GND*%
X99040000Y-112857500D03*
%TO.P,U1,19,H_SCL/SCLK/RX*%
%TO.N,SCL*%
X98540000Y-112857500D03*
D10*
%TO.P,U1,20,H_SDA/MISO/TX*%
%TO.N,SDA*%
X97627500Y-112720000D03*
%TO.P,U1,21,PIN21/DNC*%
%TO.N,unconnected-(U1-PIN21{slash}DNC-Pad21)*%
X97627500Y-112220000D03*
%TO.P,U1,22,PIN22/DNC*%
%TO.N,unconnected-(U1-PIN22{slash}DNC-Pad22)*%
X97627500Y-111720000D03*
%TO.P,U1,23,PIN23/DNC*%
%TO.N,unconnected-(U1-PIN23{slash}DNC-Pad23)*%
X97627500Y-111220000D03*
%TO.P,U1,24,PIN24/DNC*%
%TO.N,unconnected-(U1-PIN24{slash}DNC-Pad24)*%
X97627500Y-110720000D03*
%TO.P,U1,25,GND*%
%TO.N,GND*%
X97627500Y-110220000D03*
%TO.P,U1,26,CLKSEL1/XOUT32*%
%TO.N,Net-(U1-CLKSEL1{slash}XOUT32)*%
X97627500Y-109720000D03*
%TO.P,U1,27,XIN32*%
%TO.N,Net-(U1-XIN32)*%
X97627500Y-109220000D03*
%TO.P,U1,28,VDDIO*%
%TO.N,+3V3*%
X97627500Y-108720000D03*
%TD*%
D12*
%TO.P,C4,1*%
%TO.N,Net-(U1-CLKSEL1{slash}XOUT32)*%
X95650000Y-111320000D03*
%TO.P,C4,2*%
%TO.N,GND*%
X96610000Y-111320000D03*
%TD*%
D13*
%TO.P,R4,1*%
%TO.N,+3V3*%
X96620000Y-112250000D03*
%TO.P,R4,2*%
%TO.N,Net-(U1-NRST)*%
X95600000Y-112250000D03*
%TD*%
D14*
%TO.P,Y1,1,1*%
%TO.N,Net-(U1-CLKSEL1{slash}XOUT32)*%
X96140000Y-110260000D03*
%TO.P,Y1,2,2*%
%TO.N,Net-(U1-XIN32)*%
X96140000Y-108860000D03*
%TD*%
D12*
%TO.P,C5,1*%
%TO.N,Net-(U1-XIN32)*%
X95650000Y-107800000D03*
%TO.P,C5,2*%
%TO.N,GND*%
X96610000Y-107800000D03*
%TD*%
D15*
%TO.N,Net-(U1-CAP)*%
X100610000Y-105690000D03*
%TO.N,GND*%
X100610000Y-106650000D03*
%TO.N,Net-(U1-BOOTN)*%
X99680000Y-106660000D03*
%TO.N,Net-(U1-NRST)*%
X96630000Y-113019500D03*
%TO.N,SDA*%
X97770000Y-113120000D03*
%TO.N,+3V3*%
X96620000Y-112250000D03*
X98750000Y-105690000D03*
%TO.N,GND*%
X97830000Y-106650000D03*
%TO.N,Net-(U1-NRST)*%
X100120000Y-110730000D03*
%TO.N,GND*%
X99414229Y-111290562D03*
X100040000Y-109645000D03*
%TO.N,+3V3*%
X99440974Y-111990016D03*
X98630000Y-109707000D03*
%TO.N,SCL*%
X98414502Y-110733000D03*
%TD*%
D16*
%TO.N,GND*%
X97026500Y-110329500D02*
X97026500Y-110903500D01*
X97026500Y-110903500D02*
X96610000Y-111320000D01*
X97136000Y-110220000D02*
X97026500Y-110329500D01*
X97627500Y-110220000D02*
X97136000Y-110220000D01*
%TO.N,Net-(U1-NRST)*%
X100130000Y-110720000D02*
X100952500Y-110720000D01*
X100120000Y-110730000D02*
X100130000Y-110720000D01*
%TO.N,Net-(U1-CAP)*%
X101553500Y-106633500D02*
X100610000Y-105690000D01*
X101553500Y-109456500D02*
X101553500Y-106633500D01*
X100952500Y-109720000D02*
X101290000Y-109720000D01*
X101290000Y-109720000D02*
X101553500Y-109456500D01*
%TO.N,GND*%
X100040000Y-107220000D02*
X100610000Y-106650000D01*
X100040000Y-108082500D02*
X100040000Y-107220000D01*
%TO.N,Net-(U1-BOOTN)*%
X99540000Y-106800000D02*
X99680000Y-106660000D01*
X99540000Y-108082500D02*
X99540000Y-106800000D01*
%TO.N,+3V3*%
X98353471Y-108720000D02*
X97627500Y-108720000D01*
X98630000Y-108996529D02*
X98353471Y-108720000D01*
X98630000Y-109707000D02*
X98630000Y-108996529D01*
%TO.N,Net-(U1-NRST)*%
X96369500Y-113019500D02*
X96630000Y-113019500D01*
X95600000Y-112250000D02*
X96369500Y-113019500D01*
%TO.N,SDA*%
X97770000Y-112862500D02*
X97627500Y-112720000D01*
X97770000Y-113120000D02*
X97770000Y-112862500D01*
%TO.N,+3V3*%
X99040000Y-105980000D02*
X98750000Y-105690000D01*
X99040000Y-108082500D02*
X99040000Y-105980000D01*
%TO.N,GND*%
X97760000Y-106650000D02*
X97830000Y-106650000D01*
X96610000Y-107800000D02*
X97760000Y-106650000D01*
%TO.N,SCL*%
X98540000Y-110858498D02*
X98540000Y-112857500D01*
X98414502Y-110733000D02*
X98540000Y-110858498D01*
%TO.N,GND*%
X99465000Y-111239791D02*
X99414229Y-111290562D01*
X99465000Y-110220000D02*
X99465000Y-111239791D01*
%TO.N,Net-(U1-XIN32)*%
X96090000Y-108240000D02*
X95650000Y-107800000D01*
X96090000Y-108860000D02*
X96090000Y-108240000D01*
%TO.N,Net-(U1-CLKSEL1{slash}XOUT32)*%
X96090000Y-110260000D02*
X96090000Y-110870000D01*
X96090000Y-110870000D02*
X95640000Y-111320000D01*
X96090000Y-110260000D02*
X96630000Y-109720000D01*
X96630000Y-109720000D02*
X97627500Y-109720000D01*
%TO.N,Net-(U1-XIN32)*%
X96450000Y-109220000D02*
X97627500Y-109220000D01*
X96090000Y-108860000D02*
X96450000Y-109220000D01*
%TO.N,GND*%
X97627500Y-110220000D02*
X99465000Y-110220000D01*
X98927474Y-111777317D02*
X98927474Y-112202715D01*
X98927474Y-112202715D02*
X99040000Y-112315241D01*
X99040000Y-112315241D02*
X99040000Y-112857500D01*
X99466000Y-109071000D02*
X100040000Y-109645000D01*
X99465000Y-110220000D02*
X100040000Y-109645000D01*
X98540000Y-108082500D02*
X98540000Y-108420000D01*
X99191000Y-109071000D02*
X99466000Y-109071000D01*
X100952500Y-108220000D02*
X100177500Y-108220000D01*
X98540000Y-108420000D02*
X99191000Y-109071000D01*
X99414229Y-111290562D02*
X98927474Y-111777317D01*
X100952500Y-110220000D02*
X100615000Y-110220000D01*
X100177500Y-108220000D02*
X100040000Y-108082500D01*
X100615000Y-110220000D02*
X100040000Y-109645000D01*
X100040000Y-109645000D02*
X100040000Y-108082500D01*
%TO.N,+3V3*%
X99540000Y-112857500D02*
X99540000Y-112089042D01*
X99540000Y-112857500D02*
X99553500Y-112844000D01*
X99540000Y-112089042D02*
X99440974Y-111990016D01*
%TD*%
M02*
