%TF.GenerationSoftware,KiCad,Pcbnew,7.0.7*%
%TF.CreationDate,2023-11-22T02:03:25+00:00*%
%TF.ProjectId,IMUBoard1QwiicConnector,494d5542-6f61-4726-9431-517769696343,rev?*%
%TF.SameCoordinates,Original*%
%TF.FileFunction,Copper,L1,Top*%
%TF.FilePolarity,Positive*%
%FSLAX46Y46*%
G04 Gerber Fmt 4.6, Leading zero omitted, Abs format (unit mm)*
G04 Created by KiCad (PCBNEW 7.0.7) date 2023-11-22 02:03:25*
%MOMM*%
%LPD*%
G01*
G04 APERTURE LIST*
G04 Aperture macros list*
%AMRoundRect*
0 Rectangle with rounded corners*
0 $1 Rounding radius*
0 $2 $3 $4 $5 $6 $7 $8 $9 X,Y pos of 4 corners*
0 Add a 4 corners polygon primitive as box body*
4,1,4,$2,$3,$4,$5,$6,$7,$8,$9,$2,$3,0*
0 Add four circle primitives for the rounded corners*
1,1,$1+$1,$2,$3*
1,1,$1+$1,$4,$5*
1,1,$1+$1,$6,$7*
1,1,$1+$1,$8,$9*
0 Add four rect primitives between the rounded corners*
20,1,$1+$1,$2,$3,$4,$5,0*
20,1,$1+$1,$4,$5,$6,$7,0*
20,1,$1+$1,$6,$7,$8,$9,0*
20,1,$1+$1,$8,$9,$2,$3,0*%
G04 Aperture macros list end*
%TA.AperFunction,SMDPad,CuDef*%
%ADD10RoundRect,0.135000X0.185000X-0.135000X0.185000X0.135000X-0.185000X0.135000X-0.185000X-0.135000X0*%
%TD*%
%TA.AperFunction,SMDPad,CuDef*%
%ADD11RoundRect,0.140000X0.170000X-0.140000X0.170000X0.140000X-0.170000X0.140000X-0.170000X-0.140000X0*%
%TD*%
%TA.AperFunction,SMDPad,CuDef*%
%ADD12RoundRect,0.135000X-0.185000X0.135000X-0.185000X-0.135000X0.185000X-0.135000X0.185000X0.135000X0*%
%TD*%
%TA.AperFunction,SMDPad,CuDef*%
%ADD13RoundRect,0.150000X-0.150000X-0.625000X0.150000X-0.625000X0.150000X0.625000X-0.150000X0.625000X0*%
%TD*%
%TA.AperFunction,SMDPad,CuDef*%
%ADD14RoundRect,0.250000X-0.350000X-0.650000X0.350000X-0.650000X0.350000X0.650000X-0.350000X0.650000X0*%
%TD*%
%TA.AperFunction,SMDPad,CuDef*%
%ADD15RoundRect,0.140000X-0.170000X0.140000X-0.170000X-0.140000X0.170000X-0.140000X0.170000X0.140000X0*%
%TD*%
%TA.AperFunction,ViaPad*%
%ADD16C,0.500000*%
%TD*%
%TA.AperFunction,Conductor*%
%ADD17C,0.127000*%
%TD*%
G04 APERTURE END LIST*
D10*
%TO.P,R3,1*%
%TO.N,Net-(U1-BOOTN)*%
X99680000Y-106660000D03*
%TO.P,R3,2*%
%TO.N,+3V3*%
X99680000Y-105640000D03*
%TD*%
D11*
%TO.P,C2,1*%
%TO.N,GND*%
X97830000Y-106650000D03*
%TO.P,C2,2*%
%TO.N,+3V3*%
X97830000Y-105690000D03*
%TD*%
D12*
%TO.P,R2,2*%
%TO.N,SDA*%
X95960000Y-106660000D03*
%TO.P,R2,1*%
%TO.N,+3V3*%
X95960000Y-105640000D03*
%TD*%
D13*
%TO.P,J1,1,Pin_1*%
%TO.N,+3V3*%
X96770000Y-108360000D03*
%TO.P,J1,2,Pin_2*%
%TO.N,SDA*%
X97770000Y-108360000D03*
%TO.P,J1,3,Pin_3*%
%TO.N,SCL*%
X98770000Y-108360000D03*
%TO.P,J1,4,Pin_4*%
%TO.N,GND*%
X99770000Y-108360000D03*
D14*
%TO.P,J1,MP*%
%TO.N,N/C*%
X95470000Y-112235000D03*
X101070000Y-112235000D03*
%TD*%
D12*
%TO.P,R1,1*%
%TO.N,+3V3*%
X96900000Y-105640000D03*
%TO.P,R1,2*%
%TO.N,SCL*%
X96900000Y-106660000D03*
%TD*%
D11*
%TO.P,C1,1*%
%TO.N,GND*%
X100610000Y-106650000D03*
%TO.P,C1,2*%
%TO.N,Net-(U1-CAP)*%
X100610000Y-105690000D03*
%TD*%
D15*
%TO.P,C6,1*%
%TO.N,+3V3*%
X98750000Y-105690000D03*
%TO.P,C6,2*%
%TO.N,GND*%
X98750000Y-106650000D03*
%TD*%
D16*
%TO.N,Net-(U1-CAP)*%
X100610000Y-105690000D03*
%TO.N,GND*%
X100610000Y-106650000D03*
%TO.N,Net-(U1-BOOTN)*%
X99680000Y-106660000D03*
%TO.N,Net-(U1-NRST)*%
X96630000Y-113019500D03*
%TO.N,SDA*%
X97770000Y-113120000D03*
%TO.N,+3V3*%
X96620000Y-112250000D03*
X98750000Y-105690000D03*
%TO.N,GND*%
X97830000Y-106650000D03*
%TO.N,Net-(U1-NRST)*%
X100120000Y-110730000D03*
%TO.N,GND*%
X99414229Y-111290562D03*
X100040000Y-109645000D03*
%TO.N,+3V3*%
X99440974Y-111990016D03*
X98630000Y-109707000D03*
%TO.N,SCL*%
X98414502Y-110733000D03*
%TD*%
D17*
%TO.N,+3V3*%
X98800000Y-105640000D02*
X98750000Y-105690000D01*
X99680000Y-105640000D02*
X98800000Y-105640000D01*
%TO.N,SCL*%
X98116500Y-110434998D02*
X98414502Y-110733000D01*
X98770000Y-108719777D02*
X98116500Y-109373277D01*
X98116500Y-109373277D02*
X98116500Y-110434998D01*
X98770000Y-108360000D02*
X98770000Y-108719777D01*
%TO.N,SDA*%
X97770000Y-108360000D02*
X97770000Y-113120000D01*
%TO.N,GND*%
X99770000Y-109375000D02*
X100040000Y-109645000D01*
X99770000Y-108360000D02*
X99770000Y-109375000D01*
%TO.N,SCL*%
X97433500Y-107193500D02*
X96900000Y-106660000D01*
X97963277Y-107193500D02*
X97433500Y-107193500D01*
X98770000Y-108000223D02*
X97963277Y-107193500D01*
X98770000Y-108360000D02*
X98770000Y-108000223D01*
%TO.N,SDA*%
X96493500Y-107193500D02*
X95960000Y-106660000D01*
X96963277Y-107193500D02*
X96493500Y-107193500D01*
X97770000Y-108000223D02*
X96963277Y-107193500D01*
X97770000Y-108360000D02*
X97770000Y-108000223D01*
%TO.N,GND*%
X97830000Y-106650000D02*
X98750000Y-106650000D01*
%TO.N,+3V3*%
X97830000Y-105690000D02*
X98750000Y-105690000D01*
X97780000Y-105640000D02*
X97830000Y-105690000D01*
X96900000Y-105640000D02*
X97780000Y-105640000D01*
X95960000Y-105640000D02*
X96900000Y-105640000D01*
X95376500Y-106966500D02*
X95376500Y-106223500D01*
X95376500Y-106223500D02*
X95960000Y-105640000D01*
X96770000Y-108360000D02*
X95376500Y-106966500D01*
%TD*%
M02*
