%TF.GenerationSoftware,KiCad,Pcbnew,7.0.7*%
%TF.CreationDate,2023-11-22T02:03:25+00:00*%
%TF.ProjectId,IMUBoard1QwiicConnector,494d5542-6f61-4726-9431-517769696343,rev?*%
%TF.SameCoordinates,Original*%
%TF.FileFunction,Legend,Bot*%
%TF.FilePolarity,Positive*%
%FSLAX46Y46*%
G04 Gerber Fmt 4.6, Leading zero omitted, Abs format (unit mm)*
G04 Created by KiCad (PCBNEW 7.0.7) date 2023-11-22 02:03:25*
%MOMM*%
%LPD*%
G01*
G04 APERTURE LIST*
%ADD10C,0.150000*%
%ADD11C,0.120000*%
G04 APERTURE END LIST*
D10*
X99941904Y-106224819D02*
X99941904Y-107034342D01*
X99941904Y-107034342D02*
X99894285Y-107129580D01*
X99894285Y-107129580D02*
X99846666Y-107177200D01*
X99846666Y-107177200D02*
X99751428Y-107224819D01*
X99751428Y-107224819D02*
X99560952Y-107224819D01*
X99560952Y-107224819D02*
X99465714Y-107177200D01*
X99465714Y-107177200D02*
X99418095Y-107129580D01*
X99418095Y-107129580D02*
X99370476Y-107034342D01*
X99370476Y-107034342D02*
X99370476Y-106224819D01*
X98370476Y-107224819D02*
X98941904Y-107224819D01*
X98656190Y-107224819D02*
X98656190Y-106224819D01*
X98656190Y-106224819D02*
X98751428Y-106367676D01*
X98751428Y-106367676D02*
X98846666Y-106462914D01*
X98846666Y-106462914D02*
X98941904Y-106510533D01*
X95369580Y-110903333D02*
X95417200Y-110855714D01*
X95417200Y-110855714D02*
X95464819Y-110712857D01*
X95464819Y-110712857D02*
X95464819Y-110617619D01*
X95464819Y-110617619D02*
X95417200Y-110474762D01*
X95417200Y-110474762D02*
X95321961Y-110379524D01*
X95321961Y-110379524D02*
X95226723Y-110331905D01*
X95226723Y-110331905D02*
X95036247Y-110284286D01*
X95036247Y-110284286D02*
X94893390Y-110284286D01*
X94893390Y-110284286D02*
X94702914Y-110331905D01*
X94702914Y-110331905D02*
X94607676Y-110379524D01*
X94607676Y-110379524D02*
X94512438Y-110474762D01*
X94512438Y-110474762D02*
X94464819Y-110617619D01*
X94464819Y-110617619D02*
X94464819Y-110712857D01*
X94464819Y-110712857D02*
X94512438Y-110855714D01*
X94512438Y-110855714D02*
X94560057Y-110903333D01*
X94798152Y-111760476D02*
X95464819Y-111760476D01*
X94417200Y-111522381D02*
X95131485Y-111284286D01*
X95131485Y-111284286D02*
X95131485Y-111903333D01*
X95796666Y-113594819D02*
X96129999Y-113118628D01*
X96368094Y-113594819D02*
X96368094Y-112594819D01*
X96368094Y-112594819D02*
X95987142Y-112594819D01*
X95987142Y-112594819D02*
X95891904Y-112642438D01*
X95891904Y-112642438D02*
X95844285Y-112690057D01*
X95844285Y-112690057D02*
X95796666Y-112785295D01*
X95796666Y-112785295D02*
X95796666Y-112928152D01*
X95796666Y-112928152D02*
X95844285Y-113023390D01*
X95844285Y-113023390D02*
X95891904Y-113071009D01*
X95891904Y-113071009D02*
X95987142Y-113118628D01*
X95987142Y-113118628D02*
X96368094Y-113118628D01*
X94939523Y-112928152D02*
X94939523Y-113594819D01*
X95177618Y-112547200D02*
X95415713Y-113261485D01*
X95415713Y-113261485D02*
X94796666Y-113261485D01*
X94868628Y-108373809D02*
X95344819Y-108373809D01*
X94344819Y-108040476D02*
X94868628Y-108373809D01*
X94868628Y-108373809D02*
X94344819Y-108707142D01*
X95344819Y-109564285D02*
X95344819Y-108992857D01*
X95344819Y-109278571D02*
X94344819Y-109278571D01*
X94344819Y-109278571D02*
X94487676Y-109183333D01*
X94487676Y-109183333D02*
X94582914Y-109088095D01*
X94582914Y-109088095D02*
X94630533Y-108992857D01*
X96306666Y-107239580D02*
X96354285Y-107287200D01*
X96354285Y-107287200D02*
X96497142Y-107334819D01*
X96497142Y-107334819D02*
X96592380Y-107334819D01*
X96592380Y-107334819D02*
X96735237Y-107287200D01*
X96735237Y-107287200D02*
X96830475Y-107191961D01*
X96830475Y-107191961D02*
X96878094Y-107096723D01*
X96878094Y-107096723D02*
X96925713Y-106906247D01*
X96925713Y-106906247D02*
X96925713Y-106763390D01*
X96925713Y-106763390D02*
X96878094Y-106572914D01*
X96878094Y-106572914D02*
X96830475Y-106477676D01*
X96830475Y-106477676D02*
X96735237Y-106382438D01*
X96735237Y-106382438D02*
X96592380Y-106334819D01*
X96592380Y-106334819D02*
X96497142Y-106334819D01*
X96497142Y-106334819D02*
X96354285Y-106382438D01*
X96354285Y-106382438D02*
X96306666Y-106430057D01*
X95401904Y-106334819D02*
X95878094Y-106334819D01*
X95878094Y-106334819D02*
X95925713Y-106811009D01*
X95925713Y-106811009D02*
X95878094Y-106763390D01*
X95878094Y-106763390D02*
X95782856Y-106715771D01*
X95782856Y-106715771D02*
X95544761Y-106715771D01*
X95544761Y-106715771D02*
X95449523Y-106763390D01*
X95449523Y-106763390D02*
X95401904Y-106811009D01*
X95401904Y-106811009D02*
X95354285Y-106906247D01*
X95354285Y-106906247D02*
X95354285Y-107144342D01*
X95354285Y-107144342D02*
X95401904Y-107239580D01*
X95401904Y-107239580D02*
X95449523Y-107287200D01*
X95449523Y-107287200D02*
X95544761Y-107334819D01*
X95544761Y-107334819D02*
X95782856Y-107334819D01*
X95782856Y-107334819D02*
X95878094Y-107287200D01*
X95878094Y-107287200D02*
X95925713Y-107239580D01*
D11*
%TO.C,U1*%
X101300000Y-107760000D02*
X101040000Y-107760000D01*
X101300000Y-107760000D02*
X101300000Y-108020000D01*
X97280000Y-107760000D02*
X97280000Y-108020000D01*
X101300000Y-113180000D02*
X101300000Y-112920000D01*
X101300000Y-113180000D02*
X101040000Y-113180000D01*
X97280000Y-113180000D02*
X97280000Y-112920000D01*
X97280000Y-113180000D02*
X97540000Y-113180000D01*
%TO.C,C4*%
X96022164Y-110960000D02*
X96237836Y-110960000D01*
X96022164Y-111680000D02*
X96237836Y-111680000D01*
%TO.C,R4*%
X96263641Y-112630000D02*
X95956359Y-112630000D01*
X96263641Y-111870000D02*
X95956359Y-111870000D01*
%TO.C,Y1*%
X95340000Y-110760000D02*
X95340000Y-108360000D01*
X96940000Y-110760000D02*
X95340000Y-110760000D01*
X96940000Y-108360000D02*
X96940000Y-110760000D01*
%TO.C,C5*%
X96022164Y-107440000D02*
X96237836Y-107440000D01*
X96022164Y-108160000D02*
X96237836Y-108160000D01*
%TD*%
M02*
